<svg width="152.000000" height="151.000000" viewBox="0 0 152 151" fill="none" xmlns="http://www.w3.org/2000/svg" xmlns:xlink="http://www.w3.org/1999/xlink">
	<desc>
			Created with Pixso.
	</desc>
	<defs/>
	<path id="LOGOVector" d="M53.14 52.79L99.38 52.79L99.38 98.73L53.14 98.73L53.14 52.79Z" fill="#2D2650" fill-opacity="1.000000" fill-rule="nonzero"/>
	<path id="LOGOVector" d="M152 75.5C152 117.19 117.97 151 76 151C34.02 151 0 117.19 0 75.5C0 33.8 34.02 0 76 0C117.97 0 152 33.8 152 75.5ZM76 129.35C105.64 129.35 129.67 105.47 129.67 76.02C129.67 46.57 105.64 22.7 76 22.7C46.35 22.7 22.32 46.57 22.32 76.02C22.32 105.47 46.35 129.35 76 129.35Z" fill="#DFDC01" fill-opacity="1.000000" fill-rule="evenodd"/>
</svg>
