<svg width="288" height="272" viewBox="0 0 288 272" fill="none" xmlns="http://www.w3.org/2000/svg">
<g clip-path="url(#clip0_625_6967)">
<path d="M181.333 14.2715H113.333V36.9382H90.6667V59.6048H45.3333V82.2715H22.6667V104.938H0V172.938H22.6667V195.605H249.333V172.938H272V104.938H249.333V82.2715H226.667V59.6048H204V36.9382H181.333V14.2715ZM204 104.938H249.333V172.938H22.6667V104.938H45.3333V82.2715H90.6667V104.938H113.333V82.2715H90.6667V59.6048H113.333V36.9382H181.333V59.6048H204V104.938ZM204 104.938V127.605H181.333V104.938H204Z" fill="#DFDC01"/>
<path fill-rule="evenodd" clip-rule="evenodd" d="M96.3331 94.0249H148.592V111.445H96.3331V94.0249ZM78.9134 128.864H96.3331V111.445H78.9134V128.864ZM44.0739 146.284H78.9134V128.864H44.0739V146.284ZM26.6541 163.704H44.0739V146.284H26.6541V163.704ZM26.6541 215.963V163.704H9.23438V215.963H26.6541ZM200.852 215.963H26.6541V233.383H200.852V215.963ZM200.852 163.704H218.271V215.963H200.852V163.704ZM166.012 128.864H148.592V111.445H166.012V128.864ZM166.012 128.864V163.704H200.852V146.284H183.432V128.864H166.012Z" fill="#2D2650"/>
</g>
<defs>
<clipPath id="clip0_625_6967">
<rect width="272" height="272" fill="white"/>
</clipPath>
</defs>
</svg>
