<svg width="272" height="272" viewBox="0 0 272 272" fill="none" xmlns="http://www.w3.org/2000/svg">
<g clip-path="url(#clip0_625_7013)">
<path d="M90.6667 0V22.65H22.6667V79.1748H0V22.65V0H22.6667H90.6667Z" fill="#DFDC01"/>
<path d="M181.333 22.65V0H249.333H272V22.65V79.1748H249.333V22.65H181.333Z" fill="#DFDC01"/>
<path d="M90.6667 249.35V272H22.6667H0V249.35V192.826H22.6667V249.35H90.6667Z" fill="#DFDC01"/>
<path d="M181.333 249.35V272H249.333H272V249.35V192.826H249.333V249.35H181.333Z" fill="#DFDC01"/>
<path d="M103.779 76.7549H168.22V93.6221H103.779V76.7549ZM71.5592 110.489V93.6221H103.779V110.489H71.5592ZM55.449 127.356V110.489H71.5592V127.356H55.449ZM55.449 144.224V127.356H39.3389V144.224H55.449ZM71.5592 161.091H55.449V144.224H71.5592V161.091ZM103.779 177.958H71.5592V161.091H103.779V177.958ZM168.22 177.958V194.825H103.779V177.958H168.22ZM200.44 161.091V177.958H168.22V161.091H200.44ZM216.551 144.224V161.091H200.44V144.224H216.551ZM216.551 127.356H232.661V144.224H216.551V127.356ZM200.44 110.489H216.551V127.356H200.44V110.489ZM200.44 110.489V93.6221H168.22V110.489H200.44Z" fill="#2D2650"/>
<path d="M150.375 120.739H121.624V150.841H150.375V120.739Z" fill="#DFDC01"/>
</g>
<defs>
<clipPath id="clip0_625_7013">
<rect width="272" height="272" fill="white"/>
</clipPath>
</defs>
</svg>
