<svg width="273" height="272" viewBox="0 0 273 272" fill="none" xmlns="http://www.w3.org/2000/svg">
<g clip-path="url(#clip0_625_7089)">
<path d="M270.084 0H2.55664V161.411H25.7314V23.1748H246.909V161.411H270.084V0ZM53.3787 161.411H25.7314V189.058H53.3787V161.411ZM53.3787 189.058H81.0259V216.706H108.673V244.353H81.0259V216.706H53.3787V189.058ZM108.673 244.353V272H163.968V244.353H191.615V216.706H163.968V244.353H108.673ZM246.909 161.411H219.262V189.058H191.615V216.706H219.262V189.058H246.909V161.411Z" fill="#2D2650"/>
<path fill-rule="evenodd" clip-rule="evenodd" d="M109.553 95.4751H93.5068V170.357H179.087V95.4751H163.04H152.343H120.251H109.553ZM168.389 106.173H120.251H104.204V159.66H168.389V106.173Z" fill="#DFDC01"/>
<path d="M141.645 122.219H130.948V143.614H141.645V122.219Z" fill="#DFDC01"/>
<path d="M120.251 63.3828H152.344V74.0803H163.041V95.4752H152.344V74.0803H120.251V95.4752H109.554V74.0803H120.251V63.3828Z" fill="#DFDC01"/>
</g>
<defs>
<clipPath id="clip0_625_7089">
<rect width="272" height="272" fill="white" transform="translate(0.322266)"/>
</clipPath>
</defs>
</svg>
