<svg width="136" height="42" viewBox="0 0 136 42" fill="none" xmlns="http://www.w3.org/2000/svg">
<path d="M19.9839 40.9788C19.9839 41.5428 19.5399 42.0001 18.9923 42.0001C18.4447 42.0001 18.0007 41.5428 18.0007 40.9788C18.0007 40.4147 18.4447 39.9575 18.9923 39.9575C19.5399 39.9575 19.9839 40.4147 19.9839 40.9788Z" fill="#4A399D"/>
<path d="M19.9839 37.915C19.9839 38.479 19.5399 38.9362 18.9923 38.9362C18.4447 38.9362 18.0007 38.479 18.0007 37.915C18.0007 37.3509 18.4447 36.8937 18.9923 36.8937C19.5399 36.8937 19.9839 37.3509 19.9839 37.915Z" fill="#4A399D"/>
<path d="M19.9839 34.8512C19.9839 35.4152 19.5399 35.8724 18.9923 35.8724C18.4447 35.8724 18.0007 35.4152 18.0007 34.8512C18.0007 34.2871 18.4447 33.8299 18.9923 33.8299C19.5399 33.8299 19.9839 34.2871 19.9839 34.8512Z" fill="#4A399D"/>
<path d="M22.9587 40.9788C22.9587 41.5428 22.5148 42.0001 21.9671 42.0001C21.4195 42.0001 20.9755 41.5428 20.9755 40.9788C20.9755 40.4147 21.4195 39.9575 21.9671 39.9575C22.5148 39.9575 22.9587 40.4147 22.9587 40.9788Z" fill="#4A399D"/>
<path d="M22.9587 37.915C22.9587 38.479 22.5148 38.9362 21.9671 38.9362C21.4195 38.9362 20.9755 38.479 20.9755 37.915C20.9755 37.3509 21.4195 36.8937 21.9671 36.8937C22.5148 36.8937 22.9587 37.3509 22.9587 37.915Z" fill="#4A399D"/>
<path d="M22.9587 34.8512C22.9587 35.4152 22.5148 35.8724 21.9671 35.8724C21.4195 35.8724 20.9755 35.4152 20.9755 34.8512C20.9755 34.2871 21.4195 33.8299 21.9671 33.8299C22.5148 33.8299 22.9587 34.2871 22.9587 34.8512Z" fill="#4A399D"/>
<path d="M25.9335 40.9788C25.9335 41.5428 25.4896 42.0001 24.9419 42.0001C24.3943 42.0001 23.9503 41.5428 23.9503 40.9788C23.9503 40.4147 24.3943 39.9575 24.9419 39.9575C25.4896 39.9575 25.9335 40.4147 25.9335 40.9788Z" fill="#4A399D"/>
<path d="M25.9335 37.915C25.9335 38.479 25.4896 38.9362 24.9419 38.9362C24.3943 38.9362 23.9503 38.479 23.9503 37.915C23.9503 37.3509 24.3943 36.8937 24.9419 36.8937C25.4896 36.8937 25.9335 37.3509 25.9335 37.915Z" fill="#4A399D"/>
<path d="M25.9335 34.8512C25.9335 35.4152 25.4896 35.8724 24.9419 35.8724C24.3943 35.8724 23.9503 35.4152 23.9503 34.8512C23.9503 34.2871 24.3943 33.8299 24.9419 33.8299C25.4896 33.8299 25.9335 34.2871 25.9335 34.8512Z" fill="#4A399D"/>
<path d="M28.9083 40.9788C28.9083 41.5428 28.4643 42.0001 27.9167 42.0001C27.369 42.0001 26.9251 41.5428 26.9251 40.9788C26.9251 40.4147 27.369 39.9575 27.9167 39.9575C28.4643 39.9575 28.9083 40.4147 28.9083 40.9788Z" fill="#4A399D"/>
<path d="M28.9083 37.915C28.9083 38.479 28.4643 38.9362 27.9167 38.9362C27.369 38.9362 26.9251 38.479 26.9251 37.915C26.9251 37.3509 27.369 36.8937 27.9167 36.8937C28.4643 36.8937 28.9083 37.3509 28.9083 37.915Z" fill="#4A399D"/>
<path d="M28.9083 34.8512C28.9083 35.4152 28.4643 35.8724 27.9167 35.8724C27.369 35.8724 26.9251 35.4152 26.9251 34.8512C26.9251 34.2871 27.369 33.8299 27.9167 33.8299C28.4643 33.8299 28.9083 34.2871 28.9083 34.8512Z" fill="#4A399D"/>
<path d="M31.8831 40.9788C31.8831 41.5428 31.4391 42.0001 30.8915 42.0001C30.3438 42.0001 29.8999 41.5428 29.8999 40.9788C29.8999 40.4147 30.3438 39.9575 30.8915 39.9575C31.4391 39.9575 31.8831 40.4147 31.8831 40.9788Z" fill="#4A399D"/>
<path d="M31.8831 37.915C31.8831 38.479 31.4391 38.9362 30.8915 38.9362C30.3438 38.9362 29.8999 38.479 29.8999 37.915C29.8999 37.3509 30.3438 36.8937 30.8915 36.8937C31.4391 36.8937 31.8831 37.3509 31.8831 37.915Z" fill="#4A399D"/>
<path d="M31.8831 34.8512C31.8831 35.4152 31.4391 35.8724 30.8915 35.8724C30.3438 35.8724 29.8999 35.4152 29.8999 34.8512C29.8999 34.2871 30.3438 33.8299 30.8915 33.8299C31.4391 33.8299 31.8831 34.2871 31.8831 34.8512Z" fill="#4A399D"/>
<path d="M34.8579 40.9788C34.8579 41.5428 34.4139 42.0001 33.8663 42.0001C33.3186 42.0001 32.8747 41.5428 32.8747 40.9788C32.8747 40.4147 33.3186 39.9575 33.8663 39.9575C34.4139 39.9575 34.8579 40.4147 34.8579 40.9788Z" fill="#4A399D"/>
<path d="M34.8579 37.915C34.8579 38.479 34.4139 38.9362 33.8663 38.9362C33.3186 38.9362 32.8747 38.479 32.8747 37.915C32.8747 37.3509 33.3186 36.8937 33.8663 36.8937C34.4139 36.8937 34.8579 37.3509 34.8579 37.915Z" fill="#4A399D"/>
<path d="M34.8579 34.8512C34.8579 35.4152 34.4139 35.8724 33.8663 35.8724C33.3186 35.8724 32.8747 35.4152 32.8747 34.8512C32.8747 34.2871 33.3186 33.8299 33.8663 33.8299C34.4139 33.8299 34.8579 34.2871 34.8579 34.8512Z" fill="#4A399D"/>
<path d="M37.8327 40.9788C37.8327 41.5428 37.3887 42.0001 36.8411 42.0001C36.2934 42.0001 35.8495 41.5428 35.8495 40.9788C35.8495 40.4147 36.2934 39.9575 36.8411 39.9575C37.3887 39.9575 37.8327 40.4147 37.8327 40.9788Z" fill="#4A399D"/>
<path d="M37.8327 37.915C37.8327 38.479 37.3887 38.9362 36.8411 38.9362C36.2934 38.9362 35.8495 38.479 35.8495 37.915C35.8495 37.3509 36.2934 36.8937 36.8411 36.8937C37.3887 36.8937 37.8327 37.3509 37.8327 37.915Z" fill="#4A399D"/>
<path d="M37.8327 34.8512C37.8327 35.4152 37.3887 35.8724 36.8411 35.8724C36.2934 35.8724 35.8495 35.4152 35.8495 34.8512C35.8495 34.2871 36.2934 33.8299 36.8411 33.8299C37.3887 33.8299 37.8327 34.2871 37.8327 34.8512Z" fill="#4A399D"/>
<path d="M40.8074 40.9788C40.8074 41.5428 40.3635 42.0001 39.8158 42.0001C39.2682 42.0001 38.8242 41.5428 38.8242 40.9788C38.8242 40.4147 39.2682 39.9575 39.8158 39.9575C40.3635 39.9575 40.8074 40.4147 40.8074 40.9788Z" fill="#4A399D"/>
<path d="M40.8074 37.915C40.8074 38.479 40.3635 38.9362 39.8158 38.9362C39.2682 38.9362 38.8242 38.479 38.8242 37.915C38.8242 37.3509 39.2682 36.8937 39.8158 36.8937C40.3635 36.8937 40.8074 37.3509 40.8074 37.915Z" fill="#4A399D"/>
<path d="M40.8074 34.8512C40.8074 35.4152 40.3635 35.8724 39.8158 35.8724C39.2682 35.8724 38.8242 35.4152 38.8242 34.8512C38.8242 34.2871 39.2682 33.8299 39.8158 33.8299C40.3635 33.8299 40.8074 34.2871 40.8074 34.8512Z" fill="#4A399D"/>
<path d="M43.7822 40.9788C43.7822 41.5428 43.3383 42.0001 42.7906 42.0001C42.243 42.0001 41.799 41.5428 41.799 40.9788C41.799 40.4147 42.243 39.9575 42.7906 39.9575C43.3383 39.9575 43.7822 40.4147 43.7822 40.9788Z" fill="#4A399D"/>
<path d="M43.7822 37.915C43.7822 38.479 43.3383 38.9362 42.7906 38.9362C42.243 38.9362 41.799 38.479 41.799 37.915C41.799 37.3509 42.243 36.8937 42.7906 36.8937C43.3383 36.8937 43.7822 37.3509 43.7822 37.915Z" fill="#4A399D"/>
<path d="M43.7822 34.8512C43.7822 35.4152 43.3383 35.8724 42.7906 35.8724C42.243 35.8724 41.799 35.4152 41.799 34.8512C41.799 34.2871 42.243 33.8299 42.7906 33.8299C43.3383 33.8299 43.7822 34.2871 43.7822 34.8512Z" fill="#4A399D"/>
<path d="M46.757 40.9788C46.757 41.5428 46.3131 42.0001 45.7654 42.0001C45.2178 42.0001 44.7738 41.5428 44.7738 40.9788C44.7738 40.4147 45.2178 39.9575 45.7654 39.9575C46.3131 39.9575 46.757 40.4147 46.757 40.9788Z" fill="#4A399D"/>
<path d="M46.757 37.915C46.757 38.479 46.3131 38.9362 45.7654 38.9362C45.2178 38.9362 44.7738 38.479 44.7738 37.915C44.7738 37.3509 45.2178 36.8937 45.7654 36.8937C46.3131 36.8937 46.757 37.3509 46.757 37.915Z" fill="#4A399D"/>
<path d="M46.757 34.8512C46.757 35.4152 46.3131 35.8724 45.7654 35.8724C45.2178 35.8724 44.7738 35.4152 44.7738 34.8512C44.7738 34.2871 45.2178 33.8299 45.7654 33.8299C46.3131 33.8299 46.757 34.2871 46.757 34.8512Z" fill="#4A399D"/>
<path d="M49.7318 40.9788C49.7318 41.5428 49.2879 42.0001 48.7402 42.0001C48.1926 42.0001 47.7486 41.5428 47.7486 40.9788C47.7486 40.4147 48.1926 39.9575 48.7402 39.9575C49.2879 39.9575 49.7318 40.4147 49.7318 40.9788Z" fill="#4A399D"/>
<path d="M49.7318 37.915C49.7318 38.479 49.2879 38.9362 48.7402 38.9362C48.1926 38.9362 47.7486 38.479 47.7486 37.915C47.7486 37.3509 48.1926 36.8937 48.7402 36.8937C49.2879 36.8937 49.7318 37.3509 49.7318 37.915Z" fill="#4A399D"/>
<path d="M49.7318 34.8512C49.7318 35.4152 49.2879 35.8724 48.7402 35.8724C48.1926 35.8724 47.7486 35.4152 47.7486 34.8512C47.7486 34.2871 48.1926 33.8299 48.7402 33.8299C49.2879 33.8299 49.7318 34.2871 49.7318 34.8512Z" fill="#4A399D"/>
<path d="M52.7066 40.9788C52.7066 41.5428 52.2627 42.0001 51.715 42.0001C51.1674 42.0001 50.7234 41.5428 50.7234 40.9788C50.7234 40.4147 51.1674 39.9575 51.715 39.9575C52.2627 39.9575 52.7066 40.4147 52.7066 40.9788Z" fill="#4A399D"/>
<path d="M52.7066 37.915C52.7066 38.479 52.2627 38.9362 51.715 38.9362C51.1674 38.9362 50.7234 38.479 50.7234 37.915C50.7234 37.3509 51.1674 36.8937 51.715 36.8937C52.2627 36.8937 52.7066 37.3509 52.7066 37.915Z" fill="#4A399D"/>
<path d="M52.7066 34.8512C52.7066 35.4152 52.2627 35.8724 51.715 35.8724C51.1674 35.8724 50.7234 35.4152 50.7234 34.8512C50.7234 34.2871 51.1674 33.8299 51.715 33.8299C52.2627 33.8299 52.7066 34.2871 52.7066 34.8512Z" fill="#4A399D"/>
<path d="M55.6814 40.9788C55.6814 41.5428 55.2374 42.0001 54.6898 42.0001C54.1422 42.0001 53.6982 41.5428 53.6982 40.9788C53.6982 40.4147 54.1422 39.9575 54.6898 39.9575C55.2374 39.9575 55.6814 40.4147 55.6814 40.9788Z" fill="#4A399D"/>
<path d="M55.6814 37.915C55.6814 38.479 55.2374 38.9362 54.6898 38.9362C54.1422 38.9362 53.6982 38.479 53.6982 37.915C53.6982 37.3509 54.1422 36.8937 54.6898 36.8937C55.2374 36.8937 55.6814 37.3509 55.6814 37.915Z" fill="#4A399D"/>
<path d="M55.6814 34.8512C55.6814 35.4152 55.2374 35.8724 54.6898 35.8724C54.1422 35.8724 53.6982 35.4152 53.6982 34.8512C53.6982 34.2871 54.1422 33.8299 54.6898 33.8299C55.2374 33.8299 55.6814 34.2871 55.6814 34.8512Z" fill="#4A399D"/>
<path d="M58.6562 40.9788C58.6562 41.5428 58.2122 42.0001 57.6646 42.0001C57.1169 42.0001 56.673 41.5428 56.673 40.9788C56.673 40.4147 57.1169 39.9575 57.6646 39.9575C58.2122 39.9575 58.6562 40.4147 58.6562 40.9788Z" fill="#4A399D"/>
<path d="M58.6562 37.915C58.6562 38.479 58.2122 38.9362 57.6646 38.9362C57.1169 38.9362 56.673 38.479 56.673 37.915C56.673 37.3509 57.1169 36.8937 57.6646 36.8937C58.2122 36.8937 58.6562 37.3509 58.6562 37.915Z" fill="#4A399D"/>
<path d="M58.6562 34.8512C58.6562 35.4152 58.2122 35.8724 57.6646 35.8724C57.1169 35.8724 56.673 35.4152 56.673 34.8512C56.673 34.2871 57.1169 33.8299 57.6646 33.8299C58.2122 33.8299 58.6562 34.2871 58.6562 34.8512Z" fill="#4A399D"/>
<path d="M61.631 40.9788C61.631 41.5428 61.187 42.0001 60.6394 42.0001C60.0917 42.0001 59.6478 41.5428 59.6478 40.9788C59.6478 40.4147 60.0917 39.9575 60.6394 39.9575C61.187 39.9575 61.631 40.4147 61.631 40.9788Z" fill="#4A399D"/>
<path d="M61.631 37.915C61.631 38.479 61.187 38.9362 60.6394 38.9362C60.0917 38.9362 59.6478 38.479 59.6478 37.915C59.6478 37.3509 60.0917 36.8937 60.6394 36.8937C61.187 36.8937 61.631 37.3509 61.631 37.915Z" fill="#4A399D"/>
<path d="M61.631 34.8512C61.631 35.4152 61.187 35.8724 60.6394 35.8724C60.0917 35.8724 59.6478 35.4152 59.6478 34.8512C59.6478 34.2871 60.0917 33.8299 60.6394 33.8299C61.187 33.8299 61.631 34.2871 61.631 34.8512Z" fill="#4A399D"/>
<path d="M64.6058 40.9788C64.6058 41.5428 64.1618 42.0001 63.6142 42.0001C63.0665 42.0001 62.6226 41.5428 62.6226 40.9788C62.6226 40.4147 63.0665 39.9575 63.6142 39.9575C64.1618 39.9575 64.6058 40.4147 64.6058 40.9788Z" fill="#4A399D"/>
<path d="M64.6058 37.915C64.6058 38.479 64.1618 38.9362 63.6142 38.9362C63.0665 38.9362 62.6226 38.479 62.6226 37.915C62.6226 37.3509 63.0665 36.8937 63.6142 36.8937C64.1618 36.8937 64.6058 37.3509 64.6058 37.915Z" fill="#4A399D"/>
<path d="M64.6058 34.8512C64.6058 35.4152 64.1618 35.8724 63.6142 35.8724C63.0665 35.8724 62.6226 35.4152 62.6226 34.8512C62.6226 34.2871 63.0665 33.8299 63.6142 33.8299C64.1618 33.8299 64.6058 34.2871 64.6058 34.8512Z" fill="#4A399D"/>
<path d="M67.5806 40.9788C67.5806 41.5428 67.1366 42.0001 66.589 42.0001C66.0413 42.0001 65.5974 41.5428 65.5974 40.9788C65.5974 40.4147 66.0413 39.9575 66.589 39.9575C67.1366 39.9575 67.5806 40.4147 67.5806 40.9788Z" fill="#4A399D"/>
<path d="M67.5806 37.915C67.5806 38.479 67.1366 38.9362 66.589 38.9362C66.0413 38.9362 65.5974 38.479 65.5974 37.915C65.5974 37.3509 66.0413 36.8937 66.589 36.8937C67.1366 36.8937 67.5806 37.3509 67.5806 37.915Z" fill="#4A399D"/>
<path d="M67.5806 34.8512C67.5806 35.4152 67.1366 35.8724 66.589 35.8724C66.0413 35.8724 65.5974 35.4152 65.5974 34.8512C65.5974 34.2871 66.0413 33.8299 66.589 33.8299C67.1366 33.8299 67.5806 34.2871 67.5806 34.8512Z" fill="#4A399D"/>
<path d="M70.5554 40.9788C70.5554 41.5428 70.1115 42.0001 69.5638 42.0001C69.0162 42.0001 68.5722 41.5428 68.5722 40.9788C68.5722 40.4147 69.0162 39.9575 69.5638 39.9575C70.1115 39.9575 70.5554 40.4147 70.5554 40.9788Z" fill="#4A399D"/>
<path d="M70.5554 37.915C70.5554 38.479 70.1115 38.9362 69.5638 38.9362C69.0162 38.9362 68.5722 38.479 68.5722 37.915C68.5722 37.3509 69.0162 36.8937 69.5638 36.8937C70.1115 36.8937 70.5554 37.3509 70.5554 37.915Z" fill="#4A399D"/>
<path d="M70.5554 34.8512C70.5554 35.4152 70.1115 35.8724 69.5638 35.8724C69.0162 35.8724 68.5722 35.4152 68.5722 34.8512C68.5722 34.2871 69.0162 33.8299 69.5638 33.8299C70.1115 33.8299 70.5554 34.2871 70.5554 34.8512Z" fill="#4A399D"/>
<path d="M73.5302 40.9788C73.5302 41.5428 73.0863 42.0001 72.5386 42.0001C71.991 42.0001 71.547 41.5428 71.547 40.9788C71.547 40.4147 71.991 39.9575 72.5386 39.9575C73.0863 39.9575 73.5302 40.4147 73.5302 40.9788Z" fill="#4A399D"/>
<path d="M73.5302 37.915C73.5302 38.479 73.0863 38.9362 72.5386 38.9362C71.991 38.9362 71.547 38.479 71.547 37.915C71.547 37.3509 71.991 36.8937 72.5386 36.8937C73.0863 36.8937 73.5302 37.3509 73.5302 37.915Z" fill="#4A399D"/>
<path d="M73.5302 34.8512C73.5302 35.4152 73.0863 35.8724 72.5386 35.8724C71.991 35.8724 71.547 35.4152 71.547 34.8512C71.547 34.2871 71.991 33.8299 72.5386 33.8299C73.0863 33.8299 73.5302 34.2871 73.5302 34.8512Z" fill="#4A399D"/>
<path d="M76.505 40.9788C76.505 41.5428 76.0611 42.0001 75.5134 42.0001C74.9658 42.0001 74.5218 41.5428 74.5218 40.9788C74.5218 40.4147 74.9658 39.9575 75.5134 39.9575C76.0611 39.9575 76.505 40.4147 76.505 40.9788Z" fill="#4A399D"/>
<path d="M76.505 37.915C76.505 38.479 76.0611 38.9362 75.5134 38.9362C74.9658 38.9362 74.5218 38.479 74.5218 37.915C74.5218 37.3509 74.9658 36.8937 75.5134 36.8937C76.0611 36.8937 76.505 37.3509 76.505 37.915Z" fill="#4A399D"/>
<path d="M76.505 34.8512C76.505 35.4152 76.0611 35.8724 75.5134 35.8724C74.9658 35.8724 74.5218 35.4152 74.5218 34.8512C74.5218 34.2871 74.9658 33.8299 75.5134 33.8299C76.0611 33.8299 76.505 34.2871 76.505 34.8512Z" fill="#4A399D"/>
<path d="M79.4798 40.9788C79.4798 41.5428 79.0359 42.0001 78.4882 42.0001C77.9406 42.0001 77.4966 41.5428 77.4966 40.9788C77.4966 40.4147 77.9406 39.9575 78.4882 39.9575C79.0359 39.9575 79.4798 40.4147 79.4798 40.9788Z" fill="#4A399D"/>
<path d="M79.4798 37.915C79.4798 38.479 79.0359 38.9362 78.4882 38.9362C77.9406 38.9362 77.4966 38.479 77.4966 37.915C77.4966 37.3509 77.9406 36.8937 78.4882 36.8937C79.0359 36.8937 79.4798 37.3509 79.4798 37.915Z" fill="#4A399D"/>
<path d="M79.4798 34.8512C79.4798 35.4152 79.0359 35.8724 78.4882 35.8724C77.9406 35.8724 77.4966 35.4152 77.4966 34.8512C77.4966 34.2871 77.9406 33.8299 78.4882 33.8299C79.0359 33.8299 79.4798 34.2871 79.4798 34.8512Z" fill="#4A399D"/>
<path d="M82.4546 40.9788C82.4546 41.5428 82.0107 42.0001 81.463 42.0001C80.9154 42.0001 80.4714 41.5428 80.4714 40.9788C80.4714 40.4147 80.9154 39.9575 81.463 39.9575C82.0107 39.9575 82.4546 40.4147 82.4546 40.9788Z" fill="#4A399D"/>
<path d="M82.4546 37.915C82.4546 38.479 82.0107 38.9362 81.463 38.9362C80.9154 38.9362 80.4714 38.479 80.4714 37.915C80.4714 37.3509 80.9154 36.8937 81.463 36.8937C82.0107 36.8937 82.4546 37.3509 82.4546 37.915Z" fill="#4A399D"/>
<path d="M82.4546 34.8512C82.4546 35.4152 82.0107 35.8724 81.463 35.8724C80.9154 35.8724 80.4714 35.4152 80.4714 34.8512C80.4714 34.2871 80.9154 33.8299 81.463 33.8299C82.0107 33.8299 82.4546 34.2871 82.4546 34.8512Z" fill="#4A399D"/>
<path d="M85.4294 40.9788C85.4294 41.5428 84.9854 42.0001 84.4378 42.0001C83.8901 42.0001 83.4462 41.5428 83.4462 40.9788C83.4462 40.4147 83.8901 39.9575 84.4378 39.9575C84.9854 39.9575 85.4294 40.4147 85.4294 40.9788Z" fill="#4A399D"/>
<path d="M85.4294 37.915C85.4294 38.479 84.9854 38.9362 84.4378 38.9362C83.8901 38.9362 83.4462 38.479 83.4462 37.915C83.4462 37.3509 83.8901 36.8937 84.4378 36.8937C84.9854 36.8937 85.4294 37.3509 85.4294 37.915Z" fill="#4A399D"/>
<path d="M85.4294 34.8512C85.4294 35.4152 84.9854 35.8724 84.4378 35.8724C83.8901 35.8724 83.4462 35.4152 83.4462 34.8512C83.4462 34.2871 83.8901 33.8299 84.4378 33.8299C84.9854 33.8299 85.4294 34.2871 85.4294 34.8512Z" fill="#4A399D"/>
<path d="M88.4041 40.9788C88.4041 41.5428 87.9602 42.0001 87.4125 42.0001C86.8649 42.0001 86.421 41.5428 86.421 40.9788C86.421 40.4147 86.8649 39.9575 87.4125 39.9575C87.9602 39.9575 88.4041 40.4147 88.4041 40.9788Z" fill="#4A399D"/>
<path d="M88.4041 37.915C88.4041 38.479 87.9602 38.9362 87.4125 38.9362C86.8649 38.9362 86.421 38.479 86.421 37.915C86.421 37.3509 86.8649 36.8937 87.4125 36.8937C87.9602 36.8937 88.4041 37.3509 88.4041 37.915Z" fill="#4A399D"/>
<path d="M88.4041 34.8512C88.4041 35.4152 87.9602 35.8724 87.4125 35.8724C86.8649 35.8724 86.421 35.4152 86.421 34.8512C86.421 34.2871 86.8649 33.8299 87.4125 33.8299C87.9602 33.8299 88.4041 34.2871 88.4041 34.8512Z" fill="#4A399D"/>
<path d="M91.3789 40.9788C91.3789 41.5428 90.935 42.0001 90.3873 42.0001C89.8397 42.0001 89.3957 41.5428 89.3957 40.9788C89.3957 40.4147 89.8397 39.9575 90.3873 39.9575C90.935 39.9575 91.3789 40.4147 91.3789 40.9788Z" fill="#4A399D"/>
<path d="M91.3789 37.915C91.3789 38.479 90.935 38.9362 90.3873 38.9362C89.8397 38.9362 89.3957 38.479 89.3957 37.915C89.3957 37.3509 89.8397 36.8937 90.3873 36.8937C90.935 36.8937 91.3789 37.3509 91.3789 37.915Z" fill="#4A399D"/>
<path d="M91.3789 34.8512C91.3789 35.4152 90.935 35.8724 90.3873 35.8724C89.8397 35.8724 89.3957 35.4152 89.3957 34.8512C89.3957 34.2871 89.8397 33.8299 90.3873 33.8299C90.935 33.8299 91.3789 34.2871 91.3789 34.8512Z" fill="#4A399D"/>
<path d="M94.3537 40.9788C94.3537 41.5428 93.9097 42.0001 93.3621 42.0001C92.8145 42.0001 92.3705 41.5428 92.3705 40.9788C92.3705 40.4147 92.8145 39.9575 93.3621 39.9575C93.9097 39.9575 94.3537 40.4147 94.3537 40.9788Z" fill="#4A399D"/>
<path d="M94.3537 37.915C94.3537 38.479 93.9097 38.9362 93.3621 38.9362C92.8145 38.9362 92.3705 38.479 92.3705 37.915C92.3705 37.3509 92.8145 36.8937 93.3621 36.8937C93.9097 36.8937 94.3537 37.3509 94.3537 37.915Z" fill="#4A399D"/>
<path d="M94.3537 34.8512C94.3537 35.4152 93.9097 35.8724 93.3621 35.8724C92.8145 35.8724 92.3705 35.4152 92.3705 34.8512C92.3705 34.2871 92.8145 33.8299 93.3621 33.8299C93.9097 33.8299 94.3537 34.2871 94.3537 34.8512Z" fill="#4A399D"/>
<path d="M97.3285 40.9788C97.3285 41.5428 96.8845 42.0001 96.3369 42.0001C95.7892 42.0001 95.3453 41.5428 95.3453 40.9788C95.3453 40.4147 95.7892 39.9575 96.3369 39.9575C96.8845 39.9575 97.3285 40.4147 97.3285 40.9788Z" fill="#4A399D"/>
<path d="M97.3285 37.915C97.3285 38.479 96.8845 38.9362 96.3369 38.9362C95.7892 38.9362 95.3453 38.479 95.3453 37.915C95.3453 37.3509 95.7892 36.8937 96.3369 36.8937C96.8845 36.8937 97.3285 37.3509 97.3285 37.915Z" fill="#4A399D"/>
<path d="M97.3285 34.8512C97.3285 35.4152 96.8845 35.8724 96.3369 35.8724C95.7892 35.8724 95.3453 35.4152 95.3453 34.8512C95.3453 34.2871 95.7892 33.8299 96.3369 33.8299C96.8845 33.8299 97.3285 34.2871 97.3285 34.8512Z" fill="#4A399D"/>
<path d="M100.303 40.9788C100.303 41.5428 99.8593 42.0001 99.3117 42.0001C98.764 42.0001 98.3201 41.5428 98.3201 40.9788C98.3201 40.4147 98.764 39.9575 99.3117 39.9575C99.8593 39.9575 100.303 40.4147 100.303 40.9788Z" fill="#4A399D"/>
<path d="M100.303 37.915C100.303 38.479 99.8593 38.9362 99.3117 38.9362C98.764 38.9362 98.3201 38.479 98.3201 37.915C98.3201 37.3509 98.764 36.8937 99.3117 36.8937C99.8593 36.8937 100.303 37.3509 100.303 37.915Z" fill="#4A399D"/>
<path d="M100.303 34.8512C100.303 35.4152 99.8593 35.8724 99.3117 35.8724C98.764 35.8724 98.3201 35.4152 98.3201 34.8512C98.3201 34.2871 98.764 33.8299 99.3117 33.8299C99.8593 33.8299 100.303 34.2871 100.303 34.8512Z" fill="#4A399D"/>
<path d="M103.278 40.9788C103.278 41.5428 102.834 42.0001 102.286 42.0001C101.739 42.0001 101.295 41.5428 101.295 40.9788C101.295 40.4147 101.739 39.9575 102.286 39.9575C102.834 39.9575 103.278 40.4147 103.278 40.9788Z" fill="#4A399D"/>
<path d="M103.278 37.915C103.278 38.479 102.834 38.9362 102.286 38.9362C101.739 38.9362 101.295 38.479 101.295 37.915C101.295 37.3509 101.739 36.8937 102.286 36.8937C102.834 36.8937 103.278 37.3509 103.278 37.915Z" fill="#4A399D"/>
<path d="M103.278 34.8512C103.278 35.4152 102.834 35.8724 102.286 35.8724C101.739 35.8724 101.295 35.4152 101.295 34.8512C101.295 34.2871 101.739 33.8299 102.286 33.8299C102.834 33.8299 103.278 34.2871 103.278 34.8512Z" fill="#4A399D"/>
<path d="M106.253 40.9788C106.253 41.5428 105.809 42.0001 105.261 42.0001C104.714 42.0001 104.27 41.5428 104.27 40.9788C104.27 40.4147 104.714 39.9575 105.261 39.9575C105.809 39.9575 106.253 40.4147 106.253 40.9788Z" fill="#4A399D"/>
<path d="M106.253 37.915C106.253 38.479 105.809 38.9362 105.261 38.9362C104.714 38.9362 104.27 38.479 104.27 37.915C104.27 37.3509 104.714 36.8937 105.261 36.8937C105.809 36.8937 106.253 37.3509 106.253 37.915Z" fill="#4A399D"/>
<path d="M106.253 34.8512C106.253 35.4152 105.809 35.8724 105.261 35.8724C104.714 35.8724 104.27 35.4152 104.27 34.8512C104.27 34.2871 104.714 33.8299 105.261 33.8299C105.809 33.8299 106.253 34.2871 106.253 34.8512Z" fill="#4A399D"/>
<path d="M109.228 40.9788C109.228 41.5428 108.784 42.0001 108.236 42.0001C107.688 42.0001 107.244 41.5428 107.244 40.9788C107.244 40.4147 107.688 39.9575 108.236 39.9575C108.784 39.9575 109.228 40.4147 109.228 40.9788Z" fill="#4A399D"/>
<path d="M109.228 37.915C109.228 38.479 108.784 38.9362 108.236 38.9362C107.688 38.9362 107.244 38.479 107.244 37.915C107.244 37.3509 107.688 36.8937 108.236 36.8937C108.784 36.8937 109.228 37.3509 109.228 37.915Z" fill="#4A399D"/>
<path d="M109.228 34.8512C109.228 35.4152 108.784 35.8724 108.236 35.8724C107.688 35.8724 107.244 35.4152 107.244 34.8512C107.244 34.2871 107.688 33.8299 108.236 33.8299C108.784 33.8299 109.228 34.2871 109.228 34.8512Z" fill="#4A399D"/>
<path d="M112.202 40.9788C112.202 41.5428 111.758 42.0001 111.211 42.0001C110.663 42.0001 110.219 41.5428 110.219 40.9788C110.219 40.4147 110.663 39.9575 111.211 39.9575C111.758 39.9575 112.202 40.4147 112.202 40.9788Z" fill="#4A399D"/>
<path d="M112.202 37.915C112.202 38.479 111.758 38.9362 111.211 38.9362C110.663 38.9362 110.219 38.479 110.219 37.915C110.219 37.3509 110.663 36.8937 111.211 36.8937C111.758 36.8937 112.202 37.3509 112.202 37.915Z" fill="#4A399D"/>
<path d="M112.202 34.8512C112.202 35.4152 111.758 35.8724 111.211 35.8724C110.663 35.8724 110.219 35.4152 110.219 34.8512C110.219 34.2871 110.663 33.8299 111.211 33.8299C111.758 33.8299 112.202 34.2871 112.202 34.8512Z" fill="#4A399D"/>
<path d="M115.177 40.9788C115.177 41.5428 114.733 42.0001 114.186 42.0001C113.638 42.0001 113.194 41.5428 113.194 40.9788C113.194 40.4147 113.638 39.9575 114.186 39.9575C114.733 39.9575 115.177 40.4147 115.177 40.9788Z" fill="#4A399D"/>
<path d="M115.177 37.915C115.177 38.479 114.733 38.9362 114.186 38.9362C113.638 38.9362 113.194 38.479 113.194 37.915C113.194 37.3509 113.638 36.8937 114.186 36.8937C114.733 36.8937 115.177 37.3509 115.177 37.915Z" fill="#4A399D"/>
<path d="M115.177 34.8512C115.177 35.4152 114.733 35.8724 114.186 35.8724C113.638 35.8724 113.194 35.4152 113.194 34.8512C113.194 34.2871 113.638 33.8299 114.186 33.8299C114.733 33.8299 115.177 34.2871 115.177 34.8512Z" fill="#4A399D"/>
<path d="M118.152 40.9788C118.152 41.5428 117.708 42.0001 117.16 42.0001C116.613 42.0001 116.169 41.5428 116.169 40.9788C116.169 40.4147 116.613 39.9575 117.16 39.9575C117.708 39.9575 118.152 40.4147 118.152 40.9788Z" fill="#4A399D"/>
<path d="M118.152 37.915C118.152 38.479 117.708 38.9362 117.16 38.9362C116.613 38.9362 116.169 38.479 116.169 37.915C116.169 37.3509 116.613 36.8937 117.16 36.8937C117.708 36.8937 118.152 37.3509 118.152 37.915Z" fill="#4A399D"/>
<path d="M118.152 34.8512C118.152 35.4152 117.708 35.8724 117.16 35.8724C116.613 35.8724 116.169 35.4152 116.169 34.8512C116.169 34.2871 116.613 33.8299 117.16 33.8299C117.708 33.8299 118.152 34.2871 118.152 34.8512Z" fill="#4A399D"/>
<path d="M121.127 40.9788C121.127 41.5428 120.683 42.0001 120.135 42.0001C119.588 42.0001 119.144 41.5428 119.144 40.9788C119.144 40.4147 119.588 39.9575 120.135 39.9575C120.683 39.9575 121.127 40.4147 121.127 40.9788Z" fill="#4A399D"/>
<path d="M121.127 37.915C121.127 38.479 120.683 38.9362 120.135 38.9362C119.588 38.9362 119.144 38.479 119.144 37.915C119.144 37.3509 119.588 36.8937 120.135 36.8937C120.683 36.8937 121.127 37.3509 121.127 37.915Z" fill="#4A399D"/>
<path d="M121.127 34.8512C121.127 35.4152 120.683 35.8724 120.135 35.8724C119.588 35.8724 119.144 35.4152 119.144 34.8512C119.144 34.2871 119.588 33.8299 120.135 33.8299C120.683 33.8299 121.127 34.2871 121.127 34.8512Z" fill="#4A399D"/>
<path d="M124.102 40.9788C124.102 41.5428 123.658 42.0001 123.11 42.0001C122.562 42.0001 122.118 41.5428 122.118 40.9788C122.118 40.4147 122.562 39.9575 123.11 39.9575C123.658 39.9575 124.102 40.4147 124.102 40.9788Z" fill="#4A399D"/>
<path d="M124.102 37.915C124.102 38.479 123.658 38.9362 123.11 38.9362C122.562 38.9362 122.118 38.479 122.118 37.915C122.118 37.3509 122.562 36.8937 123.11 36.8937C123.658 36.8937 124.102 37.3509 124.102 37.915Z" fill="#4A399D"/>
<path d="M124.102 34.8512C124.102 35.4152 123.658 35.8724 123.11 35.8724C122.562 35.8724 122.118 35.4152 122.118 34.8512C122.118 34.2871 122.562 33.8299 123.11 33.8299C123.658 33.8299 124.102 34.2871 124.102 34.8512Z" fill="#4A399D"/>
<path d="M127.076 40.9788C127.076 41.5428 126.632 42.0001 126.085 42.0001C125.537 42.0001 125.093 41.5428 125.093 40.9788C125.093 40.4147 125.537 39.9575 126.085 39.9575C126.632 39.9575 127.076 40.4147 127.076 40.9788Z" fill="#4A399D"/>
<path d="M127.076 37.915C127.076 38.479 126.632 38.9362 126.085 38.9362C125.537 38.9362 125.093 38.479 125.093 37.915C125.093 37.3509 125.537 36.8937 126.085 36.8937C126.632 36.8937 127.076 37.3509 127.076 37.915Z" fill="#4A399D"/>
<path d="M127.076 34.8512C127.076 35.4152 126.632 35.8724 126.085 35.8724C125.537 35.8724 125.093 35.4152 125.093 34.8512C125.093 34.2871 125.537 33.8299 126.085 33.8299C126.632 33.8299 127.076 34.2871 127.076 34.8512Z" fill="#4A399D"/>
<path d="M130.051 40.9788C130.051 41.5428 129.607 42.0001 129.06 42.0001C128.512 42.0001 128.068 41.5428 128.068 40.9788C128.068 40.4147 128.512 39.9575 129.06 39.9575C129.607 39.9575 130.051 40.4147 130.051 40.9788Z" fill="#4A399D"/>
<path d="M130.051 37.915C130.051 38.479 129.607 38.9362 129.06 38.9362C128.512 38.9362 128.068 38.479 128.068 37.915C128.068 37.3509 128.512 36.8937 129.06 36.8937C129.607 36.8937 130.051 37.3509 130.051 37.915Z" fill="#4A399D"/>
<path d="M130.051 34.8512C130.051 35.4152 129.607 35.8724 129.06 35.8724C128.512 35.8724 128.068 35.4152 128.068 34.8512C128.068 34.2871 128.512 33.8299 129.06 33.8299C129.607 33.8299 130.051 34.2871 130.051 34.8512Z" fill="#4A399D"/>
<path d="M133.026 40.9788C133.026 41.5428 132.582 42.0001 132.034 42.0001C131.487 42.0001 131.043 41.5428 131.043 40.9788C131.043 40.4147 131.487 39.9575 132.034 39.9575C132.582 39.9575 133.026 40.4147 133.026 40.9788Z" fill="#4A399D"/>
<path d="M133.026 37.915C133.026 38.479 132.582 38.9362 132.034 38.9362C131.487 38.9362 131.043 38.479 131.043 37.915C131.043 37.3509 131.487 36.8937 132.034 36.8937C132.582 36.8937 133.026 37.3509 133.026 37.915Z" fill="#4A399D"/>
<path d="M133.026 34.8512C133.026 35.4152 132.582 35.8724 132.034 35.8724C131.487 35.8724 131.043 35.4152 131.043 34.8512C131.043 34.2871 131.487 33.8299 132.034 33.8299C132.582 33.8299 133.026 34.2871 133.026 34.8512Z" fill="#4A399D"/>
<path d="M136.001 40.9788C136.001 41.5428 135.557 42.0001 135.009 42.0001C134.462 42.0001 134.018 41.5428 134.018 40.9788C134.018 40.4147 134.462 39.9575 135.009 39.9575C135.557 39.9575 136.001 40.4147 136.001 40.9788Z" fill="#4A399D"/>
<path d="M136.001 37.915C136.001 38.479 135.557 38.9362 135.009 38.9362C134.462 38.9362 134.018 38.479 134.018 37.915C134.018 37.3509 134.462 36.8937 135.009 36.8937C135.557 36.8937 136.001 37.3509 136.001 37.915Z" fill="#4A399D"/>
<path d="M136.001 34.8512C136.001 35.4152 135.557 35.8724 135.009 35.8724C134.462 35.8724 134.018 35.4152 134.018 34.8512C134.018 34.2871 134.462 33.8299 135.009 33.8299C135.557 33.8299 136.001 34.2871 136.001 34.8512Z" fill="#4A399D"/>
<path d="M130.051 31.7873C130.051 32.3514 129.607 32.8086 129.06 32.8086C128.512 32.8086 128.068 32.3514 128.068 31.7873C128.068 31.2233 128.512 30.7661 129.06 30.7661C129.607 30.7661 130.051 31.2233 130.051 31.7873Z" fill="#4A399D"/>
<path d="M130.051 28.7235C130.051 29.2876 129.607 29.7448 129.06 29.7448C128.512 29.7448 128.068 29.2876 128.068 28.7235C128.068 28.1595 128.512 27.7023 129.06 27.7023C129.607 27.7023 130.051 28.1595 130.051 28.7235Z" fill="#4A399D"/>
<path d="M130.051 25.6597C130.051 26.2237 129.607 26.681 129.06 26.681C128.512 26.681 128.068 26.2237 128.068 25.6597C128.068 25.0957 128.512 24.6384 129.06 24.6384C129.607 24.6384 130.051 25.0957 130.051 25.6597Z" fill="#4A399D"/>
<path d="M133.026 31.7873C133.026 32.3514 132.582 32.8086 132.034 32.8086C131.487 32.8086 131.043 32.3514 131.043 31.7873C131.043 31.2233 131.487 30.7661 132.034 30.7661C132.582 30.7661 133.026 31.2233 133.026 31.7873Z" fill="#4A399D"/>
<path d="M133.026 28.7235C133.026 29.2876 132.582 29.7448 132.034 29.7448C131.487 29.7448 131.043 29.2876 131.043 28.7235C131.043 28.1595 131.487 27.7023 132.034 27.7023C132.582 27.7023 133.026 28.1595 133.026 28.7235Z" fill="#4A399D"/>
<path d="M133.026 25.6597C133.026 26.2237 132.582 26.681 132.034 26.681C131.487 26.681 131.043 26.2237 131.043 25.6597C131.043 25.0957 131.487 24.6384 132.034 24.6384C132.582 24.6384 133.026 25.0957 133.026 25.6597Z" fill="#4A399D"/>
<path d="M136.001 31.7873C136.001 32.3514 135.557 32.8086 135.009 32.8086C134.462 32.8086 134.018 32.3514 134.018 31.7873C134.018 31.2233 134.462 30.7661 135.009 30.7661C135.557 30.7661 136.001 31.2233 136.001 31.7873Z" fill="#4A399D"/>
<path d="M136.001 28.7235C136.001 29.2876 135.557 29.7448 135.009 29.7448C134.462 29.7448 134.018 29.2876 134.018 28.7235C134.018 28.1595 134.462 27.7023 135.009 27.7023C135.557 27.7023 136.001 28.1595 136.001 28.7235Z" fill="#4A399D"/>
<path d="M136.001 25.6597C136.001 26.2237 135.557 26.681 135.009 26.681C134.462 26.681 134.018 26.2237 134.018 25.6597C134.018 25.0957 134.462 24.6384 135.009 24.6384C135.557 24.6384 136.001 25.0957 136.001 25.6597Z" fill="#4A399D"/>
<path d="M130.051 22.5959C130.051 23.1599 129.607 23.6172 129.06 23.6172C128.512 23.6172 128.068 23.1599 128.068 22.5959C128.068 22.0319 128.512 21.5746 129.06 21.5746C129.607 21.5746 130.051 22.0319 130.051 22.5959Z" fill="#4A399D"/>
<path d="M130.051 19.5321C130.051 20.0961 129.607 20.5534 129.06 20.5534C128.512 20.5534 128.068 20.0961 128.068 19.5321C128.068 18.9681 128.512 18.5108 129.06 18.5108C129.607 18.5108 130.051 18.9681 130.051 19.5321Z" fill="#4A399D"/>
<path d="M130.051 16.4683C130.051 17.0323 129.607 17.4895 129.06 17.4895C128.512 17.4895 128.068 17.0323 128.068 16.4683C128.068 15.9042 128.512 15.447 129.06 15.447C129.607 15.447 130.051 15.9042 130.051 16.4683Z" fill="#4A399D"/>
<path d="M133.026 22.5959C133.026 23.1599 132.582 23.6172 132.034 23.6172C131.487 23.6172 131.043 23.1599 131.043 22.5959C131.043 22.0319 131.487 21.5746 132.034 21.5746C132.582 21.5746 133.026 22.0319 133.026 22.5959Z" fill="#4A399D"/>
<path d="M133.026 19.5321C133.026 20.0961 132.582 20.5534 132.034 20.5534C131.487 20.5534 131.043 20.0961 131.043 19.5321C131.043 18.9681 131.487 18.5108 132.034 18.5108C132.582 18.5108 133.026 18.9681 133.026 19.5321Z" fill="#4A399D"/>
<path d="M133.026 16.4683C133.026 17.0323 132.582 17.4895 132.034 17.4895C131.487 17.4895 131.043 17.0323 131.043 16.4683C131.043 15.9042 131.487 15.447 132.034 15.447C132.582 15.447 133.026 15.9042 133.026 16.4683Z" fill="#4A399D"/>
<path d="M136.001 22.5959C136.001 23.1599 135.557 23.6172 135.009 23.6172C134.462 23.6172 134.018 23.1599 134.018 22.5959C134.018 22.0319 134.462 21.5746 135.009 21.5746C135.557 21.5746 136.001 22.0319 136.001 22.5959Z" fill="#4A399D"/>
<path d="M136.001 19.5321C136.001 20.0961 135.557 20.5534 135.009 20.5534C134.462 20.5534 134.018 20.0961 134.018 19.5321C134.018 18.9681 134.462 18.5108 135.009 18.5108C135.557 18.5108 136.001 18.9681 136.001 19.5321Z" fill="#4A399D"/>
<path d="M136.001 16.4683C136.001 17.0323 135.557 17.4895 135.009 17.4895C134.462 17.4895 134.018 17.0323 134.018 16.4683C134.018 15.9042 134.462 15.447 135.009 15.447C135.557 15.447 136.001 15.9042 136.001 16.4683Z" fill="#4A399D"/>
<path d="M130.051 13.4045C130.051 13.9685 129.607 14.4257 129.06 14.4257C128.512 14.4257 128.068 13.9685 128.068 13.4045C128.068 12.8404 128.512 12.3832 129.06 12.3832C129.607 12.3832 130.051 12.8404 130.051 13.4045Z" fill="#4A399D"/>
<path d="M130.051 10.3406C130.051 10.9047 129.607 11.3619 129.06 11.3619C128.512 11.3619 128.068 10.9047 128.068 10.3406C128.068 9.77661 128.512 9.31937 129.06 9.31937C129.607 9.31937 130.051 9.77661 130.051 10.3406Z" fill="#4A399D"/>
<path d="M130.051 7.27683C130.051 7.84086 129.607 8.2981 129.06 8.2981C128.512 8.2981 128.068 7.84086 128.068 7.27683C128.068 6.7128 128.512 6.25556 129.06 6.25556C129.607 6.25556 130.051 6.7128 130.051 7.27683Z" fill="#4A399D"/>
<path d="M133.026 13.4045C133.026 13.9685 132.582 14.4257 132.034 14.4257C131.487 14.4257 131.043 13.9685 131.043 13.4045C131.043 12.8404 131.487 12.3832 132.034 12.3832C132.582 12.3832 133.026 12.8404 133.026 13.4045Z" fill="#4A399D"/>
<path d="M133.026 10.3406C133.026 10.9047 132.582 11.3619 132.034 11.3619C131.487 11.3619 131.043 10.9047 131.043 10.3406C131.043 9.77661 131.487 9.31937 132.034 9.31937C132.582 9.31937 133.026 9.77661 133.026 10.3406Z" fill="#4A399D"/>
<path d="M133.026 7.27683C133.026 7.84086 132.582 8.2981 132.034 8.2981C131.487 8.2981 131.043 7.84086 131.043 7.27683C131.043 6.7128 131.487 6.25556 132.034 6.25556C132.582 6.25556 133.026 6.7128 133.026 7.27683Z" fill="#4A399D"/>
<path d="M136.001 13.4045C136.001 13.9685 135.557 14.4257 135.009 14.4257C134.462 14.4257 134.018 13.9685 134.018 13.4045C134.018 12.8404 134.462 12.3832 135.009 12.3832C135.557 12.3832 136.001 12.8404 136.001 13.4045Z" fill="#4A399D"/>
<path d="M136.001 10.3406C136.001 10.9047 135.557 11.3619 135.009 11.3619C134.462 11.3619 134.018 10.9047 134.018 10.3406C134.018 9.77661 134.462 9.31937 135.009 9.31937C135.557 9.31937 136.001 9.77661 136.001 10.3406Z" fill="#4A399D"/>
<path d="M136.001 7.27683C136.001 7.84086 135.557 8.2981 135.009 8.2981C134.462 8.2981 134.018 7.84086 134.018 7.27683C134.018 6.7128 134.462 6.25556 135.009 6.25556C135.557 6.25556 136.001 6.7128 136.001 7.27683Z" fill="#4A399D"/>
<path d="M130.051 4.21302C130.051 4.77705 129.607 5.23429 129.06 5.23429C128.512 5.23429 128.068 4.77705 128.068 4.21302C128.068 3.64898 128.512 3.19174 129.06 3.19174C129.607 3.19174 130.051 3.64898 130.051 4.21302Z" fill="#4A399D"/>
<path d="M130.051 1.1492C130.051 1.71323 129.607 2.17047 129.06 2.17047C128.512 2.17047 128.068 1.71323 128.068 1.1492C128.068 0.585169 128.512 0.12793 129.06 0.12793C129.607 0.12793 130.051 0.585169 130.051 1.1492Z" fill="#4A399D"/>
<path d="M133.026 4.21302C133.026 4.77705 132.582 5.23429 132.034 5.23429C131.487 5.23429 131.043 4.77705 131.043 4.21302C131.043 3.64898 131.487 3.19174 132.034 3.19174C132.582 3.19174 133.026 3.64898 133.026 4.21302Z" fill="#4A399D"/>
<path d="M133.026 1.1492C133.026 1.71323 132.582 2.17047 132.034 2.17047C131.487 2.17047 131.043 1.71323 131.043 1.1492C131.043 0.585169 131.487 0.12793 132.034 0.12793C132.582 0.12793 133.026 0.585169 133.026 1.1492Z" fill="#4A399D"/>
<path d="M136.001 4.21302C136.001 4.77705 135.557 5.23429 135.009 5.23429C134.462 5.23429 134.018 4.77705 134.018 4.21302C134.018 3.64898 134.462 3.19174 135.009 3.19174C135.557 3.19174 136.001 3.64898 136.001 4.21302Z" fill="#4A399D"/>
<path d="M136.001 1.1492C136.001 1.71323 135.557 2.17047 135.009 2.17047C134.462 2.17047 134.018 1.71323 134.018 1.1492C134.018 0.585169 134.462 0.12793 135.009 0.12793C135.557 0.12793 136.001 0.585169 136.001 1.1492Z" fill="#4A399D"/>
<path fill-rule="evenodd" clip-rule="evenodd" d="M126.085 2.17047V0.12793C126.632 0.12793 127.076 0.585169 127.076 1.1492C127.076 1.71323 126.632 2.17047 126.085 2.17047ZM127.076 4.21302C127.076 4.77705 126.632 5.23429 126.085 5.23429V3.19174C126.632 3.19174 127.076 3.64898 127.076 4.21302ZM127.076 7.27683C127.076 7.84086 126.632 8.2981 126.085 8.2981V6.25556C126.632 6.25556 127.076 6.7128 127.076 7.27683ZM127.076 10.3406C127.076 10.9047 126.632 11.3619 126.085 11.3619V9.31937C126.632 9.31937 127.076 9.77661 127.076 10.3406ZM127.076 13.4045C127.076 13.9685 126.632 14.4257 126.085 14.4257V12.3832C126.632 12.3832 127.076 12.8404 127.076 13.4045ZM127.076 16.4683C127.076 17.0323 126.632 17.4895 126.085 17.4895V15.447C126.632 15.447 127.076 15.9042 127.076 16.4683ZM127.076 19.5321C127.076 20.0961 126.632 20.5534 126.085 20.5534V18.5108C126.632 18.5108 127.076 18.9681 127.076 19.5321ZM127.076 22.5959C127.076 23.1599 126.632 23.6172 126.085 23.6172V21.5746C126.632 21.5746 127.076 22.0319 127.076 22.5959ZM127.076 25.6597C127.076 26.2237 126.632 26.681 126.085 26.681V24.6384C126.632 24.6384 127.076 25.0957 127.076 25.6597ZM127.076 28.7235C127.076 29.2876 126.632 29.7448 126.085 29.7448V27.7023C126.632 27.7023 127.076 28.1595 127.076 28.7235ZM127.076 31.7873C127.076 32.3514 126.632 32.8086 126.085 32.8086V30.7661C126.632 30.7661 127.076 31.2233 127.076 31.7873ZM18.9923 35.8724C18.4447 35.8724 18.0007 35.4152 18.0007 34.8512C18.0007 34.2871 18.4447 33.8299 18.9923 33.8299C19.5399 33.8299 19.9839 34.2871 19.9839 34.8512C19.9839 35.4152 19.5399 35.8724 18.9923 35.8724ZM18.0007 40.9788C18.0007 40.4147 18.4447 39.9575 18.9923 39.9575C19.5399 39.9575 19.9839 40.4147 19.9839 40.9788C19.9839 41.5428 19.5399 42.0001 18.9923 42.0001C18.4447 42.0001 18.0007 41.5428 18.0007 40.9788ZM135.009 39.9575C135.557 39.9575 136.001 40.4147 136.001 40.9788C136.001 41.5428 135.557 42.0001 135.009 42.0001C134.462 42.0001 134.018 41.5428 134.018 40.9788C134.018 40.4147 134.462 39.9575 135.009 39.9575ZM135.009 2.17047C135.557 2.17047 136.001 1.71323 136.001 1.1492C136.001 0.585169 135.557 0.12793 135.009 0.12793C134.462 0.12793 134.018 0.585169 134.018 1.1492C134.018 1.71323 134.462 2.17047 135.009 2.17047ZM135.009 5.23429C135.557 5.23429 136.001 4.77705 136.001 4.21302C136.001 3.64898 135.557 3.19174 135.009 3.19174C134.462 3.19174 134.018 3.64898 134.018 4.21302C134.018 4.77705 134.462 5.23429 135.009 5.23429ZM135.009 8.2981C135.557 8.2981 136.001 7.84086 136.001 7.27683C136.001 6.7128 135.557 6.25556 135.009 6.25556C134.462 6.25556 134.018 6.7128 134.018 7.27683C134.018 7.84086 134.462 8.2981 135.009 8.2981ZM135.009 11.3619C135.557 11.3619 136.001 10.9047 136.001 10.3406C136.001 9.77661 135.557 9.31937 135.009 9.31937C134.462 9.31937 134.018 9.77661 134.018 10.3406C134.018 10.9047 134.462 11.3619 135.009 11.3619ZM135.009 14.4257C135.557 14.4257 136.001 13.9685 136.001 13.4045C136.001 12.8404 135.557 12.3832 135.009 12.3832C134.462 12.3832 134.018 12.8404 134.018 13.4045C134.018 13.9685 134.462 14.4257 135.009 14.4257ZM135.009 17.4895C135.557 17.4895 136.001 17.0323 136.001 16.4683C136.001 15.9042 135.557 15.447 135.009 15.447C134.462 15.447 134.018 15.9042 134.018 16.4683C134.018 17.0323 134.462 17.4895 135.009 17.4895ZM135.009 20.5534C135.557 20.5534 136.001 20.0961 136.001 19.5321C136.001 18.9681 135.557 18.5108 135.009 18.5108C134.462 18.5108 134.018 18.9681 134.018 19.5321C134.018 20.0961 134.462 20.5534 135.009 20.5534ZM135.009 23.6172C135.557 23.6172 136.001 23.1599 136.001 22.5959C136.001 22.0319 135.557 21.5746 135.009 21.5746C134.462 21.5746 134.018 22.0319 134.018 22.5959C134.018 23.1599 134.462 23.6172 135.009 23.6172ZM135.009 26.681C135.557 26.681 136.001 26.2237 136.001 25.6597C136.001 25.0957 135.557 24.6384 135.009 24.6384C134.462 24.6384 134.018 25.0957 134.018 25.6597C134.018 26.2237 134.462 26.681 135.009 26.681ZM135.009 29.7448C135.557 29.7448 136.001 29.2876 136.001 28.7235C136.001 28.1595 135.557 27.7023 135.009 27.7023C134.462 27.7023 134.018 28.1595 134.018 28.7235C134.018 29.2876 134.462 29.7448 135.009 29.7448ZM135.009 32.8086C135.557 32.8086 136.001 32.3514 136.001 31.7873C136.001 31.2233 135.557 30.7661 135.009 30.7661C134.462 30.7661 134.018 31.2233 134.018 31.7873C134.018 32.3514 134.462 32.8086 135.009 32.8086ZM135.009 35.8724C135.557 35.8724 136.001 35.4152 136.001 34.8512C136.001 34.2871 135.557 33.8299 135.009 33.8299C134.462 33.8299 134.018 34.2871 134.018 34.8512C134.018 35.4152 134.462 35.8724 135.009 35.8724ZM135.009 38.9362C135.557 38.9362 136.001 38.479 136.001 37.915C136.001 37.3509 135.557 36.8937 135.009 36.8937C134.462 36.8937 134.018 37.3509 134.018 37.915C134.018 38.479 134.462 38.9362 135.009 38.9362ZM131.043 40.9788C131.043 41.5428 131.487 42.0001 132.034 42.0001C132.582 42.0001 133.026 41.5428 133.026 40.9788C133.026 40.4147 132.582 39.9575 132.034 39.9575C131.487 39.9575 131.043 40.4147 131.043 40.9788ZM128.068 40.9788C128.068 41.5428 128.512 42.0001 129.06 42.0001C129.607 42.0001 130.051 41.5428 130.051 40.9788C130.051 40.4147 129.607 39.9575 129.06 39.9575C128.512 39.9575 128.068 40.4147 128.068 40.9788ZM125.093 40.9788C125.093 41.5428 125.537 42.0001 126.085 42.0001C126.632 42.0001 127.076 41.5428 127.076 40.9788C127.076 40.4147 126.632 39.9575 126.085 39.9575C125.537 39.9575 125.093 40.4147 125.093 40.9788ZM122.118 40.9788C122.118 41.5428 122.562 42.0001 123.11 42.0001C123.658 42.0001 124.102 41.5428 124.102 40.9788C124.102 40.4147 123.658 39.9575 123.11 39.9575C122.562 39.9575 122.118 40.4147 122.118 40.9788ZM119.144 40.9788C119.144 41.5428 119.588 42.0001 120.135 42.0001C120.683 42.0001 121.127 41.5428 121.127 40.9788C121.127 40.4147 120.683 39.9575 120.135 39.9575C119.588 39.9575 119.144 40.4147 119.144 40.9788ZM116.169 40.9788C116.169 41.5428 116.613 42.0001 117.16 42.0001C117.708 42.0001 118.152 41.5428 118.152 40.9788C118.152 40.4147 117.708 39.9575 117.16 39.9575C116.613 39.9575 116.169 40.4147 116.169 40.9788ZM113.194 40.9788C113.194 41.5428 113.638 42.0001 114.186 42.0001C114.733 42.0001 115.177 41.5428 115.177 40.9788C115.177 40.4147 114.733 39.9575 114.186 39.9575C113.638 39.9575 113.194 40.4147 113.194 40.9788ZM110.219 40.9788C110.219 41.5428 110.663 42.0001 111.211 42.0001C111.758 42.0001 112.202 41.5428 112.202 40.9788C112.202 40.4147 111.758 39.9575 111.211 39.9575C110.663 39.9575 110.219 40.4147 110.219 40.9788ZM107.244 40.9788C107.244 41.5428 107.688 42.0001 108.236 42.0001C108.784 42.0001 109.228 41.5428 109.228 40.9788C109.228 40.4147 108.784 39.9575 108.236 39.9575C107.688 39.9575 107.244 40.4147 107.244 40.9788ZM104.27 40.9788C104.27 41.5428 104.714 42.0001 105.261 42.0001C105.809 42.0001 106.253 41.5428 106.253 40.9788C106.253 40.4147 105.809 39.9575 105.261 39.9575C104.714 39.9575 104.27 40.4147 104.27 40.9788ZM101.295 40.9788C101.295 41.5428 101.739 42.0001 102.286 42.0001C102.834 42.0001 103.278 41.5428 103.278 40.9788C103.278 40.4147 102.834 39.9575 102.286 39.9575C101.739 39.9575 101.295 40.4147 101.295 40.9788ZM98.3201 40.9788C98.3201 41.5428 98.764 42.0001 99.3117 42.0001C99.8593 42.0001 100.303 41.5428 100.303 40.9788C100.303 40.4147 99.8593 39.9575 99.3117 39.9575C98.764 39.9575 98.3201 40.4147 98.3201 40.9788ZM95.3453 40.9788C95.3453 41.5428 95.7892 42.0001 96.3369 42.0001C96.8845 42.0001 97.3285 41.5428 97.3285 40.9788C97.3285 40.4147 96.8845 39.9575 96.3369 39.9575C95.7892 39.9575 95.3453 40.4147 95.3453 40.9788ZM92.3705 40.9788C92.3705 41.5428 92.8145 42.0001 93.3621 42.0001C93.9097 42.0001 94.3537 41.5428 94.3537 40.9788C94.3537 40.4147 93.9097 39.9575 93.3621 39.9575C92.8145 39.9575 92.3705 40.4147 92.3705 40.9788ZM89.3957 40.9788C89.3957 41.5428 89.8397 42.0001 90.3873 42.0001C90.935 42.0001 91.3789 41.5428 91.3789 40.9788C91.3789 40.4147 90.935 39.9575 90.3873 39.9575C89.8397 39.9575 89.3957 40.4147 89.3957 40.9788ZM86.421 40.9788C86.421 41.5428 86.8649 42.0001 87.4125 42.0001C87.9602 42.0001 88.4041 41.5428 88.4041 40.9788C88.4041 40.4147 87.9602 39.9575 87.4125 39.9575C86.8649 39.9575 86.421 40.4147 86.421 40.9788ZM83.4462 40.9788C83.4462 41.5428 83.8901 42.0001 84.4378 42.0001C84.9854 42.0001 85.4294 41.5428 85.4294 40.9788C85.4294 40.4147 84.9854 39.9575 84.4378 39.9575C83.8901 39.9575 83.4462 40.4147 83.4462 40.9788ZM80.4714 40.9788C80.4714 41.5428 80.9154 42.0001 81.463 42.0001C82.0107 42.0001 82.4546 41.5428 82.4546 40.9788C82.4546 40.4147 82.0107 39.9575 81.463 39.9575C80.9154 39.9575 80.4714 40.4147 80.4714 40.9788ZM77.4966 40.9788C77.4966 41.5428 77.9406 42.0001 78.4882 42.0001C79.0359 42.0001 79.4798 41.5428 79.4798 40.9788C79.4798 40.4147 79.0359 39.9575 78.4882 39.9575C77.9406 39.9575 77.4966 40.4147 77.4966 40.9788ZM74.5218 40.9788C74.5218 41.5428 74.9658 42.0001 75.5134 42.0001C76.0611 42.0001 76.505 41.5428 76.505 40.9788C76.505 40.4147 76.0611 39.9575 75.5134 39.9575C74.9658 39.9575 74.5218 40.4147 74.5218 40.9788ZM71.547 40.9788C71.547 41.5428 71.991 42.0001 72.5386 42.0001C73.0863 42.0001 73.5302 41.5428 73.5302 40.9788C73.5302 40.4147 73.0863 39.9575 72.5386 39.9575C71.991 39.9575 71.547 40.4147 71.547 40.9788ZM68.5722 40.9788C68.5722 41.5428 69.0162 42.0001 69.5638 42.0001C70.1115 42.0001 70.5554 41.5428 70.5554 40.9788C70.5554 40.4147 70.1115 39.9575 69.5638 39.9575C69.0162 39.9575 68.5722 40.4147 68.5722 40.9788ZM65.5974 40.9788C65.5974 41.5428 66.0413 42.0001 66.589 42.0001C67.1366 42.0001 67.5806 41.5428 67.5806 40.9788C67.5806 40.4147 67.1366 39.9575 66.589 39.9575C66.0413 39.9575 65.5974 40.4147 65.5974 40.9788ZM62.6226 40.9788C62.6226 41.5428 63.0665 42.0001 63.6142 42.0001C64.1618 42.0001 64.6058 41.5428 64.6058 40.9788C64.6058 40.4147 64.1618 39.9575 63.6142 39.9575C63.0665 39.9575 62.6226 40.4147 62.6226 40.9788ZM59.6478 40.9788C59.6478 41.5428 60.0917 42.0001 60.6394 42.0001C61.187 42.0001 61.631 41.5428 61.631 40.9788C61.631 40.4147 61.187 39.9575 60.6394 39.9575C60.0917 39.9575 59.6478 40.4147 59.6478 40.9788ZM56.673 40.9788C56.673 41.5428 57.1169 42.0001 57.6646 42.0001C58.2122 42.0001 58.6562 41.5428 58.6562 40.9788C58.6562 40.4147 58.2122 39.9575 57.6646 39.9575C57.1169 39.9575 56.673 40.4147 56.673 40.9788ZM53.6982 40.9788C53.6982 41.5428 54.1422 42.0001 54.6898 42.0001C55.2374 42.0001 55.6814 41.5428 55.6814 40.9788C55.6814 40.4147 55.2374 39.9575 54.6898 39.9575C54.1422 39.9575 53.6982 40.4147 53.6982 40.9788ZM50.7234 40.9788C50.7234 41.5428 51.1674 42.0001 51.715 42.0001C52.2627 42.0001 52.7066 41.5428 52.7066 40.9788C52.7066 40.4147 52.2627 39.9575 51.715 39.9575C51.1674 39.9575 50.7234 40.4147 50.7234 40.9788ZM47.7486 40.9788C47.7486 41.5428 48.1926 42.0001 48.7402 42.0001C49.2879 42.0001 49.7318 41.5428 49.7318 40.9788C49.7318 40.4147 49.2879 39.9575 48.7402 39.9575C48.1926 39.9575 47.7486 40.4147 47.7486 40.9788ZM44.7738 40.9788C44.7738 41.5428 45.2178 42.0001 45.7654 42.0001C46.3131 42.0001 46.757 41.5428 46.757 40.9788C46.757 40.4147 46.3131 39.9575 45.7654 39.9575C45.2178 39.9575 44.7738 40.4147 44.7738 40.9788ZM41.799 40.9788C41.799 41.5428 42.243 42.0001 42.7906 42.0001C43.3383 42.0001 43.7822 41.5428 43.7822 40.9788C43.7822 40.4147 43.3383 39.9575 42.7906 39.9575C42.243 39.9575 41.799 40.4147 41.799 40.9788ZM38.8242 40.9788C38.8242 41.5428 39.2682 42.0001 39.8158 42.0001C40.3635 42.0001 40.8074 41.5428 40.8074 40.9788C40.8074 40.4147 40.3635 39.9575 39.8158 39.9575C39.2682 39.9575 38.8242 40.4147 38.8242 40.9788ZM35.8495 40.9788C35.8495 41.5428 36.2934 42.0001 36.8411 42.0001C37.3887 42.0001 37.8327 41.5428 37.8327 40.9788C37.8327 40.4147 37.3887 39.9575 36.8411 39.9575C36.2934 39.9575 35.8495 40.4147 35.8495 40.9788ZM32.8747 40.9788C32.8747 41.5428 33.3186 42.0001 33.8663 42.0001C34.4139 42.0001 34.8579 41.5428 34.8579 40.9788C34.8579 40.4147 34.4139 39.9575 33.8663 39.9575C33.3186 39.9575 32.8747 40.4147 32.8747 40.9788ZM29.8999 40.9788C29.8999 41.5428 30.3438 42.0001 30.8915 42.0001C31.4391 42.0001 31.8831 41.5428 31.8831 40.9788C31.8831 40.4147 31.4391 39.9575 30.8915 39.9575C30.3438 39.9575 29.8999 40.4147 29.8999 40.9788ZM26.9251 40.9788C26.9251 41.5428 27.369 42.0001 27.9167 42.0001C28.4643 42.0001 28.9083 41.5428 28.9083 40.9788C28.9083 40.4147 28.4643 39.9575 27.9167 39.9575C27.369 39.9575 26.9251 40.4147 26.9251 40.9788ZM23.9503 40.9788C23.9503 41.5428 24.3943 42.0001 24.9419 42.0001C25.4896 42.0001 25.9335 41.5428 25.9335 40.9788C25.9335 40.4147 25.4896 39.9575 24.9419 39.9575C24.3943 39.9575 23.9503 40.4147 23.9503 40.9788ZM20.9755 40.9788C20.9755 41.5428 21.4195 42.0001 21.9671 42.0001C22.5148 42.0001 22.9587 41.5428 22.9587 40.9788C22.9587 40.4147 22.5148 39.9575 21.9671 39.9575C21.4195 39.9575 20.9755 40.4147 20.9755 40.9788ZM18.9923 36.8937C18.4447 36.8937 18.0007 37.3509 18.0007 37.915C18.0007 38.479 18.4447 38.9362 18.9923 38.9362C19.5399 38.9362 19.9839 38.479 19.9839 37.915C19.9839 37.3509 19.5399 36.8937 18.9923 36.8937ZM22.9587 34.8512C22.9587 34.2871 22.5148 33.8299 21.9671 33.8299C21.4195 33.8299 20.9755 34.2871 20.9755 34.8512C20.9755 35.4152 21.4195 35.8724 21.9671 35.8724C22.5148 35.8724 22.9587 35.4152 22.9587 34.8512ZM25.9335 34.8512C25.9335 34.2871 25.4896 33.8299 24.9419 33.8299C24.3943 33.8299 23.9503 34.2871 23.9503 34.8512C23.9503 35.4152 24.3943 35.8724 24.9419 35.8724C25.4896 35.8724 25.9335 35.4152 25.9335 34.8512ZM28.9083 34.8512C28.9083 34.2871 28.4643 33.8299 27.9167 33.8299C27.369 33.8299 26.9251 34.2871 26.9251 34.8512C26.9251 35.4152 27.369 35.8724 27.9167 35.8724C28.4643 35.8724 28.9083 35.4152 28.9083 34.8512ZM31.8831 34.8512C31.8831 34.2871 31.4391 33.8299 30.8915 33.8299C30.3438 33.8299 29.8999 34.2871 29.8999 34.8512C29.8999 35.4152 30.3438 35.8724 30.8915 35.8724C31.4391 35.8724 31.8831 35.4152 31.8831 34.8512ZM34.8579 34.8512C34.8579 34.2871 34.4139 33.8299 33.8663 33.8299C33.3186 33.8299 32.8747 34.2871 32.8747 34.8512C32.8747 35.4152 33.3186 35.8724 33.8663 35.8724C34.4139 35.8724 34.8579 35.4152 34.8579 34.8512ZM37.8327 34.8512C37.8327 34.2871 37.3887 33.8299 36.8411 33.8299C36.2934 33.8299 35.8495 34.2871 35.8495 34.8512C35.8495 35.4152 36.2934 35.8724 36.8411 35.8724C37.3887 35.8724 37.8327 35.4152 37.8327 34.8512ZM40.8074 34.8512C40.8074 34.2871 40.3635 33.8299 39.8158 33.8299C39.2682 33.8299 38.8242 34.2871 38.8242 34.8512C38.8242 35.4152 39.2682 35.8724 39.8158 35.8724C40.3635 35.8724 40.8074 35.4152 40.8074 34.8512ZM43.7822 34.8512C43.7822 34.2871 43.3383 33.8299 42.7906 33.8299C42.243 33.8299 41.799 34.2871 41.799 34.8512C41.799 35.4152 42.243 35.8724 42.7906 35.8724C43.3383 35.8724 43.7822 35.4152 43.7822 34.8512ZM46.757 34.8512C46.757 34.2871 46.3131 33.8299 45.7654 33.8299C45.2178 33.8299 44.7738 34.2871 44.7738 34.8512C44.7738 35.4152 45.2178 35.8724 45.7654 35.8724C46.3131 35.8724 46.757 35.4152 46.757 34.8512ZM49.7318 34.8512C49.7318 34.2871 49.2879 33.8299 48.7402 33.8299C48.1926 33.8299 47.7486 34.2871 47.7486 34.8512C47.7486 35.4152 48.1926 35.8724 48.7402 35.8724C49.2879 35.8724 49.7318 35.4152 49.7318 34.8512ZM52.7066 34.8512C52.7066 34.2871 52.2627 33.8299 51.715 33.8299C51.1674 33.8299 50.7234 34.2871 50.7234 34.8512C50.7234 35.4152 51.1674 35.8724 51.715 35.8724C52.2627 35.8724 52.7066 35.4152 52.7066 34.8512ZM55.6814 34.8512C55.6814 34.2871 55.2374 33.8299 54.6898 33.8299C54.1422 33.8299 53.6982 34.2871 53.6982 34.8512C53.6982 35.4152 54.1422 35.8724 54.6898 35.8724C55.2374 35.8724 55.6814 35.4152 55.6814 34.8512ZM58.6562 34.8512C58.6562 34.2871 58.2122 33.8299 57.6646 33.8299C57.1169 33.8299 56.673 34.2871 56.673 34.8512C56.673 35.4152 57.1169 35.8724 57.6646 35.8724C58.2122 35.8724 58.6562 35.4152 58.6562 34.8512ZM61.631 34.8512C61.631 34.2871 61.187 33.8299 60.6394 33.8299C60.0917 33.8299 59.6478 34.2871 59.6478 34.8512C59.6478 35.4152 60.0917 35.8724 60.6394 35.8724C61.187 35.8724 61.631 35.4152 61.631 34.8512ZM64.6058 34.8512C64.6058 34.2871 64.1618 33.8299 63.6142 33.8299C63.0665 33.8299 62.6226 34.2871 62.6226 34.8512C62.6226 35.4152 63.0665 35.8724 63.6142 35.8724C64.1618 35.8724 64.6058 35.4152 64.6058 34.8512ZM67.5806 34.8512C67.5806 34.2871 67.1366 33.8299 66.589 33.8299C66.0413 33.8299 65.5974 34.2871 65.5974 34.8512C65.5974 35.4152 66.0413 35.8724 66.589 35.8724C67.1366 35.8724 67.5806 35.4152 67.5806 34.8512ZM70.5554 34.8512C70.5554 34.2871 70.1115 33.8299 69.5638 33.8299C69.0162 33.8299 68.5722 34.2871 68.5722 34.8512C68.5722 35.4152 69.0162 35.8724 69.5638 35.8724C70.1115 35.8724 70.5554 35.4152 70.5554 34.8512ZM73.5302 34.8512C73.5302 34.2871 73.0863 33.8299 72.5386 33.8299C71.991 33.8299 71.547 34.2871 71.547 34.8512C71.547 35.4152 71.991 35.8724 72.5386 35.8724C73.0863 35.8724 73.5302 35.4152 73.5302 34.8512ZM76.505 34.8512C76.505 34.2871 76.0611 33.8299 75.5134 33.8299C74.9658 33.8299 74.5218 34.2871 74.5218 34.8512C74.5218 35.4152 74.9658 35.8724 75.5134 35.8724C76.0611 35.8724 76.505 35.4152 76.505 34.8512ZM79.4798 34.8512C79.4798 34.2871 79.0359 33.8299 78.4882 33.8299C77.9406 33.8299 77.4966 34.2871 77.4966 34.8512C77.4966 35.4152 77.9406 35.8724 78.4882 35.8724C79.0359 35.8724 79.4798 35.4152 79.4798 34.8512ZM82.4546 34.8512C82.4546 34.2871 82.0107 33.8299 81.463 33.8299C80.9154 33.8299 80.4714 34.2871 80.4714 34.8512C80.4714 35.4152 80.9154 35.8724 81.463 35.8724C82.0107 35.8724 82.4546 35.4152 82.4546 34.8512ZM85.4294 34.8512C85.4294 34.2871 84.9854 33.8299 84.4378 33.8299C83.8901 33.8299 83.4462 34.2871 83.4462 34.8512C83.4462 35.4152 83.8901 35.8724 84.4378 35.8724C84.9854 35.8724 85.4294 35.4152 85.4294 34.8512ZM88.4041 34.8512C88.4041 34.2871 87.9602 33.8299 87.4125 33.8299C86.8649 33.8299 86.421 34.2871 86.421 34.8512C86.421 35.4152 86.8649 35.8724 87.4125 35.8724C87.9602 35.8724 88.4041 35.4152 88.4041 34.8512ZM91.3789 34.8512C91.3789 34.2871 90.935 33.8299 90.3873 33.8299C89.8397 33.8299 89.3957 34.2871 89.3957 34.8512C89.3957 35.4152 89.8397 35.8724 90.3873 35.8724C90.935 35.8724 91.3789 35.4152 91.3789 34.8512ZM94.3537 34.8512C94.3537 34.2871 93.9097 33.8299 93.3621 33.8299C92.8145 33.8299 92.3705 34.2871 92.3705 34.8512C92.3705 35.4152 92.8145 35.8724 93.3621 35.8724C93.9097 35.8724 94.3537 35.4152 94.3537 34.8512ZM97.3285 34.8512C97.3285 34.2871 96.8845 33.8299 96.3369 33.8299C95.7892 33.8299 95.3453 34.2871 95.3453 34.8512C95.3453 35.4152 95.7892 35.8724 96.3369 35.8724C96.8845 35.8724 97.3285 35.4152 97.3285 34.8512ZM100.303 34.8512C100.303 34.2871 99.8593 33.8299 99.3117 33.8299C98.764 33.8299 98.3201 34.2871 98.3201 34.8512C98.3201 35.4152 98.764 35.8724 99.3117 35.8724C99.8593 35.8724 100.303 35.4152 100.303 34.8512ZM103.278 34.8512C103.278 34.2871 102.834 33.8299 102.286 33.8299C101.739 33.8299 101.295 34.2871 101.295 34.8512C101.295 35.4152 101.739 35.8724 102.286 35.8724C102.834 35.8724 103.278 35.4152 103.278 34.8512ZM106.253 34.8512C106.253 34.2871 105.809 33.8299 105.261 33.8299C104.714 33.8299 104.27 34.2871 104.27 34.8512C104.27 35.4152 104.714 35.8724 105.261 35.8724C105.809 35.8724 106.253 35.4152 106.253 34.8512ZM109.228 34.8512C109.228 34.2871 108.784 33.8299 108.236 33.8299C107.688 33.8299 107.244 34.2871 107.244 34.8512C107.244 35.4152 107.688 35.8724 108.236 35.8724C108.784 35.8724 109.228 35.4152 109.228 34.8512ZM112.202 34.8512C112.202 34.2871 111.758 33.8299 111.211 33.8299C110.663 33.8299 110.219 34.2871 110.219 34.8512C110.219 35.4152 110.663 35.8724 111.211 35.8724C111.758 35.8724 112.202 35.4152 112.202 34.8512ZM115.177 34.8512C115.177 34.2871 114.733 33.8299 114.186 33.8299C113.638 33.8299 113.194 34.2871 113.194 34.8512C113.194 35.4152 113.638 35.8724 114.186 35.8724C114.733 35.8724 115.177 35.4152 115.177 34.8512ZM118.152 34.8512C118.152 34.2871 117.708 33.8299 117.16 33.8299C116.613 33.8299 116.169 34.2871 116.169 34.8512C116.169 35.4152 116.613 35.8724 117.16 35.8724C117.708 35.8724 118.152 35.4152 118.152 34.8512ZM121.127 34.8512C121.127 34.2871 120.683 33.8299 120.135 33.8299C119.588 33.8299 119.144 34.2871 119.144 34.8512C119.144 35.4152 119.588 35.8724 120.135 35.8724C120.683 35.8724 121.127 35.4152 121.127 34.8512ZM124.102 34.8512C124.102 34.2871 123.658 33.8299 123.11 33.8299C122.562 33.8299 122.118 34.2871 122.118 34.8512C122.118 35.4152 122.562 35.8724 123.11 35.8724C123.658 35.8724 124.102 35.4152 124.102 34.8512ZM127.076 34.8512C127.076 34.2871 126.632 33.8299 126.085 33.8299C125.537 33.8299 125.093 34.2871 125.093 34.8512C125.093 35.4152 125.537 35.8724 126.085 35.8724C126.632 35.8724 127.076 35.4152 127.076 34.8512ZM21.9671 38.9362C22.5148 38.9362 22.9587 38.479 22.9587 37.915C22.9587 37.3509 22.5148 36.8937 21.9671 36.8937C21.4195 36.8937 20.9755 37.3509 20.9755 37.915C20.9755 38.479 21.4195 38.9362 21.9671 38.9362ZM24.9419 38.9362C25.4896 38.9362 25.9335 38.479 25.9335 37.915C25.9335 37.3509 25.4896 36.8937 24.9419 36.8937C24.3943 36.8937 23.9503 37.3509 23.9503 37.915C23.9503 38.479 24.3943 38.9362 24.9419 38.9362ZM27.9167 38.9362C28.4643 38.9362 28.9083 38.479 28.9083 37.915C28.9083 37.3509 28.4643 36.8937 27.9167 36.8937C27.369 36.8937 26.9251 37.3509 26.9251 37.915C26.9251 38.479 27.369 38.9362 27.9167 38.9362ZM30.8915 38.9362C31.4391 38.9362 31.8831 38.479 31.8831 37.915C31.8831 37.3509 31.4391 36.8937 30.8915 36.8937C30.3438 36.8937 29.8999 37.3509 29.8999 37.915C29.8999 38.479 30.3438 38.9362 30.8915 38.9362ZM33.8663 38.9362C34.4139 38.9362 34.8579 38.479 34.8579 37.915C34.8579 37.3509 34.4139 36.8937 33.8663 36.8937C33.3186 36.8937 32.8747 37.3509 32.8747 37.915C32.8747 38.479 33.3186 38.9362 33.8663 38.9362ZM36.8411 38.9362C37.3887 38.9362 37.8327 38.479 37.8327 37.915C37.8327 37.3509 37.3887 36.8937 36.8411 36.8937C36.2934 36.8937 35.8495 37.3509 35.8495 37.915C35.8495 38.479 36.2934 38.9362 36.8411 38.9362ZM39.8158 38.9362C40.3635 38.9362 40.8074 38.479 40.8074 37.915C40.8074 37.3509 40.3635 36.8937 39.8158 36.8937C39.2682 36.8937 38.8242 37.3509 38.8242 37.915C38.8242 38.479 39.2682 38.9362 39.8158 38.9362ZM42.7906 38.9362C43.3383 38.9362 43.7822 38.479 43.7822 37.915C43.7822 37.3509 43.3383 36.8937 42.7906 36.8937C42.243 36.8937 41.799 37.3509 41.799 37.915C41.799 38.479 42.243 38.9362 42.7906 38.9362ZM45.7654 38.9362C46.3131 38.9362 46.757 38.479 46.757 37.915C46.757 37.3509 46.3131 36.8937 45.7654 36.8937C45.2178 36.8937 44.7738 37.3509 44.7738 37.915C44.7738 38.479 45.2178 38.9362 45.7654 38.9362ZM48.7402 38.9362C49.2879 38.9362 49.7318 38.479 49.7318 37.915C49.7318 37.3509 49.2879 36.8937 48.7402 36.8937C48.1926 36.8937 47.7486 37.3509 47.7486 37.915C47.7486 38.479 48.1926 38.9362 48.7402 38.9362ZM51.715 38.9362C52.2627 38.9362 52.7066 38.479 52.7066 37.915C52.7066 37.3509 52.2627 36.8937 51.715 36.8937C51.1674 36.8937 50.7234 37.3509 50.7234 37.915C50.7234 38.479 51.1674 38.9362 51.715 38.9362ZM54.6898 38.9362C55.2374 38.9362 55.6814 38.479 55.6814 37.915C55.6814 37.3509 55.2374 36.8937 54.6898 36.8937C54.1422 36.8937 53.6982 37.3509 53.6982 37.915C53.6982 38.479 54.1422 38.9362 54.6898 38.9362ZM57.6646 38.9362C58.2122 38.9362 58.6562 38.479 58.6562 37.915C58.6562 37.3509 58.2122 36.8937 57.6646 36.8937C57.1169 36.8937 56.673 37.3509 56.673 37.915C56.673 38.479 57.1169 38.9362 57.6646 38.9362ZM60.6394 38.9362C61.187 38.9362 61.631 38.479 61.631 37.915C61.631 37.3509 61.187 36.8937 60.6394 36.8937C60.0917 36.8937 59.6478 37.3509 59.6478 37.915C59.6478 38.479 60.0917 38.9362 60.6394 38.9362ZM63.6142 38.9362C64.1618 38.9362 64.6058 38.479 64.6058 37.915C64.6058 37.3509 64.1618 36.8937 63.6142 36.8937C63.0665 36.8937 62.6226 37.3509 62.6226 37.915C62.6226 38.479 63.0665 38.9362 63.6142 38.9362ZM66.589 38.9362C67.1366 38.9362 67.5806 38.479 67.5806 37.915C67.5806 37.3509 67.1366 36.8937 66.589 36.8937C66.0413 36.8937 65.5974 37.3509 65.5974 37.915C65.5974 38.479 66.0413 38.9362 66.589 38.9362ZM69.5638 38.9362C70.1115 38.9362 70.5554 38.479 70.5554 37.915C70.5554 37.3509 70.1115 36.8937 69.5638 36.8937C69.0162 36.8937 68.5722 37.3509 68.5722 37.915C68.5722 38.479 69.0162 38.9362 69.5638 38.9362ZM72.5386 38.9362C73.0863 38.9362 73.5302 38.479 73.5302 37.915C73.5302 37.3509 73.0863 36.8937 72.5386 36.8937C71.991 36.8937 71.547 37.3509 71.547 37.915C71.547 38.479 71.991 38.9362 72.5386 38.9362ZM75.5134 38.9362C76.0611 38.9362 76.505 38.479 76.505 37.915C76.505 37.3509 76.0611 36.8937 75.5134 36.8937C74.9658 36.8937 74.5218 37.3509 74.5218 37.915C74.5218 38.479 74.9658 38.9362 75.5134 38.9362ZM78.4882 38.9362C79.0359 38.9362 79.4798 38.479 79.4798 37.915C79.4798 37.3509 79.0359 36.8937 78.4882 36.8937C77.9406 36.8937 77.4966 37.3509 77.4966 37.915C77.4966 38.479 77.9406 38.9362 78.4882 38.9362ZM81.463 38.9362C82.0107 38.9362 82.4546 38.479 82.4546 37.915C82.4546 37.3509 82.0107 36.8937 81.463 36.8937C80.9154 36.8937 80.4714 37.3509 80.4714 37.915C80.4714 38.479 80.9154 38.9362 81.463 38.9362ZM84.4378 38.9362C84.9854 38.9362 85.4294 38.479 85.4294 37.915C85.4294 37.3509 84.9854 36.8937 84.4378 36.8937C83.8901 36.8937 83.4462 37.3509 83.4462 37.915C83.4462 38.479 83.8901 38.9362 84.4378 38.9362ZM87.4125 38.9362C87.9602 38.9362 88.4041 38.479 88.4041 37.915C88.4041 37.3509 87.9602 36.8937 87.4125 36.8937C86.8649 36.8937 86.421 37.3509 86.421 37.915C86.421 38.479 86.8649 38.9362 87.4125 38.9362ZM90.3873 38.9362C90.935 38.9362 91.3789 38.479 91.3789 37.915C91.3789 37.3509 90.935 36.8937 90.3873 36.8937C89.8397 36.8937 89.3957 37.3509 89.3957 37.915C89.3957 38.479 89.8397 38.9362 90.3873 38.9362ZM93.3621 38.9362C93.9097 38.9362 94.3537 38.479 94.3537 37.915C94.3537 37.3509 93.9097 36.8937 93.3621 36.8937C92.8145 36.8937 92.3705 37.3509 92.3705 37.915C92.3705 38.479 92.8145 38.9362 93.3621 38.9362ZM96.3369 38.9362C96.8845 38.9362 97.3285 38.479 97.3285 37.915C97.3285 37.3509 96.8845 36.8937 96.3369 36.8937C95.7892 36.8937 95.3453 37.3509 95.3453 37.915C95.3453 38.479 95.7892 38.9362 96.3369 38.9362ZM99.3117 38.9362C99.8593 38.9362 100.303 38.479 100.303 37.915C100.303 37.3509 99.8593 36.8937 99.3117 36.8937C98.764 36.8937 98.3201 37.3509 98.3201 37.915C98.3201 38.479 98.764 38.9362 99.3117 38.9362ZM102.286 38.9362C102.834 38.9362 103.278 38.479 103.278 37.915C103.278 37.3509 102.834 36.8937 102.286 36.8937C101.739 36.8937 101.295 37.3509 101.295 37.915C101.295 38.479 101.739 38.9362 102.286 38.9362ZM105.261 38.9362C105.809 38.9362 106.253 38.479 106.253 37.915C106.253 37.3509 105.809 36.8937 105.261 36.8937C104.714 36.8937 104.27 37.3509 104.27 37.915C104.27 38.479 104.714 38.9362 105.261 38.9362ZM108.236 38.9362C108.784 38.9362 109.228 38.479 109.228 37.915C109.228 37.3509 108.784 36.8937 108.236 36.8937C107.688 36.8937 107.244 37.3509 107.244 37.915C107.244 38.479 107.688 38.9362 108.236 38.9362ZM111.211 38.9362C111.758 38.9362 112.202 38.479 112.202 37.915C112.202 37.3509 111.758 36.8937 111.211 36.8937C110.663 36.8937 110.219 37.3509 110.219 37.915C110.219 38.479 110.663 38.9362 111.211 38.9362ZM114.186 38.9362C114.733 38.9362 115.177 38.479 115.177 37.915C115.177 37.3509 114.733 36.8937 114.186 36.8937C113.638 36.8937 113.194 37.3509 113.194 37.915C113.194 38.479 113.638 38.9362 114.186 38.9362ZM117.16 38.9362C117.708 38.9362 118.152 38.479 118.152 37.915C118.152 37.3509 117.708 36.8937 117.16 36.8937C116.613 36.8937 116.169 37.3509 116.169 37.915C116.169 38.479 116.613 38.9362 117.16 38.9362ZM120.135 38.9362C120.683 38.9362 121.127 38.479 121.127 37.915C121.127 37.3509 120.683 36.8937 120.135 36.8937C119.588 36.8937 119.144 37.3509 119.144 37.915C119.144 38.479 119.588 38.9362 120.135 38.9362ZM123.11 38.9362C123.658 38.9362 124.102 38.479 124.102 37.915C124.102 37.3509 123.658 36.8937 123.11 36.8937C122.562 36.8937 122.118 37.3509 122.118 37.915C122.118 38.479 122.562 38.9362 123.11 38.9362ZM126.085 38.9362C126.632 38.9362 127.076 38.479 127.076 37.915C127.076 37.3509 126.632 36.8937 126.085 36.8937C125.537 36.8937 125.093 37.3509 125.093 37.915C125.093 38.479 125.537 38.9362 126.085 38.9362ZM129.06 38.9362C129.607 38.9362 130.051 38.479 130.051 37.915C130.051 37.3509 129.607 36.8937 129.06 36.8937C128.512 36.8937 128.068 37.3509 128.068 37.915C128.068 38.479 128.512 38.9362 129.06 38.9362ZM129.06 35.8724C129.607 35.8724 130.051 35.4152 130.051 34.8512C130.051 34.2871 129.607 33.8299 129.06 33.8299C128.512 33.8299 128.068 34.2871 128.068 34.8512C128.068 35.4152 128.512 35.8724 129.06 35.8724ZM132.034 38.9362C132.582 38.9362 133.026 38.479 133.026 37.915C133.026 37.3509 132.582 36.8937 132.034 36.8937C131.487 36.8937 131.043 37.3509 131.043 37.915C131.043 38.479 131.487 38.9362 132.034 38.9362ZM132.034 35.8724C132.582 35.8724 133.026 35.4152 133.026 34.8512C133.026 34.2871 132.582 33.8299 132.034 33.8299C131.487 33.8299 131.043 34.2871 131.043 34.8512C131.043 35.4152 131.487 35.8724 132.034 35.8724ZM129.06 32.8086C129.607 32.8086 130.051 32.3514 130.051 31.7873C130.051 31.2233 129.607 30.7661 129.06 30.7661C128.512 30.7661 128.068 31.2233 128.068 31.7873C128.068 32.3514 128.512 32.8086 129.06 32.8086ZM129.06 29.7448C129.607 29.7448 130.051 29.2876 130.051 28.7235C130.051 28.1595 129.607 27.7023 129.06 27.7023C128.512 27.7023 128.068 28.1595 128.068 28.7235C128.068 29.2876 128.512 29.7448 129.06 29.7448ZM129.06 26.681C129.607 26.681 130.051 26.2237 130.051 25.6597C130.051 25.0957 129.607 24.6384 129.06 24.6384C128.512 24.6384 128.068 25.0957 128.068 25.6597C128.068 26.2237 128.512 26.681 129.06 26.681ZM132.034 32.8086C132.582 32.8086 133.026 32.3514 133.026 31.7873C133.026 31.2233 132.582 30.7661 132.034 30.7661C131.487 30.7661 131.043 31.2233 131.043 31.7873C131.043 32.3514 131.487 32.8086 132.034 32.8086ZM132.034 29.7448C132.582 29.7448 133.026 29.2876 133.026 28.7235C133.026 28.1595 132.582 27.7023 132.034 27.7023C131.487 27.7023 131.043 28.1595 131.043 28.7235C131.043 29.2876 131.487 29.7448 132.034 29.7448ZM132.034 26.681C132.582 26.681 133.026 26.2237 133.026 25.6597C133.026 25.0957 132.582 24.6384 132.034 24.6384C131.487 24.6384 131.043 25.0957 131.043 25.6597C131.043 26.2237 131.487 26.681 132.034 26.681ZM129.06 23.6172C129.607 23.6172 130.051 23.1599 130.051 22.5959C130.051 22.0319 129.607 21.5746 129.06 21.5746C128.512 21.5746 128.068 22.0319 128.068 22.5959C128.068 23.1599 128.512 23.6172 129.06 23.6172ZM129.06 20.5534C129.607 20.5534 130.051 20.0961 130.051 19.5321C130.051 18.9681 129.607 18.5108 129.06 18.5108C128.512 18.5108 128.068 18.9681 128.068 19.5321C128.068 20.0961 128.512 20.5534 129.06 20.5534ZM129.06 17.4895C129.607 17.4895 130.051 17.0323 130.051 16.4683C130.051 15.9042 129.607 15.447 129.06 15.447C128.512 15.447 128.068 15.9042 128.068 16.4683C128.068 17.0323 128.512 17.4895 129.06 17.4895ZM132.034 23.6172C132.582 23.6172 133.026 23.1599 133.026 22.5959C133.026 22.0319 132.582 21.5746 132.034 21.5746C131.487 21.5746 131.043 22.0319 131.043 22.5959C131.043 23.1599 131.487 23.6172 132.034 23.6172ZM132.034 20.5534C132.582 20.5534 133.026 20.0961 133.026 19.5321C133.026 18.9681 132.582 18.5108 132.034 18.5108C131.487 18.5108 131.043 18.9681 131.043 19.5321C131.043 20.0961 131.487 20.5534 132.034 20.5534ZM132.034 17.4895C132.582 17.4895 133.026 17.0323 133.026 16.4683C133.026 15.9042 132.582 15.447 132.034 15.447C131.487 15.447 131.043 15.9042 131.043 16.4683C131.043 17.0323 131.487 17.4895 132.034 17.4895ZM129.06 14.4257C129.607 14.4257 130.051 13.9685 130.051 13.4045C130.051 12.8404 129.607 12.3832 129.06 12.3832C128.512 12.3832 128.068 12.8404 128.068 13.4045C128.068 13.9685 128.512 14.4257 129.06 14.4257ZM129.06 11.3619C129.607 11.3619 130.051 10.9047 130.051 10.3406C130.051 9.77661 129.607 9.31937 129.06 9.31937C128.512 9.31937 128.068 9.77661 128.068 10.3406C128.068 10.9047 128.512 11.3619 129.06 11.3619ZM129.06 8.2981C129.607 8.2981 130.051 7.84086 130.051 7.27683C130.051 6.7128 129.607 6.25556 129.06 6.25556C128.512 6.25556 128.068 6.7128 128.068 7.27683C128.068 7.84086 128.512 8.2981 129.06 8.2981ZM132.034 14.4257C132.582 14.4257 133.026 13.9685 133.026 13.4045C133.026 12.8404 132.582 12.3832 132.034 12.3832C131.487 12.3832 131.043 12.8404 131.043 13.4045C131.043 13.9685 131.487 14.4257 132.034 14.4257ZM132.034 11.3619C132.582 11.3619 133.026 10.9047 133.026 10.3406C133.026 9.77661 132.582 9.31937 132.034 9.31937C131.487 9.31937 131.043 9.77661 131.043 10.3406C131.043 10.9047 131.487 11.3619 132.034 11.3619ZM132.034 8.2981C132.582 8.2981 133.026 7.84086 133.026 7.27683C133.026 6.7128 132.582 6.25556 132.034 6.25556C131.487 6.25556 131.043 6.7128 131.043 7.27683C131.043 7.84086 131.487 8.2981 132.034 8.2981ZM129.06 5.23429C129.607 5.23429 130.051 4.77705 130.051 4.21302C130.051 3.64898 129.607 3.19174 129.06 3.19174C128.512 3.19174 128.068 3.64898 128.068 4.21302C128.068 4.77705 128.512 5.23429 129.06 5.23429ZM129.06 2.17047C129.607 2.17047 130.051 1.71323 130.051 1.1492C130.051 0.585169 129.607 0.12793 129.06 0.12793C128.512 0.12793 128.068 0.585169 128.068 1.1492C128.068 1.71323 128.512 2.17047 129.06 2.17047ZM132.034 5.23429C132.582 5.23429 133.026 4.77705 133.026 4.21302C133.026 3.64898 132.582 3.19174 132.034 3.19174C131.487 3.19174 131.043 3.64898 131.043 4.21302C131.043 4.77705 131.487 5.23429 132.034 5.23429ZM132.034 2.17047C132.582 2.17047 133.026 1.71323 133.026 1.1492C133.026 0.585169 132.582 0.12793 132.034 0.12793C131.487 0.12793 131.043 0.585169 131.043 1.1492C131.043 1.71323 131.487 2.17047 132.034 2.17047Z" fill="#4A399D"/>
<path d="M2.1619 40.9788C2.1619 41.5428 1.71795 42.0001 1.17031 42.0001C0.622667 42.0001 0.178711 41.5428 0.178711 40.9788C0.178711 40.4147 0.622667 39.9575 1.17031 39.9575C1.71795 39.9575 2.1619 40.4147 2.1619 40.9788Z" fill="#4A399D"/>
<path d="M2.1619 37.915C2.1619 38.479 1.71795 38.9362 1.17031 38.9362C0.622667 38.9362 0.178711 38.479 0.178711 37.915C0.178711 37.3509 0.622667 36.8937 1.17031 36.8937C1.71795 36.8937 2.1619 37.3509 2.1619 37.915Z" fill="#4A399D"/>
<path d="M2.1619 34.8512C2.1619 35.4152 1.71795 35.8724 1.17031 35.8724C0.622667 35.8724 0.178711 35.4152 0.178711 34.8512C0.178711 34.2871 0.622667 33.8299 1.17031 33.8299C1.71795 33.8299 2.1619 34.2871 2.1619 34.8512Z" fill="#4A399D"/>
<path d="M5.1367 40.9788C5.1367 41.5428 4.69275 42.0001 4.1451 42.0001C3.59746 42.0001 3.1535 41.5428 3.1535 40.9788C3.1535 40.4147 3.59746 39.9575 4.1451 39.9575C4.69275 39.9575 5.1367 40.4147 5.1367 40.9788Z" fill="#4A399D"/>
<path d="M5.1367 37.915C5.1367 38.479 4.69275 38.9362 4.1451 38.9362C3.59746 38.9362 3.1535 38.479 3.1535 37.915C3.1535 37.3509 3.59746 36.8937 4.1451 36.8937C4.69275 36.8937 5.1367 37.3509 5.1367 37.915Z" fill="#4A399D"/>
<path d="M5.1367 34.8512C5.1367 35.4152 4.69275 35.8724 4.1451 35.8724C3.59746 35.8724 3.1535 35.4152 3.1535 34.8512C3.1535 34.2871 3.59746 33.8299 4.1451 33.8299C4.69275 33.8299 5.1367 34.2871 5.1367 34.8512Z" fill="#4A399D"/>
<path d="M8.11149 40.9788C8.11149 41.5428 7.66753 42.0001 7.11989 42.0001C6.57224 42.0001 6.1283 41.5428 6.1283 40.9788C6.1283 40.4147 6.57224 39.9575 7.11989 39.9575C7.66753 39.9575 8.11149 40.4147 8.11149 40.9788Z" fill="#4A399D"/>
<path d="M8.11149 37.915C8.11149 38.479 7.66753 38.9362 7.11989 38.9362C6.57224 38.9362 6.1283 38.479 6.1283 37.915C6.1283 37.3509 6.57224 36.8937 7.11989 36.8937C7.66753 36.8937 8.11149 37.3509 8.11149 37.915Z" fill="#4A399D"/>
<path d="M8.11149 34.8512C8.11149 35.4152 7.66753 35.8724 7.11989 35.8724C6.57224 35.8724 6.1283 35.4152 6.1283 34.8512C6.1283 34.2871 6.57224 33.8299 7.11989 33.8299C7.66753 33.8299 8.11149 34.2871 8.11149 34.8512Z" fill="#4A399D"/>
<path d="M11.0863 40.9788C11.0863 41.5428 10.6423 42.0001 10.0947 42.0001C9.54704 42.0001 9.10308 41.5428 9.10308 40.9788C9.10308 40.4147 9.54704 39.9575 10.0947 39.9575C10.6423 39.9575 11.0863 40.4147 11.0863 40.9788Z" fill="#4A399D"/>
<path d="M11.0863 37.915C11.0863 38.479 10.6423 38.9362 10.0947 38.9362C9.54704 38.9362 9.10308 38.479 9.10308 37.915C9.10308 37.3509 9.54704 36.8937 10.0947 36.8937C10.6423 36.8937 11.0863 37.3509 11.0863 37.915Z" fill="#4A399D"/>
<path d="M11.0863 34.8512C11.0863 35.4152 10.6423 35.8724 10.0947 35.8724C9.54704 35.8724 9.10308 35.4152 9.10308 34.8512C9.10308 34.2871 9.54704 33.8299 10.0947 33.8299C10.6423 33.8299 11.0863 34.2871 11.0863 34.8512Z" fill="#4A399D"/>
<path d="M14.0611 40.9788C14.0611 41.5428 13.6171 42.0001 13.0695 42.0001C12.5218 42.0001 12.0779 41.5428 12.0779 40.9788C12.0779 40.4147 12.5218 39.9575 13.0695 39.9575C13.6171 39.9575 14.0611 40.4147 14.0611 40.9788Z" fill="#4A399D"/>
<path d="M14.0611 37.915C14.0611 38.479 13.6171 38.9362 13.0695 38.9362C12.5218 38.9362 12.0779 38.479 12.0779 37.915C12.0779 37.3509 12.5218 36.8937 13.0695 36.8937C13.6171 36.8937 14.0611 37.3509 14.0611 37.915Z" fill="#4A399D"/>
<path d="M14.0611 34.8512C14.0611 35.4152 13.6171 35.8724 13.0695 35.8724C12.5218 35.8724 12.0779 35.4152 12.0779 34.8512C12.0779 34.2871 12.5218 33.8299 13.0695 33.8299C13.6171 33.8299 14.0611 34.2871 14.0611 34.8512Z" fill="#4A399D"/>
<path d="M17.0359 40.9788C17.0359 41.5428 16.5919 42.0001 16.0443 42.0001C15.4966 42.0001 15.0527 41.5428 15.0527 40.9788C15.0527 40.4147 15.4966 39.9575 16.0443 39.9575C16.5919 39.9575 17.0359 40.4147 17.0359 40.9788Z" fill="#4A399D"/>
<path d="M17.0359 37.915C17.0359 38.479 16.5919 38.9362 16.0443 38.9362C15.4966 38.9362 15.0527 38.479 15.0527 37.915C15.0527 37.3509 15.4966 36.8937 16.0443 36.8937C16.5919 36.8937 17.0359 37.3509 17.0359 37.915Z" fill="#4A399D"/>
<path d="M17.0359 34.8512C17.0359 35.4152 16.5919 35.8724 16.0443 35.8724C15.4966 35.8724 15.0527 35.4152 15.0527 34.8512C15.0527 34.2871 15.4966 33.8299 16.0443 33.8299C16.5919 33.8299 17.0359 34.2871 17.0359 34.8512Z" fill="#4A399D"/>
</svg>
