<svg width="141.771484" height="35.744492" viewBox="0 0 141.771 35.7445" fill="none" xmlns="http://www.w3.org/2000/svg" xmlns:xlink="http://www.w3.org/1999/xlink">
	<desc>
			Created with Pixso.
	</desc>
	<defs/>
	<path id="Psevdo" d="M132.84 1.02C132.84 1.58 132.4 2.04 131.85 2.04L131.85 0C132.4 0 132.84 0.45 132.84 1.02ZM135.82 1.02C135.82 1.58 135.37 2.04 134.83 2.04C134.28 2.04 133.83 1.58 133.83 1.02C133.83 0.45 134.28 0 134.83 0C135.37 0 135.82 0.45 135.82 1.02ZM138.79 1.02C138.79 1.58 138.35 2.04 137.8 2.04C137.25 2.04 136.81 1.58 136.81 1.02C136.81 0.45 137.25 0 137.8 0C138.35 0 138.79 0.45 138.79 1.02ZM141.77 1.02C141.77 1.58 141.32 2.04 140.78 2.04C140.23 2.04 139.78 1.58 139.78 1.02C139.78 0.45 140.23 0 140.78 0C141.32 0 141.77 0.45 141.77 1.02ZM132.84 4.08C132.84 4.64 132.4 5.1 131.85 5.1L131.85 3.06C132.4 3.06 132.84 3.52 132.84 4.08ZM135.82 4.08C135.82 4.64 135.37 5.1 134.83 5.1C134.28 5.1 133.83 4.64 133.83 4.08C133.83 3.52 134.28 3.06 134.83 3.06C135.37 3.06 135.82 3.52 135.82 4.08ZM137.8 5.1C137.25 5.1 136.81 4.64 136.81 4.08C136.81 3.52 137.25 3.06 137.8 3.06C138.35 3.06 138.79 3.52 138.79 4.08C138.79 4.64 138.35 5.1 137.8 5.1ZM141.77 4.08C141.77 4.64 141.32 5.1 140.78 5.1C140.23 5.1 139.78 4.64 139.78 4.08C139.78 3.52 140.23 3.06 140.78 3.06C141.32 3.06 141.77 3.52 141.77 4.08ZM132.84 7.14C132.84 7.71 132.4 8.17 131.85 8.17L131.85 6.12C132.4 6.12 132.84 6.58 132.84 7.14ZM135.82 7.14C135.82 7.71 135.37 8.17 134.83 8.17C134.28 8.17 133.83 7.71 133.83 7.14C133.83 6.58 134.28 6.12 134.83 6.12C135.37 6.12 135.82 6.58 135.82 7.14ZM138.79 7.14C138.79 7.71 138.35 8.17 137.8 8.17C137.25 8.17 136.81 7.71 136.81 7.14C136.81 6.58 137.25 6.12 137.8 6.12C138.35 6.12 138.79 6.58 138.79 7.14ZM141.77 7.14C141.77 7.71 141.32 8.17 140.78 8.17C140.23 8.17 139.78 7.71 139.78 7.14C139.78 6.58 140.23 6.12 140.78 6.12C141.32 6.12 141.77 6.58 141.77 7.14ZM132.84 10.21C132.84 10.77 132.4 11.23 131.85 11.23L131.85 9.19C132.4 9.19 132.84 9.64 132.84 10.21ZM135.82 10.21C135.82 10.77 135.37 11.23 134.83 11.23C134.28 11.23 133.83 10.77 133.83 10.21C133.83 9.64 134.28 9.19 134.83 9.19C135.37 9.19 135.82 9.64 135.82 10.21ZM137.8 11.23C137.25 11.23 136.81 10.77 136.81 10.21C136.81 9.64 137.25 9.19 137.8 9.19C138.35 9.19 138.79 9.64 138.79 10.21C138.79 10.77 138.35 11.23 137.8 11.23ZM141.77 10.21C141.77 10.77 141.32 11.23 140.78 11.23C140.23 11.23 139.78 10.77 139.78 10.21C139.78 9.64 140.23 9.19 140.78 9.19C141.32 9.19 141.77 9.64 141.77 10.21ZM132.84 13.27C132.84 13.84 132.4 14.29 131.85 14.29L131.85 12.25C132.4 12.25 132.84 12.71 132.84 13.27ZM135.82 13.27C135.82 13.84 135.37 14.29 134.83 14.29C134.28 14.29 133.83 13.84 133.83 13.27C133.83 12.71 134.28 12.25 134.83 12.25C135.37 12.25 135.82 12.71 135.82 13.27ZM138.79 13.27C138.79 13.84 138.35 14.29 137.8 14.29C137.25 14.29 136.81 13.84 136.81 13.27C136.81 12.71 137.25 12.25 137.8 12.25C138.35 12.25 138.79 12.71 138.79 13.27ZM140.78 14.29C140.23 14.29 139.78 13.84 139.78 13.27C139.78 12.71 140.23 12.25 140.78 12.25C141.32 12.25 141.77 12.71 141.77 13.27C141.77 13.84 141.32 14.29 140.78 14.29ZM132.84 16.34C132.84 16.9 132.4 17.36 131.85 17.36L131.85 15.31C132.4 15.31 132.84 15.77 132.84 16.34ZM134.83 17.36C134.28 17.36 133.83 16.9 133.83 16.34C133.83 15.77 134.28 15.31 134.83 15.31C135.37 15.31 135.82 15.77 135.82 16.34C135.82 16.9 135.37 17.36 134.83 17.36ZM138.79 16.34C138.79 16.9 138.35 17.36 137.8 17.36C137.25 17.36 136.81 16.9 136.81 16.34C136.81 15.77 137.25 15.31 137.8 15.31C138.35 15.31 138.79 15.77 138.79 16.34ZM141.77 16.34C141.77 16.9 141.32 17.36 140.78 17.36C140.23 17.36 139.78 16.9 139.78 16.34C139.78 15.77 140.23 15.31 140.78 15.31C141.32 15.31 141.77 15.77 141.77 16.34ZM132.84 19.4C132.84 19.96 132.4 20.42 131.85 20.42L131.85 18.38C132.4 18.38 132.84 18.84 132.84 19.4ZM135.82 19.4C135.82 19.96 135.37 20.42 134.83 20.42C134.28 20.42 133.83 19.96 133.83 19.4C133.83 18.84 134.28 18.38 134.83 18.38C135.37 18.38 135.82 18.84 135.82 19.4ZM138.79 19.4C138.79 19.96 138.35 20.42 137.8 20.42C137.25 20.42 136.81 19.96 136.81 19.4C136.81 18.84 137.25 18.38 137.8 18.38C138.35 18.38 138.79 18.84 138.79 19.4ZM141.77 19.4C141.77 19.96 141.32 20.42 140.78 20.42C140.23 20.42 139.78 19.96 139.78 19.4C139.78 18.84 140.23 18.38 140.78 18.38C141.32 18.38 141.77 18.84 141.77 19.4ZM132.84 22.46C132.84 23.03 132.4 23.48 131.85 23.48L131.85 21.44C132.4 21.44 132.84 21.9 132.84 22.46ZM135.82 22.46C135.82 23.03 135.37 23.48 134.83 23.48C134.28 23.48 133.83 23.03 133.83 22.46C133.83 21.9 134.28 21.44 134.83 21.44C135.37 21.44 135.82 21.9 135.82 22.46ZM138.79 22.46C138.79 23.03 138.35 23.48 137.8 23.48C137.25 23.48 136.81 23.03 136.81 22.46C136.81 21.9 137.25 21.44 137.8 21.44C138.35 21.44 138.79 21.9 138.79 22.46ZM141.77 22.46C141.77 23.03 141.32 23.48 140.78 23.48C140.23 23.48 139.78 23.03 139.78 22.46C139.78 21.9 140.23 21.44 140.78 21.44C141.32 21.44 141.77 21.9 141.77 22.46ZM132.84 25.53C132.84 26.09 132.4 26.55 131.85 26.55L131.85 24.51C132.4 24.51 132.84 24.96 132.84 25.53ZM134.83 24.51C135.37 24.51 135.82 24.96 135.82 25.53C135.82 26.09 135.37 26.55 134.83 26.55C134.28 26.55 133.83 26.09 133.83 25.53C133.83 24.96 134.28 24.51 134.83 24.51ZM138.79 25.53C138.79 26.09 138.35 26.55 137.8 26.55C137.25 26.55 136.81 26.09 136.81 25.53C136.81 24.96 137.25 24.51 137.8 24.51C138.35 24.51 138.79 24.96 138.79 25.53ZM141.77 25.53C141.77 26.09 141.32 26.55 140.78 26.55C140.23 26.55 139.78 26.09 139.78 25.53C139.78 24.96 140.23 24.51 140.78 24.51C141.32 24.51 141.77 24.96 141.77 25.53ZM1.98 28.59C1.98 29.15 1.53 29.61 0.99 29.61C0.44 29.61 0 29.15 0 28.59C0 28.03 0.44 27.57 0.99 27.57C1.53 27.57 1.98 28.03 1.98 28.59ZM4.95 28.59C4.95 29.15 4.51 29.61 3.96 29.61C3.41 29.61 2.97 29.15 2.97 28.59C2.97 28.03 3.41 27.57 3.96 27.57C4.51 27.57 4.95 28.03 4.95 28.59ZM7.93 28.59C7.93 29.15 7.48 29.61 6.94 29.61C6.39 29.61 5.94 29.15 5.94 28.59C5.94 28.03 6.39 27.57 6.94 27.57C7.48 27.57 7.93 28.03 7.93 28.59ZM10.9 28.59C10.9 29.15 10.46 29.61 9.91 29.61C9.36 29.61 8.92 29.15 8.92 28.59C8.92 28.03 9.36 27.57 9.91 27.57C10.46 27.57 10.9 28.03 10.9 28.59ZM13.88 28.59C13.88 29.15 13.43 29.61 12.89 29.61C12.34 29.61 11.89 29.15 11.89 28.59C11.89 28.03 12.34 27.57 12.89 27.57C13.43 27.57 13.88 28.03 13.88 28.59ZM16.85 28.59C16.85 29.15 16.41 29.61 15.86 29.61C15.31 29.61 14.87 29.15 14.87 28.59C14.87 28.03 15.31 27.57 15.86 27.57C16.41 27.57 16.85 28.03 16.85 28.59ZM19.83 28.59C19.83 29.15 19.38 29.61 18.84 29.61C18.29 29.61 17.84 29.15 17.84 28.59C17.84 28.03 18.29 27.57 18.84 27.57C19.38 27.57 19.83 28.03 19.83 28.59ZM22.8 28.59C22.8 29.15 22.36 29.61 21.81 29.61C21.26 29.61 20.82 29.15 20.82 28.59C20.82 28.03 21.26 27.57 21.81 27.57C22.36 27.57 22.8 28.03 22.8 28.59ZM25.75 28.59C25.75 29.15 25.31 29.61 24.76 29.61C24.21 29.61 23.77 29.15 23.77 28.59C23.77 28.03 24.21 27.57 24.76 27.57C25.31 27.57 25.75 28.03 25.75 28.59ZM28.72 28.59C28.72 29.15 28.28 29.61 27.73 29.61C27.19 29.61 26.74 29.15 26.74 28.59C26.74 28.03 27.19 27.57 27.73 27.57C28.28 27.57 28.72 28.03 28.72 28.59ZM31.7 28.59C31.7 29.15 31.26 29.61 30.71 29.61C30.16 29.61 29.72 29.15 29.72 28.59C29.72 28.03 30.16 27.57 30.71 27.57C31.26 27.57 31.7 28.03 31.7 28.59ZM32.69 28.59C32.69 28.03 33.13 27.57 33.68 27.57C34.23 27.57 34.67 28.03 34.67 28.59C34.67 29.15 34.23 29.61 33.68 29.61C33.13 29.61 32.69 29.15 32.69 28.59ZM37.65 28.59C37.65 29.15 37.21 29.61 36.66 29.61C36.11 29.61 35.67 29.15 35.67 28.59C35.67 28.03 36.11 27.57 36.66 27.57C37.21 27.57 37.65 28.03 37.65 28.59ZM39.63 29.61C39.08 29.61 38.64 29.15 38.64 28.59C38.64 28.03 39.08 27.57 39.63 27.57C40.18 27.57 40.62 28.03 40.62 28.59C40.62 29.15 40.18 29.61 39.63 29.61ZM42.61 27.57C43.15 27.57 43.6 28.03 43.6 28.59C43.6 29.15 43.15 29.61 42.61 29.61C42.06 29.61 41.62 29.15 41.62 28.59C41.62 28.03 42.06 27.57 42.61 27.57ZM46.57 28.59C46.57 29.15 46.13 29.61 45.58 29.61C45.03 29.61 44.59 29.15 44.59 28.59C44.59 28.03 45.03 27.57 45.58 27.57C46.13 27.57 46.57 28.03 46.57 28.59ZM49.55 28.59C49.55 29.15 49.1 29.61 48.56 29.61C48.01 29.61 47.57 29.15 47.57 28.59C47.57 28.03 48.01 27.57 48.56 27.57C49.1 27.57 49.55 28.03 49.55 28.59ZM52.52 28.59C52.52 29.15 52.08 29.61 51.53 29.61C50.98 29.61 50.54 29.15 50.54 28.59C50.54 28.03 50.98 27.57 51.53 27.57C52.08 27.57 52.52 28.03 52.52 28.59ZM55.5 28.59C55.5 29.15 55.05 29.61 54.51 29.61C53.96 29.61 53.51 29.15 53.51 28.59C53.51 28.03 53.96 27.57 54.51 27.57C55.05 27.57 55.5 28.03 55.5 28.59ZM58.47 28.59C58.47 29.15 58.03 29.61 57.48 29.61C56.93 29.61 56.49 29.15 56.49 28.59C56.49 28.03 56.93 27.57 57.48 27.57C58.03 27.57 58.47 28.03 58.47 28.59ZM60.46 29.61C59.91 29.61 59.46 29.15 59.46 28.59C59.46 28.03 59.91 27.57 60.46 27.57C61 27.57 61.45 28.03 61.45 28.59C61.45 29.15 61 29.61 60.46 29.61ZM63.43 27.57C63.98 27.57 64.42 28.03 64.42 28.59C64.42 29.15 63.98 29.61 63.43 29.61C62.88 29.61 62.44 29.15 62.44 28.59C62.44 28.03 62.88 27.57 63.43 27.57ZM67.4 28.59C67.4 29.15 66.95 29.61 66.41 29.61C65.86 29.61 65.41 29.15 65.41 28.59C65.41 28.03 65.86 27.57 66.41 27.57C66.95 27.57 67.4 28.03 67.4 28.59ZM70.37 28.59C70.37 29.15 69.93 29.61 69.38 29.61C68.83 29.61 68.39 29.15 68.39 28.59C68.39 28.03 68.83 27.57 69.38 27.57C69.93 27.57 70.37 28.03 70.37 28.59ZM72.35 27.57C72.9 27.57 73.35 28.03 73.35 28.59C73.35 29.15 72.9 29.61 72.35 29.61C71.81 29.61 71.36 29.15 71.36 28.59C71.36 28.03 71.81 27.57 72.35 27.57ZM76.32 28.59C76.32 29.15 75.88 29.61 75.33 29.61C74.78 29.61 74.34 29.15 74.34 28.59C74.34 28.03 74.78 27.57 75.33 27.57C75.88 27.57 76.32 28.03 76.32 28.59ZM79.3 28.59C79.3 29.15 78.85 29.61 78.3 29.61C77.76 29.61 77.31 29.15 77.31 28.59C77.31 28.03 77.76 27.57 78.3 27.57C78.85 27.57 79.3 28.03 79.3 28.59ZM82.27 28.59C82.27 29.15 81.83 29.61 81.28 29.61C80.73 29.61 80.29 29.15 80.29 28.59C80.29 28.03 80.73 27.57 81.28 27.57C81.83 27.57 82.27 28.03 82.27 28.59ZM84.25 29.61C83.71 29.61 83.26 29.15 83.26 28.59C83.26 28.03 83.71 27.57 84.25 27.57C84.8 27.57 85.25 28.03 85.25 28.59C85.25 29.15 84.8 29.61 84.25 29.61ZM88.22 28.59C88.22 29.15 87.78 29.61 87.23 29.61C86.68 29.61 86.24 29.15 86.24 28.59C86.24 28.03 86.68 27.57 87.23 27.57C87.78 27.57 88.22 28.03 88.22 28.59ZM91.2 28.59C91.2 29.15 90.75 29.61 90.2 29.61C89.66 29.61 89.21 29.15 89.21 28.59C89.21 28.03 89.66 27.57 90.2 27.57C90.75 27.57 91.2 28.03 91.2 28.59ZM93.18 29.61C92.63 29.61 92.19 29.15 92.19 28.59C92.19 28.03 92.63 27.57 93.18 27.57C93.73 27.57 94.17 28.03 94.17 28.59C94.17 29.15 93.73 29.61 93.18 29.61ZM97.14 28.59C97.14 29.15 96.7 29.61 96.15 29.61C95.61 29.61 95.16 29.15 95.16 28.59C95.16 28.03 95.61 27.57 96.15 27.57C96.7 27.57 97.14 28.03 97.14 28.59ZM99.13 27.57C99.68 27.57 100.12 28.03 100.12 28.59C100.12 29.15 99.68 29.61 99.13 29.61C98.58 29.61 98.14 29.15 98.14 28.59C98.14 28.03 98.58 27.57 99.13 27.57ZM102.1 27.57C102.65 27.57 103.1 28.03 103.1 28.59C103.1 29.15 102.65 29.61 102.1 29.61C101.56 29.61 101.11 29.15 101.11 28.59C101.11 28.03 101.56 27.57 102.1 27.57ZM105.08 27.57C105.63 27.57 106.07 28.03 106.07 28.59C106.07 29.15 105.63 29.61 105.08 29.61C104.53 29.61 104.09 29.15 104.09 28.59C104.09 28.03 104.53 27.57 105.08 27.57ZM108.05 29.61C107.51 29.61 107.06 29.15 107.06 28.59C107.06 28.03 107.51 27.57 108.05 27.57C108.6 27.57 109.04 28.03 109.04 28.59C109.04 29.15 108.6 29.61 108.05 29.61ZM112.02 28.59C112.02 29.15 111.58 29.61 111.03 29.61C110.48 29.61 110.04 29.15 110.04 28.59C110.04 28.03 110.48 27.57 111.03 27.57C111.58 27.57 112.02 28.03 112.02 28.59ZM114 27.57C114.55 27.57 114.99 28.03 114.99 28.59C114.99 29.15 114.55 29.61 114 29.61C113.45 29.61 113.01 29.15 113.01 28.59C113.01 28.03 113.45 27.57 114 27.57ZM116.98 27.57C117.52 27.57 117.97 28.03 117.97 28.59C117.97 29.15 117.52 29.61 116.98 29.61C116.43 29.61 115.99 29.15 115.99 28.59C115.99 28.03 116.43 27.57 116.98 27.57ZM119.95 29.61C119.4 29.61 118.96 29.15 118.96 28.59C118.96 28.03 119.4 27.57 119.95 27.57C120.5 27.57 120.94 28.03 120.94 28.59C120.94 29.15 120.5 29.61 119.95 29.61ZM122.93 27.57C123.47 27.57 123.92 28.03 123.92 28.59C123.92 29.15 123.47 29.61 122.93 29.61C122.38 29.61 121.93 29.15 121.93 28.59C121.93 28.03 122.38 27.57 122.93 27.57ZM126.89 28.59C126.89 29.15 126.45 29.61 125.9 29.61C125.35 29.61 124.91 29.15 124.91 28.59C124.91 28.03 125.35 27.57 125.9 27.57C126.45 27.57 126.89 28.03 126.89 28.59ZM129.87 28.59C129.87 29.15 129.42 29.61 128.88 29.61C128.33 29.61 127.89 29.15 127.89 28.59C127.89 28.03 128.33 27.57 128.88 27.57C129.42 27.57 129.87 28.03 129.87 28.59ZM132.84 28.59C132.84 29.15 132.4 29.61 131.85 29.61C131.3 29.61 130.86 29.15 130.86 28.59C130.86 28.03 131.3 27.57 131.85 27.57C132.4 27.57 132.84 28.03 132.84 28.59ZM135.82 28.59C135.82 29.15 135.37 29.61 134.83 29.61C134.28 29.61 133.83 29.15 133.83 28.59C133.83 28.03 134.28 27.57 134.83 27.57C135.37 27.57 135.82 28.03 135.82 28.59ZM138.79 28.59C138.79 29.15 138.35 29.61 137.8 29.61C137.25 29.61 136.81 29.15 136.81 28.59C136.81 28.03 137.25 27.57 137.8 27.57C138.35 27.57 138.79 28.03 138.79 28.59ZM140.78 29.61C140.23 29.61 139.78 29.15 139.78 28.59C139.78 28.03 140.23 27.57 140.78 27.57C141.32 27.57 141.77 28.03 141.77 28.59C141.77 29.15 141.32 29.61 140.78 29.61ZM1.98 31.65C1.98 32.22 1.53 32.68 0.99 32.68C0.44 32.68 0 32.22 0 31.65C0 31.09 0.44 30.63 0.99 30.63C1.53 30.63 1.98 31.09 1.98 31.65ZM4.95 31.65C4.95 32.22 4.51 32.68 3.96 32.68C3.41 32.68 2.97 32.22 2.97 31.65C2.97 31.09 3.41 30.63 3.96 30.63C4.51 30.63 4.95 31.09 4.95 31.65ZM7.93 31.65C7.93 32.22 7.48 32.68 6.94 32.68C6.39 32.68 5.94 32.22 5.94 31.65C5.94 31.09 6.39 30.63 6.94 30.63C7.48 30.63 7.93 31.09 7.93 31.65ZM10.9 31.65C10.9 32.22 10.46 32.68 9.91 32.68C9.36 32.68 8.92 32.22 8.92 31.65C8.92 31.09 9.36 30.63 9.91 30.63C10.46 30.63 10.9 31.09 10.9 31.65ZM13.88 31.65C13.88 32.22 13.43 32.68 12.89 32.68C12.34 32.68 11.89 32.22 11.89 31.65C11.89 31.09 12.34 30.63 12.89 30.63C13.43 30.63 13.88 31.09 13.88 31.65ZM16.85 31.65C16.85 32.22 16.41 32.68 15.86 32.68C15.31 32.68 14.87 32.22 14.87 31.65C14.87 31.09 15.31 30.63 15.86 30.63C16.41 30.63 16.85 31.09 16.85 31.65ZM19.83 31.65C19.83 32.22 19.38 32.68 18.84 32.68C18.29 32.68 17.84 32.22 17.84 31.65C17.84 31.09 18.29 30.63 18.84 30.63C19.38 30.63 19.83 31.09 19.83 31.65ZM22.8 31.65C22.8 32.22 22.36 32.68 21.81 32.68C21.26 32.68 20.82 32.22 20.82 31.65C20.82 31.09 21.26 30.63 21.81 30.63C22.36 30.63 22.8 31.09 22.8 31.65ZM23.77 31.65C23.77 31.09 24.21 30.63 24.76 30.63C25.31 30.63 25.75 31.09 25.75 31.65C25.75 32.22 25.31 32.68 24.76 32.68C24.21 32.68 23.77 32.22 23.77 31.65ZM28.72 31.65C28.72 32.22 28.28 32.68 27.73 32.68C27.19 32.68 26.74 32.22 26.74 31.65C26.74 31.09 27.19 30.63 27.73 30.63C28.28 30.63 28.72 31.09 28.72 31.65ZM31.7 31.65C31.7 32.22 31.26 32.68 30.71 32.68C30.16 32.68 29.72 32.22 29.72 31.65C29.72 31.09 30.16 30.63 30.71 30.63C31.26 30.63 31.7 31.09 31.7 31.65ZM34.67 31.65C34.67 32.22 34.23 32.68 33.68 32.68C33.13 32.68 32.69 32.22 32.69 31.65C32.69 31.09 33.13 30.63 33.68 30.63C34.23 30.63 34.67 31.09 34.67 31.65ZM37.65 31.65C37.65 32.22 37.21 32.68 36.66 32.68C36.11 32.68 35.67 32.22 35.67 31.65C35.67 31.09 36.11 30.63 36.66 30.63C37.21 30.63 37.65 31.09 37.65 31.65ZM38.64 31.65C38.64 31.09 39.08 30.63 39.63 30.63C40.18 30.63 40.62 31.09 40.62 31.65C40.62 32.22 40.18 32.68 39.63 32.68C39.08 32.68 38.64 32.22 38.64 31.65ZM43.6 31.65C43.6 32.22 43.15 32.68 42.61 32.68C42.06 32.68 41.62 32.22 41.62 31.65C41.62 31.09 42.06 30.63 42.61 30.63C43.15 30.63 43.6 31.09 43.6 31.65ZM46.57 31.65C46.57 32.22 46.13 32.68 45.58 32.68C45.03 32.68 44.59 32.22 44.59 31.65C44.59 31.09 45.03 30.63 45.58 30.63C46.13 30.63 46.57 31.09 46.57 31.65ZM49.55 31.65C49.55 32.22 49.1 32.68 48.56 32.68C48.01 32.68 47.57 32.22 47.57 31.65C47.57 31.09 48.01 30.63 48.56 30.63C49.1 30.63 49.55 31.09 49.55 31.65ZM50.54 31.65C50.54 31.09 50.98 30.63 51.53 30.63C52.08 30.63 52.52 31.09 52.52 31.65C52.52 32.22 52.08 32.68 51.53 32.68C50.98 32.68 50.54 32.22 50.54 31.65ZM55.5 31.65C55.5 32.22 55.05 32.68 54.51 32.68C53.96 32.68 53.51 32.22 53.51 31.65C53.51 31.09 53.96 30.63 54.51 30.63C55.05 30.63 55.5 31.09 55.5 31.65ZM58.47 31.65C58.47 32.22 58.03 32.68 57.48 32.68C56.93 32.68 56.49 32.22 56.49 31.65C56.49 31.09 56.93 30.63 57.48 30.63C58.03 30.63 58.47 31.09 58.47 31.65ZM61.45 31.65C61.45 32.22 61 32.68 60.46 32.68C59.91 32.68 59.46 32.22 59.46 31.65C59.46 31.09 59.91 30.63 60.46 30.63C61 30.63 61.45 31.09 61.45 31.65ZM64.42 31.65C64.42 32.22 63.98 32.68 63.43 32.68C62.88 32.68 62.44 32.22 62.44 31.65C62.44 31.09 62.88 30.63 63.43 30.63C63.98 30.63 64.42 31.09 64.42 31.65ZM66.41 32.68C65.86 32.68 65.41 32.22 65.41 31.65C65.41 31.09 65.86 30.63 66.41 30.63C66.95 30.63 67.4 31.09 67.4 31.65C67.4 32.22 66.95 32.68 66.41 32.68ZM70.37 31.65C70.37 32.22 69.93 32.68 69.38 32.68C68.83 32.68 68.39 32.22 68.39 31.65C68.39 31.09 68.83 30.63 69.38 30.63C69.93 30.63 70.37 31.09 70.37 31.65ZM73.35 31.65C73.35 32.22 72.9 32.68 72.35 32.68C71.81 32.68 71.36 32.22 71.36 31.65C71.36 31.09 71.81 30.63 72.35 30.63C72.9 30.63 73.35 31.09 73.35 31.65ZM76.32 31.65C76.32 32.22 75.88 32.68 75.33 32.68C74.78 32.68 74.34 32.22 74.34 31.65C74.34 31.09 74.78 30.63 75.33 30.63C75.88 30.63 76.32 31.09 76.32 31.65ZM78.3 32.68C77.76 32.68 77.31 32.22 77.31 31.65C77.31 31.09 77.76 30.63 78.3 30.63C78.85 30.63 79.3 31.09 79.3 31.65C79.3 32.22 78.85 32.68 78.3 32.68ZM82.27 31.65C82.27 32.22 81.83 32.68 81.28 32.68C80.73 32.68 80.29 32.22 80.29 31.65C80.29 31.09 80.73 30.63 81.28 30.63C81.83 30.63 82.27 31.09 82.27 31.65ZM85.25 31.65C85.25 32.22 84.8 32.68 84.25 32.68C83.71 32.68 83.26 32.22 83.26 31.65C83.26 31.09 83.71 30.63 84.25 30.63C84.8 30.63 85.25 31.09 85.25 31.65ZM88.22 31.65C88.22 32.22 87.78 32.68 87.23 32.68C86.68 32.68 86.24 32.22 86.24 31.65C86.24 31.09 86.68 30.63 87.23 30.63C87.78 30.63 88.22 31.09 88.22 31.65ZM91.2 31.65C91.2 32.22 90.75 32.68 90.2 32.68C89.66 32.68 89.21 32.22 89.21 31.65C89.21 31.09 89.66 30.63 90.2 30.63C90.75 30.63 91.2 31.09 91.2 31.65ZM93.18 32.68C92.63 32.68 92.19 32.22 92.19 31.65C92.19 31.09 92.63 30.63 93.18 30.63C93.73 30.63 94.17 31.09 94.17 31.65C94.17 32.22 93.73 32.68 93.18 32.68ZM97.14 31.65C97.14 32.22 96.7 32.68 96.15 32.68C95.61 32.68 95.16 32.22 95.16 31.65C95.16 31.09 95.61 30.63 96.15 30.63C96.7 30.63 97.14 31.09 97.14 31.65ZM100.12 31.65C100.12 32.22 99.68 32.68 99.13 32.68C98.58 32.68 98.14 32.22 98.14 31.65C98.14 31.09 98.58 30.63 99.13 30.63C99.68 30.63 100.12 31.09 100.12 31.65ZM103.1 31.65C103.1 32.22 102.65 32.68 102.1 32.68C101.56 32.68 101.11 32.22 101.11 31.65C101.11 31.09 101.56 30.63 102.1 30.63C102.65 30.63 103.1 31.09 103.1 31.65ZM106.07 31.65C106.07 32.22 105.63 32.68 105.08 32.68C104.53 32.68 104.09 32.22 104.09 31.65C104.09 31.09 104.53 30.63 105.08 30.63C105.63 30.63 106.07 31.09 106.07 31.65ZM108.05 30.63C108.6 30.63 109.04 31.09 109.04 31.65C109.04 32.22 108.6 32.68 108.05 32.68C107.51 32.68 107.06 32.22 107.06 31.65C107.06 31.09 107.51 30.63 108.05 30.63ZM111.03 32.68C110.48 32.68 110.04 32.22 110.04 31.65C110.04 31.09 110.48 30.63 111.03 30.63C111.58 30.63 112.02 31.09 112.02 31.65C112.02 32.22 111.58 32.68 111.03 32.68ZM114.99 31.65C114.99 32.22 114.55 32.68 114 32.68C113.45 32.68 113.01 32.22 113.01 31.65C113.01 31.09 113.45 30.63 114 30.63C114.55 30.63 114.99 31.09 114.99 31.65ZM115.99 31.65C115.99 31.09 116.43 30.63 116.98 30.63C117.52 30.63 117.97 31.09 117.97 31.65C117.97 32.22 117.52 32.68 116.98 32.68C116.43 32.68 115.99 32.22 115.99 31.65ZM120.94 31.65C120.94 32.22 120.5 32.68 119.95 32.68C119.4 32.68 118.96 32.22 118.96 31.65C118.96 31.09 119.4 30.63 119.95 30.63C120.5 30.63 120.94 31.09 120.94 31.65ZM123.92 31.65C123.92 32.22 123.47 32.68 122.93 32.68C122.38 32.68 121.93 32.22 121.93 31.65C121.93 31.09 122.38 30.63 122.93 30.63C123.47 30.63 123.92 31.09 123.92 31.65ZM126.89 31.65C126.89 32.22 126.45 32.68 125.9 32.68C125.35 32.68 124.91 32.22 124.91 31.65C124.91 31.09 125.35 30.63 125.9 30.63C126.45 30.63 126.89 31.09 126.89 31.65ZM129.87 31.65C129.87 32.22 129.42 32.68 128.88 32.68C128.33 32.68 127.89 32.22 127.89 31.65C127.89 31.09 128.33 30.63 128.88 30.63C129.42 30.63 129.87 31.09 129.87 31.65ZM132.84 31.65C132.84 32.22 132.4 32.68 131.85 32.68C131.3 32.68 130.86 32.22 130.86 31.65C130.86 31.09 131.3 30.63 131.85 30.63C132.4 30.63 132.84 31.09 132.84 31.65ZM135.82 31.65C135.82 32.22 135.37 32.68 134.83 32.68C134.28 32.68 133.83 32.22 133.83 31.65C133.83 31.09 134.28 30.63 134.83 30.63C135.37 30.63 135.82 31.09 135.82 31.65ZM138.79 31.65C138.79 32.22 138.35 32.68 137.8 32.68C137.25 32.68 136.81 32.22 136.81 31.65C136.81 31.09 137.25 30.63 137.8 30.63C138.35 30.63 138.79 31.09 138.79 31.65ZM140.78 32.68C140.23 32.68 139.78 32.22 139.78 31.65C139.78 31.09 140.23 30.63 140.78 30.63C141.32 30.63 141.77 31.09 141.77 31.65C141.77 32.22 141.32 32.68 140.78 32.68ZM1.98 34.72C1.98 35.28 1.53 35.74 0.99 35.74C0.44 35.74 0 35.28 0 34.72C0 34.15 0.44 33.7 0.99 33.7C1.53 33.7 1.98 34.15 1.98 34.72ZM4.95 34.72C4.95 35.28 4.51 35.74 3.96 35.74C3.41 35.74 2.97 35.28 2.97 34.72C2.97 34.15 3.41 33.7 3.96 33.7C4.51 33.7 4.95 34.15 4.95 34.72ZM7.93 34.72C7.93 35.28 7.48 35.74 6.94 35.74C6.39 35.74 5.94 35.28 5.94 34.72C5.94 34.15 6.39 33.7 6.94 33.7C7.48 33.7 7.93 34.15 7.93 34.72ZM10.9 34.72C10.9 35.28 10.46 35.74 9.91 35.74C9.36 35.74 8.92 35.28 8.92 34.72C8.92 34.15 9.36 33.7 9.91 33.7C10.46 33.7 10.9 34.15 10.9 34.72ZM13.88 34.72C13.88 35.28 13.43 35.74 12.89 35.74C12.34 35.74 11.89 35.28 11.89 34.72C11.89 34.15 12.34 33.7 12.89 33.7C13.43 33.7 13.88 34.15 13.88 34.72ZM16.85 34.72C16.85 35.28 16.41 35.74 15.86 35.74C15.31 35.74 14.87 35.28 14.87 34.72C14.87 34.15 15.31 33.7 15.86 33.7C16.41 33.7 16.85 34.15 16.85 34.72ZM19.83 34.72C19.83 35.28 19.38 35.74 18.84 35.74C18.29 35.74 17.84 35.28 17.84 34.72C17.84 34.15 18.29 33.7 18.84 33.7C19.38 33.7 19.83 34.15 19.83 34.72ZM22.8 34.72C22.8 35.28 22.36 35.74 21.81 35.74C21.26 35.74 20.82 35.28 20.82 34.72C20.82 34.15 21.26 33.7 21.81 33.7C22.36 33.7 22.8 34.15 22.8 34.72ZM25.75 34.72C25.75 35.28 25.31 35.74 24.76 35.74C24.21 35.74 23.77 35.28 23.77 34.72C23.77 34.15 24.21 33.7 24.76 33.7C25.31 33.7 25.75 34.15 25.75 34.72ZM27.73 35.74C27.19 35.74 26.74 35.28 26.74 34.72C26.74 34.15 27.19 33.7 27.73 33.7C28.28 33.7 28.72 34.15 28.72 34.72C28.72 35.28 28.28 35.74 27.73 35.74ZM30.71 33.7C31.26 33.7 31.7 34.15 31.7 34.72C31.7 35.28 31.26 35.74 30.71 35.74C30.16 35.74 29.72 35.28 29.72 34.72C29.72 34.15 30.16 33.7 30.71 33.7ZM33.68 33.7C34.23 33.7 34.67 34.15 34.67 34.72C34.67 35.28 34.23 35.74 33.68 35.74C33.13 35.74 32.69 35.28 32.69 34.72C32.69 34.15 33.13 33.7 33.68 33.7ZM37.65 34.72C37.65 35.28 37.21 35.74 36.66 35.74C36.11 35.74 35.67 35.28 35.67 34.72C35.67 34.15 36.11 33.7 36.66 33.7C37.21 33.7 37.65 34.15 37.65 34.72ZM39.63 33.7C40.18 33.7 40.62 34.15 40.62 34.72C40.62 35.28 40.18 35.74 39.63 35.74C39.08 35.74 38.64 35.28 38.64 34.72C38.64 34.15 39.08 33.7 39.63 33.7ZM42.61 35.74C42.06 35.74 41.62 35.28 41.62 34.72C41.62 34.15 42.06 33.7 42.61 33.7C43.15 33.7 43.6 34.15 43.6 34.72C43.6 35.28 43.15 35.74 42.61 35.74ZM45.58 35.74C45.03 35.74 44.59 35.28 44.59 34.72C44.59 34.15 45.03 33.7 45.58 33.7C46.13 33.7 46.57 34.15 46.57 34.72C46.57 35.28 46.13 35.74 45.58 35.74ZM47.57 34.72C47.57 34.15 48.01 33.7 48.56 33.7C49.1 33.7 49.55 34.15 49.55 34.72C49.55 35.28 49.1 35.74 48.56 35.74C48.01 35.74 47.57 35.28 47.57 34.72ZM52.52 34.72C52.52 35.28 52.08 35.74 51.53 35.74C50.98 35.74 50.54 35.28 50.54 34.72C50.54 34.15 50.98 33.7 51.53 33.7C52.08 33.7 52.52 34.15 52.52 34.72ZM54.51 35.74C53.96 35.74 53.51 35.28 53.51 34.72C53.51 34.15 53.96 33.7 54.51 33.7C55.05 33.7 55.5 34.15 55.5 34.72C55.5 35.28 55.05 35.74 54.51 35.74ZM57.48 35.74C56.93 35.74 56.49 35.28 56.49 34.72C56.49 34.15 56.93 33.7 57.48 33.7C58.03 33.7 58.47 34.15 58.47 34.72C58.47 35.28 58.03 35.74 57.48 35.74ZM60.46 35.74C59.91 35.74 59.46 35.28 59.46 34.72C59.46 34.15 59.91 33.7 60.46 33.7C61 33.7 61.45 34.15 61.45 34.72C61.45 35.28 61 35.74 60.46 35.74ZM63.43 35.74C62.88 35.74 62.44 35.28 62.44 34.72C62.44 34.15 62.88 33.7 63.43 33.7C63.98 33.7 64.42 34.15 64.42 34.72C64.42 35.28 63.98 35.74 63.43 35.74ZM66.41 33.7C66.95 33.7 67.4 34.15 67.4 34.72C67.4 35.28 66.95 35.74 66.41 35.74C65.86 35.74 65.41 35.28 65.41 34.72C65.41 34.15 65.86 33.7 66.41 33.7ZM69.38 35.74C68.83 35.74 68.39 35.28 68.39 34.72C68.39 34.15 68.83 33.7 69.38 33.7C69.93 33.7 70.37 34.15 70.37 34.72C70.37 35.28 69.93 35.74 69.38 35.74ZM72.35 35.74C71.81 35.74 71.36 35.28 71.36 34.72C71.36 34.15 71.81 33.7 72.35 33.7C72.9 33.7 73.35 34.15 73.35 34.72C73.35 35.28 72.9 35.74 72.35 35.74ZM75.33 35.74C74.78 35.74 74.34 35.28 74.34 34.72C74.34 34.15 74.78 33.7 75.33 33.7C75.88 33.7 76.32 34.15 76.32 34.72C76.32 35.28 75.88 35.74 75.33 35.74ZM78.3 35.74C77.76 35.74 77.31 35.28 77.31 34.72C77.31 34.15 77.76 33.7 78.3 33.7C78.85 33.7 79.3 34.15 79.3 34.72C79.3 35.28 78.85 35.74 78.3 35.74ZM82.27 34.72C82.27 35.28 81.83 35.74 81.28 35.74C80.73 35.74 80.29 35.28 80.29 34.72C80.29 34.15 80.73 33.7 81.28 33.7C81.83 33.7 82.27 34.15 82.27 34.72ZM84.25 35.74C83.71 35.74 83.26 35.28 83.26 34.72C83.26 34.15 83.71 33.7 84.25 33.7C84.8 33.7 85.25 34.15 85.25 34.72C85.25 35.28 84.8 35.74 84.25 35.74ZM86.24 34.72C86.24 34.15 86.68 33.7 87.23 33.7C87.78 33.7 88.22 34.15 88.22 34.72C88.22 35.28 87.78 35.74 87.23 35.74C86.68 35.74 86.24 35.28 86.24 34.72ZM91.2 34.72C91.2 35.28 90.75 35.74 90.2 35.74C89.66 35.74 89.21 35.28 89.21 34.72C89.21 34.15 89.66 33.7 90.2 33.7C90.75 33.7 91.2 34.15 91.2 34.72ZM93.18 35.74C92.63 35.74 92.19 35.28 92.19 34.72C92.19 34.15 92.63 33.7 93.18 33.7C93.73 33.7 94.17 34.15 94.17 34.72C94.17 35.28 93.73 35.74 93.18 35.74ZM96.15 35.74C95.61 35.74 95.16 35.28 95.16 34.72C95.16 34.15 95.61 33.7 96.15 33.7C96.7 33.7 97.14 34.15 97.14 34.72C97.14 35.28 96.7 35.74 96.15 35.74ZM100.12 34.72C100.12 35.28 99.68 35.74 99.13 35.74C98.58 35.74 98.14 35.28 98.14 34.72C98.14 34.15 98.58 33.7 99.13 33.7C99.68 33.7 100.12 34.15 100.12 34.72ZM102.1 35.74C101.56 35.74 101.11 35.28 101.11 34.72C101.11 34.15 101.56 33.7 102.1 33.7C102.65 33.7 103.1 34.15 103.1 34.72C103.1 35.28 102.65 35.74 102.1 35.74ZM104.09 34.72C104.09 34.15 104.53 33.7 105.08 33.7C105.63 33.7 106.07 34.15 106.07 34.72C106.07 35.28 105.63 35.74 105.08 35.74C104.53 35.74 104.09 35.28 104.09 34.72ZM109.04 34.72C109.04 35.28 108.6 35.74 108.05 35.74C107.51 35.74 107.06 35.28 107.06 34.72C107.06 34.15 107.51 33.7 108.05 33.7C108.6 33.7 109.04 34.15 109.04 34.72ZM110.04 34.72C110.04 34.15 110.48 33.7 111.03 33.7C111.58 33.7 112.02 34.15 112.02 34.72C112.02 35.28 111.58 35.74 111.03 35.74C110.48 35.74 110.04 35.28 110.04 34.72ZM114 35.74C113.45 35.74 113.01 35.28 113.01 34.72C113.01 34.15 113.45 33.7 114 33.7C114.55 33.7 114.99 34.15 114.99 34.72C114.99 35.28 114.55 35.74 114 35.74ZM116.98 33.7C117.52 33.7 117.97 34.15 117.97 34.72C117.97 35.28 117.52 35.74 116.98 35.74C116.43 35.74 115.99 35.28 115.99 34.72C115.99 34.15 116.43 33.7 116.98 33.7ZM118.96 34.72C118.96 34.15 119.4 33.7 119.95 33.7C120.5 33.7 120.94 34.15 120.94 34.72C120.94 35.28 120.5 35.74 119.95 35.74C119.4 35.74 118.96 35.28 118.96 34.72ZM121.93 34.72C121.93 34.15 122.38 33.7 122.93 33.7C123.47 33.7 123.92 34.15 123.92 34.72C123.92 35.28 123.47 35.74 122.93 35.74C122.38 35.74 121.93 35.28 121.93 34.72ZM126.89 34.72C126.89 35.28 126.45 35.74 125.9 35.74C125.35 35.74 124.91 35.28 124.91 34.72C124.91 34.15 125.35 33.7 125.9 33.7C126.45 33.7 126.89 34.15 126.89 34.72ZM127.89 34.72C127.89 34.15 128.33 33.7 128.88 33.7C129.42 33.7 129.87 34.15 129.87 34.72C129.87 35.28 129.42 35.74 128.88 35.74C128.33 35.74 127.89 35.28 127.89 34.72ZM130.86 34.72C130.86 34.15 131.3 33.7 131.85 33.7C132.4 33.7 132.84 34.15 132.84 34.72C132.84 35.28 132.4 35.74 131.85 35.74C131.3 35.74 130.86 35.28 130.86 34.72ZM134.83 35.74C134.28 35.74 133.83 35.28 133.83 34.72C133.83 34.15 134.28 33.7 134.83 33.7C135.37 33.7 135.82 34.15 135.82 34.72C135.82 35.28 135.37 35.74 134.83 35.74ZM136.81 34.72C136.81 34.15 137.25 33.7 137.8 33.7C138.35 33.7 138.79 34.15 138.79 34.72C138.79 35.28 138.35 35.74 137.8 35.74C137.25 35.74 136.81 35.28 136.81 34.72ZM141.77 34.72C141.77 35.28 141.32 35.74 140.78 35.74C140.23 35.74 139.78 35.28 139.78 34.72C139.78 34.15 140.23 33.7 140.78 33.7C141.32 33.7 141.77 34.15 141.77 34.72Z" fill="#4A399D" fill-opacity="1.000000" fill-rule="evenodd"/>
</svg>
