<svg width="195.000977" height="48.000000" viewBox="0 0 195.001 48" fill="none" xmlns="http://www.w3.org/2000/svg" xmlns:xlink="http://www.w3.org/1999/xlink">
	<desc>
			Created with Pixso.
	</desc>
	<defs/>
	<path id="Psevdo" d="M186.07 1.02C186.07 1.58 185.63 2.04 185.08 2.04L185.08 0C185.63 0 186.07 0.45 186.07 1.02ZM188.06 2.04C187.51 2.04 187.06 1.58 187.06 1.02C187.06 0.45 187.51 0 188.06 0C188.6 0 189.05 0.45 189.05 1.02C189.05 1.58 188.6 2.04 188.06 2.04ZM192.02 1.02C192.02 1.58 191.58 2.04 191.03 2.04C190.48 2.04 190.04 1.58 190.04 1.02C190.04 0.45 190.48 0 191.03 0C191.58 0 192.02 0.45 192.02 1.02ZM195 1.02C195 1.58 194.55 2.04 194 2.04C193.46 2.04 193.01 1.58 193.01 1.02C193.01 0.45 193.46 0 194 0C194.55 0 195 0.45 195 1.02ZM186.07 4.08C186.07 4.64 185.63 5.1 185.08 5.1L185.08 3.06C185.63 3.06 186.07 3.52 186.07 4.08ZM189.05 4.08C189.05 4.64 188.6 5.1 188.06 5.1C187.51 5.1 187.06 4.64 187.06 4.08C187.06 3.52 187.51 3.06 188.06 3.06C188.6 3.06 189.05 3.52 189.05 4.08ZM192.02 4.08C192.02 4.64 191.58 5.1 191.03 5.1C190.48 5.1 190.04 4.64 190.04 4.08C190.04 3.52 190.48 3.06 191.03 3.06C191.58 3.06 192.02 3.52 192.02 4.08ZM195 4.08C195 4.64 194.55 5.1 194 5.1C193.46 5.1 193.01 4.64 193.01 4.08C193.01 3.52 193.46 3.06 194 3.06C194.55 3.06 195 3.52 195 4.08ZM185.08 8.17L185.08 6.12C185.63 6.12 186.07 6.58 186.07 7.14C186.07 7.71 185.63 8.17 185.08 8.17ZM188.06 8.17C187.51 8.17 187.06 7.71 187.06 7.14C187.06 6.58 187.51 6.12 188.06 6.12C188.6 6.12 189.05 6.58 189.05 7.14C189.05 7.71 188.6 8.17 188.06 8.17ZM192.02 7.14C192.02 7.71 191.58 8.17 191.03 8.17C190.48 8.17 190.04 7.71 190.04 7.14C190.04 6.58 190.48 6.12 191.03 6.12C191.58 6.12 192.02 6.58 192.02 7.14ZM195 7.14C195 7.71 194.55 8.17 194 8.17C193.46 8.17 193.01 7.71 193.01 7.14C193.01 6.58 193.46 6.12 194 6.12C194.55 6.12 195 6.58 195 7.14ZM186.07 10.21C186.07 10.77 185.63 11.23 185.08 11.23L185.08 9.19C185.63 9.19 186.07 9.64 186.07 10.21ZM188.06 11.23C187.51 11.23 187.06 10.77 187.06 10.21C187.06 9.64 187.51 9.19 188.06 9.19C188.6 9.19 189.05 9.64 189.05 10.21C189.05 10.77 188.6 11.23 188.06 11.23ZM191.03 11.23C190.48 11.23 190.04 10.77 190.04 10.21C190.04 9.64 190.48 9.19 191.03 9.19C191.58 9.19 192.02 9.64 192.02 10.21C192.02 10.77 191.58 11.23 191.03 11.23ZM194 11.23C193.46 11.23 193.01 10.77 193.01 10.21C193.01 9.64 193.46 9.19 194 9.19C194.55 9.19 195 9.64 195 10.21C195 10.77 194.55 11.23 194 11.23ZM186.07 13.27C186.07 13.84 185.63 14.29 185.08 14.29L185.08 12.25C185.63 12.25 186.07 12.71 186.07 13.27ZM187.06 13.27C187.06 12.71 187.51 12.25 188.06 12.25C188.6 12.25 189.05 12.71 189.05 13.27C189.05 13.84 188.6 14.29 188.06 14.29C187.51 14.29 187.06 13.84 187.06 13.27ZM191.03 14.29C190.48 14.29 190.04 13.84 190.04 13.27C190.04 12.71 190.48 12.25 191.03 12.25C191.58 12.25 192.02 12.71 192.02 13.27C192.02 13.84 191.58 14.29 191.03 14.29ZM195 13.27C195 13.84 194.55 14.29 194 14.29C193.46 14.29 193.01 13.84 193.01 13.27C193.01 12.71 193.46 12.25 194 12.25C194.55 12.25 195 12.71 195 13.27ZM186.07 16.34C186.07 16.9 185.63 17.36 185.08 17.36L185.08 15.31C185.63 15.31 186.07 15.77 186.07 16.34ZM188.06 17.36C187.51 17.36 187.06 16.9 187.06 16.34C187.06 15.77 187.51 15.31 188.06 15.31C188.6 15.31 189.05 15.77 189.05 16.34C189.05 16.9 188.6 17.36 188.06 17.36ZM192.02 16.34C192.02 16.9 191.58 17.36 191.03 17.36C190.48 17.36 190.04 16.9 190.04 16.34C190.04 15.77 190.48 15.31 191.03 15.31C191.58 15.31 192.02 15.77 192.02 16.34ZM195 16.34C195 16.9 194.55 17.36 194 17.36C193.46 17.36 193.01 16.9 193.01 16.34C193.01 15.77 193.46 15.31 194 15.31C194.55 15.31 195 15.77 195 16.34ZM186.07 19.4C186.07 19.96 185.63 20.42 185.08 20.42L185.08 18.38C185.63 18.38 186.07 18.84 186.07 19.4ZM188.06 18.38C188.6 18.38 189.05 18.84 189.05 19.4C189.05 19.96 188.6 20.42 188.06 20.42C187.51 20.42 187.06 19.96 187.06 19.4C187.06 18.84 187.51 18.38 188.06 18.38ZM191.03 18.38C191.58 18.38 192.02 18.84 192.02 19.4C192.02 19.96 191.58 20.42 191.03 20.42C190.48 20.42 190.04 19.96 190.04 19.4C190.04 18.84 190.48 18.38 191.03 18.38ZM194 20.42C193.46 20.42 193.01 19.96 193.01 19.4C193.01 18.84 193.46 18.38 194 18.38C194.55 18.38 195 18.84 195 19.4C195 19.96 194.55 20.42 194 20.42ZM186.07 22.46C186.07 23.03 185.63 23.48 185.08 23.48L185.08 21.44C185.63 21.44 186.07 21.9 186.07 22.46ZM189.05 22.46C189.05 23.03 188.6 23.48 188.06 23.48C187.51 23.48 187.06 23.03 187.06 22.46C187.06 21.9 187.51 21.44 188.06 21.44C188.6 21.44 189.05 21.9 189.05 22.46ZM192.02 22.46C192.02 23.03 191.58 23.48 191.03 23.48C190.48 23.48 190.04 23.03 190.04 22.46C190.04 21.9 190.48 21.44 191.03 21.44C191.58 21.44 192.02 21.9 192.02 22.46ZM194 23.48C193.46 23.48 193.01 23.03 193.01 22.46C193.01 21.9 193.46 21.44 194 21.44C194.55 21.44 195 21.9 195 22.46C195 23.03 194.55 23.48 194 23.48ZM186.07 25.53C186.07 26.09 185.63 26.55 185.08 26.55L185.08 24.51C185.63 24.51 186.07 24.96 186.07 25.53ZM188.06 24.51C188.6 24.51 189.05 24.96 189.05 25.53C189.05 26.09 188.6 26.55 188.06 26.55C187.51 26.55 187.06 26.09 187.06 25.53C187.06 24.96 187.51 24.51 188.06 24.51ZM192.02 25.53C192.02 26.09 191.58 26.55 191.03 26.55C190.48 26.55 190.04 26.09 190.04 25.53C190.04 24.96 190.48 24.51 191.03 24.51C191.58 24.51 192.02 24.96 192.02 25.53ZM194 26.55C193.46 26.55 193.01 26.09 193.01 25.53C193.01 24.96 193.46 24.51 194 24.51C194.55 24.51 195 24.96 195 25.53C195 26.09 194.55 26.55 194 26.55ZM186.07 28.59C186.07 29.15 185.63 29.61 185.08 29.61L185.08 27.57C185.63 27.57 186.07 28.03 186.07 28.59ZM188.06 29.61C187.51 29.61 187.06 29.15 187.06 28.59C187.06 28.03 187.51 27.57 188.06 27.57C188.6 27.57 189.05 28.03 189.05 28.59C189.05 29.15 188.6 29.61 188.06 29.61ZM191.03 29.61C190.48 29.61 190.04 29.15 190.04 28.59C190.04 28.03 190.48 27.57 191.03 27.57C191.58 27.57 192.02 28.03 192.02 28.59C192.02 29.15 191.58 29.61 191.03 29.61ZM194 29.61C193.46 29.61 193.01 29.15 193.01 28.59C193.01 28.03 193.46 27.57 194 27.57C194.55 27.57 195 28.03 195 28.59C195 29.15 194.55 29.61 194 29.61ZM186.07 31.65C186.07 32.22 185.63 32.68 185.08 32.68L185.08 30.63C185.63 30.63 186.07 31.09 186.07 31.65ZM189.05 31.65C189.05 32.22 188.6 32.68 188.06 32.68C187.51 32.68 187.06 32.22 187.06 31.65C187.06 31.09 187.51 30.63 188.06 30.63C188.6 30.63 189.05 31.09 189.05 31.65ZM192.02 31.65C192.02 32.22 191.58 32.68 191.03 32.68C190.48 32.68 190.04 32.22 190.04 31.65C190.04 31.09 190.48 30.63 191.03 30.63C191.58 30.63 192.02 31.09 192.02 31.65ZM195 31.65C195 32.22 194.55 32.68 194 32.68C193.46 32.68 193.01 32.22 193.01 31.65C193.01 31.09 193.46 30.63 194 30.63C194.55 30.63 195 31.09 195 31.65ZM186.07 34.72C186.07 35.28 185.63 35.74 185.08 35.74L185.08 33.7C185.63 33.7 186.07 34.15 186.07 34.72ZM188.06 35.74C187.51 35.74 187.06 35.28 187.06 34.72C187.06 34.15 187.51 33.7 188.06 33.7C188.6 33.7 189.05 34.15 189.05 34.72C189.05 35.28 188.6 35.74 188.06 35.74ZM192.02 34.72C192.02 35.28 191.58 35.74 191.03 35.74C190.48 35.74 190.04 35.28 190.04 34.72C190.04 34.15 190.48 33.7 191.03 33.7C191.58 33.7 192.02 34.15 192.02 34.72ZM194 35.74C193.46 35.74 193.01 35.28 193.01 34.72C193.01 34.15 193.46 33.7 194 33.7C194.55 33.7 195 34.15 195 34.72C195 35.28 194.55 35.74 194 35.74ZM186.07 37.78C186.07 38.35 185.63 38.8 185.08 38.8L185.08 36.76C185.63 36.76 186.07 37.22 186.07 37.78ZM189.05 37.78C189.05 38.35 188.6 38.8 188.06 38.8C187.51 38.8 187.06 38.35 187.06 37.78C187.06 37.22 187.51 36.76 188.06 36.76C188.6 36.76 189.05 37.22 189.05 37.78ZM192.02 37.78C192.02 38.35 191.58 38.8 191.03 38.8C190.48 38.8 190.04 38.35 190.04 37.78C190.04 37.22 190.48 36.76 191.03 36.76C191.58 36.76 192.02 37.22 192.02 37.78ZM194 38.8C193.46 38.8 193.01 38.35 193.01 37.78C193.01 37.22 193.46 36.76 194 36.76C194.55 36.76 195 37.22 195 37.78C195 38.35 194.55 38.8 194 38.8ZM0.69 41.87C0.42 41.87 0.17 41.76 0 41.58L0 40.11C0.17 39.93 0.42 39.82 0.69 39.82C1.23 39.82 1.68 40.28 1.68 40.85C1.68 41.41 1.23 41.87 0.69 41.87ZM4.65 40.85C4.65 41.41 4.21 41.87 3.66 41.87C3.11 41.87 2.67 41.41 2.67 40.85C2.67 40.28 3.11 39.82 3.66 39.82C4.21 39.82 4.65 40.28 4.65 40.85ZM7.63 40.85C7.63 41.41 7.18 41.87 6.64 41.87C6.09 41.87 5.64 41.41 5.64 40.85C5.64 40.28 6.09 39.82 6.64 39.82C7.18 39.82 7.63 40.28 7.63 40.85ZM10.6 40.85C10.6 41.41 10.16 41.87 9.61 41.87C9.06 41.87 8.62 41.41 8.62 40.85C8.62 40.28 9.06 39.82 9.61 39.82C10.16 39.82 10.6 40.28 10.6 40.85ZM13.58 40.85C13.58 41.41 13.13 41.87 12.59 41.87C12.04 41.87 11.59 41.41 11.59 40.85C11.59 40.28 12.04 39.82 12.59 39.82C13.13 39.82 13.58 40.28 13.58 40.85ZM16.55 40.85C16.55 41.41 16.11 41.87 15.56 41.87C15.01 41.87 14.57 41.41 14.57 40.85C14.57 40.28 15.01 39.82 15.56 39.82C16.11 39.82 16.55 40.28 16.55 40.85ZM18.53 41.87L18.52 41.87C17.97 41.87 17.53 41.41 17.53 40.85C17.53 40.28 17.97 39.82 18.52 39.82L18.53 39.82L18.54 39.82C19.08 39.82 19.53 40.28 19.53 40.85C19.53 41.41 19.08 41.87 18.54 41.87L18.53 41.87ZM22.48 40.85C22.48 41.41 22.04 41.87 21.49 41.87C20.95 41.87 20.5 41.41 20.5 40.85C20.5 40.28 20.95 39.82 21.49 39.82C22.04 39.82 22.48 40.28 22.48 40.85ZM25.46 40.85C25.46 41.41 25.02 41.87 24.47 41.87C23.92 41.87 23.48 41.41 23.48 40.85C23.48 40.28 23.92 39.82 24.47 39.82C25.02 39.82 25.46 40.28 25.46 40.85ZM28.43 40.85C28.43 41.41 27.99 41.87 27.44 41.87C26.9 41.87 26.45 41.41 26.45 40.85C26.45 40.28 26.9 39.82 27.44 39.82C27.99 39.82 28.43 40.28 28.43 40.85ZM31.41 40.85C31.41 41.41 30.96 41.87 30.42 41.87C29.87 41.87 29.43 41.41 29.43 40.85C29.43 40.28 29.87 39.82 30.42 39.82C30.96 39.82 31.41 40.28 31.41 40.85ZM34.38 40.85C34.38 41.41 33.94 41.87 33.39 41.87C32.84 41.87 32.4 41.41 32.4 40.85C32.4 40.28 32.84 39.82 33.39 39.82C33.94 39.82 34.38 40.28 34.38 40.85ZM37.36 40.85C37.36 41.41 36.91 41.87 36.37 41.87C35.82 41.87 35.37 41.41 35.37 40.85C35.37 40.28 35.82 39.82 36.37 39.82C36.91 39.82 37.36 40.28 37.36 40.85ZM40.33 40.85C40.33 41.41 39.89 41.87 39.34 41.87C38.79 41.87 38.35 41.41 38.35 40.85C38.35 40.28 38.79 39.82 39.34 39.82C39.89 39.82 40.33 40.28 40.33 40.85ZM43.31 40.85C43.31 41.41 42.86 41.87 42.32 41.87C41.77 41.87 41.33 41.41 41.33 40.85C41.33 40.28 41.77 39.82 42.32 39.82C42.86 39.82 43.31 40.28 43.31 40.85ZM46.28 40.85C46.28 41.41 45.84 41.87 45.29 41.87C44.74 41.87 44.3 41.41 44.3 40.85C44.3 40.28 44.74 39.82 45.29 39.82C45.84 39.82 46.28 40.28 46.28 40.85ZM49.26 40.85C49.26 41.41 48.81 41.87 48.27 41.87C47.72 41.87 47.27 41.41 47.27 40.85C47.27 40.28 47.72 39.82 48.27 39.82C48.81 39.82 49.26 40.28 49.26 40.85ZM52.23 40.85C52.23 41.41 51.79 41.87 51.24 41.87C50.69 41.87 50.25 41.41 50.25 40.85C50.25 40.28 50.69 39.82 51.24 39.82C51.79 39.82 52.23 40.28 52.23 40.85ZM55.21 40.85C55.21 41.41 54.76 41.87 54.22 41.87C53.67 41.87 53.22 41.41 53.22 40.85C53.22 40.28 53.67 39.82 54.22 39.82C54.76 39.82 55.21 40.28 55.21 40.85ZM58.18 40.85C58.18 41.41 57.74 41.87 57.19 41.87C56.64 41.87 56.2 41.41 56.2 40.85C56.2 40.28 56.64 39.82 57.19 39.82C57.74 39.82 58.18 40.28 58.18 40.85ZM61.16 40.85C61.16 41.41 60.71 41.87 60.16 41.87C59.62 41.87 59.17 41.41 59.17 40.85C59.17 40.28 59.62 39.82 60.16 39.82C60.71 39.82 61.16 40.28 61.16 40.85ZM64.13 40.85C64.13 41.41 63.69 41.87 63.14 41.87C62.59 41.87 62.15 41.41 62.15 40.85C62.15 40.28 62.59 39.82 63.14 39.82C63.69 39.82 64.13 40.28 64.13 40.85ZM67.11 40.85C67.11 41.41 66.66 41.87 66.12 41.87C65.57 41.87 65.12 41.41 65.12 40.85C65.12 40.28 65.57 39.82 66.12 39.82C66.66 39.82 67.11 40.28 67.11 40.85ZM70.08 40.85C70.08 41.41 69.64 41.87 69.09 41.87C68.54 41.87 68.1 41.41 68.1 40.85C68.1 40.28 68.54 39.82 69.09 39.82C69.64 39.82 70.08 40.28 70.08 40.85ZM73.06 40.85C73.06 41.41 72.61 41.87 72.06 41.87C71.52 41.87 71.07 41.41 71.07 40.85C71.07 40.28 71.52 39.82 72.06 39.82C72.61 39.82 73.06 40.28 73.06 40.85ZM76.03 40.85C76.03 41.41 75.59 41.87 75.04 41.87C74.49 41.87 74.05 41.41 74.05 40.85C74.05 40.28 74.49 39.82 75.04 39.82C75.59 39.82 76.03 40.28 76.03 40.85ZM78.98 40.85C78.98 41.41 78.54 41.87 77.99 41.87C77.44 41.87 77 41.41 77 40.85C77 40.28 77.44 39.82 77.99 39.82C78.54 39.82 78.98 40.28 78.98 40.85ZM80.96 41.87C80.41 41.87 79.97 41.41 79.97 40.85C79.97 40.28 80.41 39.82 80.96 39.82C81.51 39.82 81.95 40.28 81.95 40.85C81.95 41.41 81.51 41.87 80.96 41.87ZM83.94 39.82C84.48 39.82 84.93 40.28 84.93 40.85C84.93 41.41 84.48 41.87 83.94 41.87C83.39 41.87 82.95 41.41 82.95 40.85C82.95 40.28 83.39 39.82 83.94 39.82ZM86.91 39.82C87.46 39.82 87.9 40.28 87.9 40.85C87.9 41.41 87.46 41.87 86.91 41.87C86.36 41.87 85.92 41.41 85.92 40.85C85.92 40.28 86.36 39.82 86.91 39.82ZM89.89 39.82C90.43 39.82 90.88 40.28 90.88 40.85C90.88 41.41 90.43 41.87 89.89 41.87C89.34 41.87 88.89 41.41 88.89 40.85C88.89 40.28 89.34 39.82 89.89 39.82ZM93.85 40.85C93.85 41.41 93.41 41.87 92.86 41.87C92.31 41.87 91.87 41.41 91.87 40.85C91.87 40.28 92.31 39.82 92.86 39.82C93.41 39.82 93.85 40.28 93.85 40.85ZM96.83 40.85C96.83 41.41 96.38 41.87 95.84 41.87C95.29 41.87 94.84 41.41 94.84 40.85C94.84 40.28 95.29 39.82 95.84 39.82C96.38 39.82 96.83 40.28 96.83 40.85ZM98.81 41.87C98.26 41.87 97.82 41.41 97.82 40.85C97.82 40.28 98.26 39.82 98.81 39.82C99.36 39.82 99.8 40.28 99.8 40.85C99.8 41.41 99.36 41.87 98.81 41.87ZM101.79 39.82C102.33 39.82 102.78 40.28 102.78 40.85C102.78 41.41 102.33 41.87 101.79 41.87C101.24 41.87 100.79 41.41 100.79 40.85C100.79 40.28 101.24 39.82 101.79 39.82ZM104.76 39.82C105.31 39.82 105.75 40.28 105.75 40.85C105.75 41.41 105.31 41.87 104.76 41.87C104.21 41.87 103.77 41.41 103.77 40.85C103.77 40.28 104.21 39.82 104.76 39.82ZM107.74 41.87C107.19 41.87 106.74 41.41 106.74 40.85C106.74 40.28 107.19 39.82 107.74 39.82C108.28 39.82 108.73 40.28 108.73 40.85C108.73 41.41 108.28 41.87 107.74 41.87ZM110.71 39.82C111.26 39.82 111.7 40.28 111.7 40.85C111.7 41.41 111.26 41.87 110.71 41.87C110.16 41.87 109.72 41.41 109.72 40.85C109.72 40.28 110.16 39.82 110.71 39.82ZM113.68 41.87C113.14 41.87 112.69 41.41 112.69 40.85C112.69 40.28 113.14 39.82 113.68 39.82C114.23 39.82 114.68 40.28 114.68 40.85C114.68 41.41 114.23 41.87 113.68 41.87ZM117.65 40.85C117.65 41.41 117.21 41.87 116.66 41.87C116.11 41.87 115.67 41.41 115.67 40.85C115.67 40.28 116.11 39.82 116.66 39.82C117.21 39.82 117.65 40.28 117.65 40.85ZM120.63 40.85C120.63 41.41 120.18 41.87 119.64 41.87C119.09 41.87 118.64 41.41 118.64 40.85C118.64 40.28 119.09 39.82 119.64 39.82C120.18 39.82 120.63 40.28 120.63 40.85ZM122.61 41.87C122.06 41.87 121.62 41.41 121.62 40.85C121.62 40.28 122.06 39.82 122.61 39.82C123.16 39.82 123.6 40.28 123.6 40.85C123.6 41.41 123.16 41.87 122.61 41.87ZM126.58 40.85C126.58 41.41 126.13 41.87 125.58 41.87C125.04 41.87 124.59 41.41 124.59 40.85C124.59 40.28 125.04 39.82 125.58 39.82C126.13 39.82 126.58 40.28 126.58 40.85ZM128.56 39.82C129.11 39.82 129.55 40.28 129.55 40.85C129.55 41.41 129.11 41.87 128.56 41.87C128.01 41.87 127.57 41.41 127.57 40.85C127.57 40.28 128.01 39.82 128.56 39.82ZM131.53 39.82C132.08 39.82 132.53 40.28 132.53 40.85C132.53 41.41 132.08 41.87 131.53 41.87C130.99 41.87 130.54 41.41 130.54 40.85C130.54 40.28 130.99 39.82 131.53 39.82ZM134.51 41.87C133.96 41.87 133.52 41.41 133.52 40.85C133.52 40.28 133.96 39.82 134.51 39.82C135.06 39.82 135.5 40.28 135.5 40.85C135.5 41.41 135.06 41.87 134.51 41.87ZM138.47 40.85C138.47 41.41 138.03 41.87 137.48 41.87C136.94 41.87 136.49 41.41 136.49 40.85C136.49 40.28 136.94 39.82 137.48 39.82C138.03 39.82 138.47 40.28 138.47 40.85ZM140.46 39.82C141.01 39.82 141.45 40.28 141.45 40.85C141.45 41.41 141.01 41.87 140.46 41.87C139.91 41.87 139.47 41.41 139.47 40.85C139.47 40.28 139.91 39.82 140.46 39.82ZM143.43 39.82C143.98 39.82 144.42 40.28 144.42 40.85C144.42 41.41 143.98 41.87 143.43 41.87C142.89 41.87 142.44 41.41 142.44 40.85C142.44 40.28 142.89 39.82 143.43 39.82ZM146.41 39.82C146.96 39.82 147.4 40.28 147.4 40.85C147.4 41.41 146.96 41.87 146.41 41.87C145.86 41.87 145.42 41.41 145.42 40.85C145.42 40.28 145.86 39.82 146.41 39.82ZM149.38 39.82C149.93 39.82 150.37 40.28 150.37 40.85C150.37 41.41 149.93 41.87 149.38 41.87C148.84 41.87 148.39 41.41 148.39 40.85C148.39 40.28 148.84 39.82 149.38 39.82ZM153.35 40.85C153.35 41.41 152.91 41.87 152.36 41.87C151.81 41.87 151.37 41.41 151.37 40.85C151.37 40.28 151.81 39.82 152.36 39.82C152.91 39.82 153.35 40.28 153.35 40.85ZM155.33 39.82C155.88 39.82 156.32 40.28 156.32 40.85C156.32 41.41 155.88 41.87 155.33 41.87C154.78 41.87 154.34 41.41 154.34 40.85C154.34 40.28 154.78 39.82 155.33 39.82ZM159.3 40.85C159.3 41.41 158.85 41.87 158.31 41.87C157.76 41.87 157.32 41.41 157.32 40.85C157.32 40.28 157.76 39.82 158.31 39.82C158.85 39.82 159.3 40.28 159.3 40.85ZM162.27 40.85C162.27 41.41 161.83 41.87 161.28 41.87C160.73 41.87 160.29 41.41 160.29 40.85C160.29 40.28 160.73 39.82 161.28 39.82C161.83 39.82 162.27 40.28 162.27 40.85ZM164.26 41.87C163.71 41.87 163.27 41.41 163.27 40.85C163.27 40.28 163.71 39.82 164.26 39.82C164.8 39.82 165.25 40.28 165.25 40.85C165.25 41.41 164.8 41.87 164.26 41.87ZM168.22 40.85C168.22 41.41 167.78 41.87 167.23 41.87C166.68 41.87 166.24 41.41 166.24 40.85C166.24 40.28 166.68 39.82 167.23 39.82C167.78 39.82 168.22 40.28 168.22 40.85ZM170.21 39.82C170.75 39.82 171.2 40.28 171.2 40.85C171.2 41.41 170.75 41.87 170.21 41.87C169.66 41.87 169.21 41.41 169.21 40.85C169.21 40.28 169.66 39.82 170.21 39.82ZM173.18 41.87C172.63 41.87 172.19 41.41 172.19 40.85C172.19 40.28 172.63 39.82 173.18 39.82C173.73 39.82 174.17 40.28 174.17 40.85C174.17 41.41 173.73 41.87 173.18 41.87ZM176.16 39.82C176.7 39.82 177.15 40.28 177.15 40.85C177.15 41.41 176.7 41.87 176.16 41.87C175.61 41.87 175.16 41.41 175.16 40.85C175.16 40.28 175.61 39.82 176.16 39.82ZM180.12 40.85C180.12 41.41 179.68 41.87 179.13 41.87C178.58 41.87 178.14 41.41 178.14 40.85C178.14 40.28 178.58 39.82 179.13 39.82C179.68 39.82 180.12 40.28 180.12 40.85ZM182.11 39.82C182.65 39.82 183.1 40.28 183.1 40.85C183.1 41.41 182.65 41.87 182.11 41.87C181.56 41.87 181.11 41.41 181.11 40.85C181.11 40.28 181.56 39.82 182.11 39.82ZM186.07 40.85C186.07 41.41 185.63 41.87 185.08 41.87C184.53 41.87 184.09 41.41 184.09 40.85C184.09 40.28 184.53 39.82 185.08 39.82C185.63 39.82 186.07 40.28 186.07 40.85ZM188.06 41.87C187.51 41.87 187.06 41.41 187.06 40.85C187.06 40.28 187.51 39.82 188.06 39.82C188.6 39.82 189.05 40.28 189.05 40.85C189.05 41.41 188.6 41.87 188.06 41.87ZM191.03 41.87C190.48 41.87 190.04 41.41 190.04 40.85C190.04 40.28 190.48 39.82 191.03 39.82C191.58 39.82 192.02 40.28 192.02 40.85C192.02 41.41 191.58 41.87 191.03 41.87ZM195 40.85C195 41.41 194.55 41.87 194 41.87C193.46 41.87 193.01 41.41 193.01 40.85C193.01 40.28 193.46 39.82 194 39.82C194.55 39.82 195 40.28 195 40.85ZM0.69 44.93C0.42 44.93 0.17 44.82 0 44.64L0 43.18C0.17 43 0.42 42.89 0.69 42.89C1.23 42.89 1.68 43.35 1.68 43.91C1.68 44.47 1.23 44.93 0.69 44.93ZM4.65 43.91C4.65 44.47 4.21 44.93 3.66 44.93C3.11 44.93 2.67 44.47 2.67 43.91C2.67 43.35 3.11 42.89 3.66 42.89C4.21 42.89 4.65 43.35 4.65 43.91ZM7.63 43.91C7.63 44.47 7.18 44.93 6.64 44.93C6.09 44.93 5.64 44.47 5.64 43.91C5.64 43.35 6.09 42.89 6.64 42.89C7.18 42.89 7.63 43.35 7.63 43.91ZM10.6 43.91C10.6 44.47 10.16 44.93 9.61 44.93C9.06 44.93 8.62 44.47 8.62 43.91C8.62 43.35 9.06 42.89 9.61 42.89C10.16 42.89 10.6 43.35 10.6 43.91ZM13.58 43.91C13.58 44.47 13.13 44.93 12.59 44.93C12.04 44.93 11.59 44.47 11.59 43.91C11.59 43.35 12.04 42.89 12.59 42.89C13.13 42.89 13.58 43.35 13.58 43.91ZM16.55 43.91C16.55 44.47 16.11 44.93 15.56 44.93C15.01 44.93 14.57 44.47 14.57 43.91C14.57 43.35 15.01 42.89 15.56 42.89C16.11 42.89 16.55 43.35 16.55 43.91ZM18.53 44.93L18.52 44.93C17.97 44.93 17.53 44.47 17.53 43.91C17.53 43.35 17.97 42.89 18.52 42.89L18.53 42.89L18.54 42.89C19.08 42.89 19.53 43.35 19.53 43.91C19.53 44.47 19.08 44.93 18.54 44.93L18.53 44.93ZM22.48 43.91C22.48 44.47 22.04 44.93 21.49 44.93C20.95 44.93 20.5 44.47 20.5 43.91C20.5 43.35 20.95 42.89 21.49 42.89C22.04 42.89 22.48 43.35 22.48 43.91ZM25.46 43.91C25.46 44.47 25.02 44.93 24.47 44.93C23.92 44.93 23.48 44.47 23.48 43.91C23.48 43.35 23.92 42.89 24.47 42.89C25.02 42.89 25.46 43.35 25.46 43.91ZM28.43 43.91C28.43 44.47 27.99 44.93 27.44 44.93C26.9 44.93 26.45 44.47 26.45 43.91C26.45 43.35 26.9 42.89 27.44 42.89C27.99 42.89 28.43 43.35 28.43 43.91ZM31.41 43.91C31.41 44.47 30.96 44.93 30.42 44.93C29.87 44.93 29.43 44.47 29.43 43.91C29.43 43.35 29.87 42.89 30.42 42.89C30.96 42.89 31.41 43.35 31.41 43.91ZM34.38 43.91C34.38 44.47 33.94 44.93 33.39 44.93C32.84 44.93 32.4 44.47 32.4 43.91C32.4 43.35 32.84 42.89 33.39 42.89C33.94 42.89 34.38 43.35 34.38 43.91ZM37.36 43.91C37.36 44.47 36.91 44.93 36.37 44.93C35.82 44.93 35.37 44.47 35.37 43.91C35.37 43.35 35.82 42.89 36.37 42.89C36.91 42.89 37.36 43.35 37.36 43.91ZM40.33 43.91C40.33 44.47 39.89 44.93 39.34 44.93C38.79 44.93 38.35 44.47 38.35 43.91C38.35 43.35 38.79 42.89 39.34 42.89C39.89 42.89 40.33 43.35 40.33 43.91ZM43.31 43.91C43.31 44.47 42.86 44.93 42.32 44.93C41.77 44.93 41.33 44.47 41.33 43.91C41.33 43.35 41.77 42.89 42.32 42.89C42.86 42.89 43.31 43.35 43.31 43.91ZM46.28 43.91C46.28 44.47 45.84 44.93 45.29 44.93C44.74 44.93 44.3 44.47 44.3 43.91C44.3 43.35 44.74 42.89 45.29 42.89C45.84 42.89 46.28 43.35 46.28 43.91ZM49.26 43.91C49.26 44.47 48.81 44.93 48.27 44.93C47.72 44.93 47.27 44.47 47.27 43.91C47.27 43.35 47.72 42.89 48.27 42.89C48.81 42.89 49.26 43.35 49.26 43.91ZM52.23 43.91C52.23 44.47 51.79 44.93 51.24 44.93C50.69 44.93 50.25 44.47 50.25 43.91C50.25 43.35 50.69 42.89 51.24 42.89C51.79 42.89 52.23 43.35 52.23 43.91ZM55.21 43.91C55.21 44.47 54.76 44.93 54.22 44.93C53.67 44.93 53.22 44.47 53.22 43.91C53.22 43.35 53.67 42.89 54.22 42.89C54.76 42.89 55.21 43.35 55.21 43.91ZM58.18 43.91C58.18 44.47 57.74 44.93 57.19 44.93C56.64 44.93 56.2 44.47 56.2 43.91C56.2 43.35 56.64 42.89 57.19 42.89C57.74 42.89 58.18 43.35 58.18 43.91ZM61.16 43.91C61.16 44.47 60.71 44.93 60.16 44.93C59.62 44.93 59.17 44.47 59.17 43.91C59.17 43.35 59.62 42.89 60.16 42.89C60.71 42.89 61.16 43.35 61.16 43.91ZM64.13 43.91C64.13 44.47 63.69 44.93 63.14 44.93C62.59 44.93 62.15 44.47 62.15 43.91C62.15 43.35 62.59 42.89 63.14 42.89C63.69 42.89 64.13 43.35 64.13 43.91ZM67.11 43.91C67.11 44.47 66.66 44.93 66.12 44.93C65.57 44.93 65.12 44.47 65.12 43.91C65.12 43.35 65.57 42.89 66.12 42.89C66.66 42.89 67.11 43.35 67.11 43.91ZM70.08 43.91C70.08 44.47 69.64 44.93 69.09 44.93C68.54 44.93 68.1 44.47 68.1 43.91C68.1 43.35 68.54 42.89 69.09 42.89C69.64 42.89 70.08 43.35 70.08 43.91ZM73.06 43.91C73.06 44.47 72.61 44.93 72.06 44.93C71.52 44.93 71.07 44.47 71.07 43.91C71.07 43.35 71.52 42.89 72.06 42.89C72.61 42.89 73.06 43.35 73.06 43.91ZM76.03 43.91C76.03 44.47 75.59 44.93 75.04 44.93C74.49 44.93 74.05 44.47 74.05 43.91C74.05 43.35 74.49 42.89 75.04 42.89C75.59 42.89 76.03 43.35 76.03 43.91ZM78.98 43.91C78.98 44.47 78.54 44.93 77.99 44.93C77.44 44.93 77 44.47 77 43.91C77 43.35 77.44 42.89 77.99 42.89C78.54 42.89 78.98 43.35 78.98 43.91ZM81.95 43.91C81.95 44.47 81.51 44.93 80.96 44.93C80.41 44.93 79.97 44.47 79.97 43.91C79.97 43.35 80.41 42.89 80.96 42.89C81.51 42.89 81.95 43.35 81.95 43.91ZM84.93 43.91C84.93 44.47 84.48 44.93 83.94 44.93C83.39 44.93 82.95 44.47 82.95 43.91C82.95 43.35 83.39 42.89 83.94 42.89C84.48 42.89 84.93 43.35 84.93 43.91ZM86.91 42.89C87.46 42.89 87.9 43.35 87.9 43.91C87.9 44.47 87.46 44.93 86.91 44.93C86.36 44.93 85.92 44.47 85.92 43.91C85.92 43.35 86.36 42.89 86.91 42.89ZM90.88 43.91C90.88 44.47 90.43 44.93 89.89 44.93C89.34 44.93 88.89 44.47 88.89 43.91C88.89 43.35 89.34 42.89 89.89 42.89C90.43 42.89 90.88 43.35 90.88 43.91ZM93.85 43.91C93.85 44.47 93.41 44.93 92.86 44.93C92.31 44.93 91.87 44.47 91.87 43.91C91.87 43.35 92.31 42.89 92.86 42.89C93.41 42.89 93.85 43.35 93.85 43.91ZM96.83 43.91C96.83 44.47 96.38 44.93 95.84 44.93C95.29 44.93 94.84 44.47 94.84 43.91C94.84 43.35 95.29 42.89 95.84 42.89C96.38 42.89 96.83 43.35 96.83 43.91ZM99.8 43.91C99.8 44.47 99.36 44.93 98.81 44.93C98.26 44.93 97.82 44.47 97.82 43.91C97.82 43.35 98.26 42.89 98.81 42.89C99.36 42.89 99.8 43.35 99.8 43.91ZM102.78 43.91C102.78 44.47 102.33 44.93 101.79 44.93C101.24 44.93 100.79 44.47 100.79 43.91C100.79 43.35 101.24 42.89 101.79 42.89C102.33 42.89 102.78 43.35 102.78 43.91ZM104.76 44.93C104.21 44.93 103.77 44.47 103.77 43.91C103.77 43.35 104.21 42.89 104.76 42.89C105.31 42.89 105.75 43.35 105.75 43.91C105.75 44.47 105.31 44.93 104.76 44.93ZM108.73 43.91C108.73 44.47 108.28 44.93 107.74 44.93C107.19 44.93 106.74 44.47 106.74 43.91C106.74 43.35 107.19 42.89 107.74 42.89C108.28 42.89 108.73 43.35 108.73 43.91ZM111.7 43.91C111.7 44.47 111.26 44.93 110.71 44.93C110.16 44.93 109.72 44.47 109.72 43.91C109.72 43.35 110.16 42.89 110.71 42.89C111.26 42.89 111.7 43.35 111.7 43.91ZM114.68 43.91C114.68 44.47 114.23 44.93 113.68 44.93C113.14 44.93 112.69 44.47 112.69 43.91C112.69 43.35 113.14 42.89 113.68 42.89C114.23 42.89 114.68 43.35 114.68 43.91ZM116.66 44.93C116.11 44.93 115.67 44.47 115.67 43.91C115.67 43.35 116.11 42.89 116.66 42.89C117.21 42.89 117.65 43.35 117.65 43.91C117.65 44.47 117.21 44.93 116.66 44.93ZM119.64 44.93C119.09 44.93 118.64 44.47 118.64 43.91C118.64 43.35 119.09 42.89 119.64 42.89C120.18 42.89 120.63 43.35 120.63 43.91C120.63 44.47 120.18 44.93 119.64 44.93ZM123.6 43.91C123.6 44.47 123.16 44.93 122.61 44.93C122.06 44.93 121.62 44.47 121.62 43.91C121.62 43.35 122.06 42.89 122.61 42.89C123.16 42.89 123.6 43.35 123.6 43.91ZM126.58 43.91C126.58 44.47 126.13 44.93 125.58 44.93C125.04 44.93 124.59 44.47 124.59 43.91C124.59 43.35 125.04 42.89 125.58 42.89C126.13 42.89 126.58 43.35 126.58 43.91ZM129.55 43.91C129.55 44.47 129.11 44.93 128.56 44.93C128.01 44.93 127.57 44.47 127.57 43.91C127.57 43.35 128.01 42.89 128.56 42.89C129.11 42.89 129.55 43.35 129.55 43.91ZM132.53 43.91C132.53 44.47 132.08 44.93 131.53 44.93C130.99 44.93 130.54 44.47 130.54 43.91C130.54 43.35 130.99 42.89 131.53 42.89C132.08 42.89 132.53 43.35 132.53 43.91ZM134.51 42.89C135.06 42.89 135.5 43.35 135.5 43.91C135.5 44.47 135.06 44.93 134.51 44.93C133.96 44.93 133.52 44.47 133.52 43.91C133.52 43.35 133.96 42.89 134.51 42.89ZM138.47 43.91C138.47 44.47 138.03 44.93 137.48 44.93C136.94 44.93 136.49 44.47 136.49 43.91C136.49 43.35 136.94 42.89 137.48 42.89C138.03 42.89 138.47 43.35 138.47 43.91ZM140.46 42.89C141.01 42.89 141.45 43.35 141.45 43.91C141.45 44.47 141.01 44.93 140.46 44.93C139.91 44.93 139.47 44.47 139.47 43.91C139.47 43.35 139.91 42.89 140.46 42.89ZM144.42 43.91C144.42 44.47 143.98 44.93 143.43 44.93C142.89 44.93 142.44 44.47 142.44 43.91C142.44 43.35 142.89 42.89 143.43 42.89C143.98 42.89 144.42 43.35 144.42 43.91ZM147.4 43.91C147.4 44.47 146.96 44.93 146.41 44.93C145.86 44.93 145.42 44.47 145.42 43.91C145.42 43.35 145.86 42.89 146.41 42.89C146.96 42.89 147.4 43.35 147.4 43.91ZM150.37 43.91C150.37 44.47 149.93 44.93 149.38 44.93C148.84 44.93 148.39 44.47 148.39 43.91C148.39 43.35 148.84 42.89 149.38 42.89C149.93 42.89 150.37 43.35 150.37 43.91ZM152.36 44.93C151.81 44.93 151.37 44.47 151.37 43.91C151.37 43.35 151.81 42.89 152.36 42.89C152.91 42.89 153.35 43.35 153.35 43.91C153.35 44.47 152.91 44.93 152.36 44.93ZM156.32 43.91C156.32 44.47 155.88 44.93 155.33 44.93C154.78 44.93 154.34 44.47 154.34 43.91C154.34 43.35 154.78 42.89 155.33 42.89C155.88 42.89 156.32 43.35 156.32 43.91ZM159.3 43.91C159.3 44.47 158.85 44.93 158.31 44.93C157.76 44.93 157.32 44.47 157.32 43.91C157.32 43.35 157.76 42.89 158.31 42.89C158.85 42.89 159.3 43.35 159.3 43.91ZM162.27 43.91C162.27 44.47 161.83 44.93 161.28 44.93C160.73 44.93 160.29 44.47 160.29 43.91C160.29 43.35 160.73 42.89 161.28 42.89C161.83 42.89 162.27 43.35 162.27 43.91ZM165.25 43.91C165.25 44.47 164.8 44.93 164.26 44.93C163.71 44.93 163.27 44.47 163.27 43.91C163.27 43.35 163.71 42.89 164.26 42.89C164.8 42.89 165.25 43.35 165.25 43.91ZM168.22 43.91C168.22 44.47 167.78 44.93 167.23 44.93C166.68 44.93 166.24 44.47 166.24 43.91C166.24 43.35 166.68 42.89 167.23 42.89C167.78 42.89 168.22 43.35 168.22 43.91ZM170.21 42.89C170.75 42.89 171.2 43.35 171.2 43.91C171.2 44.47 170.75 44.93 170.21 44.93C169.66 44.93 169.21 44.47 169.21 43.91C169.21 43.35 169.66 42.89 170.21 42.89ZM173.18 44.93C172.63 44.93 172.19 44.47 172.19 43.91C172.19 43.35 172.63 42.89 173.18 42.89C173.73 42.89 174.17 43.35 174.17 43.91C174.17 44.47 173.73 44.93 173.18 44.93ZM176.16 42.89C176.7 42.89 177.15 43.35 177.15 43.91C177.15 44.47 176.7 44.93 176.16 44.93C175.61 44.93 175.16 44.47 175.16 43.91C175.16 43.35 175.61 42.89 176.16 42.89ZM179.13 44.93C178.58 44.93 178.14 44.47 178.14 43.91C178.14 43.35 178.58 42.89 179.13 42.89C179.68 42.89 180.12 43.35 180.12 43.91C180.12 44.47 179.68 44.93 179.13 44.93ZM183.1 43.91C183.1 44.47 182.65 44.93 182.11 44.93C181.56 44.93 181.11 44.47 181.11 43.91C181.11 43.35 181.56 42.89 182.11 42.89C182.65 42.89 183.1 43.35 183.1 43.91ZM186.07 43.91C186.07 44.47 185.63 44.93 185.08 44.93C184.53 44.93 184.09 44.47 184.09 43.91C184.09 43.35 184.53 42.89 185.08 42.89C185.63 42.89 186.07 43.35 186.07 43.91ZM189.05 43.91C189.05 44.47 188.6 44.93 188.06 44.93C187.51 44.93 187.06 44.47 187.06 43.91C187.06 43.35 187.51 42.89 188.06 42.89C188.6 42.89 189.05 43.35 189.05 43.91ZM192.02 43.91C192.02 44.47 191.58 44.93 191.03 44.93C190.48 44.93 190.04 44.47 190.04 43.91C190.04 43.35 190.48 42.89 191.03 42.89C191.58 42.89 192.02 43.35 192.02 43.91ZM195 43.91C195 44.47 194.55 44.93 194 44.93C193.46 44.93 193.01 44.47 193.01 43.91C193.01 43.35 193.46 42.89 194 42.89C194.55 42.89 195 43.35 195 43.91ZM0.69 48C0.42 48 0.17 47.88 0 47.71L0 46.24C0.17 46.06 0.42 45.95 0.69 45.95C1.23 45.95 1.68 46.41 1.68 46.97C1.68 47.54 1.23 48 0.69 48ZM4.65 46.97C4.65 47.54 4.21 48 3.66 48C3.11 48 2.67 47.54 2.67 46.97C2.67 46.41 3.11 45.95 3.66 45.95C4.21 45.95 4.65 46.41 4.65 46.97ZM7.63 46.97C7.63 47.54 7.18 48 6.64 48C6.09 48 5.64 47.54 5.64 46.97C5.64 46.41 6.09 45.95 6.64 45.95C7.18 45.95 7.63 46.41 7.63 46.97ZM10.6 46.97C10.6 47.54 10.16 48 9.61 48C9.06 48 8.62 47.54 8.62 46.97C8.62 46.41 9.06 45.95 9.61 45.95C10.16 45.95 10.6 46.41 10.6 46.97ZM13.58 46.97C13.58 47.54 13.13 48 12.59 48C12.04 48 11.59 47.54 11.59 46.97C11.59 46.41 12.04 45.95 12.59 45.95C13.13 45.95 13.58 46.41 13.58 46.97ZM16.55 46.97C16.55 47.54 16.11 48 15.56 48C15.01 48 14.57 47.54 14.57 46.97C14.57 46.41 15.01 45.95 15.56 45.95C16.11 45.95 16.55 46.41 16.55 46.97ZM18.53 48L18.52 48C17.97 48 17.53 47.54 17.53 46.97C17.53 46.41 17.97 45.95 18.52 45.95L18.53 45.95L18.54 45.95C19.08 45.95 19.53 46.41 19.53 46.97C19.53 47.54 19.08 48 18.54 48L18.53 48ZM22.48 46.97C22.48 47.54 22.04 48 21.49 48C20.95 48 20.5 47.54 20.5 46.97C20.5 46.41 20.95 45.95 21.49 45.95C22.04 45.95 22.48 46.41 22.48 46.97ZM25.46 46.97C25.46 47.54 25.02 48 24.47 48C23.92 48 23.48 47.54 23.48 46.97C23.48 46.41 23.92 45.95 24.47 45.95C25.02 45.95 25.46 46.41 25.46 46.97ZM28.43 46.97C28.43 47.54 27.99 48 27.44 48C26.9 48 26.45 47.54 26.45 46.97C26.45 46.41 26.9 45.95 27.44 45.95C27.99 45.95 28.43 46.41 28.43 46.97ZM31.41 46.97C31.41 47.54 30.96 48 30.42 48C29.87 48 29.43 47.54 29.43 46.97C29.43 46.41 29.87 45.95 30.42 45.95C30.96 45.95 31.41 46.41 31.41 46.97ZM34.38 46.97C34.38 47.54 33.94 48 33.39 48C32.84 48 32.4 47.54 32.4 46.97C32.4 46.41 32.84 45.95 33.39 45.95C33.94 45.95 34.38 46.41 34.38 46.97ZM37.36 46.97C37.36 47.54 36.91 48 36.37 48C35.82 48 35.37 47.54 35.37 46.97C35.37 46.41 35.82 45.95 36.37 45.95C36.91 45.95 37.36 46.41 37.36 46.97ZM40.33 46.97C40.33 47.54 39.89 48 39.34 48C38.79 48 38.35 47.54 38.35 46.97C38.35 46.41 38.79 45.95 39.34 45.95C39.89 45.95 40.33 46.41 40.33 46.97ZM43.31 46.97C43.31 47.54 42.86 48 42.32 48C41.77 48 41.33 47.54 41.33 46.97C41.33 46.41 41.77 45.95 42.32 45.95C42.86 45.95 43.31 46.41 43.31 46.97ZM46.28 46.97C46.28 47.54 45.84 48 45.29 48C44.74 48 44.3 47.54 44.3 46.97C44.3 46.41 44.74 45.95 45.29 45.95C45.84 45.95 46.28 46.41 46.28 46.97ZM49.26 46.97C49.26 47.54 48.81 48 48.27 48C47.72 48 47.27 47.54 47.27 46.97C47.27 46.41 47.72 45.95 48.27 45.95C48.81 45.95 49.26 46.41 49.26 46.97ZM52.23 46.97C52.23 47.54 51.79 48 51.24 48C50.69 48 50.25 47.54 50.25 46.97C50.25 46.41 50.69 45.95 51.24 45.95C51.79 45.95 52.23 46.41 52.23 46.97ZM55.21 46.97C55.21 47.54 54.76 48 54.22 48C53.67 48 53.22 47.54 53.22 46.97C53.22 46.41 53.67 45.95 54.22 45.95C54.76 45.95 55.21 46.41 55.21 46.97ZM58.18 46.97C58.18 47.54 57.74 48 57.19 48C56.64 48 56.2 47.54 56.2 46.97C56.2 46.41 56.64 45.95 57.19 45.95C57.74 45.95 58.18 46.41 58.18 46.97ZM61.16 46.97C61.16 47.54 60.71 48 60.16 48C59.62 48 59.17 47.54 59.17 46.97C59.17 46.41 59.62 45.95 60.16 45.95C60.71 45.95 61.16 46.41 61.16 46.97ZM64.13 46.97C64.13 47.54 63.69 48 63.14 48C62.59 48 62.15 47.54 62.15 46.97C62.15 46.41 62.59 45.95 63.14 45.95C63.69 45.95 64.13 46.41 64.13 46.97ZM67.11 46.97C67.11 47.54 66.66 48 66.12 48C65.57 48 65.12 47.54 65.12 46.97C65.12 46.41 65.57 45.95 66.12 45.95C66.66 45.95 67.11 46.41 67.11 46.97ZM70.08 46.97C70.08 47.54 69.64 48 69.09 48C68.54 48 68.1 47.54 68.1 46.97C68.1 46.41 68.54 45.95 69.09 45.95C69.64 45.95 70.08 46.41 70.08 46.97ZM73.06 46.97C73.06 47.54 72.61 48 72.06 48C71.52 48 71.07 47.54 71.07 46.97C71.07 46.41 71.52 45.95 72.06 45.95C72.61 45.95 73.06 46.41 73.06 46.97ZM76.03 46.97C76.03 47.54 75.59 48 75.04 48C74.49 48 74.05 47.54 74.05 46.97C74.05 46.41 74.49 45.95 75.04 45.95C75.59 45.95 76.03 46.41 76.03 46.97ZM77 46.97C77 46.41 77.44 45.95 77.99 45.95C78.54 45.95 78.98 46.41 78.98 46.97C78.98 47.54 78.54 48 77.99 48C77.44 48 77 47.54 77 46.97ZM80.96 48C80.41 48 79.97 47.54 79.97 46.97C79.97 46.41 80.41 45.95 80.96 45.95C81.51 45.95 81.95 46.41 81.95 46.97C81.95 47.54 81.51 48 80.96 48ZM83.94 45.95C84.48 45.95 84.93 46.41 84.93 46.97C84.93 47.54 84.48 48 83.94 48C83.39 48 82.95 47.54 82.95 46.97C82.95 46.41 83.39 45.95 83.94 45.95ZM86.91 48C86.36 48 85.92 47.54 85.92 46.97C85.92 46.41 86.36 45.95 86.91 45.95C87.46 45.95 87.9 46.41 87.9 46.97C87.9 47.54 87.46 48 86.91 48ZM90.88 46.97C90.88 47.54 90.43 48 89.89 48C89.34 48 88.89 47.54 88.89 46.97C88.89 46.41 89.34 45.95 89.89 45.95C90.43 45.95 90.88 46.41 90.88 46.97ZM92.86 45.95C93.41 45.95 93.85 46.41 93.85 46.97C93.85 47.54 93.41 48 92.86 48C92.31 48 91.87 47.54 91.87 46.97C91.87 46.41 92.31 45.95 92.86 45.95ZM95.84 48C95.29 48 94.84 47.54 94.84 46.97C94.84 46.41 95.29 45.95 95.84 45.95C96.38 45.95 96.83 46.41 96.83 46.97C96.83 47.54 96.38 48 95.84 48ZM99.8 46.97C99.8 47.54 99.36 48 98.81 48C98.26 48 97.82 47.54 97.82 46.97C97.82 46.41 98.26 45.95 98.81 45.95C99.36 45.95 99.8 46.41 99.8 46.97ZM101.79 48C101.24 48 100.79 47.54 100.79 46.97C100.79 46.41 101.24 45.95 101.79 45.95C102.33 45.95 102.78 46.41 102.78 46.97C102.78 47.54 102.33 48 101.79 48ZM103.77 46.97C103.77 46.41 104.21 45.95 104.76 45.95C105.31 45.95 105.75 46.41 105.75 46.97C105.75 47.54 105.31 48 104.76 48C104.21 48 103.77 47.54 103.77 46.97ZM108.73 46.97C108.73 47.54 108.28 48 107.74 48C107.19 48 106.74 47.54 106.74 46.97C106.74 46.41 107.19 45.95 107.74 45.95C108.28 45.95 108.73 46.41 108.73 46.97ZM111.7 46.97C111.7 47.54 111.26 48 110.71 48C110.16 48 109.72 47.54 109.72 46.97C109.72 46.41 110.16 45.95 110.71 45.95C111.26 45.95 111.7 46.41 111.7 46.97ZM112.69 46.97C112.69 46.41 113.14 45.95 113.68 45.95C114.23 45.95 114.68 46.41 114.68 46.97C114.68 47.54 114.23 48 113.68 48C113.14 48 112.69 47.54 112.69 46.97ZM116.66 48C116.11 48 115.67 47.54 115.67 46.97C115.67 46.41 116.11 45.95 116.66 45.95C117.21 45.95 117.65 46.41 117.65 46.97C117.65 47.54 117.21 48 116.66 48ZM119.64 48C119.09 48 118.64 47.54 118.64 46.97C118.64 46.41 119.09 45.95 119.64 45.95C120.18 45.95 120.63 46.41 120.63 46.97C120.63 47.54 120.18 48 119.64 48ZM122.61 45.95C123.16 45.95 123.6 46.41 123.6 46.97C123.6 47.54 123.16 48 122.61 48C122.06 48 121.62 47.54 121.62 46.97C121.62 46.41 122.06 45.95 122.61 45.95ZM125.58 45.95C126.13 45.95 126.58 46.41 126.58 46.97C126.58 47.54 126.13 48 125.58 48C125.04 48 124.59 47.54 124.59 46.97C124.59 46.41 125.04 45.95 125.58 45.95ZM129.55 46.97C129.55 47.54 129.11 48 128.56 48C128.01 48 127.57 47.54 127.57 46.97C127.57 46.41 128.01 45.95 128.56 45.95C129.11 45.95 129.55 46.41 129.55 46.97ZM132.53 46.97C132.53 47.54 132.08 48 131.53 48C130.99 48 130.54 47.54 130.54 46.97C130.54 46.41 130.99 45.95 131.53 45.95C132.08 45.95 132.53 46.41 132.53 46.97ZM134.51 48C133.96 48 133.52 47.54 133.52 46.97C133.52 46.41 133.96 45.95 134.51 45.95C135.06 45.95 135.5 46.41 135.5 46.97C135.5 47.54 135.06 48 134.51 48ZM136.49 46.97C136.49 46.41 136.94 45.95 137.48 45.95C138.03 45.95 138.47 46.41 138.47 46.97C138.47 47.54 138.03 48 137.48 48C136.94 48 136.49 47.54 136.49 46.97ZM141.45 46.97C141.45 47.54 141.01 48 140.46 48C139.91 48 139.47 47.54 139.47 46.97C139.47 46.41 139.91 45.95 140.46 45.95C141.01 45.95 141.45 46.41 141.45 46.97ZM143.43 45.95C143.98 45.95 144.42 46.41 144.42 46.97C144.42 47.54 143.98 48 143.43 48C142.89 48 142.44 47.54 142.44 46.97C142.44 46.41 142.89 45.95 143.43 45.95ZM147.4 46.97C147.4 47.54 146.96 48 146.41 48C145.86 48 145.42 47.54 145.42 46.97C145.42 46.41 145.86 45.95 146.41 45.95C146.96 45.95 147.4 46.41 147.4 46.97ZM150.37 46.97C150.37 47.54 149.93 48 149.38 48C148.84 48 148.39 47.54 148.39 46.97C148.39 46.41 148.84 45.95 149.38 45.95C149.93 45.95 150.37 46.41 150.37 46.97ZM152.36 48C151.81 48 151.37 47.54 151.37 46.97C151.37 46.41 151.81 45.95 152.36 45.95C152.91 45.95 153.35 46.41 153.35 46.97C153.35 47.54 152.91 48 152.36 48ZM155.33 48C154.78 48 154.34 47.54 154.34 46.97C154.34 46.41 154.78 45.95 155.33 45.95C155.88 45.95 156.32 46.41 156.32 46.97C156.32 47.54 155.88 48 155.33 48ZM159.3 46.97C159.3 47.54 158.85 48 158.31 48C157.76 48 157.32 47.54 157.32 46.97C157.32 46.41 157.76 45.95 158.31 45.95C158.85 45.95 159.3 46.41 159.3 46.97ZM161.28 48C160.73 48 160.29 47.54 160.29 46.97C160.29 46.41 160.73 45.95 161.28 45.95C161.83 45.95 162.27 46.41 162.27 46.97C162.27 47.54 161.83 48 161.28 48ZM165.25 46.97C165.25 47.54 164.8 48 164.26 48C163.71 48 163.27 47.54 163.27 46.97C163.27 46.41 163.71 45.95 164.26 45.95C164.8 45.95 165.25 46.41 165.25 46.97ZM167.23 48C166.68 48 166.24 47.54 166.24 46.97C166.24 46.41 166.68 45.95 167.23 45.95C167.78 45.95 168.22 46.41 168.22 46.97C168.22 47.54 167.78 48 167.23 48ZM169.21 46.97C169.21 46.41 169.66 45.95 170.21 45.95C170.75 45.95 171.2 46.41 171.2 46.97C171.2 47.54 170.75 48 170.21 48C169.66 48 169.21 47.54 169.21 46.97ZM174.17 46.97C174.17 47.54 173.73 48 173.18 48C172.63 48 172.19 47.54 172.19 46.97C172.19 46.41 172.63 45.95 173.18 45.95C173.73 45.95 174.17 46.41 174.17 46.97ZM177.15 46.97C177.15 47.54 176.7 48 176.16 48C175.61 48 175.16 47.54 175.16 46.97C175.16 46.41 175.61 45.95 176.16 45.95C176.7 45.95 177.15 46.41 177.15 46.97ZM179.13 48C178.58 48 178.14 47.54 178.14 46.97C178.14 46.41 178.58 45.95 179.13 45.95C179.68 45.95 180.12 46.41 180.12 46.97C180.12 47.54 179.68 48 179.13 48ZM183.1 46.97C183.1 47.54 182.65 48 182.11 48C181.56 48 181.11 47.54 181.11 46.97C181.11 46.41 181.56 45.95 182.11 45.95C182.65 45.95 183.1 46.41 183.1 46.97ZM185.08 45.95C185.63 45.95 186.07 46.41 186.07 46.97C186.07 47.54 185.63 48 185.08 48C184.53 48 184.09 47.54 184.09 46.97C184.09 46.41 184.53 45.95 185.08 45.95ZM188.06 48C187.51 48 187.06 47.54 187.06 46.97C187.06 46.41 187.51 45.95 188.06 45.95C188.6 45.95 189.05 46.41 189.05 46.97C189.05 47.54 188.6 48 188.06 48ZM191.03 45.95C191.58 45.95 192.02 46.41 192.02 46.97C192.02 47.54 191.58 48 191.03 48C190.48 48 190.04 47.54 190.04 46.97C190.04 46.41 190.48 45.95 191.03 45.95ZM195 46.97C195 47.54 194.55 48 194 48C193.46 48 193.01 47.54 193.01 46.97C193.01 46.41 193.46 45.95 194 45.95C194.55 45.95 195 46.41 195 46.97Z" fill="#4A399D" fill-opacity="1.000000" fill-rule="evenodd"/>
</svg>
