<svg width="179.000977" height="48.000000" viewBox="0 0 179.001 48" fill="none" xmlns="http://www.w3.org/2000/svg" xmlns:xlink="http://www.w3.org/1999/xlink">
	<desc>
			Created with Pixso.
	</desc>
	<defs/>
	<path id="Psevdo" d="M170.07 1.02C170.07 1.58 169.63 2.04 169.08 2.04L169.08 0C169.63 0 170.07 0.45 170.07 1.02ZM172.06 2.04C171.51 2.04 171.06 1.58 171.06 1.02C171.06 0.45 171.51 0 172.06 0C172.6 0 173.05 0.45 173.05 1.02C173.05 1.58 172.6 2.04 172.06 2.04ZM176.02 1.02C176.02 1.58 175.58 2.04 175.03 2.04C174.48 2.04 174.04 1.58 174.04 1.02C174.04 0.45 174.48 0 175.03 0C175.58 0 176.02 0.45 176.02 1.02ZM179 1.02C179 1.58 178.55 2.04 178 2.04C177.46 2.04 177.01 1.58 177.01 1.02C177.01 0.45 177.46 0 178 0C178.55 0 179 0.45 179 1.02ZM170.07 4.08C170.07 4.64 169.63 5.1 169.08 5.1L169.08 3.06C169.63 3.06 170.07 3.52 170.07 4.08ZM173.05 4.08C173.05 4.64 172.6 5.1 172.06 5.1C171.51 5.1 171.06 4.64 171.06 4.08C171.06 3.52 171.51 3.06 172.06 3.06C172.6 3.06 173.05 3.52 173.05 4.08ZM175.03 5.1C174.48 5.1 174.04 4.64 174.04 4.08C174.04 3.52 174.48 3.06 175.03 3.06C175.58 3.06 176.02 3.52 176.02 4.08C176.02 4.64 175.58 5.1 175.03 5.1ZM179 4.08C179 4.64 178.55 5.1 178 5.1C177.46 5.1 177.01 4.64 177.01 4.08C177.01 3.52 177.46 3.06 178 3.06C178.55 3.06 179 3.52 179 4.08ZM169.08 8.17L169.08 6.12C169.63 6.12 170.07 6.58 170.07 7.14C170.07 7.71 169.63 8.17 169.08 8.17ZM173.05 7.14C173.05 7.71 172.6 8.17 172.06 8.17C171.51 8.17 171.06 7.71 171.06 7.14C171.06 6.58 171.51 6.12 172.06 6.12C172.6 6.12 173.05 6.58 173.05 7.14ZM175.03 8.17C174.48 8.17 174.04 7.71 174.04 7.14C174.04 6.58 174.48 6.12 175.03 6.12C175.58 6.12 176.02 6.58 176.02 7.14C176.02 7.71 175.58 8.17 175.03 8.17ZM179 7.14C179 7.71 178.55 8.17 178 8.17C177.46 8.17 177.01 7.71 177.01 7.14C177.01 6.58 177.46 6.12 178 6.12C178.55 6.12 179 6.58 179 7.14ZM170.07 10.21C170.07 10.77 169.63 11.23 169.08 11.23L169.08 9.19C169.63 9.19 170.07 9.64 170.07 10.21ZM173.05 10.21C173.05 10.77 172.6 11.23 172.06 11.23C171.51 11.23 171.06 10.77 171.06 10.21C171.06 9.64 171.51 9.19 172.06 9.19C172.6 9.19 173.05 9.64 173.05 10.21ZM176.02 10.21C176.02 10.77 175.58 11.23 175.03 11.23C174.48 11.23 174.04 10.77 174.04 10.21C174.04 9.64 174.48 9.19 175.03 9.19C175.58 9.19 176.02 9.64 176.02 10.21ZM179 10.21C179 10.77 178.55 11.23 178 11.23C177.46 11.23 177.01 10.77 177.01 10.21C177.01 9.64 177.46 9.19 178 9.19C178.55 9.19 179 9.64 179 10.21ZM170.07 13.27C170.07 13.84 169.63 14.29 169.08 14.29L169.08 12.25C169.63 12.25 170.07 12.71 170.07 13.27ZM173.05 13.27C173.05 13.84 172.6 14.29 172.06 14.29C171.51 14.29 171.06 13.84 171.06 13.27C171.06 12.71 171.51 12.25 172.06 12.25C172.6 12.25 173.05 12.71 173.05 13.27ZM175.03 14.29C174.48 14.29 174.04 13.84 174.04 13.27C174.04 12.71 174.48 12.25 175.03 12.25C175.58 12.25 176.02 12.71 176.02 13.27C176.02 13.84 175.58 14.29 175.03 14.29ZM179 13.27C179 13.84 178.55 14.29 178 14.29C177.46 14.29 177.01 13.84 177.01 13.27C177.01 12.71 177.46 12.25 178 12.25C178.55 12.25 179 12.71 179 13.27ZM170.07 16.34C170.07 16.9 169.63 17.36 169.08 17.36L169.08 15.31C169.63 15.31 170.07 15.77 170.07 16.34ZM173.05 16.34C173.05 16.9 172.6 17.36 172.06 17.36C171.51 17.36 171.06 16.9 171.06 16.34C171.06 15.77 171.51 15.31 172.06 15.31C172.6 15.31 173.05 15.77 173.05 16.34ZM176.02 16.34C176.02 16.9 175.58 17.36 175.03 17.36C174.48 17.36 174.04 16.9 174.04 16.34C174.04 15.77 174.48 15.31 175.03 15.31C175.58 15.31 176.02 15.77 176.02 16.34ZM178 17.36C177.46 17.36 177.01 16.9 177.01 16.34C177.01 15.77 177.46 15.31 178 15.31C178.55 15.31 179 15.77 179 16.34C179 16.9 178.55 17.36 178 17.36ZM170.07 19.4C170.07 19.96 169.63 20.42 169.08 20.42L169.08 18.38C169.63 18.38 170.07 18.84 170.07 19.4ZM172.06 20.42C171.51 20.42 171.06 19.96 171.06 19.4C171.06 18.84 171.51 18.38 172.06 18.38C172.6 18.38 173.05 18.84 173.05 19.4C173.05 19.96 172.6 20.42 172.06 20.42ZM176.02 19.4C176.02 19.96 175.58 20.42 175.03 20.42C174.48 20.42 174.04 19.96 174.04 19.4C174.04 18.84 174.48 18.38 175.03 18.38C175.58 18.38 176.02 18.84 176.02 19.4ZM179 19.4C179 19.96 178.55 20.42 178 20.42C177.46 20.42 177.01 19.96 177.01 19.4C177.01 18.84 177.46 18.38 178 18.38C178.55 18.38 179 18.84 179 19.4ZM170.07 22.46C170.07 23.03 169.63 23.48 169.08 23.48L169.08 21.44C169.63 21.44 170.07 21.9 170.07 22.46ZM173.05 22.46C173.05 23.03 172.6 23.48 172.06 23.48C171.51 23.48 171.06 23.03 171.06 22.46C171.06 21.9 171.51 21.44 172.06 21.44C172.6 21.44 173.05 21.9 173.05 22.46ZM175.03 23.48C174.48 23.48 174.04 23.03 174.04 22.46C174.04 21.9 174.48 21.44 175.03 21.44C175.58 21.44 176.02 21.9 176.02 22.46C176.02 23.03 175.58 23.48 175.03 23.48ZM179 22.46C179 23.03 178.55 23.48 178 23.48C177.46 23.48 177.01 23.03 177.01 22.46C177.01 21.9 177.46 21.44 178 21.44C178.55 21.44 179 21.9 179 22.46ZM170.07 25.53C170.07 26.09 169.63 26.55 169.08 26.55L169.08 24.51C169.63 24.51 170.07 24.96 170.07 25.53ZM173.05 25.53C173.05 26.09 172.6 26.55 172.06 26.55C171.51 26.55 171.06 26.09 171.06 25.53C171.06 24.96 171.51 24.51 172.06 24.51C172.6 24.51 173.05 24.96 173.05 25.53ZM176.02 25.53C176.02 26.09 175.58 26.55 175.03 26.55C174.48 26.55 174.04 26.09 174.04 25.53C174.04 24.96 174.48 24.51 175.03 24.51C175.58 24.51 176.02 24.96 176.02 25.53ZM179 25.53C179 26.09 178.55 26.55 178 26.55C177.46 26.55 177.01 26.09 177.01 25.53C177.01 24.96 177.46 24.51 178 24.51C178.55 24.51 179 24.96 179 25.53ZM170.07 28.59C170.07 29.15 169.63 29.61 169.08 29.61L169.08 27.57C169.63 27.57 170.07 28.03 170.07 28.59ZM173.05 28.59C173.05 29.15 172.6 29.61 172.06 29.61C171.51 29.61 171.06 29.15 171.06 28.59C171.06 28.03 171.51 27.57 172.06 27.57C172.6 27.57 173.05 28.03 173.05 28.59ZM176.02 28.59C176.02 29.15 175.58 29.61 175.03 29.61C174.48 29.61 174.04 29.15 174.04 28.59C174.04 28.03 174.48 27.57 175.03 27.57C175.58 27.57 176.02 28.03 176.02 28.59ZM179 28.59C179 29.15 178.55 29.61 178 29.61C177.46 29.61 177.01 29.15 177.01 28.59C177.01 28.03 177.46 27.57 178 27.57C178.55 27.57 179 28.03 179 28.59ZM170.07 31.65C170.07 32.22 169.63 32.68 169.08 32.68L169.08 30.63C169.63 30.63 170.07 31.09 170.07 31.65ZM173.05 31.65C173.05 32.22 172.6 32.68 172.06 32.68C171.51 32.68 171.06 32.22 171.06 31.65C171.06 31.09 171.51 30.63 172.06 30.63C172.6 30.63 173.05 31.09 173.05 31.65ZM176.02 31.65C176.02 32.22 175.58 32.68 175.03 32.68C174.48 32.68 174.04 32.22 174.04 31.65C174.04 31.09 174.48 30.63 175.03 30.63C175.58 30.63 176.02 31.09 176.02 31.65ZM178 32.68C177.46 32.68 177.01 32.22 177.01 31.65C177.01 31.09 177.46 30.63 178 30.63C178.55 30.63 179 31.09 179 31.65C179 32.22 178.55 32.68 178 32.68ZM170.07 34.72C170.07 35.28 169.63 35.74 169.08 35.74L169.08 33.7C169.63 33.7 170.07 34.15 170.07 34.72ZM173.05 34.72C173.05 35.28 172.6 35.74 172.06 35.74C171.51 35.74 171.06 35.28 171.06 34.72C171.06 34.15 171.51 33.7 172.06 33.7C172.6 33.7 173.05 34.15 173.05 34.72ZM175.03 35.74C174.48 35.74 174.04 35.28 174.04 34.72C174.04 34.15 174.48 33.7 175.03 33.7C175.58 33.7 176.02 34.15 176.02 34.72C176.02 35.28 175.58 35.74 175.03 35.74ZM178 35.74C177.46 35.74 177.01 35.28 177.01 34.72C177.01 34.15 177.46 33.7 178 33.7C178.55 33.7 179 34.15 179 34.72C179 35.28 178.55 35.74 178 35.74ZM170.07 37.78C170.07 38.35 169.63 38.8 169.08 38.8L169.08 36.76C169.63 36.76 170.07 37.22 170.07 37.78ZM173.05 37.78C173.05 38.35 172.6 38.8 172.06 38.8C171.51 38.8 171.06 38.35 171.06 37.78C171.06 37.22 171.51 36.76 172.06 36.76C172.6 36.76 173.05 37.22 173.05 37.78ZM175.03 38.8C174.48 38.8 174.04 38.35 174.04 37.78C174.04 37.22 174.48 36.76 175.03 36.76C175.58 36.76 176.02 37.22 176.02 37.78C176.02 38.35 175.58 38.8 175.03 38.8ZM178 38.8C177.46 38.8 177.01 38.35 177.01 37.78C177.01 37.22 177.46 36.76 178 36.76C178.55 36.76 179 37.22 179 37.78C179 38.35 178.55 38.8 178 38.8ZM2.53 41.87L2.52 41.87C1.97 41.87 1.53 41.41 1.53 40.85C1.53 40.28 1.97 39.82 2.52 39.82L2.53 39.82L2.54 39.82C3.08 39.82 3.53 40.28 3.53 40.85C3.53 41.41 3.08 41.87 2.54 41.87L2.53 41.87ZM6.48 40.85C6.48 41.41 6.04 41.87 5.49 41.87C4.95 41.87 4.5 41.41 4.5 40.85C4.5 40.28 4.95 39.82 5.49 39.82C6.04 39.82 6.48 40.28 6.48 40.85ZM9.46 40.85C9.46 41.41 9.02 41.87 8.47 41.87C7.92 41.87 7.48 41.41 7.48 40.85C7.48 40.28 7.92 39.82 8.47 39.82C9.02 39.82 9.46 40.28 9.46 40.85ZM12.43 40.85C12.43 41.41 11.99 41.87 11.44 41.87C10.9 41.87 10.45 41.41 10.45 40.85C10.45 40.28 10.9 39.82 11.44 39.82C11.99 39.82 12.43 40.28 12.43 40.85ZM15.41 40.85C15.41 41.41 14.96 41.87 14.42 41.87C13.87 41.87 13.43 41.41 13.43 40.85C13.43 40.28 13.87 39.82 14.42 39.82C14.96 39.82 15.41 40.28 15.41 40.85ZM18.38 40.85C18.38 41.41 17.94 41.87 17.39 41.87C16.84 41.87 16.4 41.41 16.4 40.85C16.4 40.28 16.84 39.82 17.39 39.82C17.94 39.82 18.38 40.28 18.38 40.85ZM21.36 40.85C21.36 41.41 20.91 41.87 20.37 41.87C19.82 41.87 19.37 41.41 19.37 40.85C19.37 40.28 19.82 39.82 20.37 39.82C20.91 39.82 21.36 40.28 21.36 40.85ZM24.33 40.85C24.33 41.41 23.89 41.87 23.34 41.87C22.79 41.87 22.35 41.41 22.35 40.85C22.35 40.28 22.79 39.82 23.34 39.82C23.89 39.82 24.33 40.28 24.33 40.85ZM27.31 40.85C27.31 41.41 26.86 41.87 26.32 41.87C25.77 41.87 25.33 41.41 25.33 40.85C25.33 40.28 25.77 39.82 26.32 39.82C26.86 39.82 27.31 40.28 27.31 40.85ZM30.28 40.85C30.28 41.41 29.84 41.87 29.29 41.87C28.74 41.87 28.3 41.41 28.3 40.85C28.3 40.28 28.74 39.82 29.29 39.82C29.84 39.82 30.28 40.28 30.28 40.85ZM33.26 40.85C33.26 41.41 32.81 41.87 32.27 41.87C31.72 41.87 31.27 41.41 31.27 40.85C31.27 40.28 31.72 39.82 32.27 39.82C32.81 39.82 33.26 40.28 33.26 40.85ZM36.23 40.85C36.23 41.41 35.79 41.87 35.24 41.87C34.69 41.87 34.25 41.41 34.25 40.85C34.25 40.28 34.69 39.82 35.24 39.82C35.79 39.82 36.23 40.28 36.23 40.85ZM39.21 40.85C39.21 41.41 38.76 41.87 38.22 41.87C37.67 41.87 37.22 41.41 37.22 40.85C37.22 40.28 37.67 39.82 38.22 39.82C38.76 39.82 39.21 40.28 39.21 40.85ZM42.18 40.85C42.18 41.41 41.74 41.87 41.19 41.87C40.64 41.87 40.2 41.41 40.2 40.85C40.2 40.28 40.64 39.82 41.19 39.82C41.74 39.82 42.18 40.28 42.18 40.85ZM45.16 40.85C45.16 41.41 44.71 41.87 44.16 41.87C43.62 41.87 43.17 41.41 43.17 40.85C43.17 40.28 43.62 39.82 44.16 39.82C44.71 39.82 45.16 40.28 45.16 40.85ZM48.13 40.85C48.13 41.41 47.69 41.87 47.14 41.87C46.59 41.87 46.15 41.41 46.15 40.85C46.15 40.28 46.59 39.82 47.14 39.82C47.69 39.82 48.13 40.28 48.13 40.85ZM51.11 40.85C51.11 41.41 50.66 41.87 50.12 41.87C49.57 41.87 49.12 41.41 49.12 40.85C49.12 40.28 49.57 39.82 50.12 39.82C50.66 39.82 51.11 40.28 51.11 40.85ZM54.08 40.85C54.08 41.41 53.64 41.87 53.09 41.87C52.54 41.87 52.1 41.41 52.1 40.85C52.1 40.28 52.54 39.82 53.09 39.82C53.64 39.82 54.08 40.28 54.08 40.85ZM57.06 40.85C57.06 41.41 56.61 41.87 56.06 41.87C55.52 41.87 55.07 41.41 55.07 40.85C55.07 40.28 55.52 39.82 56.06 39.82C56.61 39.82 57.06 40.28 57.06 40.85ZM60.03 40.85C60.03 41.41 59.59 41.87 59.04 41.87C58.49 41.87 58.05 41.41 58.05 40.85C58.05 40.28 58.49 39.82 59.04 39.82C59.59 39.82 60.03 40.28 60.03 40.85ZM61.99 39.82C62.54 39.82 62.98 40.28 62.98 40.85C62.98 41.41 62.54 41.87 61.99 41.87C61.44 41.87 61 41.41 61 40.85C61 40.28 61.44 39.82 61.99 39.82ZM65.95 40.85C65.95 41.41 65.51 41.87 64.96 41.87C64.41 41.87 63.97 41.41 63.97 40.85C63.97 40.28 64.41 39.82 64.96 39.82C65.51 39.82 65.95 40.28 65.95 40.85ZM67.94 41.87C67.39 41.87 66.95 41.41 66.95 40.85C66.95 40.28 67.39 39.82 67.94 39.82C68.48 39.82 68.93 40.28 68.93 40.85C68.93 41.41 68.48 41.87 67.94 41.87ZM69.92 40.85C69.92 40.28 70.36 39.82 70.91 39.82C71.46 39.82 71.9 40.28 71.9 40.85C71.9 41.41 71.46 41.87 70.91 41.87C70.36 41.87 69.92 41.41 69.92 40.85ZM74.88 40.85C74.88 41.41 74.43 41.87 73.89 41.87C73.34 41.87 72.89 41.41 72.89 40.85C72.89 40.28 73.34 39.82 73.89 39.82C74.43 39.82 74.88 40.28 74.88 40.85ZM76.86 41.87C76.31 41.87 75.87 41.41 75.87 40.85C75.87 40.28 76.31 39.82 76.86 39.82C77.41 39.82 77.85 40.28 77.85 40.85C77.85 41.41 77.41 41.87 76.86 41.87ZM79.84 39.82C80.38 39.82 80.83 40.28 80.83 40.85C80.83 41.41 80.38 41.87 79.84 41.87C79.29 41.87 78.84 41.41 78.84 40.85C78.84 40.28 79.29 39.82 79.84 39.82ZM82.81 41.87C82.26 41.87 81.82 41.41 81.82 40.85C81.82 40.28 82.26 39.82 82.81 39.82C83.36 39.82 83.8 40.28 83.8 40.85C83.8 41.41 83.36 41.87 82.81 41.87ZM85.79 39.82C86.33 39.82 86.78 40.28 86.78 40.85C86.78 41.41 86.33 41.87 85.79 41.87C85.24 41.87 84.79 41.41 84.79 40.85C84.79 40.28 85.24 39.82 85.79 39.82ZM89.75 40.85C89.75 41.41 89.31 41.87 88.76 41.87C88.21 41.87 87.77 41.41 87.77 40.85C87.77 40.28 88.21 39.82 88.76 39.82C89.31 39.82 89.75 40.28 89.75 40.85ZM92.73 40.85C92.73 41.41 92.28 41.87 91.74 41.87C91.19 41.87 90.74 41.41 90.74 40.85C90.74 40.28 91.19 39.82 91.74 39.82C92.28 39.82 92.73 40.28 92.73 40.85ZM95.7 40.85C95.7 41.41 95.26 41.87 94.71 41.87C94.16 41.87 93.72 41.41 93.72 40.85C93.72 40.28 94.16 39.82 94.71 39.82C95.26 39.82 95.7 40.28 95.7 40.85ZM97.68 39.82C98.23 39.82 98.68 40.28 98.68 40.85C98.68 41.41 98.23 41.87 97.68 41.87C97.14 41.87 96.69 41.41 96.69 40.85C96.69 40.28 97.14 39.82 97.68 39.82ZM99.67 40.85C99.67 40.28 100.11 39.82 100.66 39.82C101.21 39.82 101.65 40.28 101.65 40.85C101.65 41.41 101.21 41.87 100.66 41.87C100.11 41.87 99.67 41.41 99.67 40.85ZM102.64 40.85C102.64 40.28 103.09 39.82 103.64 39.82C104.18 39.82 104.63 40.28 104.63 40.85C104.63 41.41 104.18 41.87 103.64 41.87C103.09 41.87 102.64 41.41 102.64 40.85ZM106.61 41.87C106.06 41.87 105.62 41.41 105.62 40.85C105.62 40.28 106.06 39.82 106.61 39.82C107.16 39.82 107.6 40.28 107.6 40.85C107.6 41.41 107.16 41.87 106.61 41.87ZM109.58 41.87C109.04 41.87 108.59 41.41 108.59 40.85C108.59 40.28 109.04 39.82 109.58 39.82C110.13 39.82 110.58 40.28 110.58 40.85C110.58 41.41 110.13 41.87 109.58 41.87ZM112.56 41.87C112.01 41.87 111.57 41.41 111.57 40.85C111.57 40.28 112.01 39.82 112.56 39.82C113.11 39.82 113.55 40.28 113.55 40.85C113.55 41.41 113.11 41.87 112.56 41.87ZM115.53 39.82C116.08 39.82 116.53 40.28 116.53 40.85C116.53 41.41 116.08 41.87 115.53 41.87C114.99 41.87 114.54 41.41 114.54 40.85C114.54 40.28 114.99 39.82 115.53 39.82ZM118.51 39.82C119.06 39.82 119.5 40.28 119.5 40.85C119.5 41.41 119.06 41.87 118.51 41.87C117.96 41.87 117.52 41.41 117.52 40.85C117.52 40.28 117.96 39.82 118.51 39.82ZM121.48 41.87C120.94 41.87 120.49 41.41 120.49 40.85C120.49 40.28 120.94 39.82 121.48 39.82C122.03 39.82 122.47 40.28 122.47 40.85C122.47 41.41 122.03 41.87 121.48 41.87ZM124.46 41.87C123.91 41.87 123.47 41.41 123.47 40.85C123.47 40.28 123.91 39.82 124.46 39.82C125.01 39.82 125.45 40.28 125.45 40.85C125.45 41.41 125.01 41.87 124.46 41.87ZM127.43 39.82C127.98 39.82 128.42 40.28 128.42 40.85C128.42 41.41 127.98 41.87 127.43 41.87C126.89 41.87 126.44 41.41 126.44 40.85C126.44 40.28 126.89 39.82 127.43 39.82ZM130.41 41.87C129.86 41.87 129.42 41.41 129.42 40.85C129.42 40.28 129.86 39.82 130.41 39.82C130.96 39.82 131.4 40.28 131.4 40.85C131.4 41.41 130.96 41.87 130.41 41.87ZM134.37 40.85C134.37 41.41 133.93 41.87 133.38 41.87C132.84 41.87 132.39 41.41 132.39 40.85C132.39 40.28 132.84 39.82 133.38 39.82C133.93 39.82 134.37 40.28 134.37 40.85ZM135.37 40.85C135.37 40.28 135.81 39.82 136.36 39.82C136.91 39.82 137.35 40.28 137.35 40.85C137.35 41.41 136.91 41.87 136.36 41.87C135.81 41.87 135.37 41.41 135.37 40.85ZM139.33 39.82C139.88 39.82 140.32 40.28 140.32 40.85C140.32 41.41 139.88 41.87 139.33 41.87C138.78 41.87 138.34 41.41 138.34 40.85C138.34 40.28 138.78 39.82 139.33 39.82ZM142.31 39.82C142.85 39.82 143.3 40.28 143.3 40.85C143.3 41.41 142.85 41.87 142.31 41.87C141.76 41.87 141.32 41.41 141.32 40.85C141.32 40.28 141.76 39.82 142.31 39.82ZM145.28 39.82C145.83 39.82 146.27 40.28 146.27 40.85C146.27 41.41 145.83 41.87 145.28 41.87C144.73 41.87 144.29 41.41 144.29 40.85C144.29 40.28 144.73 39.82 145.28 39.82ZM149.25 40.85C149.25 41.41 148.8 41.87 148.26 41.87C147.71 41.87 147.27 41.41 147.27 40.85C147.27 40.28 147.71 39.82 148.26 39.82C148.8 39.82 149.25 40.28 149.25 40.85ZM151.23 39.82C151.78 39.82 152.22 40.28 152.22 40.85C152.22 41.41 151.78 41.87 151.23 41.87C150.68 41.87 150.24 41.41 150.24 40.85C150.24 40.28 150.68 39.82 151.23 39.82ZM155.2 40.85C155.2 41.41 154.75 41.87 154.21 41.87C153.66 41.87 153.21 41.41 153.21 40.85C153.21 40.28 153.66 39.82 154.21 39.82C154.75 39.82 155.2 40.28 155.2 40.85ZM158.17 40.85C158.17 41.41 157.73 41.87 157.18 41.87C156.63 41.87 156.19 41.41 156.19 40.85C156.19 40.28 156.63 39.82 157.18 39.82C157.73 39.82 158.17 40.28 158.17 40.85ZM159.16 40.85C159.16 40.28 159.61 39.82 160.16 39.82C160.7 39.82 161.15 40.28 161.15 40.85C161.15 41.41 160.7 41.87 160.16 41.87C159.61 41.87 159.16 41.41 159.16 40.85ZM164.12 40.85C164.12 41.41 163.68 41.87 163.13 41.87C162.58 41.87 162.14 41.41 162.14 40.85C162.14 40.28 162.58 39.82 163.13 39.82C163.68 39.82 164.12 40.28 164.12 40.85ZM166.11 41.87C165.56 41.87 165.11 41.41 165.11 40.85C165.11 40.28 165.56 39.82 166.11 39.82C166.65 39.82 167.1 40.28 167.1 40.85C167.1 41.41 166.65 41.87 166.11 41.87ZM169.08 39.82C169.63 39.82 170.07 40.28 170.07 40.85C170.07 41.41 169.63 41.87 169.08 41.87C168.53 41.87 168.09 41.41 168.09 40.85C168.09 40.28 168.53 39.82 169.08 39.82ZM172.06 41.87C171.51 41.87 171.06 41.41 171.06 40.85C171.06 40.28 171.51 39.82 172.06 39.82C172.6 39.82 173.05 40.28 173.05 40.85C173.05 41.41 172.6 41.87 172.06 41.87ZM176.02 40.85C176.02 41.41 175.58 41.87 175.03 41.87C174.48 41.87 174.04 41.41 174.04 40.85C174.04 40.28 174.48 39.82 175.03 39.82C175.58 39.82 176.02 40.28 176.02 40.85ZM179 40.85C179 41.41 178.55 41.87 178 41.87C177.46 41.87 177.01 41.41 177.01 40.85C177.01 40.28 177.46 39.82 178 39.82C178.55 39.82 179 40.28 179 40.85ZM0 41.76L0 39.93C0.33 40.09 0.55 40.44 0.55 40.85C0.55 41.25 0.33 41.6 0 41.76ZM2.53 44.93L2.52 44.93C1.97 44.93 1.53 44.47 1.53 43.91C1.53 43.35 1.97 42.89 2.52 42.89L2.53 42.89L2.54 42.89C3.08 42.89 3.53 43.35 3.53 43.91C3.53 44.47 3.08 44.93 2.54 44.93L2.53 44.93ZM6.48 43.91C6.48 44.47 6.04 44.93 5.49 44.93C4.95 44.93 4.5 44.47 4.5 43.91C4.5 43.35 4.95 42.89 5.49 42.89C6.04 42.89 6.48 43.35 6.48 43.91ZM9.46 43.91C9.46 44.47 9.02 44.93 8.47 44.93C7.92 44.93 7.48 44.47 7.48 43.91C7.48 43.35 7.92 42.89 8.47 42.89C9.02 42.89 9.46 43.35 9.46 43.91ZM12.43 43.91C12.43 44.47 11.99 44.93 11.44 44.93C10.9 44.93 10.45 44.47 10.45 43.91C10.45 43.35 10.9 42.89 11.44 42.89C11.99 42.89 12.43 43.35 12.43 43.91ZM15.41 43.91C15.41 44.47 14.96 44.93 14.42 44.93C13.87 44.93 13.43 44.47 13.43 43.91C13.43 43.35 13.87 42.89 14.42 42.89C14.96 42.89 15.41 43.35 15.41 43.91ZM18.38 43.91C18.38 44.47 17.94 44.93 17.39 44.93C16.84 44.93 16.4 44.47 16.4 43.91C16.4 43.35 16.84 42.89 17.39 42.89C17.94 42.89 18.38 43.35 18.38 43.91ZM21.36 43.91C21.36 44.47 20.91 44.93 20.37 44.93C19.82 44.93 19.37 44.47 19.37 43.91C19.37 43.35 19.82 42.89 20.37 42.89C20.91 42.89 21.36 43.35 21.36 43.91ZM24.33 43.91C24.33 44.47 23.89 44.93 23.34 44.93C22.79 44.93 22.35 44.47 22.35 43.91C22.35 43.35 22.79 42.89 23.34 42.89C23.89 42.89 24.33 43.35 24.33 43.91ZM27.31 43.91C27.31 44.47 26.86 44.93 26.32 44.93C25.77 44.93 25.33 44.47 25.33 43.91C25.33 43.35 25.77 42.89 26.32 42.89C26.86 42.89 27.31 43.35 27.31 43.91ZM30.28 43.91C30.28 44.47 29.84 44.93 29.29 44.93C28.74 44.93 28.3 44.47 28.3 43.91C28.3 43.35 28.74 42.89 29.29 42.89C29.84 42.89 30.28 43.35 30.28 43.91ZM33.26 43.91C33.26 44.47 32.81 44.93 32.27 44.93C31.72 44.93 31.27 44.47 31.27 43.91C31.27 43.35 31.72 42.89 32.27 42.89C32.81 42.89 33.26 43.35 33.26 43.91ZM36.23 43.91C36.23 44.47 35.79 44.93 35.24 44.93C34.69 44.93 34.25 44.47 34.25 43.91C34.25 43.35 34.69 42.89 35.24 42.89C35.79 42.89 36.23 43.35 36.23 43.91ZM39.21 43.91C39.21 44.47 38.76 44.93 38.22 44.93C37.67 44.93 37.22 44.47 37.22 43.91C37.22 43.35 37.67 42.89 38.22 42.89C38.76 42.89 39.21 43.35 39.21 43.91ZM42.18 43.91C42.18 44.47 41.74 44.93 41.19 44.93C40.64 44.93 40.2 44.47 40.2 43.91C40.2 43.35 40.64 42.89 41.19 42.89C41.74 42.89 42.18 43.35 42.18 43.91ZM45.16 43.91C45.16 44.47 44.71 44.93 44.16 44.93C43.62 44.93 43.17 44.47 43.17 43.91C43.17 43.35 43.62 42.89 44.16 42.89C44.71 42.89 45.16 43.35 45.16 43.91ZM48.13 43.91C48.13 44.47 47.69 44.93 47.14 44.93C46.59 44.93 46.15 44.47 46.15 43.91C46.15 43.35 46.59 42.89 47.14 42.89C47.69 42.89 48.13 43.35 48.13 43.91ZM51.11 43.91C51.11 44.47 50.66 44.93 50.12 44.93C49.57 44.93 49.12 44.47 49.12 43.91C49.12 43.35 49.57 42.89 50.12 42.89C50.66 42.89 51.11 43.35 51.11 43.91ZM54.08 43.91C54.08 44.47 53.64 44.93 53.09 44.93C52.54 44.93 52.1 44.47 52.1 43.91C52.1 43.35 52.54 42.89 53.09 42.89C53.64 42.89 54.08 43.35 54.08 43.91ZM57.06 43.91C57.06 44.47 56.61 44.93 56.06 44.93C55.52 44.93 55.07 44.47 55.07 43.91C55.07 43.35 55.52 42.89 56.06 42.89C56.61 42.89 57.06 43.35 57.06 43.91ZM60.03 43.91C60.03 44.47 59.59 44.93 59.04 44.93C58.49 44.93 58.05 44.47 58.05 43.91C58.05 43.35 58.49 42.89 59.04 42.89C59.59 42.89 60.03 43.35 60.03 43.91ZM61.99 42.89C62.54 42.89 62.98 43.35 62.98 43.91C62.98 44.47 62.54 44.93 61.99 44.93C61.44 44.93 61 44.47 61 43.91C61 43.35 61.44 42.89 61.99 42.89ZM65.95 43.91C65.95 44.47 65.51 44.93 64.96 44.93C64.41 44.93 63.97 44.47 63.97 43.91C63.97 43.35 64.41 42.89 64.96 42.89C65.51 42.89 65.95 43.35 65.95 43.91ZM68.93 43.91C68.93 44.47 68.48 44.93 67.94 44.93C67.39 44.93 66.95 44.47 66.95 43.91C66.95 43.35 67.39 42.89 67.94 42.89C68.48 42.89 68.93 43.35 68.93 43.91ZM71.9 43.91C71.9 44.47 71.46 44.93 70.91 44.93C70.36 44.93 69.92 44.47 69.92 43.91C69.92 43.35 70.36 42.89 70.91 42.89C71.46 42.89 71.9 43.35 71.9 43.91ZM74.88 43.91C74.88 44.47 74.43 44.93 73.89 44.93C73.34 44.93 72.89 44.47 72.89 43.91C72.89 43.35 73.34 42.89 73.89 42.89C74.43 42.89 74.88 43.35 74.88 43.91ZM76.86 42.89C77.41 42.89 77.85 43.35 77.85 43.91C77.85 44.47 77.41 44.93 76.86 44.93C76.31 44.93 75.87 44.47 75.87 43.91C75.87 43.35 76.31 42.89 76.86 42.89ZM80.83 43.91C80.83 44.47 80.38 44.93 79.84 44.93C79.29 44.93 78.84 44.47 78.84 43.91C78.84 43.35 79.29 42.89 79.84 42.89C80.38 42.89 80.83 43.35 80.83 43.91ZM83.8 43.91C83.8 44.47 83.36 44.93 82.81 44.93C82.26 44.93 81.82 44.47 81.82 43.91C81.82 43.35 82.26 42.89 82.81 42.89C83.36 42.89 83.8 43.35 83.8 43.91ZM86.78 43.91C86.78 44.47 86.33 44.93 85.79 44.93C85.24 44.93 84.79 44.47 84.79 43.91C84.79 43.35 85.24 42.89 85.79 42.89C86.33 42.89 86.78 43.35 86.78 43.91ZM88.76 42.89C89.31 42.89 89.75 43.35 89.75 43.91C89.75 44.47 89.31 44.93 88.76 44.93C88.21 44.93 87.77 44.47 87.77 43.91C87.77 43.35 88.21 42.89 88.76 42.89ZM91.74 44.93C91.19 44.93 90.74 44.47 90.74 43.91C90.74 43.35 91.19 42.89 91.74 42.89C92.28 42.89 92.73 43.35 92.73 43.91C92.73 44.47 92.28 44.93 91.74 44.93ZM95.7 43.91C95.7 44.47 95.26 44.93 94.71 44.93C94.16 44.93 93.72 44.47 93.72 43.91C93.72 43.35 94.16 42.89 94.71 42.89C95.26 42.89 95.7 43.35 95.7 43.91ZM97.68 44.93C97.14 44.93 96.69 44.47 96.69 43.91C96.69 43.35 97.14 42.89 97.68 42.89C98.23 42.89 98.68 43.35 98.68 43.91C98.68 44.47 98.23 44.93 97.68 44.93ZM99.67 43.91C99.67 43.35 100.11 42.89 100.66 42.89C101.21 42.89 101.65 43.35 101.65 43.91C101.65 44.47 101.21 44.93 100.66 44.93C100.11 44.93 99.67 44.47 99.67 43.91ZM104.63 43.91C104.63 44.47 104.18 44.93 103.64 44.93C103.09 44.93 102.64 44.47 102.64 43.91C102.64 43.35 103.09 42.89 103.64 42.89C104.18 42.89 104.63 43.35 104.63 43.91ZM105.62 43.91C105.62 43.35 106.06 42.89 106.61 42.89C107.16 42.89 107.6 43.35 107.6 43.91C107.6 44.47 107.16 44.93 106.61 44.93C106.06 44.93 105.62 44.47 105.62 43.91ZM110.58 43.91C110.58 44.47 110.13 44.93 109.58 44.93C109.04 44.93 108.59 44.47 108.59 43.91C108.59 43.35 109.04 42.89 109.58 42.89C110.13 42.89 110.58 43.35 110.58 43.91ZM113.55 43.91C113.55 44.47 113.11 44.93 112.56 44.93C112.01 44.93 111.57 44.47 111.57 43.91C111.57 43.35 112.01 42.89 112.56 42.89C113.11 42.89 113.55 43.35 113.55 43.91ZM116.53 43.91C116.53 44.47 116.08 44.93 115.53 44.93C114.99 44.93 114.54 44.47 114.54 43.91C114.54 43.35 114.99 42.89 115.53 42.89C116.08 42.89 116.53 43.35 116.53 43.91ZM117.52 43.91C117.52 43.35 117.96 42.89 118.51 42.89C119.06 42.89 119.5 43.35 119.5 43.91C119.5 44.47 119.06 44.93 118.51 44.93C117.96 44.93 117.52 44.47 117.52 43.91ZM122.47 43.91C122.47 44.47 122.03 44.93 121.48 44.93C120.94 44.93 120.49 44.47 120.49 43.91C120.49 43.35 120.94 42.89 121.48 42.89C122.03 42.89 122.47 43.35 122.47 43.91ZM125.45 43.91C125.45 44.47 125.01 44.93 124.46 44.93C123.91 44.93 123.47 44.47 123.47 43.91C123.47 43.35 123.91 42.89 124.46 42.89C125.01 42.89 125.45 43.35 125.45 43.91ZM127.43 44.93C126.89 44.93 126.44 44.47 126.44 43.91C126.44 43.35 126.89 42.89 127.43 42.89C127.98 42.89 128.42 43.35 128.42 43.91C128.42 44.47 127.98 44.93 127.43 44.93ZM131.4 43.91C131.4 44.47 130.96 44.93 130.41 44.93C129.86 44.93 129.42 44.47 129.42 43.91C129.42 43.35 129.86 42.89 130.41 42.89C130.96 42.89 131.4 43.35 131.4 43.91ZM134.37 43.91C134.37 44.47 133.93 44.93 133.38 44.93C132.84 44.93 132.39 44.47 132.39 43.91C132.39 43.35 132.84 42.89 133.38 42.89C133.93 42.89 134.37 43.35 134.37 43.91ZM136.36 44.93C135.81 44.93 135.37 44.47 135.37 43.91C135.37 43.35 135.81 42.89 136.36 42.89C136.91 42.89 137.35 43.35 137.35 43.91C137.35 44.47 136.91 44.93 136.36 44.93ZM139.33 42.89C139.88 42.89 140.32 43.35 140.32 43.91C140.32 44.47 139.88 44.93 139.33 44.93C138.78 44.93 138.34 44.47 138.34 43.91C138.34 43.35 138.78 42.89 139.33 42.89ZM143.3 43.91C143.3 44.47 142.85 44.93 142.31 44.93C141.76 44.93 141.32 44.47 141.32 43.91C141.32 43.35 141.76 42.89 142.31 42.89C142.85 42.89 143.3 43.35 143.3 43.91ZM144.29 43.91C144.29 43.35 144.73 42.89 145.28 42.89C145.83 42.89 146.27 43.35 146.27 43.91C146.27 44.47 145.83 44.93 145.28 44.93C144.73 44.93 144.29 44.47 144.29 43.91ZM148.26 44.93C147.71 44.93 147.27 44.47 147.27 43.91C147.27 43.35 147.71 42.89 148.26 42.89C148.8 42.89 149.25 43.35 149.25 43.91C149.25 44.47 148.8 44.93 148.26 44.93ZM152.22 43.91C152.22 44.47 151.78 44.93 151.23 44.93C150.68 44.93 150.24 44.47 150.24 43.91C150.24 43.35 150.68 42.89 151.23 42.89C151.78 42.89 152.22 43.35 152.22 43.91ZM155.2 43.91C155.2 44.47 154.75 44.93 154.21 44.93C153.66 44.93 153.21 44.47 153.21 43.91C153.21 43.35 153.66 42.89 154.21 42.89C154.75 42.89 155.2 43.35 155.2 43.91ZM158.17 43.91C158.17 44.47 157.73 44.93 157.18 44.93C156.63 44.93 156.19 44.47 156.19 43.91C156.19 43.35 156.63 42.89 157.18 42.89C157.73 42.89 158.17 43.35 158.17 43.91ZM161.15 43.91C161.15 44.47 160.7 44.93 160.16 44.93C159.61 44.93 159.16 44.47 159.16 43.91C159.16 43.35 159.61 42.89 160.16 42.89C160.7 42.89 161.15 43.35 161.15 43.91ZM162.14 43.91C162.14 43.35 162.58 42.89 163.13 42.89C163.68 42.89 164.12 43.35 164.12 43.91C164.12 44.47 163.68 44.93 163.13 44.93C162.58 44.93 162.14 44.47 162.14 43.91ZM167.1 43.91C167.1 44.47 166.65 44.93 166.11 44.93C165.56 44.93 165.11 44.47 165.11 43.91C165.11 43.35 165.56 42.89 166.11 42.89C166.65 42.89 167.1 43.35 167.1 43.91ZM169.08 44.93C168.53 44.93 168.09 44.47 168.09 43.91C168.09 43.35 168.53 42.89 169.08 42.89C169.63 42.89 170.07 43.35 170.07 43.91C170.07 44.47 169.63 44.93 169.08 44.93ZM172.06 44.93C171.51 44.93 171.06 44.47 171.06 43.91C171.06 43.35 171.51 42.89 172.06 42.89C172.6 42.89 173.05 43.35 173.05 43.91C173.05 44.47 172.6 44.93 172.06 44.93ZM175.03 44.93C174.48 44.93 174.04 44.47 174.04 43.91C174.04 43.35 174.48 42.89 175.03 42.89C175.58 42.89 176.02 43.35 176.02 43.91C176.02 44.47 175.58 44.93 175.03 44.93ZM178 44.93C177.46 44.93 177.01 44.47 177.01 43.91C177.01 43.35 177.46 42.89 178 42.89C178.55 42.89 179 43.35 179 43.91C179 44.47 178.55 44.93 178 44.93ZM0 44.83L0 42.99C0.33 43.16 0.55 43.51 0.55 43.91C0.55 44.31 0.33 44.66 0 44.83ZM2.53 48L2.52 48C1.97 48 1.53 47.54 1.53 46.97C1.53 46.41 1.97 45.95 2.52 45.95L2.53 45.95L2.54 45.95C3.08 45.95 3.53 46.41 3.53 46.97C3.53 47.54 3.08 48 2.54 48L2.53 48ZM6.48 46.97C6.48 47.54 6.04 48 5.49 48C4.95 48 4.5 47.54 4.5 46.97C4.5 46.41 4.95 45.95 5.49 45.95C6.04 45.95 6.48 46.41 6.48 46.97ZM9.46 46.97C9.46 47.54 9.02 48 8.47 48C7.92 48 7.48 47.54 7.48 46.97C7.48 46.41 7.92 45.95 8.47 45.95C9.02 45.95 9.46 46.41 9.46 46.97ZM12.43 46.97C12.43 47.54 11.99 48 11.44 48C10.9 48 10.45 47.54 10.45 46.97C10.45 46.41 10.9 45.95 11.44 45.95C11.99 45.95 12.43 46.41 12.43 46.97ZM15.41 46.97C15.41 47.54 14.96 48 14.42 48C13.87 48 13.43 47.54 13.43 46.97C13.43 46.41 13.87 45.95 14.42 45.95C14.96 45.95 15.41 46.41 15.41 46.97ZM18.38 46.97C18.38 47.54 17.94 48 17.39 48C16.84 48 16.4 47.54 16.4 46.97C16.4 46.41 16.84 45.95 17.39 45.95C17.94 45.95 18.38 46.41 18.38 46.97ZM21.36 46.97C21.36 47.54 20.91 48 20.37 48C19.82 48 19.37 47.54 19.37 46.97C19.37 46.41 19.82 45.95 20.37 45.95C20.91 45.95 21.36 46.41 21.36 46.97ZM24.33 46.97C24.33 47.54 23.89 48 23.34 48C22.79 48 22.35 47.54 22.35 46.97C22.35 46.41 22.79 45.95 23.34 45.95C23.89 45.95 24.33 46.41 24.33 46.97ZM27.31 46.97C27.31 47.54 26.86 48 26.32 48C25.77 48 25.33 47.54 25.33 46.97C25.33 46.41 25.77 45.95 26.32 45.95C26.86 45.95 27.31 46.41 27.31 46.97ZM30.28 46.97C30.28 47.54 29.84 48 29.29 48C28.74 48 28.3 47.54 28.3 46.97C28.3 46.41 28.74 45.95 29.29 45.95C29.84 45.95 30.28 46.41 30.28 46.97ZM33.26 46.97C33.26 47.54 32.81 48 32.27 48C31.72 48 31.27 47.54 31.27 46.97C31.27 46.41 31.72 45.95 32.27 45.95C32.81 45.95 33.26 46.41 33.26 46.97ZM36.23 46.97C36.23 47.54 35.79 48 35.24 48C34.69 48 34.25 47.54 34.25 46.97C34.25 46.41 34.69 45.95 35.24 45.95C35.79 45.95 36.23 46.41 36.23 46.97ZM39.21 46.97C39.21 47.54 38.76 48 38.22 48C37.67 48 37.22 47.54 37.22 46.97C37.22 46.41 37.67 45.95 38.22 45.95C38.76 45.95 39.21 46.41 39.21 46.97ZM42.18 46.97C42.18 47.54 41.74 48 41.19 48C40.64 48 40.2 47.54 40.2 46.97C40.2 46.41 40.64 45.95 41.19 45.95C41.74 45.95 42.18 46.41 42.18 46.97ZM45.16 46.97C45.16 47.54 44.71 48 44.16 48C43.62 48 43.17 47.54 43.17 46.97C43.17 46.41 43.62 45.95 44.16 45.95C44.71 45.95 45.16 46.41 45.16 46.97ZM48.13 46.97C48.13 47.54 47.69 48 47.14 48C46.59 48 46.15 47.54 46.15 46.97C46.15 46.41 46.59 45.95 47.14 45.95C47.69 45.95 48.13 46.41 48.13 46.97ZM51.11 46.97C51.11 47.54 50.66 48 50.12 48C49.57 48 49.12 47.54 49.12 46.97C49.12 46.41 49.57 45.95 50.12 45.95C50.66 45.95 51.11 46.41 51.11 46.97ZM54.08 46.97C54.08 47.54 53.64 48 53.09 48C52.54 48 52.1 47.54 52.1 46.97C52.1 46.41 52.54 45.95 53.09 45.95C53.64 45.95 54.08 46.41 54.08 46.97ZM57.06 46.97C57.06 47.54 56.61 48 56.06 48C55.52 48 55.07 47.54 55.07 46.97C55.07 46.41 55.52 45.95 56.06 45.95C56.61 45.95 57.06 46.41 57.06 46.97ZM60.03 46.97C60.03 47.54 59.59 48 59.04 48C58.49 48 58.05 47.54 58.05 46.97C58.05 46.41 58.49 45.95 59.04 45.95C59.59 45.95 60.03 46.41 60.03 46.97ZM62.98 46.97C62.98 47.54 62.54 48 61.99 48C61.44 48 61 47.54 61 46.97C61 46.41 61.44 45.95 61.99 45.95C62.54 45.95 62.98 46.41 62.98 46.97ZM64.96 45.95C65.51 45.95 65.95 46.41 65.95 46.97C65.95 47.54 65.51 48 64.96 48C64.41 48 63.97 47.54 63.97 46.97C63.97 46.41 64.41 45.95 64.96 45.95ZM67.94 48C67.39 48 66.95 47.54 66.95 46.97C66.95 46.41 67.39 45.95 67.94 45.95C68.48 45.95 68.93 46.41 68.93 46.97C68.93 47.54 68.48 48 67.94 48ZM71.9 46.97C71.9 47.54 71.46 48 70.91 48C70.36 48 69.92 47.54 69.92 46.97C69.92 46.41 70.36 45.95 70.91 45.95C71.46 45.95 71.9 46.41 71.9 46.97ZM73.89 48C73.34 48 72.89 47.54 72.89 46.97C72.89 46.41 73.34 45.95 73.89 45.95C74.43 45.95 74.88 46.41 74.88 46.97C74.88 47.54 74.43 48 73.89 48ZM76.86 48C76.31 48 75.87 47.54 75.87 46.97C75.87 46.41 76.31 45.95 76.86 45.95C77.41 45.95 77.85 46.41 77.85 46.97C77.85 47.54 77.41 48 76.86 48ZM79.84 48C79.29 48 78.84 47.54 78.84 46.97C78.84 46.41 79.29 45.95 79.84 45.95C80.38 45.95 80.83 46.41 80.83 46.97C80.83 47.54 80.38 48 79.84 48ZM83.8 46.97C83.8 47.54 83.36 48 82.81 48C82.26 48 81.82 47.54 81.82 46.97C81.82 46.41 82.26 45.95 82.81 45.95C83.36 45.95 83.8 46.41 83.8 46.97ZM85.79 48C85.24 48 84.79 47.54 84.79 46.97C84.79 46.41 85.24 45.95 85.79 45.95C86.33 45.95 86.78 46.41 86.78 46.97C86.78 47.54 86.33 48 85.79 48ZM89.75 46.97C89.75 47.54 89.31 48 88.76 48C88.21 48 87.77 47.54 87.77 46.97C87.77 46.41 88.21 45.95 88.76 45.95C89.31 45.95 89.75 46.41 89.75 46.97ZM91.74 48C91.19 48 90.74 47.54 90.74 46.97C90.74 46.41 91.19 45.95 91.74 45.95C92.28 45.95 92.73 46.41 92.73 46.97C92.73 47.54 92.28 48 91.74 48ZM94.71 48C94.16 48 93.72 47.54 93.72 46.97C93.72 46.41 94.16 45.95 94.71 45.95C95.26 45.95 95.7 46.41 95.7 46.97C95.7 47.54 95.26 48 94.71 48ZM98.68 46.97C98.68 47.54 98.23 48 97.68 48C97.14 48 96.69 47.54 96.69 46.97C96.69 46.41 97.14 45.95 97.68 45.95C98.23 45.95 98.68 46.41 98.68 46.97ZM100.66 48C100.11 48 99.67 47.54 99.67 46.97C99.67 46.41 100.11 45.95 100.66 45.95C101.21 45.95 101.65 46.41 101.65 46.97C101.65 47.54 101.21 48 100.66 48ZM103.64 48C103.09 48 102.64 47.54 102.64 46.97C102.64 46.41 103.09 45.95 103.64 45.95C104.18 45.95 104.63 46.41 104.63 46.97C104.63 47.54 104.18 48 103.64 48ZM107.6 46.97C107.6 47.54 107.16 48 106.61 48C106.06 48 105.62 47.54 105.62 46.97C105.62 46.41 106.06 45.95 106.61 45.95C107.16 45.95 107.6 46.41 107.6 46.97ZM108.59 46.97C108.59 46.41 109.04 45.95 109.58 45.95C110.13 45.95 110.58 46.41 110.58 46.97C110.58 47.54 110.13 48 109.58 48C109.04 48 108.59 47.54 108.59 46.97ZM112.56 48C112.01 48 111.57 47.54 111.57 46.97C111.57 46.41 112.01 45.95 112.56 45.95C113.11 45.95 113.55 46.41 113.55 46.97C113.55 47.54 113.11 48 112.56 48ZM116.53 46.97C116.53 47.54 116.08 48 115.53 48C114.99 48 114.54 47.54 114.54 46.97C114.54 46.41 114.99 45.95 115.53 45.95C116.08 45.95 116.53 46.41 116.53 46.97ZM119.5 46.97C119.5 47.54 119.06 48 118.51 48C117.96 48 117.52 47.54 117.52 46.97C117.52 46.41 117.96 45.95 118.51 45.95C119.06 45.95 119.5 46.41 119.5 46.97ZM121.48 45.95C122.03 45.95 122.47 46.41 122.47 46.97C122.47 47.54 122.03 48 121.48 48C120.94 48 120.49 47.54 120.49 46.97C120.49 46.41 120.94 45.95 121.48 45.95ZM124.46 45.95C125.01 45.95 125.45 46.41 125.45 46.97C125.45 47.54 125.01 48 124.46 48C123.91 48 123.47 47.54 123.47 46.97C123.47 46.41 123.91 45.95 124.46 45.95ZM127.43 48C126.89 48 126.44 47.54 126.44 46.97C126.44 46.41 126.89 45.95 127.43 45.95C127.98 45.95 128.42 46.41 128.42 46.97C128.42 47.54 127.98 48 127.43 48ZM131.4 46.97C131.4 47.54 130.96 48 130.41 48C129.86 48 129.42 47.54 129.42 46.97C129.42 46.41 129.86 45.95 130.41 45.95C130.96 45.95 131.4 46.41 131.4 46.97ZM133.38 48C132.84 48 132.39 47.54 132.39 46.97C132.39 46.41 132.84 45.95 133.38 45.95C133.93 45.95 134.37 46.41 134.37 46.97C134.37 47.54 133.93 48 133.38 48ZM136.36 48C135.81 48 135.37 47.54 135.37 46.97C135.37 46.41 135.81 45.95 136.36 45.95C136.91 45.95 137.35 46.41 137.35 46.97C137.35 47.54 136.91 48 136.36 48ZM139.33 48C138.78 48 138.34 47.54 138.34 46.97C138.34 46.41 138.78 45.95 139.33 45.95C139.88 45.95 140.32 46.41 140.32 46.97C140.32 47.54 139.88 48 139.33 48ZM142.31 48C141.76 48 141.32 47.54 141.32 46.97C141.32 46.41 141.76 45.95 142.31 45.95C142.85 45.95 143.3 46.41 143.3 46.97C143.3 47.54 142.85 48 142.31 48ZM145.28 48C144.73 48 144.29 47.54 144.29 46.97C144.29 46.41 144.73 45.95 145.28 45.95C145.83 45.95 146.27 46.41 146.27 46.97C146.27 47.54 145.83 48 145.28 48ZM148.26 48C147.71 48 147.27 47.54 147.27 46.97C147.27 46.41 147.71 45.95 148.26 45.95C148.8 45.95 149.25 46.41 149.25 46.97C149.25 47.54 148.8 48 148.26 48ZM151.23 48C150.68 48 150.24 47.54 150.24 46.97C150.24 46.41 150.68 45.95 151.23 45.95C151.78 45.95 152.22 46.41 152.22 46.97C152.22 47.54 151.78 48 151.23 48ZM155.2 46.97C155.2 47.54 154.75 48 154.21 48C153.66 48 153.21 47.54 153.21 46.97C153.21 46.41 153.66 45.95 154.21 45.95C154.75 45.95 155.2 46.41 155.2 46.97ZM157.18 48C156.63 48 156.19 47.54 156.19 46.97C156.19 46.41 156.63 45.95 157.18 45.95C157.73 45.95 158.17 46.41 158.17 46.97C158.17 47.54 157.73 48 157.18 48ZM161.15 46.97C161.15 47.54 160.7 48 160.16 48C159.61 48 159.16 47.54 159.16 46.97C159.16 46.41 159.61 45.95 160.16 45.95C160.7 45.95 161.15 46.41 161.15 46.97ZM164.12 46.97C164.12 47.54 163.68 48 163.13 48C162.58 48 162.14 47.54 162.14 46.97C162.14 46.41 162.58 45.95 163.13 45.95C163.68 45.95 164.12 46.41 164.12 46.97ZM166.11 45.95C166.65 45.95 167.1 46.41 167.1 46.97C167.1 47.54 166.65 48 166.11 48C165.56 48 165.11 47.54 165.11 46.97C165.11 46.41 165.56 45.95 166.11 45.95ZM169.08 48C168.53 48 168.09 47.54 168.09 46.97C168.09 46.41 168.53 45.95 169.08 45.95C169.63 45.95 170.07 46.41 170.07 46.97C170.07 47.54 169.63 48 169.08 48ZM173.05 46.97C173.05 47.54 172.6 48 172.06 48C171.51 48 171.06 47.54 171.06 46.97C171.06 46.41 171.51 45.95 172.06 45.95C172.6 45.95 173.05 46.41 173.05 46.97ZM175.03 45.95C175.58 45.95 176.02 46.41 176.02 46.97C176.02 47.54 175.58 48 175.03 48C174.48 48 174.04 47.54 174.04 46.97C174.04 46.41 174.48 45.95 175.03 45.95ZM178 48C177.46 48 177.01 47.54 177.01 46.97C177.01 46.41 177.46 45.95 178 45.95C178.55 45.95 179 46.41 179 46.97C179 47.54 178.55 48 178 48ZM0 47.89L0 46.06C0.33 46.22 0.55 46.57 0.55 46.97C0.55 47.38 0.33 47.73 0 47.89Z" fill="#4A399D" fill-opacity="1.000000" fill-rule="evenodd"/>
</svg>
