<svg width="129" height="120" viewBox="0 0 129 120" fill="none" xmlns="http://www.w3.org/2000/svg">
<path d="M104.426 32H100.41V36L108.442 36V32H104.426Z" fill="#2D2650"/>
<path d="M96.3933 32V36H100.41V32H96.3933Z" fill="#2D2650"/>
<path d="M92.3769 36V40H96.3933V36H92.3769Z" fill="#2D2650"/>
<path d="M88.3605 40V48H92.3769V40H88.3605Z" fill="#2D2650"/>
<path d="M88.3605 48H84.3441V54.6579H88.3605V48Z" fill="#2D2650"/>
<path d="M84.3441 59V54.6579H80.7241V59H84.3441Z" fill="#2D2650"/>
<path d="M84.3441 59V66.8947H88.3605V59H84.3441Z" fill="#2D2650"/>
<path d="M84.3441 73.6053V66.8947H80.7241V73.6053H84.3441Z" fill="#2D2650"/>
<path d="M88.3605 73.6053H84.3441V78.3421H88.3605V73.6053Z" fill="#2D2650"/>
<path d="M88.3605 78.3421L88.4134 83.4737H92.3769V78.3421H88.3605Z" fill="#2D2650"/>
<path d="M96.3933 83.4737H92.3769V88.2105H96.3933V83.4737Z" fill="#2D2650"/>
<path d="M96.3933 88.2105L96.4307 92H100.394L100.41 88.2105H96.3933Z" fill="#2D2650"/>
<path d="M104.426 96V92H100.394L100.41 96H104.426Z" fill="#2D2650"/>
<path fill-rule="evenodd" clip-rule="evenodd" d="M48.1966 0V4H36.1475V8H28.1147V12H24.0983V16H20.0819V20H16.0655V24H12.0492V28H8.03277V36H4.01639V48H0V72H4.01639V84H8.03277V92H12.0492V96H16.0655V100H20.0819V104H24.0983V108H28.1147V112H36.1475V116H48.1966V120H72.295V116H84.3441V112H92.3769V108H96.3933V104H100.41V100H104.426V96H108.442V92H104.426V96H100.41V100H96.3933V104H92.3769V108H84.3441V112H72.295V116H48.1966V112H36.1475V108H28.1147V104H24.0983V100H20.0819V96H16.0655V92H12.0492V84H8.03277V72H4.01639V48H8.03277V36H12.0492V28H16.0655V24H20.0819V20H24.0983V16H28.1147V12H36.1475V8H48.1966V4H72.295V8H84.3441V12H92.3769V16H96.3933V20H100.41V24H104.426V28H108.442V32V36H112.459V28H108.442V24H104.426V20H100.41V16H96.3933V12H92.3769V8H84.3441V4H72.295V0H48.1966Z" fill="#2D2650"/>
<path d="M51.1297 20.9474H47.5625V22.9211H44.788V25.2895V25.2632V28.0263V28.0526V30.8158H47.9588V32H53.1114V30.0263L54.3005 30V27.2368V27.2632V24.1053H51.1297V20.9474Z" fill="#2D2650"/>
<path d="M27.3484 54.6579H23.7812V56.6316H21.0068V59H18.6286V61.7632H21.0068V64.5263H24.1776V65.7105H29.3302V63.7368H32.1047V60.9737H30.5193V57.8158H27.3484V54.6579Z" fill="#2D2650"/>
<path d="M66.1911 88.4211H62.6239H59.8494V90.7895H57.4713V93.5526H59.8494V96.3158H63.0203V97.5H68.1729V95.5263H69.3619V92.7632V89.6053H66.1911V88.4211Z" fill="#2D2650"/>
<path d="M58.6604 54.0789H55.0932V56.4474H52.3187V56.6316V59.3947V59.2105V61.9737H55.4896V63.1579H60.6422V61.1842H61.8312V58.4211V55.2632H58.6604V54.0789Z" fill="#2D2650"/>
<path d="M79.6671 22.9211H76.1V25.2895H73.3255V25.4737V28.2368V28.0526V30.8158H76.4963V32H81.6489V30.0263H82.838V27.2632V24.1053H79.6671V22.9211Z" fill="#2D2650"/>
<path d="M111.447 50.4912V53.2105H114.256V50.4912H111.447Z" fill="#2D2650"/>
<path d="M114.256 49.1316H111.447V50.4912H114.256V49.1316Z" fill="#2D2650"/>
<path d="M111.447 54.5702H114.256V53.2105H111.447V54.5702Z" fill="#2D2650"/>
<path d="M110.043 50.4912V53.2105H111.447V50.4912H110.043Z" fill="#2D2650"/>
<path d="M115.66 53.2105V50.4912H114.256V53.2105H115.66Z" fill="#2D2650"/>
<path d="M105.83 69.5263V72.2456H108.639V69.5263H105.83Z" fill="#2D2650"/>
<path d="M108.639 68.1667H105.83V69.5263H108.639V68.1667Z" fill="#2D2650"/>
<path d="M105.83 73.6053H108.639V72.2456H105.83V73.6053Z" fill="#2D2650"/>
<path d="M104.426 69.5263V72.2456H105.83V69.5263H104.426Z" fill="#2D2650"/>
<path d="M110.043 72.2456V69.5263H108.639V72.2456H110.043Z" fill="#2D2650"/>
<path d="M124.787 59.3289V62.0482H127.596V59.3289H124.787Z" fill="#2D2650"/>
<path d="M127.596 57.9693H124.787V59.3289H127.596V57.9693Z" fill="#2D2650"/>
<path d="M129 62.0482V59.3289H127.596V62.0482H129Z" fill="#2D2650"/>
<path d="M124.787 63.4079H127.596V62.0482H124.787V63.4079Z" fill="#2D2650"/>
<path d="M123.383 59.3289V62.0482H124.787V59.3289H123.383Z" fill="#2D2650"/>
</svg>
