<svg width="45" height="46" viewBox="0 0 45 46" fill="none" xmlns="http://www.w3.org/2000/svg">
<path d="M15.7343 16.2343H29.4231V29.9231H15.7343V16.2343Z" fill="#F5F5F5" fill-opacity="0.2"/>
<path fill-rule="evenodd" clip-rule="evenodd" d="M45 23C45 35.4264 34.9264 45.5 22.5 45.5C10.0736 45.5 0 35.4264 0 23C0 10.5736 10.0736 0.5 22.5 0.5C34.9264 0.5 45 10.5736 45 23ZM22.5 39.049C31.2767 39.049 38.3916 31.934 38.3916 23.1573C38.3916 14.3806 31.2767 7.26574 22.5 7.26574C13.7233 7.26574 6.60839 14.3806 6.60839 23.1573C6.60839 31.934 13.7233 39.049 22.5 39.049Z" fill="#F5F5F5" fill-opacity="0.2"/>
</svg>
