<svg width="275.000000" height="130.000000" viewBox="0 0 275 130" fill="none" xmlns="http://www.w3.org/2000/svg" xmlns:xlink="http://www.w3.org/1999/xlink">
	<defs>
		<clipPath id="clip3_710">
			<rect id="Variants" rx="0.000000" width="253.500000" height="43.000000" transform="translate(0.500000 85.000000)" fill="white" fill-opacity="0"/>
		</clipPath>
	</defs>
	<path id="BSB" d="M4 14L22 14L39.5 21.5L19 21.5L19 36.5L49 36.5L49 44L56.5 44L56.5 59L49 59L49 66.5L4 66.5L4 14ZM41.5 44L19 44L19 59L41.5 59L41.5 44Z" fill="#DFDC01" fill-opacity="1.000000" fill-rule="evenodd"/>
	<path id="BSB" d="M0 10L53 10L53 25.5L23 25.5L23 32.5L53 32.5L53 40L60.5 40L60.5 63L53 63L53 70.5L0 70.5L0 10ZM22 14L4 14L4 66.5L49 66.5L49 59L56.5 59L56.5 44L49 44L49 36.5L19 36.5L19 21.5L39.5 21.5L22 14Z" fill="#2D2650" fill-opacity="1.000000" fill-rule="evenodd"/>
	<path id="BSB" d="M19 44L41.5 44L41.5 59L19 59L19 44ZM37.5 48L23 48L23 55L37.5 55L37.5 48Z" fill="#2D2650" fill-opacity="1.000000" fill-rule="evenodd"/>
	<path id="BSB" d="M63 25L70.5 25L70.5 17.5L78 17.5L78 10L116 10L116 17.5L123.5 17.5L123.5 33L100.5 33L100.5 25.5L93.5 25.5L93.5 33L86 33L86 47.5L93.5 47.5L93.5 55L100.5 55L100.5 47.5L123.5 47.5L123.5 63L116 63L116 70.5L78 70.5L78 63L70.5 63L70.5 55.5L63 55.5L63 25ZM82 39.5L67 33L67 51.5L74.5 51.5L74.5 59L82 59L82 66.5L112 66.5L112 59L119.5 59L119.5 56L109.5 51.5L104.5 51.5L104.5 59L89.5 59L89.5 51.5L82 51.5L82 39.5Z" fill="#2D2650" fill-opacity="1.000000" fill-rule="evenodd"/>
	<path id="BSB" d="M67 33L82 39.5L82 51.5L89.5 51.5L89.5 59L104.5 59L104.5 51.5L109.5 51.5L119.5 56L119.5 59L112 59L112 66.5L82 66.5L82 59L74.5 59L74.5 51.5L67 51.5L67 33Z" fill="#DFDC01" fill-opacity="1.000000" fill-rule="evenodd"/>
	<path id="BSB" d="M144.5 66.5L130 66.5L130 60.5L144.5 66.5Z" fill="#DFDC01" fill-opacity="1.000000" fill-rule="evenodd"/>
	<path id="BSB" d="M126 10L179 10L179 25.5L149 25.5L149 32.5L179 32.5L179 40L186.5 40L186.5 63L179 63L179 70.5L126 70.5L126 10ZM163.5 48L149 48L149 55L163.5 55L163.5 48ZM130 66.5L144.5 66.5L130 60.5L130 66.5Z" fill="#2D2650" fill-opacity="1.000000" fill-rule="evenodd"/>
	<g clip-path="url(#clip3_710)">
		<path id="Business" d="M32 94.5L0 94.5L0 118L32 118L32 115.5L33.5 115.5L33.5 118L74 118L74 110.5L75.5 110.5L75.5 118L107.5 118L107.5 115.5L110 115.5L110 118L126 118L126 115.5L128.5 115.5L128.5 107L116 107L116 105.5L128.5 105.5L128.5 97L126 97L126 94.5L110 94.5L110 97L107.5 97L107.5 94.5L75.5 94.5L75.5 102L74 102L74 94.5L33.5 94.5L33.5 99.5L32 99.5L32 94.5ZM3 97.5L18 97.5L18 100L8 100L8 105L18 105L18 107.5L20.5 107.5L20.5 112.5L18 112.5L18 115L3 115L3 97.5ZM24 97.5L29 97.5L29 107.5L31.5 107.5L31.5 105L34 105L34 102.5L36.5 102.5L36.5 97.5L41.5 97.5L41.5 115L36.5 115L36.5 107.5L34 107.5L34 110L31.5 110L31.5 112.5L29 112.5L29 115L24 115L24 97.5ZM45 100L47.5 100L47.5 97.5L60 97.5L60 100L62.5 100L62.5 105L60 105L60 107.5L62.5 107.5L62.5 112.5L60 112.5L60 115L47.5 115L47.5 112.5L45 112.5L45 110L50 110L50 112.5L57.5 112.5L57.5 107.5L50 107.5L50 105L57.5 105L57.5 100L50 100L50 102.5L45 102.5L45 100ZM66 97.5L71 97.5L71 105L78.5 105L78.5 97.5L83.5 97.5L83.5 115L78.5 115L78.5 107.5L71 107.5L71 115L66 115L66 97.5ZM87 97.5L104.5 97.5L104.5 100L92 100L92 105L102 105L102 107.5L92 107.5L92 112.5L104.5 112.5L104.5 115L87 115L87 97.5ZM123 97.5L123 100L125.5 100L125.5 102.5L120.5 102.5L120.5 100L115.5 100L115.5 102.5L113 102.5L113 110L115.5 110L115.5 112.5L120.5 112.5L120.5 110L125.5 110L125.5 112.5L123 112.5L123 115L113 115L113 112.5L110.5 112.5L110.5 110L108 110L108 102.5L110.5 102.5L110.5 100L113 100L113 97.5L123 97.5ZM44.5 105.5L47 105.5L47 107L44.5 107L44.5 105.5ZM8 107.5L15.5 107.5L15.5 112.5L8 112.5L8 107.5Z" fill="#FFFFFF" fill-opacity="1.000000" fill-rule="evenodd"/>
		<path id="Systems" d="M2.5 143L2.5 140.5L5 140.5L5 138L32 138L32 143L33.5 143L33.5 138L44.5 138L44.5 140.5L47 140.5L47 138L63 138L63 140.5L65.5 140.5L65.5 138L116 138L116 140.5L117.5 140.5L117.5 138L137 138L137 143L138.5 143L138.5 138L149.5 138L149.5 161.5L117.5 161.5L117.5 156.5L116 156.5L116 161.5L84 161.5L84 146.5L81.5 146.5L81.5 161.5L70.5 161.5L70.5 146.5L65.5 146.5L65.5 149L53 149L53 150.5L65.5 150.5L65.5 159L63 159L63 161.5L47 161.5L47 159L44.5 159L44.5 161.5L33.5 161.5L33.5 159L32 159L32 161.5L5 161.5L5 159L2.5 159L2.5 156.5L0 156.5L0 143L2.5 143ZM20.5 143.5L20.5 146L15.5 146L15.5 143.5L10.5 143.5L10.5 146L8 146L8 153.5L10.5 153.5L10.5 156L15.5 156L15.5 153.5L20.5 153.5L20.5 156L18 156L18 158.5L8 158.5L8 156L5.5 156L5.5 153.5L3 153.5L3 146L5.5 146L5.5 143.5L8 143.5L8 141L18 141L18 143.5L20.5 143.5ZM24 141L29 141L29 151L31.5 151L31.5 148.5L34 148.5L34 146L36.5 146L36.5 141L41.5 141L41.5 158.5L36.5 158.5L36.5 151L34 151L34 153.5L31.5 153.5L31.5 156L29 156L29 158.5L24 158.5L24 141ZM62.5 143.5L62.5 146L57.5 146L57.5 143.5L52.5 143.5L52.5 146L50 146L50 153.5L52.5 153.5L52.5 156L57.5 156L57.5 153.5L62.5 153.5L62.5 156L60 156L60 158.5L50 158.5L50 156L47.5 156L47.5 153.5L45 153.5L45 146L47.5 146L47.5 143.5L50 143.5L50 141L60 141L60 143.5L62.5 143.5ZM68.5 141L83.5 141L83.5 143.5L78.5 143.5L78.5 158.5L73.5 158.5L73.5 143.5L68.5 143.5L68.5 141ZM87 141L104.5 141L104.5 143.5L92 143.5L92 148.5L102 148.5L102 151L92 151L92 156L104.5 156L104.5 158.5L87 158.5L87 141ZM108 141L108 158.5L113 158.5L113 148.5L115.5 148.5L115.5 153.5L118 153.5L118 148.5L120.5 148.5L120.5 158.5L125.5 158.5L125.5 141L120.5 141L120.5 143.5L118 143.5L118 146L115.5 146L115.5 143.5L113 143.5L113 141L108 141ZM129 141L134 141L134 146L139 146L139 158.5L129 158.5L129 141ZM141.5 141L146.5 141L146.5 158.5L141.5 158.5L141.5 141ZM136.5 148.5L134 148.5L134 156L136.5 156L136.5 148.5ZM11 149L21 149L21 150.5L11 150.5L11 149Z" fill="#FFFFFF" fill-opacity="1.000000" fill-rule="evenodd"/>
		<path id="Secure" d="M63 181.5L0 181.5L0 205L63 205L63 202.5L65.5 202.5L65.5 205L95 205L95 190L96.5 190L96.5 205L116 205L116 200L117.5 200L117.5 205L128.5 205L128.5 202.5L131 202.5L131 205L158 205L158 197.5L159.5 197.5L159.5 205L189 205L189 202.5L194 202.5L194 205L210 205L210 202.5L212.5 202.5L212.5 194L200 194L200 192.5L212.5 192.5L212.5 190L217.5 190L217.5 205L228.5 205L228.5 190L231 190L231 205L252 205L252 202.5L254.5 202.5L254.5 189L252 189L252 186.5L242 186.5L242 181.5L212.5 181.5L212.5 184L210 184L210 181.5L194 181.5L194 184L189 184L189 181.5L159.5 181.5L159.5 189L158 189L158 181.5L131 181.5L131 184L128.5 184L128.5 186.5L126 186.5L126 184L123.5 184L123.5 181.5L110 181.5L110 184L107.5 184L107.5 181.5L65.5 181.5L65.5 184L63 184L63 181.5ZM3 184.5L18 184.5L18 187L8 187L8 192L18 192L18 194.5L20.5 194.5L20.5 199.5L18 199.5L18 202L3 202L3 184.5ZM24 184.5L41.5 184.5L41.5 187L29 187L29 192L39 192L39 194.5L29 194.5L29 199.5L41.5 199.5L41.5 202L24 202L24 184.5ZM45 187L45 189.5L50 189.5L50 187L57.5 187L57.5 192L50 192L50 194.5L57.5 194.5L57.5 199.5L50 199.5L50 197L45 197L45 199.5L47.5 199.5L47.5 202L60 202L60 199.5L62.5 199.5L62.5 194.5L60 194.5L60 192L62.5 192L62.5 187L60 187L60 184.5L47.5 184.5L47.5 187L45 187ZM66 187L68.5 187L68.5 184.5L81 184.5L81 187L83.5 187L83.5 199.5L81 199.5L81 202L68.5 202L68.5 199.5L66 199.5L66 187ZM87 184.5L104.5 184.5L104.5 202L99.5 202L99.5 187L92 187L92 202L87 202L87 184.5ZM110.5 189.5L108 189.5L108 202L113 202L113 197L120.5 197L120.5 202L125.5 202L125.5 189.5L123 189.5L123 187L120.5 187L120.5 184.5L113 184.5L113 187L110.5 187L110.5 189.5ZM146.5 187L146.5 189.5L141.5 189.5L141.5 187L136.5 187L136.5 189.5L134 189.5L134 197L136.5 197L136.5 199.5L141.5 199.5L141.5 197L146.5 197L146.5 199.5L144 199.5L144 202L134 202L134 199.5L131.5 199.5L131.5 197L129 197L129 189.5L131.5 189.5L131.5 187L134 187L134 184.5L144 184.5L144 187L146.5 187ZM150 184.5L155 184.5L155 192L162.5 192L162.5 184.5L167.5 184.5L167.5 202L162.5 202L162.5 194.5L155 194.5L155 202L150 202L150 184.5ZM171 187L173.5 187L173.5 184.5L186 184.5L186 187L188.5 187L188.5 199.5L186 199.5L186 202L173.5 202L173.5 199.5L171 199.5L171 187ZM209.5 187L209.5 189.5L204.5 189.5L204.5 187L199.5 187L199.5 189.5L197 189.5L197 197L199.5 197L199.5 199.5L204.5 199.5L204.5 197L209.5 197L209.5 199.5L207 199.5L207 202L197 202L197 199.5L194.5 199.5L194.5 197L192 197L192 189.5L194.5 189.5L194.5 187L197 187L197 184.5L207 184.5L207 187L209.5 187ZM215.5 184.5L230.5 184.5L230.5 187L225.5 187L225.5 202L220.5 202L220.5 187L215.5 187L215.5 184.5ZM234 184.5L239 184.5L239 189.5L249 189.5L249 192L251.5 192L251.5 199.5L249 199.5L249 202L234 202L234 184.5ZM78.5 187L71 187L71 199.5L78.5 199.5L78.5 187ZM115.5 187L115.5 189.5L113 189.5L113 194.5L120.5 194.5L120.5 189.5L118 189.5L118 187L115.5 187ZM176 187L183.5 187L183.5 199.5L176 199.5L176 187ZM74 190L75.5 190L75.5 196.5L74 196.5L74 190ZM180.5 190L179 190L179 196.5L180.5 196.5L180.5 190ZM239 192L246.5 192L246.5 199.5L239 199.5L239 192ZM42 192.5L47 192.5L47 194L42 194L42 192.5ZM137 192.5L147 192.5L147 194L137 194L137 192.5ZM8 194.5L15.5 194.5L15.5 199.5L8 199.5L8 194.5ZM242 196.5L242 195L243.5 195L243.5 196.5L242 196.5Z" fill="#FFFFFF" fill-opacity="1.000000" fill-rule="evenodd"/>
	</g>
</svg>
