<svg width="229" height="104" viewBox="0 0 229 104" fill="none" xmlns="http://www.w3.org/2000/svg">
<path d="M135.512 53.5155H121.634C121.634 41.8489 114.973 35.7378 107.201 35.7378C84.9973 35.7378 87.2177 66.8489 107.201 66.8489H226.548V79.6266C195.647 79.8118 128.522 79.6266 107.201 79.6266C81.1116 79.6266 77.781 55.1822 77.781 53.5155C77.781 50.7378 77.781 22.4044 107.201 22.4044C130.738 22.4044 135.882 43.1452 135.512 53.5155Z" stroke="#2B2A28" stroke-width="3"/>
<path d="M157.16 53.5155H144.393C142.728 25.7378 121.634 14.0711 107.201 14.0711C91.1061 14.0711 67.6641 25.7653 68.8994 53.5155C69.6908 71.2933 85.5551 87.96 107.201 87.96H226.548V101.849H107.201C70.0123 101.849 56.132 69.6267 55.5769 53.5155C55.2069 34.4415 70.009 1.84888 107.201 1.84888C144.394 1.84888 158.828 36.2933 157.16 53.5155Z" stroke="#2B2A28" stroke-width="3"/>
</svg>
