<svg width="107" height="107" viewBox="0 0 107 107" fill="none" xmlns="http://www.w3.org/2000/svg">
<path d="M74.5167 31.7476C68.8136 26.5941 61.8353 23.834 56.8017 23.2625L56.3872 23.2625C56.3806 23.3017 56.3749 23.3564 56.3745 23.4295L56.4524 29.1885C73.3848 32.1511 78.7009 45.9474 78.6579 54.441C78.6086 64.175 71.4975 77.6624 54.2812 78.5498C48.8727 78.8286 42.7646 76.4642 37.9899 72.2765C33.1893 68.066 29.6141 61.9057 29.4561 54.4653L29.4558 54.4494L29.4558 54.4334L29.4558 9.36421L29.4558 8.43529L30.2874 8.02136C30.7371 7.7975 31.4444 7.45254 32.1104 7.14257C32.7195 6.85906 33.4491 6.53016 33.8537 6.41429L35.7894 5.85991L35.7666 7.8733C35.6675 16.6208 35.6675 28.2562 35.6923 37.7099C35.7047 42.4357 35.7233 46.6143 35.7388 49.6114C35.7465 51.1099 35.7535 52.313 35.7585 53.1414L35.7645 54.0931L35.7661 54.3396L35.7665 54.3972C36.2432 65.6631 45.6467 72.0334 54.204 72.0334C55.1513 72.0334 59.6523 71.4989 63.8876 68.9774C68.0276 66.5127 71.8944 62.1785 71.972 54.4184C72.0365 47.9696 69.1892 43.2988 65.6033 40.231C62.5666 37.6331 59.07 36.2434 56.4639 35.896L56.437 41.7742C60.0187 42.5287 62.4418 44.3449 63.963 46.6319C65.6259 49.1319 66.122 52.0555 66.092 54.4522C66.0448 58.2316 64.5151 61.1598 62.1832 63.1209C59.8826 65.0557 56.8815 65.9861 53.9322 65.9861C50.9824 65.9861 47.9745 65.0557 45.6557 63.1259C43.3066 61.1709 41.7415 58.2495 41.647 54.4709L41.6467 54.4574L41.6466 54.4439L41.3028 5.35366L41.2955 4.31148L42.2697 3.94108C46.4332 2.35802 52.4417 1.88925 59.0258 2.71345C65.6399 3.54141 72.9681 5.68973 79.8097 9.47594C93.5477 17.0787 105.297 31.2876 105.297 54.4335C105.297 77.5798 91.8111 93.9663 74.49 101.205C57.2103 108.427 36.0287 106.581 20.555 93.2678L20.5361 93.2516L20.5177 93.2347C5.50233 79.4206 1.01655 63.4506 2.59665 49.0136C4.16892 34.6481 11.7375 21.8614 20.7321 14.2507L23.1465 12.2078L23.2007 15.37L23.8709 54.4077L23.8712 54.4244L23.8711 54.441C23.8203 64.4635 28.3844 71.9671 34.4823 77.0002C40.6211 82.0671 48.2561 84.5758 54.139 84.5758C59.7483 84.5758 67.3671 82.073 73.5886 76.9956C79.7682 71.9523 84.4871 64.4416 84.5378 54.4259C84.5886 44.3788 80.2116 36.8938 74.5167 31.7476Z" stroke="#DFDC01" stroke-width="3"/>
</svg>
