<svg width="107" height="107" viewBox="0 0 107 107" fill="none" xmlns="http://www.w3.org/2000/svg">
<path d="M74.4635 31.1812C68.7604 26.0277 61.7821 23.2676 56.7484 22.6961L56.334 22.6961C56.3274 22.7353 56.3217 22.79 56.3213 22.8631L56.3992 28.6221C73.3316 31.5847 78.6476 45.381 78.6047 53.8746C78.5554 63.6086 71.4442 77.096 54.228 77.9834C48.8195 78.2622 42.7113 75.8978 37.9366 71.71C33.1361 67.4996 29.5608 61.3393 29.4029 53.8989L29.4025 53.883L29.4025 53.867L29.4025 8.7978L29.4025 7.86888L30.2341 7.45496C30.6839 7.2311 31.3912 6.88613 32.0571 6.57617C32.6662 6.29266 33.3959 5.96376 33.8005 5.84788L35.7362 5.2935L35.7134 7.3069C35.6143 16.0544 35.6143 27.6898 35.6391 37.1435C35.6515 41.8693 35.6701 46.0479 35.6856 49.045C35.6933 50.5435 35.7003 51.7466 35.7053 52.575L35.7113 53.5267L35.7129 53.7732L35.7133 53.8308C36.1899 65.0967 45.5935 71.467 54.1508 71.467C55.098 71.467 59.599 70.9325 63.8344 68.411C67.9744 65.9463 71.8412 61.612 71.9188 53.852C71.9833 47.4032 69.136 42.7324 65.55 39.6646C62.5134 37.0667 59.0168 35.677 56.4106 35.3296L56.3838 41.2078C59.9654 41.9623 62.3885 43.7785 63.9098 46.0655C65.5727 48.5655 66.0687 51.4891 66.0388 53.8858C65.9915 57.6652 64.4618 60.5934 62.1299 62.5545C59.8293 64.4893 56.8283 65.4197 53.8789 65.4197C50.9292 65.4197 47.9212 64.4893 45.6025 62.5595C43.2534 60.6045 41.6882 57.6831 41.5938 53.9045L41.5934 53.891L41.5934 53.8775L41.2496 4.78726L41.2423 3.74508L42.2164 3.37468C46.38 1.79161 52.3885 1.32285 58.9726 2.14704C65.5867 2.975 72.9149 5.12333 79.7565 8.90953C93.4945 16.5123 105.244 30.7212 105.244 53.867C105.244 77.0134 91.7579 93.3999 74.4367 100.639C57.1571 107.861 35.9755 106.014 20.5018 92.7014L20.4828 92.6852L20.4645 92.6683C5.44911 78.8542 0.963328 62.8841 2.54342 48.4472C4.1157 34.0817 11.6843 21.295 20.6788 13.6843L23.0932 11.6414L23.1475 14.8036L23.8176 53.8413L23.8179 53.858L23.8179 53.8746C23.7671 63.8971 28.3312 71.4007 34.429 76.4337C40.5679 81.5006 48.2029 84.0094 54.0858 84.0094C59.6951 84.0094 67.3139 81.5066 73.5353 76.4292C79.715 71.3859 84.4338 63.8752 84.4845 53.8594C84.5354 43.8124 80.1584 36.3274 74.4635 31.1812Z" stroke="#2D2650" stroke-width="3"/>
</svg>
