<svg width="95.899414" height="105.204346" viewBox="0 0 95.8994 105.204" fill="none" xmlns="http://www.w3.org/2000/svg" xmlns:xlink="http://www.w3.org/1999/xlink">
	<desc>
			Created with Pixso.
	</desc>
	<defs/>
	<path id="Kaspersky" d="M36.52 29.72L39.47 29.72L39.47 70.52L36.52 70.52L36.52 29.72Z" fill="#D9D9D9" fill-opacity="1.000000" fill-rule="nonzero"/>
	<path id="Kaspersky" d="M58.64 41.27L62.08 41.27L50.28 56.02L63.06 71.26L58.64 71.26L47.33 57.74L47.33 55.28L58.64 41.27Z" fill="#000000" fill-opacity="1.000000" fill-rule="evenodd"/>
	<path id="Kaspersky" d="M52.25 3.66C61.09 8.83 79.04 19.71 89.36 25.54C91.24 26.61 93.29 28.54 93.29 31.68C93.29 38.57 93.29 61.92 93.29 71.01C93.29 73.96 91.82 78.67 89.36 80.11C84.64 82.86 62.08 95.92 52.25 101.49C50.03 102.74 45.86 103.17 42.91 101.49C38.78 99.13 16.44 86.33 6.28 80.6C4.73 80.02 2.6 76.91 2.6 73.96C2.6 69.44 2.6 43.89 2.6 31.68C2.6 29.11 3.92 25.59 7.27 23.82C10.61 22.05 32.42 9.65 42.91 3.66C45.12 2.4 49.54 2.09 52.25 3.66ZM39.47 29.72L39.47 70.52L36.52 70.52L36.52 29.72L39.47 29.72ZM62.08 41.27L50.28 56.02L63.06 71.26L58.64 71.26L47.33 57.74L47.33 55.28L58.64 41.27L62.08 41.27Z" stroke="#2D2650" stroke-opacity="1.000000" stroke-width="5.203252"/>
</svg>
