<svg width="107" height="107" viewBox="0 0 107 107" fill="none" xmlns="http://www.w3.org/2000/svg">
<path d="M24.1825 1.7832H24.138L24.0936 1.78584C15.6597 2.28686 9.94249 6.23962 6.40999 11.147C2.92526 15.9881 1.57513 21.7384 1.73763 25.9897L1.73764 66.7478C1.73764 67.1923 1.78157 67.9266 1.8424 68.5863C1.8733 68.9214 1.91048 69.2585 1.95231 69.5485C1.98649 69.7855 2.04331 70.1446 2.14811 70.4241L2.82838 72.2381L4.41424 71.1252L49.2961 39.6292L50.7579 38.6034L49.4952 37.3407L24.1818 12.0273H95.281V82.8275L73.5857 61.2678L79.5459 53.6388L87.168 62.008L89.777 64.8727V60.998V18.7163V17.2163H88.277H45.9148H42.2726L44.8584 19.7812L63.3199 38.0938L11.9376 89.7848L10.8833 90.8454L11.9408 91.9029L14.6179 94.5801L15.7017 95.6639L16.7619 94.557L70.3052 38.6514L71.2836 37.6298L70.3211 36.5932L58.331 23.6808H70.3372L84.8464 38.0464C76.2272 48.8423 63.7783 64.4704 53.3964 77.5803C48.0343 84.3513 43.2217 90.453 39.7723 94.8709C38.0484 97.079 36.6612 98.8713 35.7153 100.118C35.2438 100.739 34.8744 101.235 34.626 101.581C34.5048 101.751 34.3973 101.906 34.3188 102.029C34.2853 102.082 34.2265 102.177 34.1754 102.284L34.1745 102.286C34.1563 102.324 34.0879 102.467 34.0491 102.657C34.032 102.74 33.9849 102.991 34.0567 103.302C34.1479 103.697 34.4465 104.191 35.0468 104.391C35.254 104.46 35.4865 104.49 35.5945 104.504C35.7494 104.524 35.9326 104.541 36.1277 104.558C36.5203 104.591 37.0124 104.622 37.529 104.651C38.5648 104.708 39.7411 104.756 40.5088 104.782L40.5346 104.783H40.5605H84.8125H84.9112L85.0091 104.77C93.099 103.701 98.235 99.5993 101.313 94.8824C104.355 90.2203 105.368 84.9956 105.368 81.5509V3.2832V1.7832H103.868H24.1825Z" stroke="#DFDC01" stroke-width="3"/>
</svg>
