<svg width="103" height="104" viewBox="0 0 103 104" fill="none" xmlns="http://www.w3.org/2000/svg">
<path d="M70.4346 32.6078C64.6891 34.044 61.0982 34.044 54.6346 34.7622C48.1709 35.4803 34.5255 44.7645 34.5255 58.4605C34.5255 64.0369 34.5255 65.6418 33.0891 71.3869M70.4346 32.6078C68.28 38.3528 68.6384 40.5184 68.28 46.2523C67.5618 57.7424 57.4645 67.6569 48.8892 68.5143C41.7073 69.2325 39.5528 69.2325 33.0891 71.3869M70.4346 32.6078C74.4743 21.8358 70.2069 6.82204 57.5073 3.16437M33.0891 71.3869C30.4558 78.8075 27.3423 94.6543 44.5785 101.548M44.5785 101.548C105.624 111.602 128.606 15.3726 57.5073 3.16437M44.5785 101.548C-27.2402 83.5951 1.48814 -7.60762 57.5073 3.16437" stroke="#2D2650" stroke-width="3"/>
</svg>
