<svg width="187" height="81" viewBox="0 0 187 81" fill="none" xmlns="http://www.w3.org/2000/svg">
<path fill-rule="evenodd" clip-rule="evenodd" d="M4 14H22L39.5 21.5H19V36.5H49V44H56.5V59H49V66.5H4V14ZM41.5 44H19V59H41.5V44Z" fill="#DFDC01"/>
<path fill-rule="evenodd" clip-rule="evenodd" d="M0 10H53V25.5H23V32.5H53V40H60.5V63H53V70.5H0V10ZM22 14H4V66.5H49V59H56.5V44H49V36.5H19V21.5H39.5L22 14Z" fill="#2D2650"/>
<path fill-rule="evenodd" clip-rule="evenodd" d="M19 44H41.5V59H19V44ZM37.5 48H23V55H37.5V48Z" fill="#2D2650"/>
<path fill-rule="evenodd" clip-rule="evenodd" d="M63 25H70.5V17.5H78V10H116V17.5H123.5V33H100.5V25.5H93.5V33H86V47.5H93.5V55H100.5V47.5H123.5V63H116V70.5H78V63H70.5V55.5H63V25ZM82 39.5L67 33V51.5H74.5V59H82V66.5H112V59H119.5V56L109.5 51.5H104.5V59H89.5V51.5H82V39.5Z" fill="#2D2650"/>
<path d="M67 33L82 39.5V51.5H89.5V59H104.5V51.5H109.5L119.5 56V59H112V66.5H82V59H74.5V51.5H67V33Z" fill="#DFDC01"/>
<path d="M144.5 66.5H130V60.5L144.5 66.5Z" fill="#DFDC01"/>
<path fill-rule="evenodd" clip-rule="evenodd" d="M126 10H179V25.5H149V32.5H179V40H186.5V63H179V70.5H126V10ZM163.5 48H149V55H163.5V48ZM130 66.5H144.5L130 60.5V66.5Z" fill="#2D2650"/>
</svg>
