<svg width="255" height="45" viewBox="0 0 255 45" fill="none" xmlns="http://www.w3.org/2000/svg">
<mask id="path-1-outside-1_3616_1368" maskUnits="userSpaceOnUse" x="0" y="0" width="255" height="45" fill="black">
<rect fill="white" width="255" height="45"/>
<path d="M5 40V5H35V10H15V20H35V25H40V35H35V40H5ZM15 35H30V25H15V35ZM47 40V5H57V25H62V20H67V15H72V5H82V40H72V25H67V30H62V35H57V40H47ZM94 40V35H89V30H99V35H114V25H99V20H114V10H99V15H89V10H94V5H119V10H124V20H119V25H124V35H119V40H94ZM131 40V5H141V20H156V5H166V40H156V25H141V40H131ZM173 40V5H208V10H183V20H203V25H183V35H208V40H173ZM225 40V35H220V30H215V15H220V10H225V5H245V10H250V15H240V10H230V15H225V30H230V35H240V30H250V35H245V40H225Z"/>
</mask>
<path d="M5 40H0V45H5V40ZM5 5V0H0V5H5ZM35 5H40V0H35V5ZM35 10V15H40V10H35ZM15 10V5H10V10H15ZM15 20H10V25H15V20ZM35 20H40V15H35V20ZM35 25H30V30H35V25ZM40 25H45V20H40V25ZM40 35V40H45V35H40ZM35 35V30H30V35H35ZM35 40V45H40V40H35ZM15 35H10V40H15V35ZM30 35V40H35V35H30ZM30 25H35V20H30V25ZM15 25V20H10V25H15ZM10 40V5H0V40H10ZM5 10H35V0H5V10ZM30 5V10H40V5H30ZM35 5H15V15H35V5ZM10 10V20H20V10H10ZM15 25H35V15H15V25ZM30 20V25H40V20H30ZM35 30H40V20H35V30ZM35 25V35H45V25H35ZM40 30H35V40H40V30ZM30 35V40H40V35H30ZM35 35H5V45H35V35ZM15 40H30V30H15V40ZM35 35V25H25V35H35ZM30 20H15V30H30V20ZM10 25V35H20V25H10ZM47 40H42V45H47V40ZM47 5V0H42V5H47ZM57 5H62V0H57V5ZM57 25H52V30H57V25ZM62 25V30H67V25H62ZM62 20V15H57V20H62ZM67 20V25H72V20H67ZM67 15V10H62V15H67ZM72 15V20H77V15H72ZM72 5V0H67V5H72ZM82 5H87V0H82V5ZM82 40V45H87V40H82ZM72 40H67V45H72V40ZM72 25H77V20H72V25ZM67 25V20H62V25H67ZM67 30V35H72V30H67ZM62 30V25H57V30H62ZM62 35V40H67V35H62ZM57 35V30H52V35H57ZM57 40V45H62V40H57ZM52 40V5H42V40H52ZM47 10H57V0H47V10ZM52 5V25H62V5H52ZM57 30H62V20H57V30ZM67 25V20H57V25H67ZM62 25H67V15H62V25ZM72 20V15H62V20H72ZM67 20H72V10H67V20ZM77 15V5H67V15H77ZM72 10H82V0H72V10ZM77 5V40H87V5H77ZM82 35H72V45H82V35ZM77 40V25H67V40H77ZM72 20H67V30H72V20ZM62 25V30H72V25H62ZM67 25H62V35H67V25ZM57 30V35H67V30H57ZM62 30H57V40H62V30ZM52 35V40H62V35H52ZM57 35H47V45H57V35ZM94 40H89V45H94V40ZM94 35H99V30H94V35ZM89 35H84V40H89V35ZM89 30V25H84V30H89ZM99 30H104V25H99V30ZM99 35H94V40H99V35ZM114 35V40H119V35H114ZM114 25H119V20H114V25ZM99 25H94V30H99V25ZM99 20V15H94V20H99ZM114 20V25H119V20H114ZM114 10H119V5H114V10ZM99 10V5H94V10H99ZM99 15V20H104V15H99ZM89 15H84V20H89V15ZM89 10V5H84V10H89ZM94 10V15H99V10H94ZM94 5V0H89V5H94ZM119 5H124V0H119V5ZM119 10H114V15H119V10ZM124 10H129V5H124V10ZM124 20V25H129V20H124ZM119 20V15H114V20H119ZM119 25H114V30H119V25ZM124 25H129V20H124V25ZM124 35V40H129V35H124ZM119 35V30H114V35H119ZM119 40V45H124V40H119ZM99 40V35H89V40H99ZM94 30H89V40H94V30ZM94 35V30H84V35H94ZM89 35H99V25H89V35ZM94 30V35H104V30H94ZM99 40H114V30H99V40ZM119 35V25H109V35H119ZM114 20H99V30H114V20ZM104 25V20H94V25H104ZM99 25H114V15H99V25ZM119 20V10H109V20H119ZM114 5H99V15H114V5ZM94 10V15H104V10H94ZM99 10H89V20H99V10ZM94 15V10H84V15H94ZM89 15H94V5H89V15ZM99 10V5H89V10H99ZM94 10H119V0H94V10ZM114 5V10H124V5H114ZM119 15H124V5H119V15ZM119 10V20H129V10H119ZM124 15H119V25H124V15ZM114 20V25H124V20H114ZM119 30H124V20H119V30ZM119 25V35H129V25H119ZM124 30H119V40H124V30ZM114 35V40H124V35H114ZM119 35H94V45H119V35ZM131 40H126V45H131V40ZM131 5V0H126V5H131ZM141 5H146V0H141V5ZM141 20H136V25H141V20ZM156 20V25H161V20H156ZM156 5V0H151V5H156ZM166 5H171V0H166V5ZM166 40V45H171V40H166ZM156 40H151V45H156V40ZM156 25H161V20H156V25ZM141 25V20H136V25H141ZM141 40V45H146V40H141ZM136 40V5H126V40H136ZM131 10H141V0H131V10ZM136 5V20H146V5H136ZM141 25H156V15H141V25ZM161 20V5H151V20H161ZM156 10H166V0H156V10ZM161 5V40H171V5H161ZM166 35H156V45H166V35ZM161 40V25H151V40H161ZM156 20H141V30H156V20ZM136 25V40H146V25H136ZM141 35H131V45H141V35ZM173 40H168V45H173V40ZM173 5V0H168V5H173ZM208 5H213V0H208V5ZM208 10V15H213V10H208ZM183 10V5H178V10H183ZM183 20H178V25H183V20ZM203 20H208V15H203V20ZM203 25V30H208V25H203ZM183 25V20H178V25H183ZM183 35H178V40H183V35ZM208 35H213V30H208V35ZM208 40V45H213V40H208ZM178 40V5H168V40H178ZM173 10H208V0H173V10ZM203 5V10H213V5H203ZM208 5H183V15H208V5ZM178 10V20H188V10H178ZM183 25H203V15H183V25ZM198 20V25H208V20H198ZM203 20H183V30H203V20ZM178 25V35H188V25H178ZM183 40H208V30H183V40ZM203 35V40H213V35H203ZM208 35H173V45H208V35ZM225 40H220V45H225V40ZM225 35H230V30H225V35ZM220 35H215V40H220V35ZM220 30H225V25H220V30ZM215 30H210V35H215V30ZM215 15V10H210V15H215ZM220 15V20H225V15H220ZM220 10V5H215V10H220ZM225 10V15H230V10H225ZM225 5V0H220V5H225ZM245 5H250V0H245V5ZM245 10H240V15H245V10ZM250 10H255V5H250V10ZM250 15V20H255V15H250ZM240 15H235V20H240V15ZM240 10H245V5H240V10ZM230 10V5H225V10H230ZM230 15V20H235V15H230ZM225 15V10H220V15H225ZM225 30H220V35H225V30ZM230 30H235V25H230V30ZM230 35H225V40H230V35ZM240 35V40H245V35H240ZM240 30V25H235V30H240ZM250 30H255V25H250V30ZM250 35V40H255V35H250ZM245 35V30H240V35H245ZM245 40V45H250V40H245ZM230 40V35H220V40H230ZM225 30H220V40H225V30ZM225 35V30H215V35H225ZM220 25H215V35H220V25ZM220 30V15H210V30H220ZM215 20H220V10H215V20ZM225 15V10H215V15H225ZM220 15H225V5H220V15ZM230 10V5H220V10H230ZM225 10H245V0H225V10ZM240 5V10H250V5H240ZM245 15H250V5H245V15ZM245 10V15H255V10H245ZM250 10H240V20H250V10ZM245 15V10H235V15H245ZM240 5H230V15H240V5ZM225 10V15H235V10H225ZM230 10H225V20H230V10ZM220 15V30H230V15H220ZM225 35H230V25H225V35ZM225 30V35H235V30H225ZM230 40H240V30H230V40ZM245 35V30H235V35H245ZM240 35H250V25H240V35ZM245 30V35H255V30H245ZM250 30H245V40H250V30ZM240 35V40H250V35H240ZM245 35H225V45H245V35Z" fill="white" mask="url(#path-1-outside-1_3616_1368)"/>
</svg>
