<svg width="507" height="45" viewBox="0 0 507 45" fill="none" xmlns="http://www.w3.org/2000/svg">
<mask id="path-1-outside-1_661_6023" maskUnits="userSpaceOnUse" x="0" y="0" width="507" height="45" fill="black">
<rect fill="white" width="507" height="45"/>
<path d="M5 40V5H35V10H15V20H35V25H40V35H35V40H5ZM15 35H30V25H15V35ZM47 40V5H82V10H57V20H77V25H57V35H82V40H47ZM94 40V35H89V30H99V35H114V25H99V20H114V10H99V15H89V10H94V5H119V10H124V20H119V25H124V35H119V40H94ZM136 40V35H131V10H136V5H161V10H166V35H161V40H136ZM141 35H156V10H141V35ZM173 40V5H208V40H198V10H183V40H173ZM215 40V15H220V10H225V5H240V10H245V15H250V40H240V30H225V40H215ZM225 25H240V15H235V10H230V15H225V25ZM267 40V35H262V30H257V15H262V10H267V5H287V10H292V15H282V10H272V15H267V30H272V35H282V30H292V35H287V40H267ZM299 40V5H309V20H324V5H334V40H324V25H309V40H299ZM346 40V35H341V10H346V5H371V10H376V35H371V40H346ZM351 35H366V10H351V35ZM393 40V35H388V30H383V15H388V10H393V5H413V10H418V15H408V10H398V15H393V30H398V35H408V30H418V35H413V40H393ZM440 40V10H430V5H460V10H450V40H440ZM467 40V5H477V15H497V20H502V35H497V40H467ZM477 35H492V20H477V35Z"/>
</mask>
<path d="M5 40H0V45H5V40ZM5 5V0H0V5H5ZM35 5H40V0H35V5ZM35 10V15H40V10H35ZM15 10V5H10V10H15ZM15 20H10V25H15V20ZM35 20H40V15H35V20ZM35 25H30V30H35V25ZM40 25H45V20H40V25ZM40 35V40H45V35H40ZM35 35V30H30V35H35ZM35 40V45H40V40H35ZM15 35H10V40H15V35ZM30 35V40H35V35H30ZM30 25H35V20H30V25ZM15 25V20H10V25H15ZM10 40V5H0V40H10ZM5 10H35V0H5V10ZM30 5V10H40V5H30ZM35 5H15V15H35V5ZM10 10V20H20V10H10ZM15 25H35V15H15V25ZM30 20V25H40V20H30ZM35 30H40V20H35V30ZM35 25V35H45V25H35ZM40 30H35V40H40V30ZM30 35V40H40V35H30ZM35 35H5V45H35V35ZM15 40H30V30H15V40ZM35 35V25H25V35H35ZM30 20H15V30H30V20ZM10 25V35H20V25H10ZM47 40H42V45H47V40ZM47 5V0H42V5H47ZM82 5H87V0H82V5ZM82 10V15H87V10H82ZM57 10V5H52V10H57ZM57 20H52V25H57V20ZM77 20H82V15H77V20ZM77 25V30H82V25H77ZM57 25V20H52V25H57ZM57 35H52V40H57V35ZM82 35H87V30H82V35ZM82 40V45H87V40H82ZM52 40V5H42V40H52ZM47 10H82V0H47V10ZM77 5V10H87V5H77ZM82 5H57V15H82V5ZM52 10V20H62V10H52ZM57 25H77V15H57V25ZM72 20V25H82V20H72ZM77 20H57V30H77V20ZM52 25V35H62V25H52ZM57 40H82V30H57V40ZM77 35V40H87V35H77ZM82 35H47V45H82V35ZM94 40H89V45H94V40ZM94 35H99V30H94V35ZM89 35H84V40H89V35ZM89 30V25H84V30H89ZM99 30H104V25H99V30ZM99 35H94V40H99V35ZM114 35V40H119V35H114ZM114 25H119V20H114V25ZM99 25H94V30H99V25ZM99 20V15H94V20H99ZM114 20V25H119V20H114ZM114 10H119V5H114V10ZM99 10V5H94V10H99ZM99 15V20H104V15H99ZM89 15H84V20H89V15ZM89 10V5H84V10H89ZM94 10V15H99V10H94ZM94 5V0H89V5H94ZM119 5H124V0H119V5ZM119 10H114V15H119V10ZM124 10H129V5H124V10ZM124 20V25H129V20H124ZM119 20V15H114V20H119ZM119 25H114V30H119V25ZM124 25H129V20H124V25ZM124 35V40H129V35H124ZM119 35V30H114V35H119ZM119 40V45H124V40H119ZM99 40V35H89V40H99ZM94 30H89V40H94V30ZM94 35V30H84V35H94ZM89 35H99V25H89V35ZM94 30V35H104V30H94ZM99 40H114V30H99V40ZM119 35V25H109V35H119ZM114 20H99V30H114V20ZM104 25V20H94V25H104ZM99 25H114V15H99V25ZM119 20V10H109V20H119ZM114 5H99V15H114V5ZM94 10V15H104V10H94ZM99 10H89V20H99V10ZM94 15V10H84V15H94ZM89 15H94V5H89V15ZM99 10V5H89V10H99ZM94 10H119V0H94V10ZM114 5V10H124V5H114ZM119 15H124V5H119V15ZM119 10V20H129V10H119ZM124 15H119V25H124V15ZM114 20V25H124V20H114ZM119 30H124V20H119V30ZM119 25V35H129V25H119ZM124 30H119V40H124V30ZM114 35V40H124V35H114ZM119 35H94V45H119V35ZM136 40H131V45H136V40ZM136 35H141V30H136V35ZM131 35H126V40H131V35ZM131 10V5H126V10H131ZM136 10V15H141V10H136ZM136 5V0H131V5H136ZM161 5H166V0H161V5ZM161 10H156V15H161V10ZM166 10H171V5H166V10ZM166 35V40H171V35H166ZM161 35V30H156V35H161ZM161 40V45H166V40H161ZM141 35H136V40H141V35ZM156 35V40H161V35H156ZM156 10H161V5H156V10ZM141 10V5H136V10H141ZM141 40V35H131V40H141ZM136 30H131V40H136V30ZM136 35V10H126V35H136ZM131 15H136V5H131V15ZM141 10V5H131V10H141ZM136 10H161V0H136V10ZM156 5V10H166V5H156ZM161 15H166V5H161V15ZM161 10V35H171V10H161ZM166 30H161V40H166V30ZM156 35V40H166V35H156ZM161 35H136V45H161V35ZM141 40H156V30H141V40ZM161 35V10H151V35H161ZM156 5H141V15H156V5ZM136 10V35H146V10H136ZM173 40H168V45H173V40ZM173 5V0H168V5H173ZM208 5H213V0H208V5ZM208 40V45H213V40H208ZM198 40H193V45H198V40ZM198 10H203V5H198V10ZM183 10V5H178V10H183ZM183 40V45H188V40H183ZM178 40V5H168V40H178ZM173 10H208V0H173V10ZM203 5V40H213V5H203ZM208 35H198V45H208V35ZM203 40V10H193V40H203ZM198 5H183V15H198V5ZM178 10V40H188V10H178ZM183 35H173V45H183V35ZM215 40H210V45H215V40ZM215 15V10H210V15H215ZM220 15V20H225V15H220ZM220 10V5H215V10H220ZM225 10V15H230V10H225ZM225 5V0H220V5H225ZM240 5H245V0H240V5ZM240 10H235V15H240V10ZM245 10H250V5H245V10ZM245 15H240V20H245V15ZM250 15H255V10H250V15ZM250 40V45H255V40H250ZM240 40H235V45H240V40ZM240 30H245V25H240V30ZM225 30V25H220V30H225ZM225 40V45H230V40H225ZM225 25H220V30H225V25ZM240 25V30H245V25H240ZM240 15H245V10H240V15ZM235 15H230V20H235V15ZM235 10H240V5H235V10ZM230 10V5H225V10H230ZM230 15V20H235V15H230ZM225 15V10H220V15H225ZM220 40V15H210V40H220ZM215 20H220V10H215V20ZM225 15V10H215V15H225ZM220 15H225V5H220V15ZM230 10V5H220V10H230ZM225 10H240V0H225V10ZM235 5V10H245V5H235ZM240 15H245V5H240V15ZM240 10V15H250V10H240ZM245 20H250V10H245V20ZM245 15V40H255V15H245ZM250 35H240V45H250V35ZM245 40V30H235V40H245ZM240 25H225V35H240V25ZM220 30V40H230V30H220ZM225 35H215V45H225V35ZM225 30H240V20H225V30ZM245 25V15H235V25H245ZM240 10H235V20H240V10ZM240 15V10H230V15H240ZM235 5H230V15H235V5ZM225 10V15H235V10H225ZM230 10H225V20H230V10ZM220 15V25H230V15H220ZM267 40H262V45H267V40ZM267 35H272V30H267V35ZM262 35H257V40H262V35ZM262 30H267V25H262V30ZM257 30H252V35H257V30ZM257 15V10H252V15H257ZM262 15V20H267V15H262ZM262 10V5H257V10H262ZM267 10V15H272V10H267ZM267 5V0H262V5H267ZM287 5H292V0H287V5ZM287 10H282V15H287V10ZM292 10H297V5H292V10ZM292 15V20H297V15H292ZM282 15H277V20H282V15ZM282 10H287V5H282V10ZM272 10V5H267V10H272ZM272 15V20H277V15H272ZM267 15V10H262V15H267ZM267 30H262V35H267V30ZM272 30H277V25H272V30ZM272 35H267V40H272V35ZM282 35V40H287V35H282ZM282 30V25H277V30H282ZM292 30H297V25H292V30ZM292 35V40H297V35H292ZM287 35V30H282V35H287ZM287 40V45H292V40H287ZM272 40V35H262V40H272ZM267 30H262V40H267V30ZM267 35V30H257V35H267ZM262 25H257V35H262V25ZM262 30V15H252V30H262ZM257 20H262V10H257V20ZM267 15V10H257V15H267ZM262 15H267V5H262V15ZM272 10V5H262V10H272ZM267 10H287V0H267V10ZM282 5V10H292V5H282ZM287 15H292V5H287V15ZM287 10V15H297V10H287ZM292 10H282V20H292V10ZM287 15V10H277V15H287ZM282 5H272V15H282V5ZM267 10V15H277V10H267ZM272 10H267V20H272V10ZM262 15V30H272V15H262ZM267 35H272V25H267V35ZM267 30V35H277V30H267ZM272 40H282V30H272V40ZM287 35V30H277V35H287ZM282 35H292V25H282V35ZM287 30V35H297V30H287ZM292 30H287V40H292V30ZM282 35V40H292V35H282ZM287 35H267V45H287V35ZM299 40H294V45H299V40ZM299 5V0H294V5H299ZM309 5H314V0H309V5ZM309 20H304V25H309V20ZM324 20V25H329V20H324ZM324 5V0H319V5H324ZM334 5H339V0H334V5ZM334 40V45H339V40H334ZM324 40H319V45H324V40ZM324 25H329V20H324V25ZM309 25V20H304V25H309ZM309 40V45H314V40H309ZM304 40V5H294V40H304ZM299 10H309V0H299V10ZM304 5V20H314V5H304ZM309 25H324V15H309V25ZM329 20V5H319V20H329ZM324 10H334V0H324V10ZM329 5V40H339V5H329ZM334 35H324V45H334V35ZM329 40V25H319V40H329ZM324 20H309V30H324V20ZM304 25V40H314V25H304ZM309 35H299V45H309V35ZM346 40H341V45H346V40ZM346 35H351V30H346V35ZM341 35H336V40H341V35ZM341 10V5H336V10H341ZM346 10V15H351V10H346ZM346 5V0H341V5H346ZM371 5H376V0H371V5ZM371 10H366V15H371V10ZM376 10H381V5H376V10ZM376 35V40H381V35H376ZM371 35V30H366V35H371ZM371 40V45H376V40H371ZM351 35H346V40H351V35ZM366 35V40H371V35H366ZM366 10H371V5H366V10ZM351 10V5H346V10H351ZM351 40V35H341V40H351ZM346 30H341V40H346V30ZM346 35V10H336V35H346ZM341 15H346V5H341V15ZM351 10V5H341V10H351ZM346 10H371V0H346V10ZM366 5V10H376V5H366ZM371 15H376V5H371V15ZM371 10V35H381V10H371ZM376 30H371V40H376V30ZM366 35V40H376V35H366ZM371 35H346V45H371V35ZM351 40H366V30H351V40ZM371 35V10H361V35H371ZM366 5H351V15H366V5ZM346 10V35H356V10H346ZM393 40H388V45H393V40ZM393 35H398V30H393V35ZM388 35H383V40H388V35ZM388 30H393V25H388V30ZM383 30H378V35H383V30ZM383 15V10H378V15H383ZM388 15V20H393V15H388ZM388 10V5H383V10H388ZM393 10V15H398V10H393ZM393 5V0H388V5H393ZM413 5H418V0H413V5ZM413 10H408V15H413V10ZM418 10H423V5H418V10ZM418 15V20H423V15H418ZM408 15H403V20H408V15ZM408 10H413V5H408V10ZM398 10V5H393V10H398ZM398 15V20H403V15H398ZM393 15V10H388V15H393ZM393 30H388V35H393V30ZM398 30H403V25H398V30ZM398 35H393V40H398V35ZM408 35V40H413V35H408ZM408 30V25H403V30H408ZM418 30H423V25H418V30ZM418 35V40H423V35H418ZM413 35V30H408V35H413ZM413 40V45H418V40H413ZM398 40V35H388V40H398ZM393 30H388V40H393V30ZM393 35V30H383V35H393ZM388 25H383V35H388V25ZM388 30V15H378V30H388ZM383 20H388V10H383V20ZM393 15V10H383V15H393ZM388 15H393V5H388V15ZM398 10V5H388V10H398ZM393 10H413V0H393V10ZM408 5V10H418V5H408ZM413 15H418V5H413V15ZM413 10V15H423V10H413ZM418 10H408V20H418V10ZM413 15V10H403V15H413ZM408 5H398V15H408V5ZM393 10V15H403V10H393ZM398 10H393V20H398V10ZM388 15V30H398V15H388ZM393 35H398V25H393V35ZM393 30V35H403V30H393ZM398 40H408V30H398V40ZM413 35V30H403V35H413ZM408 35H418V25H408V35ZM413 30V35H423V30H413ZM418 30H413V40H418V30ZM408 35V40H418V35H408ZM413 35H393V45H413V35ZM440 40H435V45H440V40ZM440 10H445V5H440V10ZM430 10H425V15H430V10ZM430 5V0H425V5H430ZM460 5H465V0H460V5ZM460 10V15H465V10H460ZM450 10V5H445V10H450ZM450 40V45H455V40H450ZM445 40V10H435V40H445ZM440 5H430V15H440V5ZM435 10V5H425V10H435ZM430 10H460V0H430V10ZM455 5V10H465V5H455ZM460 5H450V15H460V5ZM445 10V40H455V10H445ZM450 35H440V45H450V35ZM467 40H462V45H467V40ZM467 5V0H462V5H467ZM477 5H482V0H477V5ZM477 15H472V20H477V15ZM497 15H502V10H497V15ZM497 20H492V25H497V20ZM502 20H507V15H502V20ZM502 35V40H507V35H502ZM497 35V30H492V35H497ZM497 40V45H502V40H497ZM477 35H472V40H477V35ZM492 35V40H497V35H492ZM492 20H497V15H492V20ZM477 20V15H472V20H477ZM472 40V5H462V40H472ZM467 10H477V0H467V10ZM472 5V15H482V5H472ZM477 20H497V10H477V20ZM492 15V20H502V15H492ZM497 25H502V15H497V25ZM497 20V35H507V20H497ZM502 30H497V40H502V30ZM492 35V40H502V35H492ZM497 35H467V45H497V35ZM477 40H492V30H477V40ZM497 35V20H487V35H497ZM492 15H477V25H492V15ZM472 20V35H482V20H472Z" fill="white" mask="url(#path-1-outside-1_661_6023)"/>
</svg>
