<svg width="297" height="46" viewBox="0 0 297 46" fill="none" xmlns="http://www.w3.org/2000/svg">
<mask id="path-1-outside-1_661_6022" maskUnits="userSpaceOnUse" x="0" y="0.5" width="297" height="45" fill="black">
<rect fill="white" y="0.5" width="297" height="45"/>
<path d="M15 40.5V35.5H10V30.5H5V15.5H10V10.5H15V5.5H35V10.5H40V15.5H30V10.5H20V15.5H15V30.5H20V35.5H30V30.5H40V35.5H35V40.5H15ZM47 40.5V5.5H57V25.5H62V20.5H67V15.5H72V5.5H82V40.5H72V25.5H67V30.5H62V35.5H57V40.5H47ZM99 40.5V35.5H94V30.5H89V15.5H94V10.5H99V5.5H119V10.5H124V15.5H114V10.5H104V15.5H99V30.5H104V35.5H114V30.5H124V35.5H119V40.5H99ZM146 40.5V10.5H136V5.5H166V10.5H156V40.5H146ZM173 40.5V5.5H208V10.5H183V20.5H203V25.5H183V35.5H208V40.5H173ZM215 40.5V5.5H225V10.5H230V15.5H235V10.5H240V5.5H250V40.5H240V20.5H235V30.5H230V20.5H225V40.5H215ZM257 40.5V5.5H267V15.5H277V40.5H257ZM282 40.5V5.5H292V40.5H282ZM267 35.5H272V20.5H267V35.5Z"/>
</mask>
<path d="M15 40.5H10V45.5H15V40.5ZM15 35.5H20V30.5H15V35.5ZM10 35.5H5V40.5H10V35.5ZM10 30.5H15V25.5H10V30.5ZM5 30.5H0V35.5H5V30.5ZM5 15.5V10.5H0V15.5H5ZM10 15.5V20.5H15V15.5H10ZM10 10.5V5.5H5V10.5H10ZM15 10.5V15.5H20V10.5H15ZM15 5.5V0.5H10V5.5H15ZM35 5.5H40V0.5H35V5.5ZM35 10.5H30V15.5H35V10.5ZM40 10.5H45V5.5H40V10.5ZM40 15.5V20.5H45V15.5H40ZM30 15.5H25V20.5H30V15.5ZM30 10.5H35V5.5H30V10.5ZM20 10.5V5.5H15V10.5H20ZM20 15.5V20.5H25V15.5H20ZM15 15.5V10.5H10V15.5H15ZM15 30.5H10V35.5H15V30.5ZM20 30.5H25V25.5H20V30.5ZM20 35.5H15V40.5H20V35.5ZM30 35.5V40.5H35V35.5H30ZM30 30.5V25.5H25V30.5H30ZM40 30.5H45V25.5H40V30.5ZM40 35.5V40.5H45V35.5H40ZM35 35.5V30.5H30V35.5H35ZM35 40.5V45.5H40V40.5H35ZM20 40.5V35.5H10V40.5H20ZM15 30.5H10V40.5H15V30.5ZM15 35.5V30.5H5V35.5H15ZM10 25.5H5V35.5H10V25.5ZM10 30.5V15.5H0V30.5H10ZM5 20.5H10V10.5H5V20.5ZM15 15.5V10.5H5V15.5H15ZM10 15.5H15V5.5H10V15.5ZM20 10.5V5.5H10V10.5H20ZM15 10.5H35V0.5H15V10.5ZM30 5.5V10.5H40V5.5H30ZM35 15.5H40V5.5H35V15.5ZM35 10.5V15.5H45V10.5H35ZM40 10.5H30V20.5H40V10.5ZM35 15.5V10.5H25V15.5H35ZM30 5.5H20V15.5H30V5.5ZM15 10.5V15.5H25V10.5H15ZM20 10.5H15V20.5H20V10.5ZM10 15.5V30.5H20V15.5H10ZM15 35.5H20V25.5H15V35.5ZM15 30.5V35.5H25V30.5H15ZM20 40.5H30V30.5H20V40.5ZM35 35.5V30.5H25V35.5H35ZM30 35.5H40V25.5H30V35.5ZM35 30.5V35.5H45V30.5H35ZM40 30.5H35V40.5H40V30.5ZM30 35.5V40.5H40V35.5H30ZM35 35.5H15V45.5H35V35.5ZM47 40.5H42V45.5H47V40.5ZM47 5.5V0.5H42V5.5H47ZM57 5.5H62V0.5H57V5.5ZM57 25.5H52V30.5H57V25.5ZM62 25.5V30.5H67V25.5H62ZM62 20.5V15.5H57V20.5H62ZM67 20.5V25.5H72V20.5H67ZM67 15.5V10.5H62V15.5H67ZM72 15.5V20.5H77V15.5H72ZM72 5.5V0.5H67V5.5H72ZM82 5.5H87V0.5H82V5.5ZM82 40.5V45.5H87V40.5H82ZM72 40.5H67V45.5H72V40.5ZM72 25.5H77V20.5H72V25.5ZM67 25.5V20.5H62V25.5H67ZM67 30.5V35.5H72V30.5H67ZM62 30.5V25.5H57V30.5H62ZM62 35.5V40.5H67V35.5H62ZM57 35.5V30.5H52V35.5H57ZM57 40.5V45.5H62V40.5H57ZM52 40.5V5.5H42V40.5H52ZM47 10.5H57V0.5H47V10.5ZM52 5.5V25.5H62V5.5H52ZM57 30.5H62V20.5H57V30.5ZM67 25.5V20.5H57V25.5H67ZM62 25.5H67V15.5H62V25.5ZM72 20.5V15.5H62V20.5H72ZM67 20.5H72V10.5H67V20.5ZM77 15.5V5.5H67V15.5H77ZM72 10.5H82V0.5H72V10.5ZM77 5.5V40.5H87V5.5H77ZM82 35.5H72V45.5H82V35.5ZM77 40.5V25.5H67V40.5H77ZM72 20.5H67V30.5H72V20.5ZM62 25.5V30.5H72V25.5H62ZM67 25.5H62V35.5H67V25.5ZM57 30.5V35.5H67V30.5H57ZM62 30.5H57V40.5H62V30.5ZM52 35.5V40.5H62V35.5H52ZM57 35.5H47V45.5H57V35.5ZM99 40.5H94V45.5H99V40.5ZM99 35.5H104V30.5H99V35.5ZM94 35.5H89V40.5H94V35.5ZM94 30.5H99V25.5H94V30.5ZM89 30.5H84V35.5H89V30.5ZM89 15.5V10.5H84V15.5H89ZM94 15.5V20.5H99V15.5H94ZM94 10.5V5.5H89V10.5H94ZM99 10.5V15.5H104V10.5H99ZM99 5.5V0.5H94V5.5H99ZM119 5.5H124V0.5H119V5.5ZM119 10.5H114V15.5H119V10.5ZM124 10.5H129V5.5H124V10.5ZM124 15.5V20.5H129V15.5H124ZM114 15.5H109V20.5H114V15.5ZM114 10.5H119V5.5H114V10.5ZM104 10.5V5.5H99V10.5H104ZM104 15.5V20.5H109V15.5H104ZM99 15.5V10.5H94V15.5H99ZM99 30.5H94V35.5H99V30.5ZM104 30.5H109V25.5H104V30.5ZM104 35.5H99V40.5H104V35.5ZM114 35.5V40.5H119V35.5H114ZM114 30.5V25.5H109V30.5H114ZM124 30.5H129V25.5H124V30.5ZM124 35.5V40.5H129V35.5H124ZM119 35.5V30.5H114V35.5H119ZM119 40.5V45.5H124V40.5H119ZM104 40.5V35.5H94V40.5H104ZM99 30.5H94V40.5H99V30.5ZM99 35.5V30.5H89V35.5H99ZM94 25.5H89V35.5H94V25.5ZM94 30.5V15.5H84V30.5H94ZM89 20.5H94V10.5H89V20.5ZM99 15.5V10.5H89V15.5H99ZM94 15.5H99V5.5H94V15.5ZM104 10.5V5.5H94V10.5H104ZM99 10.5H119V0.5H99V10.5ZM114 5.5V10.5H124V5.5H114ZM119 15.5H124V5.5H119V15.5ZM119 10.5V15.5H129V10.5H119ZM124 10.5H114V20.5H124V10.5ZM119 15.5V10.5H109V15.5H119ZM114 5.5H104V15.5H114V5.5ZM99 10.5V15.5H109V10.5H99ZM104 10.5H99V20.5H104V10.5ZM94 15.5V30.5H104V15.5H94ZM99 35.5H104V25.5H99V35.5ZM99 30.5V35.5H109V30.5H99ZM104 40.5H114V30.5H104V40.5ZM119 35.5V30.5H109V35.5H119ZM114 35.5H124V25.5H114V35.5ZM119 30.5V35.5H129V30.5H119ZM124 30.5H119V40.5H124V30.5ZM114 35.5V40.5H124V35.5H114ZM119 35.5H99V45.5H119V35.5ZM146 40.5H141V45.5H146V40.5ZM146 10.5H151V5.5H146V10.5ZM136 10.5H131V15.5H136V10.5ZM136 5.5V0.5H131V5.5H136ZM166 5.5H171V0.5H166V5.5ZM166 10.5V15.5H171V10.5H166ZM156 10.5V5.5H151V10.5H156ZM156 40.5V45.5H161V40.5H156ZM151 40.5V10.5H141V40.5H151ZM146 5.5H136V15.5H146V5.5ZM141 10.5V5.5H131V10.5H141ZM136 10.5H166V0.5H136V10.5ZM161 5.5V10.5H171V5.5H161ZM166 5.5H156V15.5H166V5.5ZM151 10.5V40.5H161V10.5H151ZM156 35.5H146V45.5H156V35.5ZM173 40.5H168V45.5H173V40.5ZM173 5.5V0.5H168V5.5H173ZM208 5.5H213V0.5H208V5.5ZM208 10.5V15.5H213V10.5H208ZM183 10.5V5.5H178V10.5H183ZM183 20.5H178V25.5H183V20.5ZM203 20.5H208V15.5H203V20.5ZM203 25.5V30.5H208V25.5H203ZM183 25.5V20.5H178V25.5H183ZM183 35.5H178V40.5H183V35.5ZM208 35.5H213V30.5H208V35.5ZM208 40.5V45.5H213V40.5H208ZM178 40.5V5.5H168V40.5H178ZM173 10.5H208V0.5H173V10.5ZM203 5.5V10.5H213V5.5H203ZM208 5.5H183V15.5H208V5.5ZM178 10.5V20.5H188V10.5H178ZM183 25.5H203V15.5H183V25.5ZM198 20.5V25.5H208V20.5H198ZM203 20.5H183V30.5H203V20.5ZM178 25.5V35.5H188V25.5H178ZM183 40.5H208V30.5H183V40.5ZM203 35.5V40.5H213V35.5H203ZM208 35.5H173V45.5H208V35.5ZM215 40.5H210V45.5H215V40.5ZM215 5.5V0.5H210V5.5H215ZM225 5.5H230V0.5H225V5.5ZM225 10.5H220V15.5H225V10.5ZM230 10.5H235V5.5H230V10.5ZM230 15.5H225V20.5H230V15.5ZM235 15.5V20.5H240V15.5H235ZM235 10.5V5.5H230V10.5H235ZM240 10.5V15.5H245V10.5H240ZM240 5.5V0.5H235V5.5H240ZM250 5.5H255V0.5H250V5.5ZM250 40.5V45.5H255V40.5H250ZM240 40.5H235V45.5H240V40.5ZM240 20.5H245V15.5H240V20.5ZM235 20.5V15.5H230V20.5H235ZM235 30.5V35.5H240V30.5H235ZM230 30.5H225V35.5H230V30.5ZM230 20.5H235V15.5H230V20.5ZM225 20.5V15.5H220V20.5H225ZM225 40.5V45.5H230V40.5H225ZM220 40.5V5.5H210V40.5H220ZM215 10.5H225V0.5H215V10.5ZM220 5.5V10.5H230V5.5H220ZM225 15.5H230V5.5H225V15.5ZM225 10.5V15.5H235V10.5H225ZM230 20.5H235V10.5H230V20.5ZM240 15.5V10.5H230V15.5H240ZM235 15.5H240V5.5H235V15.5ZM245 10.5V5.5H235V10.5H245ZM240 10.5H250V0.5H240V10.5ZM245 5.5V40.5H255V5.5H245ZM250 35.5H240V45.5H250V35.5ZM245 40.5V20.5H235V40.5H245ZM240 15.5H235V25.5H240V15.5ZM230 20.5V30.5H240V20.5H230ZM235 25.5H230V35.5H235V25.5ZM235 30.5V20.5H225V30.5H235ZM230 15.5H225V25.5H230V15.5ZM220 20.5V40.5H230V20.5H220ZM225 35.5H215V45.5H225V35.5ZM257 40.5H252V45.5H257V40.5ZM257 5.5V0.5H252V5.5H257ZM267 5.5H272V0.5H267V5.5ZM267 15.5H262V20.5H267V15.5ZM277 15.5H282V10.5H277V15.5ZM277 40.5V45.5H282V40.5H277ZM282 40.5H277V45.5H282V40.5ZM282 5.5V0.5H277V5.5H282ZM292 5.5H297V0.5H292V5.5ZM292 40.5V45.5H297V40.5H292ZM267 35.5H262V40.5H267V35.5ZM272 35.5V40.5H277V35.5H272ZM272 20.5H277V15.5H272V20.5ZM267 20.5V15.5H262V20.5H267ZM262 40.5V5.5H252V40.5H262ZM257 10.5H267V0.5H257V10.5ZM262 5.5V15.5H272V5.5H262ZM267 20.5H277V10.5H267V20.5ZM272 15.5V40.5H282V15.5H272ZM277 35.5H257V45.5H277V35.5ZM287 40.5V5.5H277V40.5H287ZM282 10.5H292V0.5H282V10.5ZM287 5.5V40.5H297V5.5H287ZM292 35.5H282V45.5H292V35.5ZM267 40.5H272V30.5H267V40.5ZM277 35.5V20.5H267V35.5H277ZM272 15.5H267V25.5H272V15.5ZM262 20.5V35.5H272V20.5H262Z" fill="white" mask="url(#path-1-outside-1_661_6022)"/>
</svg>
