<svg width="421" height="250" viewBox="0 0 421 250" fill="none" xmlns="http://www.w3.org/2000/svg">
<g clip-path="url(#clip0_586_4039)">
<g clip-path="url(#clip1_586_4039)">
<path d="M469.128 201.855H3.27539C13.8299 178.563 24.9303 167.007 35.4847 156.908C39.4882 153.086 43.5826 149.174 49.4967 146.899C59.4143 142.987 72.0615 144.625 82.161 148.264C92.2606 151.904 100.813 157.272 110.549 161.366C142.121 174.65 187.251 173.559 213.637 154.724C238.84 136.8 269.958 159.729 279.421 142.623C286.7 129.43 298.528 120.604 321.093 120.968C337.288 121.241 351.573 129.066 366.677 133.524C399.159 143.078 401.252 131.978 425.818 149.538C440.012 159.82 450.112 183.476 469.128 201.855Z" fill="#F5F5F5"/>
<path d="M60.3234 223.51C59.8684 225.33 61.0513 227.059 62.78 227.513C63.053 227.604 63.3259 227.604 63.5079 227.604C65.0547 227.604 66.4195 226.604 66.6925 225.057L77.7019 177.562C78.1568 175.742 76.974 174.013 75.2452 173.558C73.4255 173.103 71.6967 174.286 71.2418 176.015L60.3234 223.51ZM27.1132 227.513C27.3861 227.604 27.6591 227.604 27.8411 227.604C29.3878 227.604 30.7526 226.604 31.1166 225.057L42.126 177.562C42.5809 175.742 41.3981 174.013 39.6694 173.558C37.8496 173.103 36.1209 174.286 35.6659 176.015L24.6565 223.51C24.2016 225.33 25.3844 227.059 27.1132 227.513Z" fill="white"/>
<path d="M12.1015 111.05C13.1933 108.047 14.6491 105.044 15.286 101.951C13.9212 104.772 12.7384 107.956 11.9195 111.596C12.0105 111.414 12.0105 111.232 12.1015 111.05ZM92.6248 191.482C94.4446 191.209 96.0824 190.936 97.7201 190.663C111.095 185.204 116.372 177.925 117.282 170.464C110.549 171.192 103.816 173.103 97.0832 174.104C87.7116 175.559 77.976 175.377 68.7863 173.012C65.3288 172.102 61.8713 170.919 58.2318 170.737C55.9571 170.646 53.6825 170.919 51.4988 170.282C44.4928 168.28 43.219 158.636 37.6688 153.904C36.213 152.631 34.4842 151.812 33.0284 150.629C22.9289 142.895 24.4757 125.789 14.4671 117.965C13.4663 117.146 12.1924 116.418 11.7375 115.144C11.5555 114.689 11.4645 114.325 11.4645 113.87C11.2826 114.962 11.1006 116.054 11.0096 117.146C7.00619 151.721 31.6636 199.307 92.6248 191.482Z" fill="#F5F5F5"/>
<path d="M89.2572 227.878L89.0752 236.339L97.9919 237.249L98.2649 227.605L89.2572 227.878Z" fill="white"/>
<path d="M97.2645 233.246C97.2645 232.427 97.9014 231.79 98.7203 231.79C99.3572 231.79 99.8121 232.154 100.085 232.7L101.086 235.612L110.458 238.796C111.731 239.251 112.55 240.434 112.55 241.708C112.55 241.89 112.368 242.072 112.186 242.072L85.9821 241.89C85.8001 241.89 85.6182 241.708 85.6182 241.526V237.977C85.6182 237.977 85.7092 233.519 89.3486 232.7C89.3486 232.7 91.0774 236.43 94.7169 236.157C96.9005 236.067 97.2645 233.246 97.2645 233.246ZM118.464 227.878L118.282 236.339L127.199 237.249L127.381 227.605L118.464 227.878Z" fill="white"/>
<path d="M55.8654 69.5597C56.1383 71.4705 54.8645 73.1082 53.2267 73.3812C51.498 73.5632 49.9512 72.2894 49.7692 70.3786C49.5873 68.4679 50.6791 66.8301 52.4079 66.5572C54.0456 66.3752 55.5924 67.74 55.8654 69.5597ZM39.3967 74.2911C39.4877 73.4722 39.2148 72.3803 38.5779 71.3795C37.486 69.6507 35.7573 68.8319 34.6654 69.4688C33.6646 70.1057 33.6646 72.1074 34.7564 73.8361C35.3933 74.746 36.1212 75.4739 36.8491 75.7469M80.2499 140.984V142.804H71.6061V144.351H62.5074L59.4139 142.349L58.049 141.53C57.3212 140.53 57.0482 138.892 58.14 137.254C58.9589 135.98 60.1417 134.797 61.2336 133.978L65.328 134.524L70.0593 135.07C70.5143 135.07 70.9692 135.161 71.4241 135.343L78.1572 138.346C79.431 138.983 80.2499 139.711 80.2499 140.984ZM62.5984 139.711L71.6971 142.713L62.5984 139.711Z" fill="white"/>
<path d="M104.998 65.1929L104.179 66.8306C103.27 68.1954 101.359 71.016 100.176 72.0169C99.9941 72.2898 99.9031 72.6538 99.7211 72.9267C99.6301 73.0177 99.6301 73.1997 99.5392 73.2907C99.1752 74.0186 98.9022 74.7465 98.6293 75.3834H98.5383C97.7194 75.2924 97.0825 74.8375 97.0825 74.8375C95.6267 74.1096 94.5349 73.1997 93.625 72.0169C93.625 72.0169 93.534 71.9259 93.534 71.8349C93.534 71.7439 93.443 71.7439 93.443 71.6529C93.534 71.289 93.625 70.8341 93.716 70.3791C93.716 70.2881 93.807 70.1061 93.807 70.0152C93.989 68.8323 94.1709 67.5585 93.989 66.7396C93.534 64.9199 92.2602 60.8255 93.534 60.7345C94.8078 60.6435 96.6276 62.7362 96.9005 64.5559C96.9005 64.5559 99.3572 60.5525 99.0842 57.9139C99.0842 57.9139 98.9022 56.2761 100.085 56.7311C100.449 56.8221 101.177 59.7336 100.904 60.6435C101.086 60.1886 101.723 58.2779 101.814 57.7319C101.905 57.095 103.088 56.9131 103.27 58.9148C103.361 58.8238 103.816 58.3688 104.27 58.5508C104.816 58.8238 104.634 60.2796 104.634 60.4615C104.634 60.3705 104.998 59.9156 105.635 60.1886C106.545 60.8255 105.544 63.7371 104.998 65.1929Z" fill="white"/>
<path d="M96.9014 64.7373C96.9014 64.7373 97.2653 66.648 96.9014 67.7399V64.7373ZM103.179 59.0051C103.179 59.0051 102.725 60.6429 101.997 61.9167L103.179 59.0051ZM104.544 60.5519C104.544 60.5519 103.816 62.3716 103.179 63.3725L104.544 60.5519Z" fill="white"/>
<path d="M87.8163 84.8911C79.8095 84.8911 72.3485 81.5246 67.3442 75.6104C62.7039 70.2422 60.4292 63.2362 61.0662 55.9573C62.34 40.0346 76.2609 27.0234 92.0927 27.0234H93.7304C100.827 13.3754 114.93 4.54968 129.943 4.54968C143.409 4.54968 155.602 11.8286 161.607 23.6569C162.153 24.7488 162.699 25.8406 163.153 27.0234C163.608 26.9325 164.063 26.9325 164.518 26.9325C169.886 26.9325 174.8 29.0252 178.348 32.8466C181.351 36.0311 182.989 40.1256 183.262 44.4929C188.084 44.8569 192.542 46.9496 195.818 50.4071C199.366 54.3195 201.186 59.4148 200.731 64.874C199.821 75.8834 190.086 84.8001 179.076 84.8001H87.8163V84.8911Z" fill="#E1E5E2"/>
<path d="M80.537 84.8911C72.5302 84.8911 65.0692 81.5246 60.0649 75.6104C55.4246 70.2422 53.15 63.2362 53.7869 55.9573C55.0607 40.0346 68.9817 27.0234 84.8134 27.0234H86.4511C93.5481 13.3754 107.651 4.54968 122.664 4.54968C136.13 4.54968 148.322 11.8286 154.327 23.6569C154.873 24.7488 155.419 25.8406 155.874 27.0234C156.329 26.9325 156.784 26.9325 157.239 26.9325C162.607 26.9325 167.52 29.0252 171.069 32.8466C174.072 36.0311 175.709 40.1256 175.982 44.4929C180.805 44.8569 185.263 46.9496 188.538 50.4071C192.087 54.3195 193.907 59.4148 193.452 64.874C192.542 75.8834 182.806 84.8001 171.797 84.8001H80.537V84.8911Z" fill="white"/>
<path d="M118.024 70.0606H129.033C129.761 70.0606 130.398 69.4237 130.398 68.6958V46.495C130.398 45.7671 131.035 45.1302 131.763 45.1302H137.313C138.405 45.1302 139.042 43.9474 138.405 43.0375L124.757 23.0204C124.211 22.2925 123.119 22.2925 122.573 23.0204L108.925 43.0375C108.288 43.9474 108.925 45.1302 110.017 45.1302H115.567C116.295 45.1302 116.932 45.7671 116.932 46.495V68.6958C116.659 69.4237 117.296 70.0606 118.024 70.0606Z" fill="#9283DB"/>
<path d="M170.25 57.777C169.431 57.777 168.794 58.4139 168.794 59.2328C168.794 59.9607 169.431 60.6886 170.25 60.6886C171.069 60.6886 171.706 60.0517 171.706 59.2328C171.706 58.4139 171.069 57.777 170.25 57.777Z" fill="#2D2650"/>
<path d="M156.875 50.2251C156.056 50.2251 155.419 50.862 155.419 51.6809C155.419 52.4998 156.147 53.1367 156.875 53.1367C157.694 53.1367 158.331 52.4998 158.331 51.6809C158.331 50.862 157.694 50.2251 156.875 50.2251Z" fill="#2D2650"/>
<path d="M93.1841 51.6809C93.1841 52.4998 93.821 53.1367 94.6398 53.1367C95.4587 53.1367 96.0956 52.4998 96.0956 51.6809C96.0956 50.862 95.4587 50.2251 94.6398 50.2251C93.821 50.2251 93.1841 50.862 93.1841 51.6809Z" fill="#2D2650"/>
<path d="M79.9 59.2328C79.9 60.0517 80.5369 60.6886 81.3558 60.6886C82.1747 60.6886 82.8115 59.9607 82.8115 59.2328C82.8115 58.4139 82.1747 57.777 81.3558 57.777C80.5369 57.777 79.9 58.4139 79.9 59.2328Z" fill="#2D2650"/>
<path fill-rule="evenodd" clip-rule="evenodd" d="M130.125 5.18659L130.144 5.18659C129.986 5.15523 129.828 5.1249 129.67 5.0956C129.852 5.18659 130.034 5.18659 130.125 5.18659Z" fill="#2D2650"/>
<path fill-rule="evenodd" clip-rule="evenodd" d="M159.968 85.346H179.167C190.449 85.346 200.276 76.2474 201.186 65.1469C201.64 59.5967 199.821 54.4105 196.181 50.4981C192.906 46.9496 188.538 44.8569 183.716 44.4929C183.443 40.1256 181.714 36.1221 178.712 32.9376C175.072 29.1161 170.159 26.9325 164.7 26.9325C164.336 26.9325 163.972 26.9325 163.517 27.0234C163.062 25.9316 162.607 24.8398 162.061 23.8389C155.965 11.9196 143.773 4.54968 130.125 4.54968C128.942 4.54968 127.759 4.64067 126.576 4.73165C125.393 4.64067 124.12 4.54968 122.937 4.54968C108.015 4.54968 93.73 13.3754 86.542 26.9325H85.0862C69.0725 26.9325 55.0606 40.0346 53.7867 56.1393C53.1498 63.5092 55.4245 70.6062 60.1558 76.0654C65.2511 81.9795 72.803 85.437 80.9008 85.437H91.0004L104.193 85.346H146.684H159.968ZM161.515 24.1119C162.061 25.2037 162.516 26.2956 162.971 27.4784C162.971 27.5694 163.153 27.6604 163.335 27.6604C163.881 27.5694 164.245 27.5694 164.7 27.5694C169.977 27.5694 174.799 29.6621 178.257 33.3015C181.168 36.3951 182.897 40.3985 183.079 44.6749C183.079 44.8569 183.17 44.9479 183.352 44.9479C188.083 45.2208 192.542 47.3135 195.726 50.771C199.275 54.5925 201.004 59.5968 200.549 64.965C199.639 75.7924 190.085 84.6181 179.167 84.6181H177.074C186.082 82.3435 193.179 74.4276 193.907 65.056C194.361 59.5058 192.542 54.3195 188.902 50.4071C185.627 46.8586 181.259 44.7659 176.437 44.4019C176.164 40.0346 174.435 36.0311 171.433 32.8466C167.793 29.0252 162.88 26.8415 157.421 26.8415C157.057 26.8415 156.693 26.8415 156.238 26.9325C155.783 25.8406 155.328 24.7488 154.782 23.7479C149.851 14.0652 140.768 7.29772 130.144 5.18659L130.125 5.18659C130.034 5.18659 129.852 5.18659 129.67 5.0956C129.828 5.1249 129.986 5.15523 130.144 5.18659C143.511 5.19367 155.513 12.4712 161.515 24.1119ZM60.6108 75.6104C65.524 81.3426 72.894 84.7091 80.8099 84.7091L91.0004 84.6181V75.4285H81.3558C81.2648 75.4285 81.0828 75.3375 81.0828 75.1555V61.2345C80.0819 61.0525 79.2631 60.2337 79.2631 59.1418C79.2631 57.959 80.173 57.0491 81.3558 57.0491C82.5386 57.0491 83.4485 57.959 83.4485 59.1418C83.4485 60.2337 82.6296 61.0525 81.6287 61.2345V74.8825H91.9102C92.0922 74.8825 92.1832 75.0645 92.1832 75.2465V84.8001H104.83V68.1495H95.1858C95.0038 68.1495 94.8218 67.9675 94.8218 67.7856V53.8646C93.73 53.6826 93.0021 52.8637 93.0021 51.7719C93.0021 50.5891 93.9119 49.6792 95.0948 49.6792C96.2776 49.6792 97.1875 50.5891 97.1875 51.7719C97.1875 52.8637 96.3686 53.6826 95.3678 53.8646V67.5126H105.012C105.103 67.5126 105.285 67.6946 105.285 67.8766V84.8911H147.048V67.8766C147.048 67.6946 147.139 67.5126 147.321 67.5126H156.966V53.8646C155.965 53.6826 155.146 52.8637 155.146 51.7719C155.146 50.5891 156.056 49.6792 157.239 49.6792C158.422 49.6792 159.332 50.5891 159.332 51.7719C159.332 52.8637 158.513 53.6826 157.512 53.8646V67.7856C157.512 67.9675 157.33 68.1495 157.148 68.1495H147.503V84.8001H160.15V75.2465C160.15 75.0645 160.241 74.8825 160.423 74.8825H170.068V61.2345C168.976 61.0525 168.248 60.2337 168.248 59.1418C168.248 57.959 169.158 57.0491 170.341 57.0491C171.524 57.0491 172.434 57.959 172.434 59.1418C172.434 60.2337 171.615 61.0525 170.614 61.2345V75.1555C170.614 75.2465 170.523 75.4285 170.341 75.4285H160.696V84.6181H171.979C182.897 84.6181 192.451 75.7924 193.361 64.965C193.816 59.5968 192.087 54.5925 188.538 50.771C185.263 47.3135 180.895 45.2208 176.164 44.9479C175.982 44.9479 175.891 44.8569 175.891 44.6749C175.618 40.3985 173.98 36.3951 171.069 33.3015C167.611 29.6621 162.789 27.5694 157.512 27.5694C157.057 27.5694 156.602 27.5694 156.147 27.6604C155.965 27.6604 155.874 27.5694 155.783 27.4784C155.419 26.2956 154.873 25.2037 154.327 24.1119C148.322 12.4655 136.312 5.18659 122.937 5.18659C108.197 5.18659 94.0939 13.9213 86.9969 27.4784C86.9969 27.5694 86.815 27.6604 86.724 27.6604H85.1772C69.4365 27.6604 55.6975 40.4895 54.4237 56.2302C53.7867 63.4182 56.0614 70.3332 60.6108 75.6104ZM170.25 57.777C169.431 57.777 168.794 58.4139 168.794 59.2328C168.794 59.9607 169.431 60.6886 170.25 60.6886C171.069 60.6886 171.706 60.0517 171.706 59.2328C171.706 58.4139 171.069 57.777 170.25 57.777ZM156.875 50.2251C156.056 50.2251 155.419 50.862 155.419 51.6809C155.419 52.4998 156.147 53.1367 156.875 53.1367C157.694 53.1367 158.331 52.4998 158.331 51.6809C158.331 50.862 157.694 50.2251 156.875 50.2251ZM93.1841 51.6809C93.1841 52.4998 93.821 53.1367 94.6398 53.1367C95.4587 53.1367 96.0956 52.4998 96.0956 51.6809C96.0956 50.862 95.4587 50.2251 94.6398 50.2251C93.821 50.2251 93.1841 50.862 93.1841 51.6809ZM79.9 59.2328C79.9 60.0517 80.5369 60.6886 81.3558 60.6886C82.1747 60.6886 82.8115 59.9607 82.8115 59.2328C82.8115 58.4139 82.1747 57.777 81.3558 57.777C80.5369 57.777 79.9 58.4139 79.9 59.2328Z" fill="#2D2650"/>
<path d="M92.6248 191.482C94.4446 191.209 96.0824 190.936 97.7201 190.663C115.281 187.388 122.742 180.291 124.834 172.193C129.202 155.634 111.368 134.979 111.368 134.979C111.368 134.979 96.9922 108.32 90.6231 102.042C84.2541 95.6732 78.1579 81.2972 45.6756 82.3891C45.6756 82.3891 40.2164 82.4801 33.5744 85.2097C27.2963 87.7573 19.9263 92.6706 15.286 102.042C13.9212 104.863 12.7384 108.047 11.9195 111.687C11.7375 112.415 11.5555 113.234 11.4645 114.053C11.2826 115.144 11.1006 116.236 11.0096 117.328C7.00619 151.721 31.6636 199.307 92.6248 191.482Z" fill="white"/>
<path d="M126.38 233.246C126.38 232.427 127.017 231.79 127.836 231.79C128.473 231.79 128.928 232.154 129.201 232.7L130.202 235.611L139.573 238.796C140.847 239.251 141.666 240.434 141.666 241.707C141.666 241.889 141.484 242.071 141.302 242.071L115.098 241.889C114.916 241.889 114.734 241.707 114.734 241.525V237.977C114.734 237.977 114.825 233.519 118.465 232.7C118.465 232.7 120.193 236.43 123.833 236.157C126.107 236.066 126.38 233.246 126.38 233.246ZM40.6708 142.805H71.8793L82.8887 114.417C82.8887 114.417 71.4243 90.4871 59.2321 87.4846C58.6862 87.3026 58.0492 87.3026 57.5033 87.2116C52.863 86.6657 34.3927 86.0288 26.9317 94.7635C21.6545 100.86 18.7429 141.258 40.6708 142.805Z" fill="white"/>
<path d="M78.248 143.35C109.82 144.533 114.006 212.591 114.552 226.421C114.643 227.786 115.735 228.878 117.099 228.878H128.473C129.565 228.878 130.475 228.241 130.838 227.24C130.929 226.876 131.02 226.512 131.02 226.148C130.384 214.684 127.836 170.1 127.29 159.546C126.653 147.445 112.823 143.35 112.823 143.35H78.248Z" fill="#9283DB"/>
<path d="M78.248 143.351C109.82 144.534 114.006 212.592 114.552 226.422C114.643 227.787 115.735 228.878 117.099 228.878H128.473C129.565 228.878 130.475 228.242 130.838 227.241C130.475 226.786 130.202 226.24 129.838 225.785C126.835 221.236 124.833 215.958 124.105 210.59C123.741 208.042 123.651 205.404 123.196 202.856C122.65 200.036 121.558 197.397 120.921 194.576C120.284 191.301 120.284 187.934 119.92 184.659C119.556 181.292 118.737 178.108 118.009 174.832C117.463 172.467 116.826 170.101 115.553 168.099C114.552 166.552 113.278 165.279 112.459 163.641C111.367 161.548 111.276 159 110.275 156.908C109.093 154.633 106.909 152.995 104.816 151.449C101.814 149.265 98.8111 147.172 95.3536 145.989C92.624 145.08 89.7124 144.807 86.9828 143.806C86.5279 143.624 86.1639 143.533 85.709 143.26H78.248V143.351Z" fill="#4A399D"/>
<path d="M81.5245 162.366L85.8009 226.421C85.8919 227.786 86.9837 228.787 88.3485 228.787H99.4489C100.45 228.787 101.269 228.241 101.724 227.422C101.906 227.149 101.997 226.876 101.997 226.603C103.725 215.776 111.004 167.007 104.18 156.725C96.5374 144.988 83.3443 143.259 83.3443 143.259L45.0388 142.531H43.765L37.8508 142.44C37.8508 142.531 34.7573 166.825 81.5245 162.366Z" fill="#9283DB"/>
<path d="M81.5235 162.366L85.7999 226.421C85.8909 227.786 86.9827 228.787 88.3475 228.787H99.4479C100.449 228.787 101.268 228.241 101.723 227.422C101.45 225.966 100.904 224.51 100.267 223.237C98.6291 219.961 96.2634 216.958 95.5355 213.41C94.5346 208.133 97.0823 202.128 94.1707 197.578C93.1698 196.031 91.7141 194.94 90.8952 193.393C89.2574 190.299 90.6222 186.569 90.8952 183.111C91.3501 177.47 89.0754 171.647 90.4402 166.097C90.8042 164.641 91.4411 163.185 91.3501 161.638C91.0772 158.636 87.9836 156.634 84.981 155.906C81.9785 155.269 78.7939 155.36 76.0643 154.087C74.6995 153.45 73.5167 152.631 72.2429 151.903C68.8764 150.174 65.0549 149.992 61.3244 149.81C57.594 149.628 53.6815 149.537 50.315 147.899C48.0403 146.808 46.0386 144.806 45.1288 142.531H44.0369L43.9459 142.986C43.9459 142.804 43.9459 142.713 43.855 142.531L37.9408 142.44C37.8498 142.531 34.7563 166.825 81.5235 162.366Z" fill="#4A399D"/>
<path d="M33.3926 123.151L64.4191 132.705L33.3926 123.151ZM48.8604 85.3916L49.1333 86.8474L47.4955 101.951L38.5788 88.4851C38.5788 88.4851 34.6664 73.0174 34.3934 71.1976C34.3934 71.1976 31.9368 56.3668 44.038 55.2749C50.6801 54.638 53.5007 61.2801 54.5925 69.7418C55.5934 77.6577 57.4131 84.3907 48.8604 85.3916Z" fill="white"/>
<path d="M40.6707 142.805H57.0484C56.8664 141.986 56.5025 141.258 55.9566 140.712C54.7737 139.439 52.863 139.166 51.2252 138.711C48.9506 138.074 46.8579 136.982 45.0381 135.526C44.2192 134.889 43.4004 134.07 42.4905 133.524C38.942 131.341 33.9377 131.887 31.2081 128.793C29.0244 126.336 29.3884 122.606 29.9343 119.421C30.5712 116.237 31.2991 112.779 29.8433 109.868C29.4794 109.231 29.1154 108.685 28.8425 107.957C27.7506 105.409 29.0244 102.589 30.2982 100.223C31.5721 97.8575 33.0279 95.1279 32.209 92.4893C32.027 91.9434 31.845 91.4885 31.4811 91.1245C29.7523 92.1254 28.2965 93.2172 27.0227 94.673C21.6545 100.86 18.7429 141.258 40.6707 142.805Z" fill="#F5F5F5"/>
<path d="M70.8791 144.806L80.4327 113.78C80.7057 113.052 81.3426 112.506 82.1614 112.506H120.922C121.468 112.506 121.923 113.052 121.741 113.598L112.096 144.806H70.8791ZM36.1221 123.97V119.148V123.97ZM57.0491 87.2114L79.0679 88.5762L93.1709 70.5608L100.268 74.5642C100.268 74.5642 91.897 95.0363 85.8009 98.5848C84.1631 99.5856 71.152 98.7667 71.152 98.7667" fill="white"/>
<path d="M49.1326 76.2022C49.5875 76.1113 49.8605 76.0203 50.1334 75.9293C50.6794 75.6563 50.5884 75.2014 50.5884 75.0194C50.4974 74.3825 50.2244 73.7456 49.7695 73.1087C49.6785 72.9267 49.4965 72.9267 49.3146 73.0177C49.1326 73.1087 49.1326 73.2907 49.2236 73.4726C49.5875 74.0186 49.7695 74.6555 49.9515 75.2014C49.9515 75.2924 49.9515 75.2924 49.8605 75.3834C49.6785 75.4744 49.4965 75.5653 49.1326 75.6563C48.9506 75.6563 48.8596 75.8383 48.8596 76.0203C48.8596 76.1113 49.0416 76.2022 49.1326 76.2022ZM48.7686 80.0237C48.8596 80.0237 48.8596 80.1147 48.9506 80.1147C49.0416 80.1147 49.1326 80.0237 49.2236 79.9327C49.5875 79.3868 50.0425 79.0228 50.5884 78.9319H50.8613C51.4073 78.9319 51.8622 79.2048 51.8622 79.2048C52.0442 79.2958 52.2261 79.2958 52.3171 79.1138C52.4081 78.9318 52.4081 78.7499 52.2261 78.6589C52.2261 78.6589 51.4982 78.113 50.4974 78.2949C49.8605 78.3859 49.2236 78.8409 48.7686 79.5688C48.5867 79.7507 48.5867 79.9327 48.7686 80.0237ZM46.039 70.925C45.6751 71.016 45.4021 71.3799 45.4021 71.8349C45.4931 72.2898 45.8571 72.6538 46.221 72.5628C46.5849 72.5628 46.8579 72.1078 46.8579 71.6529C46.7669 71.198 46.403 70.834 46.039 70.925ZM46.039 69.2872C46.13 69.1053 46.039 68.9233 45.948 68.8323C45.4931 68.5593 45.0382 68.4684 44.5832 68.6503C43.7644 68.9233 43.4004 69.7422 43.4004 69.7422C43.3094 69.9241 43.4004 70.1061 43.5824 70.1971H43.7644C43.8553 70.1971 44.0373 70.1061 44.0373 70.0151C44.0373 70.0151 44.3103 69.3782 44.8562 69.2872C45.1292 69.1963 45.4021 69.2872 45.6751 69.3782C45.7661 69.4692 45.948 69.4692 46.039 69.2872ZM53.318 70.834C53.409 71.289 53.7729 71.6529 54.1369 71.5619C54.5008 71.4709 54.7738 71.107 54.7738 70.652C54.6828 70.1971 54.3188 69.8332 53.9549 69.9242C53.5 69.9242 53.227 70.3791 53.318 70.834ZM52.4081 67.6495C51.5892 67.9224 51.2253 68.7413 51.2253 68.7413C51.1343 68.9233 51.2253 69.1053 51.4073 69.1963H51.5892C51.6802 69.1963 51.8622 69.1053 51.8622 69.0143C51.8622 69.0143 52.1352 68.3774 52.6811 68.2864C52.954 68.1954 53.227 68.2864 53.5 68.3774C53.6819 68.4684 53.8639 68.3774 53.9549 68.2864C54.0459 68.1044 53.9549 67.9224 53.8639 67.8315C53.318 67.5585 52.863 67.4675 52.4081 67.6495ZM36.3944 71.016C35.6665 71.289 35.2116 72.0168 35.6665 72.8357C35.7575 72.9267 35.8485 73.0177 35.9395 73.0177H36.1215C36.3034 72.9267 36.3034 72.7447 36.3034 72.5628C36.2124 72.2898 36.1215 72.1078 36.2124 71.9259C36.3034 71.6529 36.5764 71.5619 36.6674 71.5619C36.8494 71.4709 36.9403 71.289 36.8494 71.198C36.7584 71.107 36.5764 71.016 36.3944 71.016ZM97.8106 126.245C96.5367 126.245 95.3539 127.337 95.1719 128.611C94.99 129.885 95.8998 131.067 97.2646 131.067C98.5385 131.067 99.7213 130.066 99.9033 128.702C100.085 127.428 99.1754 126.245 97.8106 126.245Z" fill="#2D2650"/>
<path fill-rule="evenodd" clip-rule="evenodd" d="M118.283 126.518L122.196 113.78C122.287 113.416 122.196 113.052 122.014 112.779C121.832 112.506 121.468 112.324 121.104 112.324H98.539C95.7184 107.866 92.9888 103.953 90.9871 101.951C90.0772 101.041 89.0763 99.8587 88.0755 98.6758C87.8935 98.4939 87.7115 98.3119 87.5296 98.0389C93.1708 92.8526 99.9038 76.9299 100.632 75.1102C100.632 75.0192 100.632 75.0192 100.723 75.0192V74.9282C100.814 74.4733 100.632 73.8364 100.177 73.1995C100.268 73.0175 100.359 72.7446 100.541 72.5626C101.724 71.5617 103.543 68.8321 104.544 67.3763C104.885 66.8646 105.146 66.3528 105.403 65.8411L105.454 65.7386C106.637 62.645 106.819 60.8253 105.818 60.3703C105.545 60.2794 105.363 60.1884 105.09 60.2793C105.09 59.7334 104.999 59.0055 104.544 58.7326C104.362 58.6416 103.998 58.5506 103.634 58.8235C103.361 57.5497 102.724 57.4587 102.451 57.4587C101.996 57.4587 101.724 57.7317 101.633 58.1866C101.633 58.3686 101.451 58.9145 101.269 59.4605C101.087 58.3686 100.723 57.0948 100.359 57.0038C99.8128 56.8218 99.5398 56.9128 99.3579 57.0948C98.8119 57.4588 98.9029 58.4596 98.9029 58.5506C99.0849 60.4613 97.0832 63.782 96.4463 65.0558C95.8094 63.3271 94.9905 60.9163 93.6257 61.0072C93.3527 61.0072 93.1708 61.1892 92.9888 61.3712C92.4429 62.1901 92.8978 64.0098 93.5347 66.4665C93.6257 66.8304 93.7167 67.1034 93.8076 67.4673C93.9896 68.1042 93.8986 69.1051 93.7167 70.4699C93.4437 70.5609 93.1707 70.7428 93.0798 71.0158L79.1588 88.7582L76.6111 88.5763C71.6068 85.6647 64.8738 83.39 55.2292 82.6621C56.412 80.2965 56.0481 76.93 55.5022 73.1085C56.1391 72.3806 56.594 71.1978 56.412 70.0149C56.3211 69.378 56.1391 68.9231 55.8661 68.3772C55.9571 68.0132 56.0481 67.2853 56.0481 66.0115C56.0481 64.9197 55.9571 63.8278 55.6841 62.736C58.8687 61.2802 59.6876 58.5506 58.5047 55.912C57.4129 53.3643 54.3193 51.0897 50.043 52.1815C44.6747 53.5463 42.491 52.9094 40.6713 52.4545C40.0344 52.2725 39.3975 52.0905 38.7606 51.9995C36.5769 51.7266 33.8473 53.0914 31.9366 55.457C29.207 58.8236 28.57 63.2819 30.1168 67.7403C31.4816 71.7437 33.1194 74.0184 34.9391 74.5643L35.0301 74.6553C35.667 77.2939 36.5769 80.9334 37.3048 83.9359C36.122 84.2999 34.9391 84.6638 33.7563 85.2098C24.6576 88.9402 13.2843 97.584 11.0096 117.601C8.64392 138.164 16.2868 159.91 30.8447 174.286L30.9381 174.373C32.2759 175.622 33.7026 176.954 35.3031 178.198L24.7486 223.783C24.5666 224.693 24.6576 225.694 25.2035 226.512C25.7495 227.331 26.5683 227.877 27.4782 228.15C27.7512 228.241 28.0241 228.241 28.2971 228.241C30.0258 228.241 31.4816 227.058 31.8456 225.421L41.7632 182.839C48.4962 187.024 57.0489 190.573 67.7854 192.119L60.4155 223.783C59.9605 225.694 61.1434 227.695 63.1451 228.15C63.418 228.241 63.691 228.241 63.9639 228.241C65.6927 228.241 67.1485 227.058 67.5124 225.421L75.0644 192.847C76.7016 192.938 78.3388 192.938 79.976 192.938H79.9776H79.9788C81.1613 192.938 82.3437 192.938 83.6171 192.847L85.8918 226.694C85.9828 228.15 87.2566 229.333 88.7124 229.333H89.2583L89.1673 232.881C87.4386 233.427 86.5287 234.883 86.0738 236.157V236.248C85.8008 237.158 85.6188 237.886 85.6188 238.25V241.98C85.6188 242.344 85.8918 242.708 86.3467 242.708L112.551 242.89C112.733 242.89 112.915 242.799 113.006 242.708C113.097 242.617 113.188 242.435 113.188 242.253C113.188 240.797 112.278 239.433 110.913 238.978L101.633 235.793L100.632 233.063C100.359 232.336 99.7218 231.881 98.9939 231.881H98.8119V229.424H99.7218C100.814 229.424 101.724 228.878 102.269 227.877C102.451 227.604 102.542 227.331 102.633 226.967C103.725 219.779 106.091 203.948 107.183 188.935C108.093 188.662 109.002 188.298 109.912 187.934C113.461 204.403 114.371 220.689 114.553 226.603C114.644 228.15 115.826 229.333 117.373 229.333H118.465L118.374 232.881C116.645 233.427 115.735 234.883 115.281 236.157V236.248C114.826 237.431 114.826 238.432 114.826 238.432V241.98C114.826 242.344 115.19 242.708 115.554 242.708L141.758 242.89C141.94 242.89 142.122 242.799 142.213 242.708C142.304 242.617 142.395 242.435 142.395 242.253C142.395 240.797 141.485 239.433 140.029 238.978L130.748 235.793L129.747 233.063C129.475 232.336 128.838 231.881 128.11 231.881H127.928L128.019 229.515H128.747C129.565 229.515 130.293 229.151 130.839 228.605C131.385 228.059 131.658 227.24 131.658 226.512C131.294 220.871 128.474 171.192 127.928 159.91C127.564 153.541 123.651 149.356 119.921 146.808C118.101 143.623 116.281 140.894 114.826 138.892L118.283 126.518ZM87.4386 98.9488C87.2566 98.6758 87.0746 98.4938 86.8926 98.3119C86.7225 98.4821 86.5169 98.6169 86.298 98.7604C86.1658 98.8471 86.0288 98.937 85.8918 99.0398C85.2549 99.4947 82.9802 99.5857 80.4326 99.5857C78.2489 99.5857 75.8832 99.4947 74.0635 99.4037C77.703 104.317 80.6146 109.412 82.0704 112.233H97.6291C94.8995 107.956 92.2609 104.226 90.3501 102.315C89.4403 101.314 88.4394 100.132 87.4386 98.9488ZM71.6068 141.531V141.44L73.2446 136.344L71.4249 135.526C71.38 135.517 71.3359 135.508 71.2926 135.499L71.2309 135.486C70.8617 135.41 70.5396 135.344 70.1511 135.344C70.1511 135.344 61.5073 134.252 61.4163 134.252C60.2335 135.071 59.2326 136.253 58.5047 137.345C57.7768 138.437 57.6859 139.62 58.0498 140.621C58.0498 140.681 58.1307 140.823 58.2116 140.965C58.252 141.035 58.2924 141.106 58.3228 141.167C58.3228 141.167 58.7777 141.44 58.8687 141.531H66.9665L62.6901 140.075L62.4172 139.984H62.3262C62.2352 139.893 62.1442 139.802 62.2352 139.62L62.3262 139.529C62.4172 139.438 62.5991 139.438 62.6901 139.438H62.7811L63.1451 139.529L69.0592 141.531H71.6068ZM70.1511 134.707C70.606 134.707 71.1519 134.798 71.6068 134.98L73.3356 135.798L80.4326 113.416C80.6146 112.779 81.0695 112.233 81.7064 112.051C80.1596 109.139 77.1571 103.953 73.4266 99.0398C72.7691 99.0398 72.2294 99.0005 71.8591 98.9736C71.6657 98.9595 71.5185 98.9488 71.4249 98.9488C71.2429 98.9488 71.1519 98.7668 71.1519 98.5848C71.1519 98.4029 71.3339 98.3119 71.5159 98.3119C71.733 98.3119 71.9501 98.3326 72.1771 98.3543C72.4257 98.378 72.6863 98.4029 72.9717 98.4029C69.0592 93.3986 64.3279 88.8492 59.5056 87.6664C58.9597 87.5754 58.3228 87.4844 57.5039 87.3934H57.4129C55.0472 87.1205 51.7717 87.1205 49.861 87.2115L49.497 90.396L48.2232 101.951C48.2232 102.042 48.0412 102.224 47.9503 102.224H47.8593C47.7683 102.224 47.6773 102.133 47.5863 102.042L38.7606 88.6672C34.5752 89.7591 30.2988 91.5788 27.4782 94.8544C24.0207 98.8578 21.5641 118.147 26.9323 130.976C27.0233 131.204 27.1143 131.408 27.2052 131.613C27.2962 131.818 27.3872 132.023 27.4782 132.25C27.4782 132.25 27.5692 132.341 27.5692 132.432C27.6602 132.568 27.7284 132.705 27.7967 132.841C27.8649 132.978 27.9331 133.114 28.0241 133.251C28.0241 133.296 28.0469 133.319 28.0696 133.342C28.0924 133.365 28.1151 133.387 28.1151 133.433C28.1151 133.524 28.2061 133.706 28.2971 133.797C28.3426 133.888 28.3881 133.956 28.4336 134.024C28.4791 134.092 28.5246 134.161 28.5701 134.252C28.6155 134.343 28.6838 134.456 28.752 134.57C28.8203 134.684 28.8885 134.798 28.934 134.889C28.934 135.071 29.025 135.162 29.116 135.253C29.1615 135.344 29.2297 135.435 29.2979 135.526C29.3662 135.616 29.4344 135.707 29.4799 135.798C29.5287 135.872 29.5709 135.938 29.6101 136C29.7172 136.169 29.8016 136.302 29.9349 136.435C29.9803 136.481 30.0258 136.549 30.0713 136.617C30.1168 136.686 30.1623 136.754 30.2078 136.799C30.2533 136.89 30.3215 136.959 30.3898 137.027C30.458 137.095 30.5263 137.163 30.5718 137.254C30.6173 137.3 30.6627 137.368 30.7082 137.436C30.7537 137.504 30.7992 137.573 30.8447 137.618L30.9357 137.709L31.2997 138.073L31.6636 138.437C31.727 138.564 31.8347 138.647 31.9249 138.716C31.9641 138.746 32 138.773 32.0275 138.801C32.1185 138.847 32.1868 138.915 32.255 138.983C32.3233 139.051 32.3915 139.12 32.4825 139.165C32.6645 139.347 32.9374 139.529 33.2104 139.711C33.3924 139.893 33.6653 140.075 33.8473 140.166C33.8473 140.257 33.9383 140.348 34.0293 140.348L34.5752 140.621C34.7084 140.621 34.7929 140.67 34.8999 140.731C34.9391 140.754 34.9814 140.778 35.0301 140.803C35.0756 140.848 35.1439 140.871 35.2121 140.894C35.2803 140.916 35.3486 140.939 35.3941 140.985L35.94 141.258C36.031 141.303 36.0992 141.326 36.1675 141.349C36.2357 141.371 36.3039 141.394 36.3949 141.44C36.5769 141.44 36.8499 141.531 37.0318 141.622C37.1228 141.622 37.1911 141.644 37.2593 141.667C37.3275 141.69 37.3958 141.713 37.4868 141.713C37.5323 141.713 37.6005 141.735 37.6687 141.758C37.737 141.781 37.8052 141.804 37.8507 141.804C37.9872 141.849 38.1009 141.872 38.2147 141.895C38.3284 141.917 38.4421 141.94 38.5786 141.986C38.6696 141.986 38.7833 142.008 38.8971 142.031C39.0108 142.054 39.1245 142.077 39.2155 142.077C39.3065 142.168 39.3975 142.168 39.4885 142.168C39.625 142.168 39.7842 142.19 39.9434 142.213C40.1026 142.236 40.2619 142.259 40.3983 142.259C40.4546 142.259 40.4761 142.224 40.5057 142.176C40.5241 142.146 40.5456 142.111 40.5803 142.077C40.9443 141.622 41.4902 141.349 42.0361 141.349H57.8678L57.7768 141.258C57.1399 140.257 56.867 138.619 57.9588 136.89C59.1416 135.071 61.1434 133.16 63.0541 132.523L33.3014 123.424C33.1194 123.424 33.0284 123.242 33.1194 123.06C33.1194 122.969 33.3014 122.787 33.4833 122.878L35.758 123.606V119.148C35.758 119.057 35.94 118.875 36.122 118.875C36.2129 118.875 36.3949 118.966 36.3949 119.148V123.788L64.5099 132.432C64.6009 132.432 64.6918 132.523 64.6918 132.523C64.9648 132.614 65.1468 132.705 65.3288 132.887C65.6017 133.16 65.6927 133.615 65.6927 134.161L70.1511 134.707ZM86.5287 97.8569C84.0721 94.9453 80.9785 91.5788 76.2472 88.7582L61.1434 87.8484C65.6927 89.6681 69.9691 94.0355 73.6086 98.7668C78.6128 98.9488 84.709 99.0398 85.7098 98.4938C85.9828 98.3119 86.2557 98.1299 86.5287 97.8569ZM93.4437 61.1892C93.4437 61.1892 93.3527 61.1892 93.3527 61.2802C93.0994 61.6602 93.331 62.9658 93.5872 64.2153C93.6234 64.3921 93.6602 64.5678 93.6961 64.7396L93.6972 64.7446C93.7718 65.1012 93.8428 65.4408 93.8986 65.7386C93.9896 66.1025 94.0806 66.4665 94.1716 66.7394C94.3536 67.5583 94.2626 68.7411 94.0806 69.742C95.1725 69.56 96.9012 69.9239 98.539 71.3797C98.7858 71.5648 98.9907 71.7918 99.1823 72.0039C99.2731 72.1045 99.361 72.2018 99.4488 72.2896C99.4488 72.1564 99.4976 72.0719 99.5594 71.9649C99.5821 71.9257 99.6064 71.8834 99.6308 71.8347L99.7218 71.7437C100.71 70.9833 102.207 68.7616 103.15 67.3616C103.336 67.0863 103.5 66.8428 103.634 66.6484C103.893 66.3253 104.059 65.9563 104.232 65.5739C104.303 65.418 104.374 65.2598 104.453 65.1017C105.636 62.0081 105.636 60.7343 105.181 60.5523C104.908 60.4613 104.817 60.4613 104.635 60.6433C104.617 60.6805 104.575 60.7784 104.516 60.9193C104.284 61.4679 103.777 62.6675 103.27 63.4639C103.179 63.5549 103.088 63.6459 102.997 63.6459C102.952 63.6459 102.929 63.6231 102.906 63.6004C102.884 63.5776 102.861 63.5549 102.815 63.5549C102.633 63.4639 102.633 63.2819 102.724 63.0999C103.27 62.1901 103.907 60.6433 103.998 60.3703C104.089 59.7334 103.998 58.9145 103.816 58.8235C103.725 58.8235 103.543 58.9145 103.27 59.0965C103.179 59.4605 102.815 60.8253 102.087 62.0081C101.996 62.0991 101.905 62.1901 101.814 62.1901H101.633C101.542 62.0991 101.451 61.9171 101.542 61.7351C102.178 60.6433 102.633 59.2785 102.724 58.9145C102.633 57.9137 102.269 57.6407 102.087 57.6407C101.996 57.6407 101.905 57.7317 101.905 57.8227C101.905 58.2776 101.542 59.3695 101.087 60.5523L100.996 60.8253C100.996 61.0072 100.814 61.0982 100.632 61.0072C100.541 61.0072 100.45 60.8253 100.45 60.6433C100.723 59.8244 100.086 57.3678 99.8128 57.0948C99.7852 57.0948 99.7494 57.0865 99.7102 57.0774C99.6199 57.0564 99.5123 57.0314 99.4488 57.0948C99.2669 57.2768 99.2669 57.7317 99.2669 58.0047C99.5314 60.4738 97.5739 63.8829 97.1217 64.6706L97.0832 64.7377C97.0832 64.8424 97.0976 65.0049 97.1155 65.2052C97.1751 65.8756 97.2724 66.9697 96.9922 67.7403C96.9922 67.8313 96.8102 67.9222 96.7192 67.9222H96.6283C96.4463 67.9222 96.3553 67.7403 96.4463 67.5583C96.8102 66.5574 95.6782 64.3738 95.6782 64.3738C95.4053 62.554 94.4446 61.0982 93.4437 61.1892ZM79.3407 88.7582C79.2497 88.8492 79.1588 88.8492 79.0678 88.8492L77.703 88.7582C81.8884 91.4878 84.7999 94.5814 87.0746 97.311C91.9879 92.7617 97.8111 79.5686 99.5398 75.5651C99.3578 75.6561 99.1759 75.6561 98.9939 75.6561H98.539C97.7201 75.5651 96.9922 75.1102 96.9922 75.1102C95.5364 74.4733 94.4446 73.4724 93.4437 72.2896C93.3875 72.2896 93.366 72.2549 93.3363 72.2068C93.318 72.1771 93.2965 72.1424 93.2617 72.1076C93.2617 72.0621 93.239 72.0394 93.2162 72.0167C93.1935 71.9939 93.1707 71.9712 93.1707 71.9257C93.0798 71.8347 92.9888 71.6527 92.8978 71.4707L79.3407 88.7582ZM57.1399 86.9385L74.9734 88.0304C70.1511 85.3917 63.691 83.39 54.6833 82.8441C54.6378 82.8896 54.5923 82.9578 54.5468 83.0261C54.5013 83.0943 54.4558 83.1625 54.4103 83.208C53.4095 84.5728 51.6807 85.3917 49.3151 85.7557L49.497 86.7565C51.4987 86.6656 54.6833 86.6655 57.1399 86.9385ZM53.1365 73.1085C54.5923 72.9265 55.7751 71.3797 55.5022 69.651C55.3202 67.9222 53.7734 66.6484 52.4086 66.9214C50.8618 67.1034 49.77 68.6501 50.043 70.3789C50.2249 72.0167 51.5897 73.2905 53.1365 73.1085ZM52.8635 63.2819C48.6782 64.4647 42.946 64.8287 38.3966 65.0107C39.0335 66.3755 39.1245 68.3772 39.1245 70.2879L41.3992 70.1969C41.5812 69.651 41.7631 69.1961 42.0361 68.7411C42.582 67.9222 43.4009 67.3763 44.3108 67.2853C45.7666 67.1034 47.2224 68.0132 47.8593 69.469C48.3142 69.1961 48.8601 69.1961 49.3151 69.287C49.588 67.7403 50.6799 66.4665 52.2266 66.2845C52.7726 66.2845 53.2275 66.2845 53.6824 66.4665C53.4095 65.2836 53.1365 64.2828 52.8635 63.2819ZM45.3116 74.1093C46.0395 73.9274 46.6764 73.5634 47.1314 72.9265C47.5863 72.1986 47.7683 71.3797 47.6773 70.6518C47.4043 68.8321 45.9486 67.8312 44.4928 67.9222C43.7649 68.1042 43.128 68.4682 42.673 69.1051C42.2181 69.742 42.0361 70.5609 42.1271 71.3797C42.4001 73.0175 43.7649 74.2913 45.3116 74.1093ZM36.7589 75.9291C36.3039 75.7471 35.94 75.4742 35.576 75.2012C36.2129 77.6578 36.9408 80.8424 37.3958 83.1171C37.4868 83.39 37.5777 83.572 37.5777 83.754C38.0327 85.6647 38.3966 87.2115 38.5786 87.8484C38.6696 87.9394 38.6696 87.9394 38.6696 88.0304L38.9426 88.3943L40.3074 90.487C43.4009 91.1239 46.0395 90.9419 48.3142 89.9411C48.3142 89.7591 48.6782 86.6656 48.6782 86.5746C48.6782 86.3926 48.4962 85.4827 48.4962 85.3917C45.9485 85.3917 43.037 84.3909 42.946 84.3909C42.764 84.3909 42.673 84.2089 42.764 84.0269C42.855 83.845 43.037 83.754 43.2189 83.8449C46.8584 85.0278 48.5872 84.8458 48.7691 84.8458C55.5022 84.1179 55.5022 79.6596 54.5923 72.9265C54.1374 73.1995 53.6824 73.3815 53.1365 73.4725C51.4078 73.7454 49.588 72.2896 49.3151 70.1969V69.742C48.8601 69.56 48.4962 69.651 48.1322 69.833C48.1322 70.0149 48.2232 70.1969 48.2232 70.3789C48.4962 72.3806 47.2224 74.2913 45.3116 74.5643C43.5829 74.8372 41.7631 73.3815 41.4902 71.2888V70.6518L39.3065 70.7428C39.3065 70.8338 39.2155 71.7437 39.2155 71.8347C39.5795 72.6536 39.7614 73.4724 39.6705 74.2003C39.6705 74.3823 39.4885 74.4733 39.3065 74.4733C39.1245 74.4733 39.0335 74.2913 39.0335 74.1093C39.3065 71.4707 35.849 68.2862 34.5752 69.742C34.2112 70.1969 33.9383 71.6527 35.0301 73.4725C35.0301 73.5634 35.0301 73.5634 35.3031 73.9274C35.758 74.4733 36.3039 75.0192 36.9408 75.2922C37.1228 75.3832 37.2138 75.5651 37.1228 75.7471C37.1228 75.8381 36.9408 75.9291 36.8499 75.9291H36.7589ZM27.9331 227.331C29.2979 227.331 30.4808 226.33 30.8447 224.966L40.7623 182.111C38.8516 180.928 37.1228 179.654 35.4851 178.38L25.0216 223.601C24.8396 224.42 24.9306 225.148 25.3855 225.875C25.7495 226.603 26.3864 227.058 27.2052 227.24C27.4782 227.331 27.7512 227.331 27.9331 227.331ZM63.6 227.331C64.9648 227.331 66.1476 226.33 66.5116 224.966L73.9725 192.574C71.8798 192.392 69.8781 192.21 67.9674 191.937L60.5974 223.601C60.2335 225.239 61.2343 226.876 62.8721 227.24C63.1451 227.331 63.418 227.331 63.6 227.331ZM74.1545 191.937H74.7914C77.521 192.028 80.2506 192.028 82.8892 191.937L80.9785 162.731C61.9622 164.459 48.8601 161.73 41.9451 154.633C36.8499 149.356 37.1228 143.532 37.2138 142.531C37.1228 142.44 37.1228 142.44 37.0318 142.44H36.9408C36.8953 142.44 36.8271 142.418 36.7589 142.395C36.6906 142.372 36.6224 142.35 36.5769 142.35H36.4859C36.4404 142.35 36.3949 142.327 36.3494 142.304C36.3039 142.281 36.2584 142.259 36.2129 142.259C36.2129 142.259 36.122 142.168 36.031 142.168C35.9855 142.168 35.9627 142.145 35.94 142.122C35.9172 142.099 35.8945 142.077 35.849 142.077C35.8035 142.077 35.7808 142.054 35.758 142.031C35.7353 142.008 35.7125 141.986 35.667 141.986H35.576C35.4396 141.94 35.3031 141.872 35.1666 141.804C35.0301 141.735 34.8936 141.667 34.7572 141.622C34.7117 141.576 34.6662 141.553 34.6207 141.531C34.5752 141.508 34.5297 141.485 34.4842 141.44C34.3932 141.394 34.325 141.349 34.2567 141.303C34.1885 141.258 34.1203 141.212 34.0293 141.167C33.9863 141.145 33.9383 141.124 33.8876 141.101C33.7235 141.028 33.5314 140.942 33.3924 140.803C33.3924 140.712 33.3014 140.712 33.3014 140.712C33.2559 140.712 33.2331 140.689 33.2104 140.666C33.1876 140.644 33.1649 140.621 33.1194 140.621C33.0463 140.572 32.9796 140.53 32.9178 140.491C32.7489 140.383 32.6157 140.299 32.4825 140.166C32.437 140.166 32.4142 140.143 32.3915 140.12C32.3688 140.098 32.346 140.075 32.3005 140.075L32.2095 139.984C31.6636 139.62 31.2087 139.256 30.7537 138.801L30.4808 138.528L30.3898 138.437C30.2988 138.255 30.1168 138.073 29.9349 137.891C29.6619 137.618 29.4799 137.436 29.2979 137.163C29.207 136.981 29.025 136.708 28.843 136.526C28.843 136.435 28.752 136.344 28.661 136.253C28.6155 136.208 28.57 136.14 28.5246 136.071C28.4791 136.003 28.4336 135.935 28.3881 135.889C28.3426 135.798 28.2971 135.73 28.2516 135.662C28.2061 135.594 28.1606 135.526 28.1151 135.435C28.1151 135.389 28.0924 135.366 28.0696 135.344C28.0469 135.321 28.0241 135.298 28.0241 135.253C27.9331 135.162 27.8422 134.98 27.7512 134.798C27.7057 134.752 27.6829 134.707 27.6602 134.661C27.6374 134.616 27.6147 134.57 27.5692 134.525C27.5237 134.479 27.5009 134.411 27.4782 134.343C27.4555 134.274 27.4327 134.206 27.3872 134.161L26.5683 132.523C26.5228 132.386 26.4546 132.227 26.3864 132.068C26.3181 131.909 26.2499 131.75 26.2044 131.613C26.2044 131.568 26.1816 131.522 26.1589 131.477C26.1361 131.431 26.1134 131.386 26.1134 131.34C26.0679 131.158 25.9997 130.999 25.9314 130.84C25.8632 130.68 25.7949 130.521 25.7495 130.339C20.8362 117.328 23.3838 98.4938 26.8413 94.4904C28.2971 92.7617 30.6627 90.9419 34.2112 89.4862H34.3022C35.576 88.9402 36.8499 88.5763 38.2147 88.2123C38.1622 87.8451 37.9888 87.1756 37.7642 86.3082C37.5991 85.6711 37.4065 84.9271 37.2138 84.1179C36.1223 84.4817 34.9399 84.9365 33.7574 85.3913L33.7563 85.3917C24.7486 89.0312 13.6482 97.584 11.3735 117.328C9.00787 137.709 16.5598 159.182 31.0267 173.467C32.2095 174.741 33.5743 175.924 35.1211 177.198C35.2121 177.288 35.3031 177.357 35.3941 177.425C35.4851 177.493 35.576 177.561 35.667 177.652C37.3048 179.017 39.0335 180.291 40.9443 181.474C41.0353 181.519 41.1262 181.588 41.2172 181.656C41.3082 181.724 41.3992 181.792 41.4902 181.838C48.2232 186.114 56.776 189.663 67.5124 191.209C67.6034 191.209 67.7172 191.232 67.8309 191.255C67.9446 191.278 68.0584 191.3 68.1493 191.3C70.0601 191.573 72.0618 191.846 74.1545 191.937ZM112.187 241.889C112.187 240.706 111.368 239.615 110.276 239.251L109.73 239.069L110.367 241.98H112.096L112.187 241.889ZM99.6308 232.881C99.5398 232.427 99.0849 232.154 98.63 232.154C98.539 232.154 98.539 232.245 98.63 232.063C98.357 232.063 98.175 232.245 97.993 232.427C97.8111 232.609 97.7201 232.881 97.7201 233.154C97.6291 234.246 96.9012 236.248 94.8995 236.43H94.7175C94.0806 236.43 93.5347 236.43 93.0798 236.248C91.26 235.793 90.0772 234.337 89.5313 233.518C89.4403 233.336 89.3493 233.154 89.2583 233.063C89.1673 233.063 88.9854 233.063 88.8944 233.154C87.6205 233.7 86.8926 234.701 86.5287 235.611C87.0746 235.702 87.5296 235.884 87.8935 236.157C88.4394 236.521 88.8034 237.067 88.9853 237.704C89.1673 237.977 89.1673 238.341 89.1673 238.614C89.1673 238.978 89.0763 239.342 88.9853 239.615L106.546 239.706C106.637 239.706 106.819 239.796 106.819 239.978C106.819 240.16 106.637 240.342 106.455 240.342L88.3484 240.251H85.8008V241.616C85.8008 241.707 85.8918 241.707 85.8918 241.707L109.639 241.889L108.911 238.705L100.814 235.975C100.723 235.975 100.632 235.884 100.632 235.793L99.6308 232.881ZM89.5313 229.06L89.4403 232.518C89.5313 232.609 89.6222 232.609 89.6222 232.518C89.6222 232.609 91.351 236.157 94.6265 235.793C96.5372 235.702 96.9012 233.336 96.9012 233.154C96.9012 232.518 97.2651 231.972 97.8111 231.699L97.9021 229.06H89.5313ZM106.091 188.298C106.364 184.204 106.546 180.2 106.637 176.47V174.468C106.637 166.552 105.909 160.092 103.907 156.998C99.5398 150.265 93.0798 146.808 88.6214 145.17H40.5803C40.3983 145.17 40.3074 145.079 40.3074 144.897V143.168H39.9434C39.8069 143.168 39.6932 143.146 39.5795 143.123C39.4657 143.1 39.352 143.077 39.2155 143.077C39.1245 142.986 38.9426 142.986 38.8516 142.986C38.7606 142.895 38.6696 142.895 38.5786 142.895H38.1237C38.0327 144.169 38.0327 149.537 42.673 154.269C49.3151 161.184 62.7811 163.822 81.4334 162.094C81.4789 162.094 81.5017 162.116 81.5244 162.139C81.5472 162.162 81.5699 162.185 81.6154 162.185C81.7064 162.185 81.7064 162.276 81.7064 162.367L83.7081 191.937V192.574L85.9828 226.421C86.0738 227.604 87.0746 228.514 88.2574 228.514H99.3579C100.177 228.514 100.905 228.059 101.269 227.331C101.394 227.206 101.433 227.037 101.475 226.854C101.494 226.772 101.513 226.688 101.542 226.603C102.36 221.326 104.908 204.767 106 188.935C106.091 188.753 106.091 188.48 106.091 188.298ZM109.366 187.115C108.73 184.294 108.093 181.474 107.274 178.653L107.266 178.919C107.177 181.843 107.084 184.934 106.819 188.025C107.346 187.867 107.843 187.678 108.327 187.494C108.678 187.361 109.022 187.23 109.366 187.115ZM141.394 241.889C141.394 240.706 140.575 239.615 139.483 239.251L138.846 239.069L139.483 241.98H141.303L141.394 241.889ZM128.838 232.881C128.747 232.427 128.292 232.154 127.837 232.154C127.564 232.154 127.382 232.336 127.2 232.518C127.018 232.699 126.927 232.972 126.927 233.245C126.836 234.337 126.108 236.339 124.106 236.521H123.924C123.287 236.612 122.741 236.521 122.196 236.339C120.467 235.884 119.284 234.428 118.738 233.609C118.647 233.427 118.556 233.245 118.465 233.154C118.374 233.154 118.192 233.154 118.101 233.245C116.827 233.7 116.19 234.61 115.735 235.611C116.19 235.702 116.645 235.884 117.009 236.157C117.464 236.521 117.919 237.067 118.101 237.704C118.283 237.977 118.283 238.341 118.283 238.614C118.283 238.978 118.192 239.342 118.101 239.615L135.662 239.706C135.844 239.706 135.935 239.796 135.935 239.978C135.935 240.16 135.844 240.342 135.662 240.342L117.555 240.251H115.008V241.616C115.008 241.707 115.099 241.707 115.099 241.707L138.846 241.889L138.118 238.705L130.02 235.975C129.929 235.975 129.838 235.884 129.838 235.793L128.838 232.881ZM118.738 229.151L118.647 232.518C118.738 232.609 118.738 232.609 118.829 232.609C118.829 232.7 120.467 236.248 123.833 235.884C125.744 235.793 126.108 233.427 126.108 233.245C126.108 232.609 126.472 232.063 127.018 231.79L127.109 229.151H118.738ZM129.929 227.786C130.384 227.331 130.566 226.785 130.566 226.148C130.337 221.408 128.308 185.565 127.289 167.547L127.288 167.533L127.286 167.501C127.093 164.1 126.937 161.339 126.836 159.546C126.563 154.178 123.469 149.81 119.011 146.899C116.367 145.022 113.883 144.105 112.983 143.773L112.929 143.753C112.89 143.739 112.855 143.726 112.824 143.714L112.46 144.897C112.46 144.988 112.369 145.079 112.187 145.079H90.2592C94.6265 146.899 100.268 150.356 104.362 156.543C106.637 160.001 107.365 167.553 107.274 176.561C108.275 179.927 109.184 183.385 109.912 186.842C110.003 187.024 110.094 187.297 110.094 187.479C113.643 204.039 114.553 220.325 114.826 226.33C114.826 227.604 115.826 228.514 117.009 228.514H128.292C128.929 228.514 129.475 228.241 129.929 227.786ZM113.006 143.077C113.643 143.259 115.917 144.078 118.374 145.625C116.918 143.168 115.463 140.894 114.189 139.256C114.189 139.347 113.643 141.167 113.461 141.713L113.006 143.077ZM72.3347 141.258H112.915C113.693 138.764 114.541 136.017 115.419 133.175L115.42 133.172C117.521 126.374 119.789 119.035 121.65 113.325C121.65 113.143 121.65 112.961 121.559 112.87C121.468 112.779 121.286 112.688 121.104 112.688H82.2523C82.0703 112.688 81.9794 112.688 81.7974 112.779C81.3425 112.961 80.9785 113.325 80.7965 113.78C75.1628 132.028 74.1448 135.358 73.4991 137.47L73.4987 137.471C73.1852 138.496 72.9592 139.236 72.3347 141.258Z" fill="#2D2650"/>
<path fill-rule="evenodd" clip-rule="evenodd" d="M109.834 46.1308H115.384C115.93 46.1308 116.385 46.5858 116.385 47.1317V69.3325C116.385 70.2423 117.113 70.9702 118.023 70.9702H129.032C129.942 70.9702 130.67 70.2423 130.67 69.3325V47.1317C130.67 46.5858 131.125 46.1308 131.671 46.1308H137.221C137.858 46.1308 138.404 45.7669 138.677 45.2209C138.95 44.675 138.95 44.0381 138.586 43.4922L124.938 23.4751C124.665 23.0202 124.119 22.7472 123.573 22.7472C123.027 22.7472 122.481 23.0202 122.208 23.4751L108.56 43.4922C108.196 44.0381 108.196 44.675 108.469 45.2209C108.651 45.7669 109.197 46.1308 109.834 46.1308ZM122.663 23.839L109.015 43.8561C108.833 44.2201 108.742 44.584 108.833 44.857C109.015 45.221 109.379 45.4029 109.743 45.4029H115.293C116.203 45.4029 116.931 46.1308 116.931 47.0407V69.2415C116.931 69.7874 117.386 70.2423 117.932 70.2423H128.941C129.487 70.2423 129.942 69.7874 129.942 69.2415V47.0407C129.942 46.1308 130.67 45.4029 131.58 45.4029H137.13C137.494 45.4029 137.858 45.221 138.04 44.857C138.222 44.584 138.131 44.2201 137.949 43.8561L124.301 23.839C124.119 23.5661 123.846 23.3841 123.482 23.3841C123.118 23.3841 122.845 23.5661 122.663 23.839Z" fill="#2D2650"/>
</g>
</g>
<defs>
<clipPath id="clip0_586_4039">
<rect width="421" height="250" fill="white"/>
</clipPath>
<clipPath id="clip1_586_4039">
<rect width="466.763" height="287.519" fill="white" transform="translate(2.72949 -44.583)"/>
</clipPath>
</defs>
</svg>
