<svg width="421" height="250" viewBox="0 0 421 250" fill="none" xmlns="http://www.w3.org/2000/svg">
<g clip-path="url(#clip0_586_4132)">
<path d="M423.818 203.742H0.512695C10.0205 191.828 15.3119 187.113 24.3236 175.034C38.048 156.585 62.107 153.854 71.2014 158.487C80.2959 163.12 88.0675 169.822 96.8313 175.034C125.355 191.911 163.221 176.275 189.925 159.48C213.571 144.588 221.756 167.34 232.587 156.336C258.299 130.276 302.779 154.103 312.701 163.948C346.598 197.702 411.807 152.365 429.5 175.034C440.413 189.181 423.818 203.742 423.818 203.742Z" fill="#F5F5F5"/>
<path d="M216.217 227.734C216.217 229.968 171.075 231.705 115.351 231.705C59.6269 231.705 14.4854 229.885 14.4854 227.734C14.4854 225.501 59.6269 223.763 115.351 223.763C171.075 223.763 216.217 225.583 216.217 227.734Z" fill="#F5F5F5"/>
<path d="M68.5557 135.405H156.11V140.617H68.5557V135.405Z" fill="white"/>
<path d="M156.11 135.405H202.161V140.617H156.11V135.405Z" fill="#F5F5F5"/>
<path d="M144.536 140.535H149.745V227.734H144.536V140.535Z" fill="white"/>
<path d="M149.827 140.535H158.343V227.734H149.827V140.535Z" fill="#F5F5F5"/>
<path d="M75.666 140.535H80.8746V225.914H75.666V140.535Z" fill="white"/>
<path d="M80.874 140.535H89.3897V225.914H80.874V140.535Z" fill="#F5F5F5"/>
<path d="M185.957 140.535H191.166V227.734H185.957V140.535Z" fill="white"/>
<path d="M191.165 140.535H199.681V227.734H191.165V140.535Z" fill="#F5F5F5"/>
<path d="M70.8704 227.321C70.7051 225.004 64.0082 223.101 55.6579 223.101C47.3075 223.101 40.6107 225.004 40.4453 227.321H70.8704Z" fill="#9283DB"/>
<path d="M59.2131 175.53V224.591C59.2131 225.418 51.9375 225.418 51.9375 224.591V175.53H59.2131Z" fill="white"/>
<path d="M55.6582 175.53V225.17C57.4771 225.17 59.296 224.921 59.296 224.508V175.448H55.6582V175.53Z" fill="#E1E5E2"/>
<path d="M43.3389 174.703C44.8271 177.268 49.7877 179.253 55.6577 179.253C61.5278 179.253 66.4057 177.35 67.9766 174.703H43.3389ZM114.028 216.069V216.152C113.945 217.062 113.201 217.724 112.291 217.724H104.768C103.858 217.724 103.114 216.979 103.032 216.069L99.9725 175.53C99.7245 172.469 97.2442 170.07 94.1852 169.905L66.4057 168.912L64.0081 161.135L67.3152 156.667L70.8703 151.869C70.8703 151.869 108.488 147.153 113.697 159.315C117.169 167.671 114.606 207.134 114.028 216.069Z" fill="#9283DB"/>
<path d="M114.028 216.152C113.946 217.062 113.202 217.724 112.292 217.724H104.768C103.859 217.724 103.115 216.979 103.032 216.069L99.9732 175.53C99.7252 172.469 97.2449 170.07 94.1859 169.904L66.4064 168.912L64.0088 161.135L67.3159 156.667C68.9694 156.585 70.5403 156.502 72.1938 156.585C72.7725 156.585 73.3513 156.585 73.8473 156.833C75.0048 157.412 75.4182 158.818 76.245 159.811C77.4851 161.218 79.6347 161.466 81.4536 161.218C83.3552 161.052 85.1741 160.556 87.0756 160.887C88.9772 161.218 90.5481 162.459 92.4496 163.12C94.4339 163.782 96.5835 163.782 98.6504 164.03C100.717 164.279 102.95 164.941 104.19 166.678C106.587 169.739 104.686 174.455 106.339 178.012C107.083 179.584 108.406 180.742 109.15 182.314C111.631 187.196 107.828 193.235 109.398 198.364C109.812 199.771 110.639 201.012 110.639 202.501C110.721 203.907 110.06 205.231 109.812 206.638C109.15 209.781 110.308 213.173 112.705 215.242C113.119 215.573 113.532 215.821 114.028 216.152Z" fill="#4A399D"/>
<path d="M86.4969 211.519C86.4142 213.67 86.3316 215.325 86.2489 216.4C86.2489 217.145 85.5875 217.724 84.8434 217.724H76.245C75.5009 217.724 74.8395 217.145 74.8395 216.4L71.5324 175.53C71.367 173.71 70.4576 172.221 69.1348 171.146H87.0756C87.6544 182.811 86.993 201.756 86.4969 211.519Z" fill="#9283DB"/>
<path d="M86.4969 211.519C86.4142 213.67 86.3316 215.325 86.2489 216.4C86.2489 217.145 85.5875 217.724 84.8434 217.724H76.245C75.5009 217.724 74.8395 217.145 74.8395 216.4L71.5324 175.53C71.367 173.71 70.4576 172.221 69.1348 171.146H72.1938C72.9379 171.807 73.5166 172.552 73.7647 173.214C74.3434 174.538 74.4261 176.192 75.5009 177.102C76.0796 177.599 76.9064 177.764 77.4851 178.26C78.4773 179.088 78.6426 180.412 78.5599 181.652C78.4773 182.893 78.2292 184.134 78.4773 185.375C78.8906 187.03 80.3788 188.188 80.8749 189.843C81.3709 191.415 80.8749 193.152 80.5442 194.807C80.2135 196.462 80.0481 198.364 81.1229 199.605C81.9497 200.598 83.3552 201.095 83.6032 202.336C83.8512 203.659 82.5284 204.735 82.1977 206.059C81.9497 207.3 82.6111 208.54 83.4379 209.368C84.3473 210.278 85.4221 210.774 86.4969 211.519Z" fill="#4A399D"/>
<path d="M113.118 127.215C113.118 127.215 130.728 123.905 133.374 132.592C133.705 133.502 133.209 135.24 129.571 131.434M113.118 133.089C113.118 133.089 121.882 136.067 126.016 133.337L113.118 133.089Z" fill="white"/>
<path d="M114.11 135.405C114.11 135.405 92.5315 136.977 80.9567 131.434C77.8977 129.945 74.5079 126.884 71.4489 123.326C71.7796 130.607 72.689 136.646 72.3583 147.98C72.3583 149.387 72.2756 150.959 72.193 152.531C71.4489 168.829 55.5749 166.761 55.5749 166.761C55.5749 166.761 28.7049 138.714 29.6144 114.226C29.9451 105.87 32.012 100.575 34.7403 97.2655C40.7757 89.8196 50.0356 92.0534 50.0356 92.0534C60.8662 93.4598 66.4056 96.1073 69.2166 99.4993C69.5473 99.913 69.878 100.409 70.126 100.823C72.193 103.719 77.4016 110.751 84.2638 117.949C93.1929 127.297 114.027 126.056 114.027 126.056C115.516 125.974 115.516 135.405 114.11 135.405Z" fill="white"/>
<path d="M72.4413 147.898C72.4413 149.304 72.3587 150.876 72.276 152.448C71.5319 168.746 55.6579 166.678 55.6579 166.678C55.6579 166.678 28.7879 138.632 29.6974 114.143C30.0281 105.787 32.095 100.492 34.8233 97.1829C35.8155 97.4311 36.7249 97.8447 37.6344 98.3411C39.7013 99.5821 41.4375 101.568 41.7682 103.967C42.0989 106.035 41.4375 108.021 41.1068 110.089C40.7761 112.157 40.8588 114.474 42.2643 115.88C44.1658 117.866 47.6383 117.452 49.6225 119.355C51.1934 120.927 51.1934 123.326 51.3587 125.56C51.6894 130.193 53.343 135.24 57.4768 137.391C59.3784 138.384 61.6933 138.714 63.0162 140.369C64.0083 141.61 64.2563 143.265 65.0831 144.588C66.4886 147.07 69.5476 147.732 72.4413 147.898Z" fill="#F5F5F5"/>
<path d="M92.2008 174.868C89.6378 174.951 83.6024 175.199 76.2441 175.365C64.1733 175.613 48.382 175.696 38.1301 174.538C20.3545 172.552 21.9254 153.193 21.9254 153.193C21.9254 153.193 20.4372 128.538 20.9333 121.672C20.9333 121.258 21.0159 120.762 21.0986 120.348C22.0907 114.722 26.4726 114.226 26.4726 114.226C52.4332 111.992 55.0788 128.952 55.0788 128.952C55.0788 128.952 62.189 155.095 65.9922 161.797C66.4056 162.541 66.8189 163.286 67.2323 163.865C69.2992 167.092 72.8544 168.994 76.6575 168.994H90.8779C90.8779 168.994 94.5984 168.746 95.0944 171.642V171.725C95.4251 173.71 94.0196 174.868 92.2008 174.868Z" fill="white"/>
<path d="M76.3271 175.448C64.2563 175.696 48.465 175.779 38.2131 174.62C20.4375 172.635 22.0084 153.275 22.0084 153.275C22.0084 153.275 20.5202 128.621 21.0163 121.754C21.0163 121.258 21.099 120.844 21.1816 120.431C22.1738 121.258 23.0005 122.334 23.4966 123.492C25.0674 127.297 24.0753 132.51 27.3824 134.992C30.2761 137.143 34.8233 135.653 37.6343 137.887C39.8666 139.625 40.032 142.851 40.032 145.747C40.1146 150.545 41.1068 156.254 45.4886 158.157C47.8863 159.232 50.9453 158.984 52.8469 160.721C53.6736 161.549 54.1697 162.624 54.6658 163.7C56.2366 167.257 58.1382 171.311 61.8587 172.138C63.2642 172.469 64.7523 172.304 66.2405 172.304C69.8783 172.304 73.1854 173.545 76.3271 175.448Z" fill="#F5F5F5"/>
<path d="M105.512 217.724L105.43 222.853C107.083 226.494 108.985 227.073 111.382 223.515L111.465 217.724H105.512Z" fill="white"/>
<path d="M110.886 221.53C110.886 221.033 111.299 220.62 111.878 220.62C112.291 220.62 112.622 220.868 112.787 221.281C113.201 222.522 114.193 223.432 115.433 223.846L119.732 225.335C120.559 225.583 121.138 226.411 121.138 227.321C121.138 227.486 121.055 227.569 120.89 227.569L103.445 227.486C103.28 227.486 103.197 227.404 103.197 227.238V224.839C103.197 224.839 103.28 221.861 105.677 221.281C105.677 221.281 106.835 223.763 109.232 223.598C110.638 223.35 110.886 221.53 110.886 221.53ZM77.567 217.724L77.4844 222.688C79.1379 226.328 81.0395 226.907 83.4371 223.35L83.5198 217.724H77.567Z" fill="white"/>
<path d="M82.8588 221.364C82.8588 220.868 83.2722 220.454 83.8509 220.454C84.2643 220.454 84.595 220.702 84.7604 221.116C85.1737 222.357 86.1659 223.267 87.406 223.681L91.7052 225.17C92.532 225.418 93.1107 226.245 93.1107 227.155C93.1107 227.321 93.028 227.404 92.8627 227.404L75.4179 227.321C75.2525 227.321 75.1698 227.238 75.1698 227.073V224.673C75.1698 224.673 75.2525 221.695 77.6501 221.116C77.6501 221.116 78.8076 223.598 81.2053 223.432C82.6934 223.267 82.8588 221.364 82.8588 221.364ZM66.3234 81.6292C66.2407 83.1184 63.9258 81.381 63.9258 81.381L64.6699 77.989C64.6699 77.989 66.3234 80.14 66.3234 81.6292Z" fill="white"/>
<path d="M57.6423 93.129L58.3037 87.7514C58.3037 87.7514 60.4533 88.0823 63.1816 87.8341C66.654 87.5032 64.3391 72.5287 62.8509 70.9568C57.6423 65.4137 46.7289 70.3776 47.5557 77.1617C48.3824 83.9457 47.473 90.8952 47.225 91.7226C46.9769 92.4672 57.6423 93.129 57.6423 93.129Z" fill="white"/>
<path d="M63.0161 83.0356C63.5949 83.3666 64.2563 83.532 64.9177 83.6148L63.0161 83.0356ZM56.3193 80.7191C55.9886 80.3882 55.8232 79.8918 55.8232 79.4781C55.8232 79.3127 55.9059 78.9818 56.0713 78.8163M61.6106 77.1616C62.024 76.8307 62.5201 76.6653 63.0161 76.5825L61.6106 77.1616Z" fill="white"/>
<path d="M147.678 133.337C147.678 134.495 148.587 135.405 149.745 135.405H177.772L180.418 131.351H149.662C148.587 131.268 147.678 132.178 147.678 133.337Z" fill="#F5F5F5"/>
<path d="M185.13 133.089V133.337C185.13 134.495 184.221 135.405 183.063 135.405H170C168.843 135.405 167.851 134.412 168.016 133.171C168.099 132.096 169.091 131.351 170.166 131.351H180.5L176.201 114.805C175.953 113.729 176.615 112.654 177.689 112.323C178.764 112.075 179.922 112.737 180.17 113.812L185.048 132.758L185.13 133.089Z" fill="white"/>
<path d="M156.027 115.963L159.996 131.269H180.5L176.449 115.963H156.027Z" fill="white"/>
<path d="M203.98 117.039H207.866C210.016 117.039 211.752 115.384 211.917 113.316L216.382 53.4175C216.547 51.101 214.728 49.0327 212.331 49.0327H208.445C210.76 49.0327 212.662 51.0183 212.496 53.4175L208.032 113.316C207.866 115.384 206.13 117.039 203.98 117.039Z" fill="#4A399D"/>
<path d="M203.98 117.039H206.461C208.61 117.039 210.347 115.384 210.512 113.316L214.977 53.4175C215.142 51.101 213.323 49.0327 210.925 49.0327H208.445C210.76 49.0327 212.662 51.0183 212.496 53.4175L208.032 113.316C207.866 115.384 206.13 117.039 203.98 117.039Z" fill="#9283DB"/>
<path d="M212.496 53.3348L212.331 55.8995L208.693 104.298H120.56L124.197 55.8995L124.445 52.7557C124.611 50.6046 126.347 49.0327 128.497 49.0327H208.528C210.843 49.0327 212.744 51.0183 212.496 53.3348Z" fill="white"/>
<path d="M208.693 104.298L208.197 111.247L208.032 113.233C207.866 115.384 206.13 116.956 203.981 116.956H123.949C121.552 116.956 119.733 114.97 119.898 112.571L119.981 111.165L120.477 104.215H208.693V104.298Z" fill="#F5F5F5"/>
<path d="M197.449 77.3271C197.284 81.4637 193.811 84.773 189.678 84.773H148.091C142.8 84.773 138.666 80.5537 138.914 75.2588C139.079 69.9639 143.544 65.7446 148.835 65.7446C149.827 65.7446 150.819 65.9101 151.729 66.1583V65.7446C151.977 59.2915 157.434 54.0793 163.882 54.0793C169.422 54.0793 173.886 57.8023 174.878 62.9317C176.615 61.0289 179.095 59.8706 181.741 59.8706C186.784 59.8706 190.67 63.9245 190.504 68.8884C190.504 69.2193 190.422 69.633 190.422 69.9639C194.473 69.9639 197.615 73.2732 197.449 77.3271Z" fill="#9283DB"/>
<path d="M166.527 71.2875L166.362 75.4241H157.433L157.35 78.237L150.405 73.3558L157.681 68.5574L157.598 71.2875H166.527ZM169.173 71.2875L169.09 75.4241H178.019L177.937 78.237L185.212 73.3558L178.267 68.5574L178.185 71.2875H169.173Z" fill="#F5F5F5"/>
<path d="M167.768 110.668C167.685 112.075 166.528 113.233 165.122 113.233C163.717 113.233 162.642 112.075 162.725 110.668C162.807 109.262 163.965 108.104 165.37 108.104C166.693 108.104 167.851 109.262 167.768 110.668ZM134.615 90.7298H126.512H134.615ZM157.516 90.7298H137.922H157.516ZM203.319 90.7298H160.079H203.319ZM146.355 95.0319H125.934H146.355ZM170.992 95.0319H148.752H170.992ZM202.74 95.0319H173.142H202.74ZM134.697 99.334H125.272H134.697ZM157.185 99.334H137.178H157.185ZM202.74 99.334H159.583H202.74ZM45.4889 47.709H40.6937L42.4299 55.6513C42.3472 55.5686 31.8472 47.709 31.8472 47.709H2.49694C1.42214 47.709 0.512695 46.799 0.512695 45.7235V7.33568C0.512695 6.26016 1.42214 5.3501 2.49694 5.3501H45.4889C46.5637 5.3501 47.4732 6.26016 47.4732 7.33568V45.7235C47.4732 46.799 46.5637 47.709 45.4889 47.709Z" fill="white"/>
<path d="M7.78809 24.8747V28.8459L10.7645 29.5077C11.0952 31.0797 11.7566 32.5688 12.5833 33.8926L10.9298 36.4573L13.7408 39.2702L16.3038 37.6155C17.6266 38.4428 19.1148 39.1047 20.6857 39.4356L21.3471 42.414H25.3156L25.977 39.4356C27.5479 39.1047 29.036 38.4428 30.3589 37.6155L32.9219 39.2702L35.7329 36.4573L34.0793 33.8926C34.9061 32.5688 35.5675 31.0797 35.8982 29.5077L38.8746 28.8459V24.8747L35.8982 24.2129C35.5675 22.641 34.9061 21.1518 34.0793 19.8281L35.7329 17.2634L32.9219 14.4505L30.3589 16.1051C29.036 15.1951 27.5479 14.6159 25.977 14.285L25.3156 11.3066H21.3471L20.6857 14.285C19.1148 14.6159 17.6266 15.2778 16.3038 16.1051L13.7408 14.4505L10.9298 17.2634L12.5833 19.8281C11.7566 21.1518 11.0952 22.641 10.7645 24.2129L7.78809 24.8747ZM16.1385 23.882C16.8825 21.8964 18.4534 20.3245 20.4377 19.5799C27.1345 17.0979 33.2526 23.3028 30.8549 30.0041C30.1108 31.9897 28.54 33.5616 26.5557 34.3062C19.8589 36.7882 13.6581 30.5005 16.1385 23.882Z" fill="#9283DB"/>
<path d="M212.414 48.7017H128.497C126.264 48.7017 124.363 50.439 124.197 52.6728C124.197 52.7555 120.312 104.298 119.733 112.571C119.568 115.053 121.552 117.204 124.032 117.204H156.111L159.666 130.938H149.745C148.422 130.938 147.43 132.013 147.43 133.254C147.43 133.916 147.76 134.578 148.256 134.991H141.642V133.916C141.642 133.75 141.477 133.585 141.394 133.585H133.623C133.871 133.254 133.788 132.758 133.705 132.344C131.473 125.146 119.733 125.891 115.02 126.47C114.855 125.891 114.524 125.56 114.194 125.56C113.946 125.56 93.359 126.718 84.6779 117.535C78.2291 110.668 73.1032 103.967 70.6229 100.492V100.409C68.3906 96.6864 64.3394 94.7835 60.2056 93.5426C60.1229 93.0462 60.0402 92.467 59.7095 92.3016C59.4615 92.1361 58.9654 91.8879 58.304 91.7224L58.7174 87.9995C59.3788 88.0822 61.1977 88.2477 63.3473 87.9995C64.0087 87.9168 64.5048 87.4204 64.9182 86.5103C65.3316 85.3521 65.4969 83.5319 65.4969 82.291C66.3237 82.5392 66.7371 82.2082 66.7371 81.4636C66.8197 80.0572 65.4969 78.1544 65.1662 77.658C65.0835 76.7479 64.9182 75.7551 64.7528 74.9278C66.489 74.3487 67.9772 73.3559 68.0599 71.7012C68.1426 68.7229 67.3158 66.6546 65.4969 65.4963C60.7017 62.4352 50.8631 66.9855 49.6229 67.6473C47.308 66.4891 45.4891 66.5718 44.4143 68.061C41.4379 71.8667 44.2489 83.9456 45.8198 85.7657C46.1505 86.1794 46.8119 86.5103 47.7214 86.7585C47.6387 88.0822 47.4733 89.2405 47.3907 90.0678C47.06 90.0678 46.8946 90.1505 46.7293 90.1505C46.2332 90.3987 45.9852 90.7296 45.8198 91.1433C42.5954 91.3915 38.1309 92.5498 34.7411 96.6864C31.5994 100.492 29.8632 106.201 29.5325 113.564C28.623 113.564 27.6309 113.647 26.7214 113.729C24.3238 113.729 21.3475 116.459 20.9341 121.341C20.5207 126.966 21.6782 149.552 21.9262 152.613V152.862C21.2648 163.203 26.5561 173.214 38.3789 174.537C40.0324 174.703 41.7686 174.868 43.6702 175.034C45.0757 176.854 48.2174 178.26 51.9379 178.84V222.605C45.8198 223.101 40.4458 224.673 40.3631 226.99C40.3631 227.072 40.3631 227.155 40.4458 227.238C40.5285 227.321 40.6112 227.321 40.6938 227.321H71.1189C71.2016 227.321 71.2843 227.321 71.367 227.238C71.4496 227.155 71.4496 227.072 71.4496 226.99C71.2843 224.839 66.5717 223.101 59.8749 222.605V178.84C63.2646 178.343 66.1583 177.102 67.7292 175.53C69.052 175.53 70.3748 175.53 71.615 175.448L74.8394 216.069C74.9221 216.648 75.2528 217.145 75.6662 217.476V222.274C75.4181 222.853 75.1701 223.68 75.1701 224.26V226.659C75.1701 226.99 75.4181 227.238 75.7488 227.238L93.1937 227.321C93.359 227.321 93.4417 227.238 93.607 227.155C93.6897 227.072 93.7724 226.907 93.7724 226.742C93.7724 225.749 93.111 224.839 92.2015 224.508L90.1346 223.763V174.868H90.3826C90.3826 174.868 92.4496 174.786 92.6976 174.786C94.6818 174.703 96.17 173.379 95.922 171.394V171.311C95.8393 170.732 95.5913 170.235 95.3433 169.904C97.9062 170.318 99.8905 172.469 100.139 175.117L103.198 215.655C103.28 216.731 104.19 217.558 105.264 217.558H105.761L105.678 220.619C104.107 221.198 103.28 223.019 103.28 224.342V226.742C103.28 226.907 103.363 227.072 103.446 227.155C103.528 227.238 103.694 227.321 103.859 227.321C106.339 227.321 117.005 227.403 121.304 227.403C121.469 227.403 121.552 227.321 121.717 227.238C121.8 227.155 121.883 226.99 121.883 226.824C121.883 225.831 121.221 224.921 120.312 224.59C120.229 224.59 115.682 223.019 116.012 223.101C114.855 222.688 113.946 221.86 113.532 220.702C113.367 220.206 112.871 219.875 112.375 219.875H112.292L112.375 217.558H112.871C113.946 217.558 114.855 216.731 114.938 215.655C115.103 210.195 118.327 167.753 114.524 158.736C111.796 152.365 100.635 150.462 90.3 150.214V140.452H144.949V227.321C144.949 227.486 145.115 227.652 145.28 227.652H159.004C159.17 227.652 159.252 227.486 159.252 227.321V140.452H186.371V227.321C186.371 227.486 186.536 227.652 186.619 227.652H200.343C200.508 227.652 200.674 227.486 200.674 227.321V140.452H202.823C202.989 140.452 203.154 140.369 203.154 140.204V134.991C203.154 134.826 202.989 134.743 202.823 134.743H185.296C185.792 134.33 186.122 133.668 186.122 133.006V132.675L182.071 116.956H208.611C210.843 116.956 212.744 115.218 212.91 112.902L217.374 53.0037C216.878 50.8527 214.894 48.7017 212.414 48.7017ZM65.993 81.6291C65.993 81.7118 65.993 81.8773 65.8276 81.96C65.7449 82.0428 65.4969 81.96 65.2489 81.8773C65.2489 80.9672 65.1662 80.0572 65.0835 79.1471C65.5796 79.8917 66.0756 80.8845 65.993 81.6291ZM124.694 52.7555C124.859 50.77 126.512 49.2808 128.414 49.2808H208.445C210.595 49.2808 212.331 51.1009 212.166 53.3347L208.363 104.05H120.808V103.719C120.973 102.229 121.635 93.5425 124.694 52.7555ZM156.69 117.287H176.532L179.343 128.207L180.087 131.02H160.245L156.69 117.287ZM148.008 133.337C148.008 132.344 148.753 131.599 149.745 131.599H168.595C168.182 132.013 167.851 132.509 167.768 133.089C167.686 133.75 167.934 134.412 168.347 134.909L168.512 135.074H149.745C148.753 135.074 148.008 134.33 148.008 133.337ZM133.127 132.675C133.209 133.006 133.209 133.42 133.044 133.502C133.044 133.502 132.713 133.668 131.886 133.089C131.39 132.84 130.233 131.682 129.82 131.268C129.737 131.186 129.571 131.186 129.406 131.268C129.323 131.351 129.323 131.599 129.406 131.682C130.068 132.344 130.729 132.923 131.225 133.337C130.481 133.916 129.571 133.585 128.827 132.923C128.497 132.592 128.083 132.261 127.505 131.351C127.422 131.186 127.257 131.186 127.091 131.268C126.926 131.351 126.926 131.517 127.009 131.682C127.422 132.344 127.835 132.84 128.249 133.254C127.505 134.66 126.264 133.502 125.355 132.013C125.272 131.848 125.107 131.848 124.942 131.93C124.776 132.013 124.776 132.179 124.859 132.344C125.107 132.758 125.272 133.089 125.52 133.337C122.875 134.909 118.245 134.247 115.268 133.502C115.516 131.765 115.516 129.035 115.103 127.297C119.733 126.635 131.06 125.974 133.127 132.675ZM131.804 133.75H131.556L131.638 133.668C131.721 133.668 131.721 133.668 131.804 133.75ZM128.91 133.75H128.497C128.579 133.668 128.579 133.585 128.662 133.502L128.91 133.75ZM125.934 133.75H125.768C125.851 133.668 125.851 133.668 125.934 133.75C125.934 133.668 125.934 133.668 125.934 133.75ZM48.0521 87.1722C49.871 87.5858 52.1859 87.6686 54.0048 87.1722C54.9143 86.924 55.5757 86.0139 55.5757 85.1039C55.5757 83.2838 54.8316 79.7263 55.9064 78.4025C56.1544 78.1543 56.4851 77.9889 56.8985 77.9061C57.0639 77.9061 57.1465 77.9062 57.3119 78.0716C57.8906 78.6507 58.1387 80.5536 58.1387 81.6291C58.1387 81.7118 58.1387 81.7946 58.2213 81.8773C58.304 81.96 58.3867 81.96 58.4694 81.96H59.2135C59.2961 81.96 59.3788 81.96 59.4615 81.8773C59.5442 81.7946 59.5442 81.7118 59.5442 81.6291L59.4615 78.7335C60.2056 78.568 60.7843 78.1544 60.9497 77.658C61.1977 77.0788 60.9497 76.4997 60.7843 76.1688C61.4457 76.086 62.8512 75.9206 64.1741 75.5069C64.6701 77.9889 65.0008 80.8845 64.9182 83.4492C64.4221 83.3665 63.926 83.201 63.43 82.9528C63.2646 82.8701 63.0993 82.9528 63.0166 83.1183C62.9339 83.2837 63.0166 83.4492 63.182 83.5319C63.7607 83.8629 64.3394 84.0283 64.9182 84.1111C64.8355 85.1866 64.6701 86.0139 64.4221 86.6758C64.1741 87.3376 63.8434 87.7513 63.3473 87.7513C60.7016 87.9995 58.552 87.6686 58.552 87.6686C57.7253 87.5858 56.9812 87.3376 56.2371 87.0067C56.0717 86.924 55.9064 87.0067 55.8237 87.1722C55.741 87.3376 55.8237 87.5031 55.9064 87.5858C56.6505 87.9995 57.3946 88.165 58.1387 88.3304L57.7253 91.9706C54.9143 91.226 50.2017 90.6469 47.8867 90.5642C47.8867 89.4887 47.9694 88.4132 48.0521 87.1722ZM34.9891 97.3482C38.2135 93.3771 42.3474 92.2188 45.4891 91.9706C45.4064 92.7152 45.5718 93.4598 45.5718 93.4598C45.5718 93.5426 45.7371 93.708 45.8198 93.708L59.7095 95.4454C59.7922 95.4454 59.8749 95.4454 59.8749 95.3627C59.9576 95.2799 59.9576 95.2799 59.9576 95.1145V94.2044C64.1741 95.5281 67.0678 97.2655 68.8867 99.4165C69.2174 99.8302 69.5481 100.244 69.7961 100.658V100.74C72.2764 104.215 77.4024 110.999 83.9339 117.949C92.863 127.297 113.698 126.139 113.946 126.139C114.028 126.139 114.111 126.305 114.194 126.553C114.938 128.456 114.69 134.578 113.946 134.909H113.863C113.78 134.909 107.579 135.322 100.139 134.909C94.0204 134.578 86.3315 133.585 80.8748 130.938C78.1465 129.697 74.9221 126.884 71.5323 122.995L66.1583 116.956L65.0008 115.632C64.9182 115.549 64.7528 115.467 64.5875 115.632C64.4221 115.798 64.4221 115.88 64.5875 116.046L65.7449 117.287L71.4496 129.2V129.448C71.9457 136.15 72.1937 141.114 72.0284 147.898C71.9457 153.11 71.7803 156.998 69.6308 160.473C69.6308 160.473 69.6307 160.556 69.5481 160.556C68.9693 161.466 67.9772 162.707 67.0678 163.286C66.1583 161.879 65.5796 160.804 64.9182 159.149C61.0324 150.049 55.3276 129.2 55.3276 129.035C55.3276 128.869 52.5993 113.398 29.7805 113.895C30.2766 106.614 31.9301 101.071 34.9891 97.3482ZM89.9693 134.412V135.074H72.5244C72.5244 134.991 71.7803 124.236 71.7803 124.153C74.178 126.884 77.5677 130.11 80.7921 131.682C83.4378 132.923 86.6622 133.833 89.9693 134.412ZM70.4575 227.072H40.6938C41.2726 225.501 45.4891 224.011 51.6899 223.515V224.59C51.6899 225.252 53.0127 225.501 55.5757 225.501C58.1387 225.501 59.4615 225.17 59.4615 224.59V223.515C65.7449 224.011 69.8788 225.501 70.4575 227.072ZM52.2686 224.508V179.253C53.3434 179.419 54.4182 179.501 55.5757 179.501C56.7332 179.501 57.808 179.419 58.8828 179.253V224.508C58.6347 224.673 57.4773 224.921 55.5757 224.921C53.6741 224.921 52.5166 224.673 52.2686 224.508ZM55.5757 178.922C51.9379 178.922 46.7293 178.012 44.1663 175.448C52.5166 175.944 58.2213 175.944 66.4064 175.944C63.8434 178.095 59.1308 178.922 55.5757 178.922ZM75.0874 216.4L71.863 175.778C77.8984 175.696 84.7606 175.448 86.9929 175.365C87.0756 177.599 87.0756 179.915 87.0756 182.314C87.0756 192.821 86.5795 206.638 86.0835 216.317C86.0835 216.896 85.5874 217.393 84.926 217.393H76.3276C75.6662 217.476 75.1701 217.062 75.0874 216.4ZM87.489 175.365C88.0677 175.365 88.5638 175.282 89.0598 175.282V224.011C88.2331 223.598 85.8354 223.515 85.0086 221.033C84.8433 220.537 84.3472 220.206 83.8512 220.206H83.7685V218.055H84.8433C85.7527 218.055 86.4968 217.31 86.5795 216.4C87.1582 204.735 87.8197 187.196 87.489 175.365ZM83.2724 218.055L83.1898 220.371C83.1071 220.454 83.0244 220.454 82.9417 220.537C82.6937 220.785 82.611 221.033 82.611 221.364C82.4457 222.605 81.7843 223.267 80.5441 223.101C78.8079 222.936 77.8984 221.033 77.8984 221.033C77.8984 220.95 77.8158 220.95 77.8158 220.95L77.8984 218.137H83.2724V218.055ZM77.237 218.055L77.1543 220.95C76.5756 221.116 76.1622 221.447 75.9142 221.778V217.972H77.237V218.055ZM91.5401 225.418C92.2842 225.666 92.7803 226.328 92.7803 227.072H91.6228L91.2094 225.335L91.5401 225.418ZM90.6307 225.087L91.0441 227.072L75.3355 226.99V226.162C81.4535 226.245 79.8827 226.162 88.8945 226.245C89.0598 226.245 89.1425 226.08 89.1425 225.914C89.1425 225.749 88.9771 225.666 88.8945 225.666L77.3197 225.583C77.6504 224.508 76.989 223.267 75.8315 223.019V222.77C76.1622 222.109 76.741 221.612 77.4024 221.447C78.0638 222.605 79.1386 223.515 80.4614 223.68C82.0323 223.846 82.9417 222.853 83.0244 221.447C83.0244 221.116 83.2724 220.785 83.6031 220.785H83.6858C83.9339 220.785 84.1819 220.95 84.2646 221.198C84.7606 222.522 85.7527 223.515 87.0756 224.011C87.3236 224.011 90.4653 225.087 90.6307 225.087ZM94.8472 171.807V171.89C95.0952 173.545 93.7724 174.537 92.2015 174.537C85.422 174.786 77.9811 175.117 69.2174 175.199C60.4536 175.199 47.4733 175.365 38.2135 174.207C20.9341 172.221 22.2569 153.358 22.2569 153.11C22.2569 152.862 20.7687 128.373 21.2648 121.589C21.5955 116.873 24.4892 114.474 26.4734 114.474C35.2372 113.646 44.9104 115.053 50.8631 121.506C52.7647 123.657 54.8316 127.546 54.8316 128.952C54.9969 129.614 57.6426 139.211 60.5363 148.146C61.2804 150.462 62.0245 152.696 62.7686 154.682C65.5796 162.293 68.6386 169.243 76.741 169.243H90.9614C92.863 169.408 94.5992 169.987 94.8472 171.807ZM119.568 225.583C120.312 225.831 120.808 226.493 120.808 227.238H119.65L119.237 225.501L119.568 225.583ZM111.796 220.868C112.044 220.868 112.292 221.033 112.457 221.281C112.953 222.605 113.946 223.598 115.268 224.094L118.658 225.252L119.072 227.238L103.363 227.155V226.328C113.119 226.411 116.012 226.411 116.757 226.411H117.005C117.17 226.411 117.253 226.245 117.253 226.162C117.253 225.997 117.087 225.914 116.922 225.914C112.209 225.914 108.737 225.831 105.347 225.831C105.678 224.673 104.934 223.432 103.776 223.184C104.107 222.439 104.686 221.86 105.43 221.612C106.257 223.019 107.579 224.011 109.15 223.846C110.473 223.68 110.969 222.439 111.052 221.695V221.612C111.135 221.198 111.383 220.95 111.796 220.868ZM105.761 221.033L105.843 218.055H111.217L111.135 220.537C111.052 220.537 110.969 220.619 110.887 220.702C110.638 220.95 110.556 221.198 110.556 221.529C110.556 221.695 110.308 223.101 109.15 223.267C107.001 223.515 105.926 221.281 105.843 221.116C105.843 221.033 105.843 221.033 105.761 221.033ZM113.367 159.397C117.087 168.167 113.946 210.691 113.698 216.069C113.615 216.814 113.036 217.476 112.209 217.476H104.686C103.942 217.476 103.28 216.896 103.198 216.152L100.139 175.613C99.8905 172.386 97.3275 169.904 94.1031 169.739C92.7803 168.829 90.9614 168.912 90.9614 168.912H76.741C73.9299 168.912 71.1189 167.836 68.9693 165.685C72.4418 162.624 73.1859 157.164 72.5244 152.613V152.034C83.0244 150.876 109.233 149.635 113.367 159.397ZM72.7725 140.865H75.4181V151.124C74.3433 151.207 73.4339 151.29 72.6898 151.372C72.7725 150.049 72.7725 148.973 72.7725 147.98V140.865ZM75.9142 151.041V140.865H80.5441V150.793C78.8906 150.793 77.3197 150.959 75.9142 151.041ZM81.1228 150.711V140.865H89.0598V150.628C86.3315 150.545 83.6031 150.628 81.1228 150.711ZM72.7725 140.286C72.7725 138.632 72.6898 137.142 72.6071 135.653H155.863V140.286H72.7725ZM149.497 227.486H144.867V140.865H149.497V227.486ZM158.012 227.486H150.075V140.865H158.012V227.486ZM190.918 227.486H186.288V140.865H190.918V227.486ZM199.433 227.486H191.496V140.865H199.433V227.486ZM201.914 135.653V140.286H156.441V135.653H201.914ZM184.717 132.675L184.8 133.089V133.254C184.8 134.247 183.973 134.991 183.063 134.991H170C169.504 134.991 169.008 134.743 168.678 134.412C168.347 133.999 168.182 133.585 168.264 133.089C168.347 132.179 169.174 131.517 170.083 131.517H180.418C180.5 131.517 180.583 131.517 180.666 131.434V131.186L177.028 117.287H180.583L184.717 132.675ZM123.949 116.708C121.717 116.708 120.064 114.887 120.229 112.654L120.808 104.546H208.363L207.701 113.15C207.536 115.136 205.882 116.625 203.981 116.625H123.949V116.708ZM211.587 113.233C211.422 115.218 209.768 116.708 207.867 116.708H206.13C207.205 116.128 208.197 114.722 208.28 113.316C208.776 106.366 212.744 53.5001 212.827 53.4174C212.992 51.5146 211.835 49.8599 210.678 49.2808H212.414C214.563 49.2808 216.3 51.1009 216.134 53.3347L211.587 113.233Z" fill="#2D2650"/>
<path d="M148.09 85.0211H189.677C193.976 85.0211 197.614 81.5463 197.779 77.327C197.945 73.1903 194.803 69.881 190.752 69.6328C190.752 69.3847 190.834 69.1365 190.834 68.8055C191 63.7589 187.114 59.4568 181.823 59.4568C179.342 59.4568 176.862 60.4496 175.126 62.1869C173.803 57.1403 169.256 53.6655 163.964 53.6655C157.35 53.6655 151.728 59.0431 151.48 65.579V65.6617C150.653 65.4135 149.744 65.3308 148.917 65.3308C143.461 65.3308 138.913 69.7156 138.665 75.1759C138.335 80.6363 142.634 85.0211 148.09 85.0211ZM148.835 65.9926C149.827 65.9926 150.736 66.1581 151.646 66.4063C151.728 66.4063 151.811 66.4063 151.894 66.3236C151.976 66.2408 151.976 66.1581 151.976 66.0754V65.6617C152.224 59.3741 157.598 54.2447 163.882 54.2447C169.173 54.2447 173.555 57.8021 174.63 62.8488C174.63 62.9315 174.712 63.0143 174.878 63.097C174.96 63.097 175.126 63.097 175.209 63.0143C176.945 61.1114 179.342 60.0359 181.905 60.0359C186.701 60.0359 190.586 63.9243 190.338 68.7228C190.338 69.0537 190.256 69.4674 190.256 69.7983C190.256 69.8811 190.256 69.9638 190.338 70.0465C190.421 70.1292 190.504 70.1292 190.586 70.1292C194.472 70.212 197.449 73.3558 197.366 77.2442C197.201 81.2154 193.811 84.3592 189.842 84.3592H148.256C143.047 84.3592 139.161 80.2226 139.327 75.1759C139.327 70.1293 143.709 65.9926 148.835 65.9926Z" fill="#2D2650"/>
<path d="M157.185 78.4853C157.268 78.4853 157.268 78.568 157.35 78.568H157.433C157.516 78.4853 157.598 78.4026 157.598 78.3198L157.681 75.8379H166.362C166.528 75.8379 166.61 75.7551 166.693 75.5897L166.858 71.5358C166.858 71.4531 166.858 71.3703 166.776 71.2876C166.693 71.2049 166.61 71.2049 166.528 71.2049H157.846L157.929 68.7229C157.929 68.6402 157.846 68.4747 157.764 68.4747C157.681 68.392 157.516 68.392 157.433 68.4747L150.158 73.2732C150.075 73.3559 149.992 73.4387 149.992 73.5214C149.992 73.6041 150.075 73.6868 150.075 73.7696L157.185 78.4853ZM157.433 69.0538L157.35 71.2876C157.35 71.3703 157.35 71.4531 157.433 71.5358C157.516 71.6185 157.598 71.6185 157.681 71.6185H166.362L166.197 75.0933H157.433C157.268 75.0933 157.185 75.2588 157.102 75.3415L157.02 77.5753L150.902 73.2732L157.433 69.0538ZM169.091 75.6724H177.772L177.689 78.1544C177.689 78.2371 177.772 78.4026 177.854 78.4026H178.02C178.102 78.4026 178.102 78.4026 178.185 78.3198L185.461 73.5214C185.543 73.4387 185.626 73.3559 185.626 73.2732C185.626 73.1905 185.543 73.1077 185.543 73.025L178.681 68.2265C178.598 68.1438 178.516 68.1438 178.433 68.2265C178.35 68.2265 178.268 68.392 178.268 68.4747L178.185 70.9567H169.504C169.339 70.9567 169.256 71.1221 169.256 71.2049L169.091 75.2588C169.091 75.3415 169.091 75.4242 169.173 75.507C169.256 75.5897 169.008 75.6724 169.091 75.6724ZM169.504 71.6185H178.185C178.35 71.6185 178.433 71.5358 178.516 71.3703L178.598 69.1366L184.716 73.4386L178.268 77.7407L178.35 75.507C178.35 75.4242 178.35 75.3415 178.268 75.2588C178.185 75.176 178.102 75.176 178.02 75.176H169.339L169.504 71.6185ZM165.287 107.855C163.717 107.855 162.394 109.096 162.394 110.668C162.311 112.24 163.551 113.481 165.122 113.481C166.693 113.481 168.016 112.24 168.098 110.668C168.098 109.096 166.858 107.855 165.287 107.855ZM167.437 110.668C167.354 111.909 166.279 112.902 165.039 112.902C163.799 112.902 162.807 111.909 162.89 110.668C162.972 109.427 163.965 108.434 165.205 108.434C166.445 108.434 167.354 109.427 167.354 110.585V110.668H167.437ZM126.512 91.0606H134.614C134.78 91.0606 134.945 90.8951 134.945 90.7297C134.945 90.5642 134.78 90.3988 134.614 90.3988H126.512C126.347 90.3988 126.181 90.5642 126.181 90.7297C126.181 90.8951 126.347 91.0606 126.512 91.0606ZM137.921 91.0606H157.516C157.681 91.0606 157.846 90.8951 157.846 90.7297C157.846 90.5642 157.681 90.3988 157.516 90.3988H137.921C137.756 90.3988 137.591 90.5642 137.591 90.7297C137.591 90.8951 137.756 91.0606 137.921 91.0606ZM159.831 90.7297C159.831 90.8951 159.996 91.0606 160.161 91.0606H203.401C203.567 91.0606 203.732 90.8951 203.732 90.7297C203.732 90.5642 203.567 90.3988 203.401 90.3988H160.161C159.913 90.4815 159.831 90.5642 159.831 90.7297ZM125.933 95.28H146.354C146.52 95.28 146.685 95.1145 146.685 94.949C146.685 94.7836 146.52 94.6181 146.354 94.6181H125.933C125.768 94.6181 125.602 94.7836 125.602 94.949C125.602 95.1145 125.768 95.28 125.933 95.28ZM170.992 95.28C171.157 95.28 171.323 95.1145 171.323 94.949C171.323 94.7836 171.157 94.6181 170.992 94.6181H148.752C148.587 94.6181 148.421 94.7836 148.421 94.949C148.421 95.1145 148.587 95.28 148.752 95.28H170.992ZM202.74 94.7008H173.142C172.976 94.7008 172.811 94.8663 172.811 95.0318C172.811 95.1972 172.976 95.3627 173.142 95.3627H202.657C202.823 95.3627 202.988 95.1972 202.988 95.0318C202.988 94.8663 202.823 94.7008 202.74 94.7008ZM125.272 99.5821H134.697C134.862 99.5821 135.028 99.4166 135.028 99.2511C135.028 99.0857 134.862 98.9202 134.697 98.9202H125.272C125.106 98.9202 124.941 99.0857 124.941 99.2511C124.941 99.4166 125.106 99.5821 125.272 99.5821ZM157.185 99.0029H137.177C137.012 99.0029 136.847 99.1684 136.847 99.3338C136.847 99.4993 137.012 99.6648 137.177 99.6648H157.185C157.35 99.6648 157.516 99.4993 157.516 99.3338C157.516 99.1684 157.35 99.0029 157.185 99.0029ZM202.74 99.0029H159.665C159.5 99.0029 159.335 99.1684 159.335 99.3338C159.335 99.4993 159.5 99.6648 159.665 99.6648H202.74C202.905 99.6648 203.071 99.4993 203.071 99.3338C203.071 99.1684 202.823 99.0029 202.74 99.0029ZM42.1815 55.8167C42.2642 55.8994 42.3469 55.8994 42.3469 55.8994H42.5122C42.5949 55.8167 42.6776 55.7339 42.6776 55.5685L41.024 48.0398H45.4886C46.7287 48.0398 47.8035 47.047 47.8035 45.7233V7.33555C47.8035 6.09457 46.8114 5.01904 45.4886 5.01904H2.49659C1.25644 5.01904 0.181641 6.01183 0.181641 7.33555V45.7233C0.181641 46.9643 1.17376 48.0398 2.49659 48.0398H31.7642C35.3193 50.6873 42.0161 55.6512 42.1815 55.8167ZM0.760379 45.7233V7.33555C0.760379 6.42549 1.50447 5.59817 2.49659 5.59817H45.4886C46.398 5.59817 47.2248 6.34276 47.2248 7.33555V45.7233C47.2248 46.6334 46.4807 47.4607 45.4886 47.4607H40.6933C40.6106 47.4607 40.528 47.4607 40.4453 47.5434C40.3626 47.6262 40.3626 47.7089 40.3626 47.7916L41.9335 54.9066C40.1973 53.5829 35.154 49.8599 32.0122 47.4607C31.9296 47.4607 31.9296 47.378 31.8469 47.378H2.49659C1.50447 47.378 0.760379 46.6334 0.760379 45.7233Z" fill="#2D2650"/>
<path d="M33.4179 39.6838L36.2289 36.8709C36.3116 36.7881 36.3116 36.6227 36.2289 36.5399L34.6581 34.1407C35.4848 32.817 36.0636 31.4105 36.3943 30.0041L39.2053 29.3422C39.3706 29.3422 39.4533 29.1768 39.4533 29.094V25.1229C39.4533 24.9574 39.3706 24.8747 39.2053 24.8747L36.3943 24.2128C36.0636 22.7236 35.4848 21.3172 34.6581 19.9935L36.1462 17.5115C36.2289 17.4288 36.2289 17.2633 36.1462 17.1806L33.3352 14.3677C33.2526 14.2849 33.0872 14.2849 33.0045 14.3677L30.6069 15.9396C29.3667 15.1123 27.9612 14.5331 26.3904 14.2022L25.729 11.3893C25.729 11.2238 25.5636 11.1411 25.4809 11.1411H21.5124C21.3471 11.1411 21.2644 11.2238 21.2644 11.3893L20.603 14.2022C19.1148 14.5331 17.7093 15.1123 16.4691 15.9396L13.9888 14.3677C13.9062 14.2849 13.7408 14.2849 13.6581 14.3677L10.8471 17.1806C10.7644 17.2633 10.7644 17.4288 10.8471 17.5115L12.3353 19.9935C11.5085 21.3172 10.9298 22.7236 10.5991 24.2128L7.78807 24.8747C7.62272 24.8747 7.54004 25.0401 7.54004 25.1229V29.094C7.54004 29.2595 7.62272 29.3422 7.78807 29.3422L10.5991 30.0041C10.9298 31.4933 11.5085 32.8997 12.3353 34.1407L10.8471 36.5399C10.7644 36.6227 10.7644 36.7881 10.8471 36.8709L13.6581 39.6838C13.7408 39.7665 13.9062 39.7665 13.9888 39.6838L16.3865 38.1118C17.7093 38.9392 19.1148 39.5183 20.603 39.8492L21.2644 42.6621C21.2644 42.8276 21.4298 42.9103 21.5124 42.9103H25.4809C25.6463 42.9103 25.729 42.8276 25.729 42.6621L26.3904 39.8492C27.8786 39.5183 29.2841 38.9392 30.5242 38.1118L33.0045 39.6838C33.1699 39.7665 33.3352 39.7665 33.4179 39.6838ZM30.4415 37.6154C29.1187 38.4428 27.7132 39.1046 26.1423 39.4356C26.0597 39.4356 25.977 39.5183 25.8943 39.6838L25.2329 42.4139H21.6778L21.0164 39.6838C21.0164 39.601 20.9337 39.5183 20.7683 39.4356C19.2802 39.1046 17.792 38.5255 16.4691 37.6154C16.3865 37.5327 16.2211 37.5327 16.1384 37.6154L13.7408 39.1046L11.1778 36.6227L12.666 34.2234C12.7487 34.1407 12.7487 33.9752 12.666 33.8925C11.8392 32.5688 11.1778 31.0796 10.8471 29.5904C10.8471 29.5077 10.7644 29.4249 10.5991 29.3422L7.78807 28.6804V25.1229L10.5164 24.461C10.5991 24.461 10.6818 24.3783 10.7644 24.2128C11.0951 22.7236 11.6739 21.2345 12.5007 19.9107C12.5833 19.828 12.5833 19.6625 12.5007 19.5798L11.0125 17.1806L13.4928 14.6986L15.8904 16.1878C15.9731 16.2705 16.1384 16.2705 16.2211 16.1878C17.5439 15.3605 18.9494 14.6986 20.5203 14.3677C20.603 14.3677 20.6857 14.2849 20.7683 14.1195L21.4298 11.3893H24.9849L25.6463 14.1195C25.6463 14.2022 25.729 14.2849 25.8943 14.3677C27.4652 14.6986 28.8707 15.2777 30.1935 16.1878C30.2762 16.2705 30.4415 16.2705 30.5242 16.1878L32.9218 14.6986L35.4021 17.1806L33.914 19.5798C33.8313 19.6625 33.8313 19.828 33.914 19.9107C34.8234 21.2345 35.4021 22.6409 35.7329 24.2128C35.7329 24.2956 35.8155 24.3783 35.9809 24.461L38.7919 25.1229V28.6804L36.0636 29.3422C35.9809 29.3422 35.8982 29.425 35.8155 29.5904C35.4848 31.0796 34.9061 32.5688 34.0793 33.8925C33.9966 33.9752 33.9966 34.1407 34.0793 34.2234L35.5675 36.6227L33.0872 39.1046L30.6896 37.6154C30.6896 37.5327 30.5242 37.5327 30.4415 37.6154Z" fill="#2D2650"/>
<path d="M20.3554 19.249C18.2885 19.9936 16.635 21.6483 15.8909 23.7166C14.7334 26.9431 15.3948 30.3352 17.7098 32.6517C21.9263 36.7883 29.1192 35.2991 31.1034 30.0042C33.6664 23.1375 27.2176 16.6843 20.3554 19.249ZM30.5247 29.8388C28.7058 34.8027 21.9263 36.2092 18.0405 32.3207C15.8909 30.1697 15.2295 26.9431 16.3043 23.9648C17.0484 22.0619 18.5365 20.49 20.4381 19.8282C26.9696 17.4289 32.9223 23.3857 30.5247 29.8388Z" fill="#2D2650"/>
</g>
<defs>
<clipPath id="clip0_586_4132">
<rect width="421" height="250" fill="white"/>
</clipPath>
</defs>
</svg>
