<svg width="353.000000" height="588.000000" viewBox="0 0 353 588" fill="none" xmlns="http://www.w3.org/2000/svg" xmlns:xlink="http://www.w3.org/1999/xlink">
	<desc>
			Created with Pixso.
	</desc>
	<defs>
		<filter id="filter_589_4576_dd" x="0.000000" y="0.000000" width="353.000000" height="588.000000" filterUnits="userSpaceOnUse" color-interpolation-filters="sRGB">
			<feFlood flood-opacity="0" result="BackgroundImageFix"/>
			<feBlend mode="normal" in="SourceGraphic" in2="BackgroundImageFix" result="shape"/>
			<feGaussianBlur stdDeviation="0" result="effect_layerBlur_1"/>
		</filter>
		<filter id="filter_589_4577_dd" x="-410.000000" y="-395.000000" width="1096.953125" height="1367.328125" filterUnits="userSpaceOnUse" color-interpolation-filters="sRGB">
			<feFlood flood-opacity="0" result="BackgroundImageFix"/>
			<feBlend mode="normal" in="SourceGraphic" in2="BackgroundImageFix" result="shape"/>
			<feGaussianBlur stdDeviation="66.6667" result="effect_layerBlur_1"/>
		</filter>
		<clipPath id="clip589_4576">
			<rect id="BG" rx="0.000000" width="352.000000" height="587.000000" transform="translate(0.500000 0.500000)" fill="white" fill-opacity="0"/>
		</clipPath>
	</defs>
	<g filter="url(#filter_589_4576_dd)">
		<rect id="BG" rx="0.000000" width="352.000000" height="587.000000" transform="translate(0.500000 0.500000)" fill="#EBE965" fill-opacity="1.000000"/>
		<g clip-path="url(#clip589_4576)">
			<g filter="url(#filter_589_4577_dd)">
				<path id="Vector 6" d="M197.5 18.03C164.27 71.55 177 178.03 177 178.03C177 178.03 427.2 361.83 472 209.03C516.8 56.23 450.33 -38.97 411.5 -67.47C372.66 -95.97 244.97 -58.43 197.5 18.03Z" fill="#4A399D" fill-opacity="1.000000" fill-rule="nonzero"/>
				<path id="Vector 6" d="M-186.36 -102.97C-237.19 -69.47 -155.5 333.53 5 202.03C110.22 115.82 210.5 -21.97 210.5 -21.97C210.5 -21.97 105.33 -192.69 -1.5 -194.97C-82.12 -196.69 -135.53 -136.47 -186.36 -102.97Z" fill="#9283DB" fill-opacity="1.000000" fill-rule="nonzero"/>
				<path id="Vector 6" d="M-206.93 513.53C-104.93 504.53 90.67 517.33 57.07 640.53C23.47 763.73 -89.27 743.86 -141.43 718.53C-170.1 681.2 -223.33 587.93 -206.93 513.53Z" fill="#9283DB" fill-opacity="1.000000" fill-rule="nonzero"/>
				<path id="Vector 6" d="M225 448.03C127.5 302.03 60.37 101.93 -22.43 243.53C-105.23 385.13 -31.93 451.53 15.07 467.03C89.73 444.86 298.1 498.13 342.5 536.53C386.9 574.93 207.4 597.86 136.07 648.53C78.73 697.2 1.27 789.53 150.07 769.53C298.87 749.53 423.07 585.2 466.57 505.53C510.07 425.86 322.5 594.03 225 448.03Z" fill="#DFDC01" fill-opacity="1.000000" fill-rule="nonzero"/>
			</g>
		</g>
	</g>
</svg>
