<svg width="353.000000" height="588.000000" viewBox="0 0 353 588" fill="none" xmlns="http://www.w3.org/2000/svg" xmlns:xlink="http://www.w3.org/1999/xlink">
	<desc>
			Created with Pixso.
	</desc>
	<defs>
		<filter id="filter_586_4337_dd" x="0.000000" y="0.000000" width="353.000000" height="588.000000" filterUnits="userSpaceOnUse" color-interpolation-filters="sRGB">
			<feFlood flood-opacity="0" result="BackgroundImageFix"/>
			<feBlend mode="normal" in="SourceGraphic" in2="BackgroundImageFix" result="shape"/>
			<feGaussianBlur stdDeviation="0" result="effect_layerBlur_1"/>
		</filter>
		<filter id="filter_586_4338_dd" x="-371.000000" y="-380.500000" width="1076.572266" height="1464.292480" filterUnits="userSpaceOnUse" color-interpolation-filters="sRGB">
			<feFlood flood-opacity="0" result="BackgroundImageFix"/>
			<feBlend mode="normal" in="SourceGraphic" in2="BackgroundImageFix" result="shape"/>
			<feGaussianBlur stdDeviation="66.6667" result="effect_layerBlur_1"/>
		</filter>
		<clipPath id="clip586_4337">
			<rect id="BG" rx="0.000000" width="352.000000" height="587.000000" transform="translate(0.500000 0.500000)" fill="white" fill-opacity="0"/>
		</clipPath>
	</defs>
	<g filter="url(#filter_586_4337_dd)">
		<rect id="BG" rx="0.000000" width="352.000000" height="587.000000" transform="translate(0.500000 0.500000)" fill="#EBE965" fill-opacity="1.000000"/>
		<g clip-path="url(#clip586_4337)">
			<g filter="url(#filter_586_4338_dd)">
				<path id="Vector 6" d="M-109.5 -95L-130 65C-50.34 139 120.2 248.8 165 96C209.8 -56.8 143.33 -152 104.5 -180.5L-109.5 -95Z" fill="#4A399D" fill-opacity="1.000000" fill-rule="nonzero"/>
				<path id="Vector 6" d="M280.57 -40.5C229.73 -7 280.23 67.91 217.07 139.5C127.07 241.5 443.66 458 488.5 443.5L389.07 41.5L280.57 -40.5Z" fill="#9283DB" fill-opacity="1.000000" fill-rule="nonzero"/>
				<path id="Vector 6" d="M-167.93 625C-65.93 616 129.67 628.8 96.07 752C62.47 875.2 -50.27 855.33 -102.43 830C-131.1 792.66 -184.33 699.4 -167.93 625Z" fill="#9283DB" fill-opacity="1.000000" fill-rule="nonzero"/>
				<path id="Vector 6" d="M409.5 531.5C312 385.5 99.37 213.4 16.57 355C-66.23 496.6 7.07 563 54.07 578.5C128.73 556.33 337.1 609.59 381.5 648C425.9 686.4 246.4 709.33 175.07 760C117.73 808.66 40.27 901 189.07 881C337.87 861 462.07 696.66 505.57 617L409.5 531.5Z" fill="#DFDC01" fill-opacity="1.000000" fill-rule="nonzero"/>
			</g>
		</g>
	</g>
</svg>
