<svg width="353.000000" height="588.000000" viewBox="0 0 353 588" fill="none" xmlns="http://www.w3.org/2000/svg" xmlns:xlink="http://www.w3.org/1999/xlink">
	<desc>
			Created with Pixso.
	</desc>
	<defs>
		<filter id="filter_589_4443_dd" x="0.000000" y="0.000000" width="353.000000" height="588.000000" filterUnits="userSpaceOnUse" color-interpolation-filters="sRGB">
			<feFlood flood-opacity="0" result="BackgroundImageFix"/>
			<feBlend mode="normal" in="SourceGraphic" in2="BackgroundImageFix" result="shape"/>
			<feGaussianBlur stdDeviation="0" result="effect_layerBlur_1"/>
		</filter>
		<filter id="filter_589_4444_dd" x="-410.000000" y="-341.536011" width="1288.555664" height="1279.055298" filterUnits="userSpaceOnUse" color-interpolation-filters="sRGB">
			<feFlood flood-opacity="0" result="BackgroundImageFix"/>
			<feBlend mode="normal" in="SourceGraphic" in2="BackgroundImageFix" result="shape"/>
			<feGaussianBlur stdDeviation="66.6667" result="effect_layerBlur_1"/>
		</filter>
		<clipPath id="clip589_4443">
			<rect id="BG" rx="0.000000" width="352.000000" height="587.000000" transform="translate(0.500000 0.500000)" fill="white" fill-opacity="0"/>
		</clipPath>
	</defs>
	<g filter="url(#filter_589_4443_dd)">
		<rect id="BG" rx="0.000000" width="352.000000" height="587.000000" transform="translate(0.500000 0.500000)" fill="#EBE965" fill-opacity="1.000000"/>
		<g clip-path="url(#clip589_4443)">
			<g filter="url(#filter_589_4444_dd)">
				<path id="Vector 6" d="M-27.5 420C-60.73 473.51 -48 580 -48 580C-48 580 202.2 763.8 247 611C291.79 458.2 225.33 363 186.5 334.5C147.66 306 19.97 343.54 -27.5 420Z" fill="#4A399D" fill-opacity="1.000000" fill-rule="nonzero"/>
				<path id="Vector 6" d="M186.5 -49.5C135.66 -16 217.35 387 377.85 255.5C483.07 169.29 583.35 31.5 583.35 31.5C583.35 31.5 478.18 -139.23 371.35 -141.5C290.73 -143.22 237.33 -83 186.5 -49.5Z" fill="#9283DB" fill-opacity="1.000000" fill-rule="nonzero"/>
				<path id="Vector 6" d="M-206.93 513.53C-104.93 504.53 90.67 517.33 57.07 640.53C23.47 763.73 -89.27 743.86 -141.43 718.53C-170.1 681.2 -223.33 587.93 -206.93 513.53Z" fill="#9283DB" fill-opacity="1.000000" fill-rule="nonzero"/>
				<path id="Vector 6" d="M198.85 267.56C101.35 121.56 34.22 -78.54 -48.58 63.06C-131.38 204.66 -58.08 271.06 -11.08 286.56C137.92 515.06 271.95 317.66 316.35 356.06C360.75 394.46 181.26 417.4 109.92 468.06C52.59 516.73 496.2 648.5 645 628.5C793.8 608.5 396.92 404.73 440.42 325.06C483.92 245.4 296.35 413.56 198.85 267.56Z" fill="#DFDC01" fill-opacity="1.000000" fill-rule="nonzero"/>
			</g>
		</g>
	</g>
</svg>
