<svg width="120" height="120" viewBox="0 0 120 120" fill="none" xmlns="http://www.w3.org/2000/svg">
<path fill-rule="evenodd" clip-rule="evenodd" d="M117.208 75.8638V76.2423C118.575 76.2423 119.71 75.1891 119.71 73.8927C119.705 73.278 119.44 72.6897 118.972 72.255C118.504 71.8203 117.87 71.574 117.208 71.5693V71.9201C118.371 71.9201 119.332 72.7857 119.332 73.8658C119.332 74.9721 118.371 75.8638 117.208 75.8638Z" fill="black"/>
<path fill-rule="evenodd" clip-rule="evenodd" d="M117.208 73.812V74.082H117.441L117.877 75.0814H118.255L117.703 73.9743C118.372 73.8128 118.372 72.7049 117.325 72.7049H117.208V72.948H117.354C118.109 72.948 118.022 73.8128 117.296 73.8128L117.208 73.812ZM117.208 71.9201V71.5693C115.87 71.5693 114.735 72.6225 114.735 73.8927C114.735 75.1891 115.87 76.2423 117.208 76.2423V75.8638C116.045 75.8638 115.084 74.9721 115.084 73.8658C115.087 73.3438 115.312 72.844 115.71 72.4748C116.107 72.1057 116.646 71.897 117.208 71.894V71.9201Z" fill="black"/>
<path fill-rule="evenodd" clip-rule="evenodd" d="M117.208 72.9471V72.704H116.392V75.0805H116.713V74.0819H117.208V73.8119H116.713V72.9471H117.208ZM16.9019 77.8902V78.9165C15.1232 77.7519 12.9989 77.129 10.8224 77.1339H10.7934C4.8871 77.1339 0 81.6446 0 87.1547C0 92.6378 4.8871 97.1754 10.7926 97.1754H10.8216C13.1193 97.1754 15.185 96.4999 16.901 95.3651V96.3653H21.5553V77.8902H16.9019ZM10.8216 92.6378H10.7926C7.5345 92.6378 4.9161 90.1798 4.9161 87.1547C4.9161 84.1557 7.53362 81.6707 10.7926 81.6707H10.8216C14.0506 81.6707 16.727 84.1557 16.727 87.1547C16.727 90.1798 14.0506 92.6378 10.8216 92.6378ZM94.6035 77.9171V78.9165C92.8584 77.8102 90.7048 77.1339 88.466 77.1339H88.437C82.5316 77.1339 77.6445 81.6446 77.6445 87.1547C77.6445 92.6647 82.5316 97.1754 88.437 97.1754H88.466C90.7057 97.1754 92.8584 96.4999 94.6035 95.392V96.3914H99.2296V77.9171H94.6035ZM88.466 92.6647H88.437C85.208 92.6647 82.5605 90.1798 82.5605 87.1547C82.5605 84.1826 85.208 81.6985 88.437 81.6985H88.466C91.6951 81.6985 94.3715 84.1835 94.3715 87.1547C94.3706 90.1798 91.6942 92.6647 88.466 92.6647ZM40.1749 71.623V78.9157C38.458 77.8625 36.3352 77.1331 34.0946 77.1331H34.0656C28.1311 77.1331 23.302 81.6707 23.302 87.1269C23.302 92.6639 28.1311 97.1746 34.0656 97.1746H34.0946C36.3352 97.1746 38.4879 96.4991 40.1749 95.3912V96.3637H44.8292V71.623H40.1749ZM34.0946 92.6378H34.0656C30.8365 92.6378 28.1891 90.1798 28.1891 87.1278C28.1891 84.1557 30.8365 81.6715 34.0656 81.6715H34.0946C37.3237 81.6715 40.0001 84.1565 40.0001 87.1278C40.0001 90.1798 37.3237 92.6378 34.0946 92.6378ZM71.4183 71.623V78.9157C69.6425 77.8625 67.5197 77.1331 65.28 77.1331H65.2518C59.3754 77.1331 54.5164 81.6707 54.5164 87.1269C54.5164 92.6639 59.3745 97.1746 65.2518 97.1746H65.28C67.5205 97.1746 69.6724 96.4991 71.4183 95.3912V96.3637H75.9855V71.623H71.4183ZM65.28 92.6378H65.2518C62.0219 92.6378 59.4044 90.1798 59.4044 87.1278C59.4044 84.1557 62.0219 81.6715 65.2518 81.6715H65.28C68.509 81.6715 71.1863 84.1565 71.1863 87.1278C71.1863 90.1798 68.509 92.6378 65.28 92.6378ZM48.1162 76.3768H52.7714V71.6769H48.1162V76.3768ZM48.1162 96.4184H52.7714V77.971H48.1162V96.4184ZM101.178 90.3959C101.294 95.0412 105.862 97.2831 110.865 97.2032C116.363 97.1216 120.057 94.7989 119.999 90.5852C119.883 83.2118 106.909 85.7237 106.909 82.6717C106.909 81.3746 108.101 80.8345 110.313 80.8345C113.106 80.8345 113.688 82.0232 113.92 83.3203H119.011C118.894 81.16 116.887 76.9177 110.08 76.9177C104.233 76.9177 101.643 79.862 101.643 83.4549C101.643 90.6937 114.502 88.1002 114.502 91.45C114.502 92.3148 113.541 93.5034 110.953 93.5034C108.625 93.5034 106.763 92.5579 106.763 90.3968L101.178 90.3959Z" fill="black"/>
<path fill-rule="evenodd" clip-rule="evenodd" d="M48.1162 71.6769H71.4182L52.2186 38.6435L34.1235 47.7195L48.1162 71.6769ZM55.214 30.0814L73.2792 21.0054L102.807 71.6769H79.4184L55.214 30.0814ZM40.2618 71.6769L31.2731 56.2807L13.207 65.3298L16.9308 71.6769H40.2618Z" fill="#2F489A"/>
</svg>
