<svg width="80.000000" height="76.000000" viewBox="0 0 80 76" fill="none" xmlns="http://www.w3.org/2000/svg" xmlns:xlink="http://www.w3.org/1999/xlink">
	<desc>
			Created with Pixso.
	</desc>
	<defs/>
	<path id="Vector" d="M72 16L56 16L56 8L52 8L52 4L48 4L48 0L32 0L32 4L28 4L28 8L24 8L24 16L8 16L0 16L0 24L0 68L0 76L8 76L72 76L80 76L80 68L80 24L80 16L72 16ZM48 8L32 8L32 16L48 16L48 8Z" fill="#2D2650" fill-opacity="1.000000" fill-rule="evenodd"/>
	<path id="Vector" d="M39 54.37L39 56.5L41 56.5L41 54.37L43 54.37L43 52.25L45 52.25L45 50.12L47 50.12L47 48L49 48L49 45.87L51 45.87L51 43.75L53 43.75L53 41.62L55 41.62L55 39.5L51.5 39.5L49.5 39.5L49.5 41.62L47.5 41.62L47.5 43.75L45.5 43.75L45.5 45.87L43.29 45.87L43.29 48L40 48L36.4 48L36.4 45.87L34.4 45.87L34.4 43.75L32.4 43.75L32.4 41.62L30.4 41.62L30.4 39.5L29.5 39.5L25 39.5L25 41.62L27 41.62L27 43.75L29 43.75L29 45.87L31 45.87L31 48L33 48L33 50.12L35 50.12L35 52.25L37 52.25L37 54.37L39 54.37Z" fill="#DFDC01" fill-opacity="1.000000" fill-rule="nonzero"/>
</svg>
