<svg width="120" height="120" viewBox="0 0 120 120" fill="none" xmlns="http://www.w3.org/2000/svg">
<path d="M27.9138 61.0899C27.8643 56.3057 32.1574 54.0071 32.3505 53.8976C29.9341 50.6458 26.1808 50.1988 24.8438 50.1487C21.65 49.8477 18.6097 51.8818 16.9855 51.8818C15.3614 51.8818 12.8608 50.1897 10.2117 50.2399C6.72569 50.2855 3.51206 52.1052 1.71461 54.9785C-1.9001 60.7524 0.793598 69.3266 4.32413 74.0195C6.05226 76.3136 8.10225 78.8995 10.8059 78.8038C13.4104 78.708 14.3909 77.2531 17.5302 77.2531C20.6696 77.2531 21.5559 78.8038 24.3041 78.7581C27.1018 78.708 28.8745 76.4139 30.5877 74.1108C32.5585 71.4427 33.3755 68.8659 33.425 68.7291C33.3607 68.7063 27.9733 66.8045 27.9138 61.0899Z" fill="black"/>
<path d="M22.7495 47.0384C24.1854 45.4376 25.151 43.2165 24.8886 41C22.8237 41.0775 20.3232 42.2679 18.8426 43.8687C17.5156 45.2825 16.3519 47.5446 16.6688 49.7156C18.9614 49.8797 21.3184 48.6347 22.7495 47.0384ZM46.0223 65.7921L43.6455 72.428H40.5903L48.3693 51.3392H51.9345L59.7433 72.428H56.5841L54.138 65.7921H46.0223ZM53.529 63.6623L51.2908 57.5919C50.7808 56.2146 50.4441 54.965 50.1024 53.7427H50.0381C49.6964 54.9923 49.325 56.2739 48.8843 57.56L46.6462 63.6577L53.529 63.6623ZM62.0607 62.2256C62.0607 60.2873 61.9963 58.7184 61.922 57.2818H64.6058L64.7445 59.8814H64.8089C66.0319 58.0343 67.968 56.9398 70.6518 56.9398C74.628 56.9398 77.6138 60.0365 77.6138 64.6383C77.6138 70.0838 74.014 72.7701 70.1418 72.7701C67.968 72.7701 66.0666 71.8944 65.0812 70.3939H65.0168V78.6215H62.0607V62.2256ZM65.0119 66.2619C65.0119 66.6724 65.0762 67.0418 65.1505 67.3884C65.6952 69.2948 67.4927 70.6128 69.6367 70.6128C72.7959 70.6128 74.6329 68.2367 74.6329 64.7614C74.6329 61.724 72.8999 59.1335 69.7407 59.1335C67.7056 59.1335 65.8041 60.4789 65.2198 62.5449C65.1159 62.8869 65.0168 63.2974 65.0168 63.6714L65.0119 66.2619ZM80.7037 62.2256C80.7037 60.2873 80.6393 58.7184 80.565 57.2818H83.2488L83.3875 59.8814H83.4519C84.6749 58.0343 86.611 56.9398 89.2948 56.9398C93.271 56.9398 96.2568 60.0365 96.2568 64.6383C96.2568 70.0838 92.657 72.7701 88.7848 72.7701C86.611 72.7701 84.7096 71.8944 83.7242 70.3939H83.6598V78.6215H80.7037V62.2256ZM83.6598 66.2619C83.6598 66.6724 83.7242 67.0418 83.7985 67.3884C84.3432 69.2948 86.1406 70.6128 88.2847 70.6128C91.4438 70.6128 93.2809 68.2367 93.2809 64.7614C93.2809 61.724 91.5478 59.1335 88.3887 59.1335C86.3535 59.1335 84.4521 60.4789 83.8678 62.5449C83.7638 62.8869 83.6648 63.2974 83.6648 63.6714L83.6598 66.2619ZM99.3516 50.2127H102.342V72.4234H99.3516V50.2127ZM108.354 65.3543C108.418 69.0759 111.003 70.6128 113.989 70.6128C116.128 70.6128 117.42 70.2708 118.539 69.8329L119.049 71.8032C118 72.241 116.197 72.7427 113.583 72.7427C108.522 72.7427 105.497 69.6779 105.497 65.108C105.497 60.5382 108.418 56.9398 113.206 56.9398C118.574 56.9398 120 61.2861 120 64.0727C120 64.6383 119.936 65.0715 119.896 65.3543H108.354ZM117.118 63.3841C117.153 61.6327 116.336 58.91 112.974 58.91C109.948 58.91 108.626 61.4777 108.388 63.3841H117.118Z" fill="black"/>
</svg>
