<svg width="120" height="120" viewBox="0 0 120 120" fill="none" xmlns="http://www.w3.org/2000/svg">
<g clip-path="url(#clip0_347_8638)">
<path d="M120.002 76.6056V44H0.00195312V76.6056H120.002Z" fill="#008860"/>
<path d="M81.0056 62.9436C81.0056 63.1278 80.9158 63.3045 80.7561 63.4347C80.5964 63.565 80.3797 63.6381 80.1539 63.6381C79.928 63.6381 79.7113 63.565 79.5516 63.4347C79.3919 63.3045 79.3021 63.1278 79.3021 62.9436C79.3021 62.7594 79.3919 62.5827 79.5516 62.4525C79.7113 62.3222 79.928 62.2491 80.1539 62.2491C80.3797 62.2491 80.5964 62.3222 80.7561 62.4525C80.9158 62.5827 81.0056 62.7594 81.0056 62.9436ZM50.0712 47.4214C48.3821 48.2102 47.6025 50.0313 48.2566 51.5156C48.6953 52.5845 49.8248 53.4443 51.1714 53.7087C52.4025 53.9507 53.707 53.8491 54.9207 53.5862C54.9152 53.2471 54.9143 52.9094 54.9152 52.5711C53.5732 52.9722 51.9528 53.1246 50.6813 52.4874C49.6462 51.978 49.1497 50.9247 49.3476 49.9701C49.5024 49.0244 50.39 48.2005 51.5149 47.942C52.6416 47.6507 53.8379 47.8935 54.9161 48.2072V47.1891C53.346 46.7894 51.5277 46.7043 50.0731 47.4214M59.0941 46.9515C58.3586 47.0688 57.6624 47.3437 57.0899 47.7359C55.5106 48.7749 55.1231 50.7746 56.216 52.1655C57.4251 53.8267 60.3482 54.3369 62.3341 53.3195C64.0654 52.512 64.8706 50.6416 64.1149 49.1312C63.3995 47.5185 61.1204 46.5908 59.0941 46.9508M73.8697 46.9657C72.6102 47.1868 71.4725 47.8733 70.9008 48.8212C70.2926 49.793 70.3091 51.0091 70.9439 51.9697C71.5558 52.9274 72.7494 53.6131 74.0538 53.7856C75.9298 54.0829 77.9983 53.2971 78.8282 51.8771C79.7021 50.4833 79.1992 48.6434 77.6841 47.6821C76.6315 46.9829 75.1897 46.7319 73.8697 46.965M88.4987 47.2645C87.4095 47.8091 87.2447 49.1731 88.0947 49.9238C88.9897 50.7036 90.4911 50.7574 91.3402 51.5768C91.7735 52.0108 91.3686 52.6271 90.7833 52.7907C89.8627 53.0626 88.7653 52.9386 87.9812 52.453C87.7897 52.7466 87.5992 53.0417 87.4096 53.3375C88.2193 53.7879 89.2398 53.8656 90.1925 53.8335C91.0407 53.7946 91.9705 53.5377 92.4431 52.9244C92.9332 52.2685 92.8673 51.3281 92.1793 50.7798C91.4328 50.1426 90.3427 49.9297 89.4376 49.489C89.0776 49.3135 88.7644 49.005 88.7918 48.6442C88.7973 48.2356 89.2389 47.9293 89.6996 47.8434C90.4499 47.7239 91.2413 47.836 91.9063 48.1415C92.03 47.8546 92.1555 47.5685 92.2847 47.2825C91.135 46.7939 89.63 46.6946 88.4987 47.2645ZM3.77504 46.956C3.77229 48.3656 3.77596 49.7744 3.77229 51.1847C3.75764 51.7322 3.91703 52.2947 4.30359 52.7488C4.81382 53.3703 5.71061 53.7095 6.601 53.8013C7.66817 53.9074 8.83978 53.8267 9.73382 53.2964C10.5124 52.8489 10.9137 52.0639 10.9228 51.3027C10.9256 49.8536 10.9219 48.4059 10.9237 46.9568C10.5115 46.9545 10.1002 46.9545 9.68985 46.956C9.68435 48.2924 9.6871 49.6302 9.68894 50.9673C9.68894 51.4633 9.57077 51.9936 9.15489 52.3754C8.78939 52.713 8.23428 52.8676 7.69474 52.9035C6.9729 52.9565 6.17413 52.8669 5.61993 52.453C5.14726 52.0654 4.99519 51.4969 4.99428 50.9666C4.99428 49.6302 4.99703 48.2924 4.99336 46.9553C4.58665 46.956 4.18176 46.956 3.77596 46.956M37.1561 53.7685C38.2636 53.752 39.3775 53.8096 40.4841 53.7341C41.7463 53.6594 42.9976 53.1418 43.6883 52.2596C44.9048 50.7686 44.4331 48.4888 42.5286 47.529C40.9237 46.7043 38.9479 47.0188 37.1561 46.9545C37.1524 49.2261 37.1524 51.4969 37.1561 53.7677M80.576 46.9553C80.5723 49.2268 80.575 51.4977 80.575 53.7685C80.9799 53.7692 81.3876 53.7692 81.7943 53.7685C81.7952 52.7899 81.7943 51.8121 81.7943 50.8336C82.2807 50.8336 82.768 50.8328 83.2553 50.8381C84.0001 51.8218 84.7521 52.8026 85.5216 53.7744C86.008 53.7677 86.4944 53.77 86.9799 53.7647C86.1308 52.7167 85.3183 51.65 84.5002 50.5863C85.0883 50.3839 85.6068 49.9985 85.7708 49.4831C85.9668 48.8421 85.8789 48.0728 85.2697 47.5924C84.732 47.1211 83.9112 46.9881 83.1555 46.9627C82.2953 46.9426 81.437 46.962 80.5769 46.9553M6.54329 56.8901C5.50176 57.1284 4.57657 57.6871 4.00771 58.4431C3.22909 59.4769 3.19061 60.8491 3.92069 61.9031C4.55825 62.8226 5.72069 63.4732 7.00039 63.6555C8.72802 63.902 10.6068 63.2835 11.5494 62.0652C12.448 60.9036 12.383 59.3252 11.3946 58.213C10.3155 56.9984 8.28924 56.477 6.54145 56.8901M12.4755 46.9553V53.7677L13.6324 53.767L13.6334 48.6106L18.5305 53.7685L19.5912 53.7677L19.5921 46.9575L18.4343 46.9583V52.1296L13.4987 46.9598L12.4746 46.9568M21.4709 46.9553L21.47 53.7662L22.7048 53.7685L22.7039 46.956L21.4718 46.9553M23.7702 46.9553L23.7812 47.8576L26.2068 47.8487V53.7655L27.4407 53.7662V47.8509L29.7729 47.8517L29.7738 46.9545H23.7702M30.8602 46.9553V53.7677H35.706L35.7051 52.8721L32.0804 52.8713V50.6991L35.4624 50.6999L35.4651 49.8274H32.0804L32.0795 47.8524L35.5998 47.8517L35.6007 46.956H30.8602M65.8984 46.9553L65.8975 53.7662L70.5482 53.767L70.5473 52.8699H67.1332L67.1323 46.9568L65.9002 46.9545M13.485 56.8445V63.6151L14.7463 63.6196L14.7518 60.5017H17.9699V59.6061L14.75 59.6054V57.7035H17.9708L17.9699 56.8445L13.4859 56.8453M28.6553 56.8445C28.6544 59.1011 28.6553 61.3585 28.6553 63.6151C30.2767 63.6204 31.8981 63.6144 33.5186 63.6196C33.5158 63.3283 33.5158 63.0362 33.5131 62.7449C32.3158 62.7457 31.1186 62.7427 29.9213 62.7471C29.9186 62.0226 29.9213 61.2995 29.9204 60.5757C31.0489 60.5734 32.1784 60.5749 33.306 60.5749V59.6913C32.1766 59.6905 31.048 59.6913 29.9204 59.6913C29.9213 59.0287 29.9204 58.3661 29.9204 57.7035C31.0837 57.7035 32.2489 57.7058 33.4123 57.7028C33.4114 57.4167 33.4114 57.1306 33.4114 56.8445C31.8266 56.8468 30.241 56.8445 28.6563 56.8453M34.8477 56.8445L34.8486 63.6189L36.0065 63.6181L36.0074 58.4513L40.9292 63.6189L42.0138 63.6159L42.0111 56.8445L40.8386 56.8438L40.8422 62.0211L35.9323 56.8498L34.8459 56.8445M43.495 56.8445V63.6204L48.3399 63.6174V62.7471L44.7262 62.7494L44.7271 60.5772L48.1155 60.5764V59.6928L44.728 59.692L44.7271 57.7065L48.2034 57.7058V56.8468H43.4941M48.9088 56.8445L48.9079 57.7028L51.3473 57.7035V63.6204L52.5812 63.6159V57.7058L54.9134 57.7006L54.9143 56.846L48.9088 56.8453M55.5683 56.8445L55.5692 57.7006L58.0086 57.7035L58.0077 63.6189H59.2425L59.2416 57.7035L61.5757 57.7013L61.5747 56.843L55.5692 56.8438M64.5179 56.8893C63.3143 57.1635 62.2599 57.8768 61.7552 58.8136C61.1131 59.9236 61.3018 61.3115 62.216 62.284C63.4773 63.7033 66.0505 64.1193 67.9183 63.2857C69.4856 62.6254 70.4538 61.1165 70.1314 59.6905C69.9253 58.4924 68.8526 57.4399 67.474 57.0126C66.5424 56.7011 65.4844 56.6802 64.5189 56.8901M71.1775 56.8445L71.1766 63.6166H72.3537L72.3454 58.4632L77.2306 63.6196L78.3115 63.6151L78.3106 56.8438L77.1381 56.8445V62.0032L72.2419 56.8453L71.1784 56.843M38.3845 47.8494C39.2648 47.877 40.1754 47.7635 41.0273 47.9966C41.8828 48.1975 42.601 48.745 42.8923 49.4338C43.3586 50.4676 42.9976 51.786 41.8315 52.4105C40.8276 52.9983 39.5451 52.8609 38.3845 52.8721V47.8502V47.8494ZM59.2059 47.889C60.8071 47.5133 62.6245 48.3708 63.0266 49.687C63.5048 50.9695 62.4953 52.4396 60.9234 52.8049C59.8196 53.088 58.5289 52.825 57.7421 52.1288C56.9946 51.5193 56.7005 50.5856 56.9552 49.7535C57.2126 48.8578 58.1149 48.1153 59.2059 47.889ZM73.8441 47.9443C74.6895 47.706 75.6578 47.7822 76.4328 48.1475C77.2792 48.5374 77.8654 49.2709 77.9772 50.0567C78.1576 51.0995 77.4285 52.1841 76.2743 52.6458C75.0028 53.1873 73.3054 52.8923 72.4279 51.963C71.5842 51.1533 71.5018 49.8909 72.2099 49.0027C72.5955 48.5202 73.1671 48.1258 73.845 47.9435L73.8441 47.9443ZM81.7952 47.824H82.6663C83.1115 47.824 83.5439 47.8315 83.9515 47.9906C84.7924 48.3066 84.8154 49.4323 84.0028 49.7833C83.5906 49.9589 83.1244 49.9761 82.6663 49.9761H81.7952V47.824ZM6.93718 57.7738C8.52466 57.3741 10.364 58.1943 10.801 59.5023C11.161 60.43 10.779 61.5072 9.88039 62.1443C9.01199 62.7882 7.68924 62.9727 6.60832 62.5992C5.41657 62.2168 4.59581 61.1889 4.6581 60.1439C4.69016 59.0638 5.65657 58.0524 6.93718 57.7738ZM64.9128 57.7738C66.4471 57.3786 68.2233 58.1338 68.7326 59.3715C69.1466 60.2746 68.848 61.3615 67.9961 62.0323C67.1808 62.7203 65.8673 62.9668 64.7634 62.6485C63.6578 62.3505 62.8141 61.5184 62.6685 60.5764C62.4303 59.3581 63.4517 58.086 64.9137 57.773L64.9128 57.7738ZM22.9494 57.7065H23.6932C24.2291 57.7065 24.7302 57.6908 25.2037 57.906C25.9329 58.2563 25.8999 59.2416 25.1589 59.5717C24.7146 59.757 24.1851 59.7458 23.6923 59.7458H22.9485L22.9494 57.7065ZM22.9402 60.6123H24.1338C24.6083 60.6085 25.0343 60.6272 25.4786 60.7759C26.3305 61.0821 26.3992 62.1996 25.5683 62.5522C25.1323 62.7337 24.6147 62.7546 24.1338 62.7546H22.9402V60.6123ZM21.7128 56.8475V63.6219C22.7341 63.6166 23.7555 63.6219 24.776 63.6196C25.5692 63.6017 26.423 63.4142 26.9524 62.9003C27.8914 62.0226 27.4196 60.3785 25.9732 60.0842C26.8764 59.6845 27.2465 58.7299 26.8709 57.9613C26.5705 57.2598 25.6398 56.8699 24.7677 56.8505C23.7491 56.8408 22.7305 56.8505 21.7118 56.8475" fill="white"/>
</g>
<defs>
<clipPath id="clip0_347_8638">
<rect width="120" height="120" fill="white"/>
</clipPath>
</defs>
</svg>
