<svg width="120" height="120" viewBox="0 0 120 120" fill="none" xmlns="http://www.w3.org/2000/svg">
<path d="M62.5036 52.8226H58.9011L56.8694 55.5342H60.47L62.5036 52.8226ZM71.8486 59.9574C69.9615 60.0859 66.6273 61.4754 64.8113 64.5115C62.9954 67.5475 62.9887 69.4218 62.9887 69.4218C62.9887 69.4218 63.9464 68.5576 65.4147 67.6527C66.8829 66.7478 67.9756 66.4264 67.9756 66.4264C67.9756 66.4264 68.248 65.3117 68.9261 64.1459C69.5854 63.0118 70.6317 61.8311 71.9264 61.5632C74.5506 61.0195 73.2939 64.9619 71.3664 67.5327C70.3304 68.9143 66.6556 72.885 63.492 72.885C60.3284 72.885 59.7178 70.3743 60.385 68.0268C61.0516 65.6798 61.9744 62.6978 66.5899 57.2795C71.2055 51.8612 76.2014 48.649 79.0932 47.2991C82.0634 45.9136 83.2736 46.5208 83.2736 46.5208C83.2736 46.5208 79.4819 48.4431 77.3248 50.7559C75.2624 52.9665 74.0316 55.4539 74.9887 56.6728C75.9 57.8341 79.1125 57.8559 82.6498 53.6521C86.1413 49.5023 85.2595 47.0347 85.2595 47.0347C85.2595 47.0347 85.6814 46.9216 85.9647 46.8904C87.6674 46.7038 89.0313 47.0734 91.1432 47.9649C93.3558 48.899 95.4785 50.3972 98.3872 51.6231C99.263 50.8333 100.238 49.9944 101.263 49.1758C97.3415 47.6047 94.3647 45.3654 90.5188 45.1506C87.1713 44.964 84.5321 45.9681 84.5321 45.9681C84.5321 45.9681 83.5111 44.8237 80.3613 45.1972C77.2115 45.5713 67.5073 48.9109 59.2507 59.7942C51.7855 69.6341 55.303 75.2731 60.6689 75.2086C66.4857 75.1382 72.0192 69.8137 73.8918 65.4228C75.7644 61.0319 73.5513 59.8418 71.8486 59.9574ZM83.2676 50.8139C82.29 52.7755 80.8507 54.1462 79.4343 55.1929C77.6178 56.5358 76.6209 56.4907 76.1893 56.2208C75.0623 55.5144 76.5745 52.8504 79.1993 50.4682C81.8132 48.0954 84.0638 47.3572 84.0638 47.3572C84.0638 47.385 84.438 48.462 83.2676 50.8139ZM115.659 47.9535C112.998 49.3629 109.307 50.6393 105.765 50.358C104.869 51.1235 103.909 52.0055 102.945 52.9704C109.093 53.9686 114.47 50.8338 117.333 48.1628C119.119 46.4975 120 45.0107 120 45.0107C120 45.0107 118.295 46.5575 115.659 47.9535Z" fill="#F40009"/>
<path d="M112.751 60.32H108.963L108.347 61.1028C108.347 61.1028 107.575 59.9554 106.266 59.9737C104.024 60.0055 101.78 61.4144 99.1727 63.8581C97.2615 65.6485 94.0937 69.6346 94.0937 69.6346C94.0937 69.6346 91.6629 72.7178 90.4334 72.4762C88.3371 72.0639 92.1927 65.6798 92.1927 65.6798C92.1927 65.6798 94.2196 64.6494 96.8462 62.8302C98.5001 61.6852 100.403 60.1102 102.152 58.6502C103.742 57.3221 105.617 55.5189 107.399 53.5434C106.942 53.603 106.475 53.6431 105.998 53.6625C104.4 55.3968 102.694 56.9491 101.244 58.1829C99.0841 60.0194 97.0976 61.522 95.6541 62.4805C94.2709 63.3982 93.3837 63.8115 93.3837 63.8115C93.3837 63.8115 96.0223 59.3511 100.42 54.423C104.818 49.4953 110.976 44.9174 110.493 47.0893C110.355 47.7129 109.885 48.6073 109.174 49.669C109.674 49.5831 110.16 49.476 110.629 49.3539C111.689 47.5536 112.05 46.0698 111.259 45.6412C108.032 43.892 99.8242 51.1299 95.7095 55.3338C91.5954 59.5377 87.8718 65.962 87.8718 65.962C87.8718 65.962 87.2282 66.1843 86.5164 66.2954C86.0673 66.3659 85.8757 66.3505 85.8021 66.3267C85.7654 66.3143 85.7612 66.2934 85.7612 66.2934C85.7612 66.2934 89.3804 60.7243 85.675 59.9856C82.0991 59.2733 75.9032 64.7183 73.7003 68.506C72.1887 71.1045 71.3359 74.3757 73.9281 75.1546C76.7355 75.9984 81.5042 71.7797 82.6253 70.5538C83.7463 69.3275 85.1458 67.2886 85.1458 67.2886C85.1458 67.2886 85.8305 67.2588 86.2048 67.2137C86.9208 67.1269 87.2559 67.0544 87.2559 67.0544C87.2559 67.0544 86.7918 68.055 86.2897 69.3235C85.3537 71.6889 84.5093 75.0732 87.8791 75.2325C90.026 75.3332 93.1757 72.1418 93.1757 72.1418C93.1757 72.1418 92.3283 74.9795 95.1146 75.2325C97.1717 75.419 100.165 72.8031 100.165 72.8031C100.165 72.8031 99.5132 75.0568 101.599 75.2553C103.384 75.4254 105.918 73.7025 107.996 71.807C110.266 69.7373 112.006 67.4706 112.006 67.4706H110.687C110.687 67.4706 107.767 71.1189 105.716 72.0952C104.033 72.8969 104.61 71.6125 105.12 70.9393C105.683 70.1967 112.749 60.32 112.749 60.3205L112.751 60.32ZM83.8897 67.1913C83.8379 67.2891 82.8898 68.6469 81.8755 69.7145C80.7828 70.8649 78.7824 72.5962 77.58 72.2301C75.7001 71.6576 77.7686 68.2867 79.1211 66.6516C80.4736 65.0165 80.6273 64.9059 80.6652 64.8632C80.7032 64.8205 80.7412 64.7813 80.7743 64.8319C80.8075 64.8825 81.2378 65.5543 82.0876 66.1372C82.9411 66.7225 83.762 67.0316 83.8283 67.051C83.8946 67.0703 83.9422 67.0936 83.8897 67.1908V67.1913ZM84.7353 65.9764C84.6166 66.1391 84.5316 66.1471 84.2851 66.093C83.8512 65.9963 82.0533 65.3122 82.0671 63.7946C82.0798 62.3158 84.6124 60.8672 85.6057 61.4863C86.5326 62.0638 86.0896 63.5401 85.7401 64.2932C85.3911 65.0458 84.8131 65.8698 84.7353 65.9764ZM101.944 69.6346C101.444 70.1991 101.025 70.7091 100.648 71.0673C99.8417 71.8338 99.3155 72.1904 98.8466 72.2847C98.6104 72.3318 98.3175 72.3204 98.1234 72.2237C97.4351 71.8789 97.9173 70.5365 99.1154 68.7317C100.212 67.0822 101.479 65.4317 103.561 63.5317C105.652 61.6242 106.452 61.5325 107.037 61.5543C107.529 61.5716 107.599 61.9978 107.599 61.9978C107.599 61.9978 107.564 62.0965 107.486 62.2081C106.796 63.1929 103.319 68.0823 101.943 69.6346H101.944ZM46.0684 72.0208C43.7714 70.8525 40.8248 70.1029 37.4394 70.0786C28.7181 70.0161 19.2224 73.5036 12.7908 73.5507C5.20512 73.6053 4.82722 68.8017 5.38955 66.1639C6.59979 60.4812 11.4968 55.06 14.6454 52.2015C17.7946 49.343 21.0944 47.125 23.838 46.558C26.5815 45.991 26.3235 47.7084 25.9878 47.9431C25.6413 47.949 24.9765 48.0105 24.5992 48.2253C24.0085 48.5607 23.2196 49.1749 23.1701 50.1487C23.0852 51.6489 25.4406 51.9118 27.1432 48.7705C28.3046 46.6279 26.4628 45.1739 24.9331 45.034C22.835 44.8415 19.6286 45.4418 15.8014 47.4663C9.14022 50.9896 0.230335 58.8134 0.00311267 67.494C-0.12647 72.4459 3.80381 75.2325 9.19628 75.2325C14.5887 75.2325 21.9099 72.5144 29.0586 72.4449C33.485 72.4137 36.3496 73.6906 37.8004 75.7702C37.8004 75.7702 39.2421 73.7963 42.4527 73.6906C45.629 73.5854 49.1259 74.3182 51.9966 75.9791C51.0389 74.8401 48.3316 73.1717 46.0678 72.0208H46.0684Z" fill="#F40009"/>
<path d="M26.2081 52.519C22.5521 51.7521 16.4804 56.8747 13.9219 61.0439C12.344 63.6156 11.652 66.8476 14.4613 67.6885C17.2705 68.5294 22.0368 64.3136 23.1578 63.0877C24.2789 61.8614 26.1135 59.4053 26.1135 59.4053C26.1135 59.4053 26.6764 59.316 27.0453 59.2455C27.4142 59.1751 28.0102 59.0352 28.0102 59.0352C28.0102 59.0352 27.3189 60.0492 26.6951 61.0885C25.9556 62.3208 23.9462 66.423 27.8258 67.6533C31.5325 68.8285 36.8092 63.9276 37.0865 63.8349C37.0865 63.8349 35.5158 67.1745 37.9556 67.6885C40.6328 68.252 43.5668 65.4288 43.5668 65.4288C43.5668 65.4288 42.9491 67.5481 45.035 67.747C48.7706 68.1027 55.3782 60.2382 55.3782 60.2382H54.0582C54.0582 60.2382 50.6957 63.7996 49.0786 64.5353C47.4616 65.271 48.0432 63.9638 48.4826 63.3794C49.0431 62.6358 56.1864 52.8112 56.1864 52.8112H52.3984L51.959 53.3832C51.959 53.3832 51.1785 52.4025 49.8736 52.4724C46.0771 52.6763 41.5598 57.6571 39.5733 59.8522C37.5873 62.0479 33.3027 66.2399 31.0467 65.4928C28.5882 64.6782 31.0328 60.9387 32.6499 58.743C34.4104 56.3528 37.5307 53.9855 38.7644 53.9671C40.2827 53.9438 39.6866 55.0764 39.6866 55.0764C39.6866 55.0764 38.5517 54.9598 37.729 55.8121C37.1467 56.4148 36.6646 57.2949 37.2179 57.7736C38.1117 58.547 39.2755 57.7617 39.9705 56.8856C42.1372 54.1556 40.5521 52.717 38.85 52.5071C35.2241 52.0592 31.8839 55.8935 29.3446 57.3182C27.5829 58.3059 26.847 58.229 26.847 58.229C26.847 58.229 29.9034 53.2939 26.2087 52.5186L26.2081 52.519ZM42.623 61.3475C43.7193 59.6975 45.2128 58.1045 47.1566 56.1078C49.1003 54.111 50.0677 53.9493 50.6529 53.9711C51.1453 53.989 51.2152 54.4146 51.2152 54.4146C51.2152 54.4146 46.992 60.4714 45.4599 62.1997C44.9597 62.7643 44.5318 63.2425 44.1545 63.6012C43.348 64.3677 42.7622 64.7382 42.3102 64.8305C42.0739 64.8781 41.781 64.8662 41.5863 64.769C40.898 64.4242 41.423 63.1517 42.6224 61.3475H42.623ZM24.6995 59.382C24.6471 59.4792 23.4411 61.1207 22.4273 62.1883C21.3352 63.3388 19.3167 65.0771 18.1143 64.7109C16.2345 64.1385 18.2397 60.7908 19.5922 59.1562C20.9447 57.5211 21.1429 57.3108 21.1815 57.2686C21.2195 57.2255 21.2569 57.1863 21.29 57.2374C21.3232 57.288 21.7535 58.0162 22.6853 58.5064C23.6171 58.997 24.5724 59.2227 24.6387 59.2421C24.705 59.2614 24.7526 59.2852 24.7001 59.382H24.6995ZM26.272 56.8266C25.9225 57.5802 25.6102 58.0549 25.5458 58.167C25.4421 58.3466 25.1823 58.2891 25.1823 58.2891C24.8864 58.2782 22.5858 57.8461 22.5991 56.3285C22.6118 54.8497 25.145 53.4011 26.1376 54.0202C27.0646 54.5977 26.6216 56.074 26.272 56.8266ZM109.901 73.4322C109.68 73.329 109.434 73.2779 109.164 73.2779C108.893 73.2779 108.647 73.3295 108.426 73.4322C108.205 73.5354 108.031 73.6753 107.904 73.8534C107.777 74.031 107.713 74.2245 107.713 74.4328C107.713 74.6412 107.777 74.8381 107.904 75.0147C108.03 75.1908 108.205 75.3307 108.426 75.4334C108.647 75.5366 108.893 75.5877 109.164 75.5877C109.434 75.5877 109.68 75.5361 109.901 75.4334C110.122 75.3307 110.296 75.1908 110.423 75.0147C110.55 74.8386 110.614 74.6446 110.614 74.4328C110.614 74.221 110.55 74.031 110.423 73.8534C110.297 73.6758 110.122 73.5354 109.901 73.4322ZM110.161 74.911C110.065 75.0519 109.93 75.1626 109.757 75.2434C109.584 75.3238 109.386 75.364 109.164 75.364C108.941 75.364 108.743 75.3238 108.57 75.2434C108.397 75.1631 108.263 75.0524 108.166 74.911C108.07 74.7702 108.022 74.6104 108.022 74.4328C108.022 74.2552 108.07 74.0999 108.166 73.9591C108.262 73.8182 108.398 73.7075 108.572 73.6267C108.747 73.5458 108.944 73.5061 109.164 73.5061C109.383 73.5061 109.58 73.5463 109.755 73.6267C109.93 73.707 110.065 73.8177 110.161 73.9591C110.257 74.0999 110.305 74.2582 110.305 74.4328C110.305 74.6074 110.257 74.7702 110.161 74.911Z" fill="#F40009"/>
<path d="M109.708 74.4139C109.749 74.3588 109.77 74.2973 109.77 74.2299C109.77 74.1366 109.733 74.0587 109.66 73.9952C109.586 73.9317 109.487 73.9 109.364 73.9H108.629V74.9452H108.953V74.5642H109.199L109.497 74.9452H109.867L109.534 74.5389C109.609 74.5107 109.667 74.469 109.708 74.4139ZM109.4 74.3038C109.376 74.3221 109.343 74.3311 109.302 74.3311H108.953V74.1282H109.302C109.343 74.1282 109.376 74.1376 109.4 74.1555C109.424 74.1738 109.436 74.1986 109.436 74.2294C109.436 74.2601 109.424 74.2849 109.4 74.3033V74.3038Z" fill="#F40009"/>
</svg>
