<svg width="120" height="120" viewBox="0 0 120 120" fill="none" xmlns="http://www.w3.org/2000/svg">
<path d="M14.779 40.0034H15.8462C19.5508 40.0833 23.1951 41.5609 25.8126 44.1767C24.8461 45.1551 23.8595 46.0936 22.9132 47.072C21.4434 45.7541 19.6716 44.7358 17.7388 44.3764C14.8797 43.7773 11.7992 44.3165 9.40323 45.9338C6.78579 47.6311 5.01399 50.5065 4.63144 53.5815C4.20862 56.6166 5.07439 59.8114 7.06767 62.1676C8.98041 64.4639 11.8999 65.9016 14.92 66.0014C17.7388 66.1612 20.6784 65.3025 22.732 63.3457C24.3428 61.9679 25.0877 59.8713 25.3293 57.8346C21.9871 57.8346 18.6448 57.8546 15.3025 57.8346V53.7213H29.3763C30.1011 58.1341 29.0542 63.1061 25.6716 66.261C23.4166 68.4974 20.2958 69.8153 17.1146 70.0748C14.0341 70.3744 10.8529 69.7953 8.11465 68.3177C4.83278 66.5805 2.21534 63.6452 0.926757 60.1908C-0.281292 57.0159 -0.301426 53.4217 0.826086 50.2269C1.85293 47.3116 3.82607 44.7358 6.36298 42.9387C8.79921 41.1615 11.7589 40.1831 14.779 40.0034Z" fill="#3780FF"/>
<path d="M95.5176 41.0416H99.8263V69.5556C98.3968 69.5556 96.9471 69.5755 95.5176 69.5356C95.5377 60.0509 95.5176 50.5463 95.5176 41.0416Z" fill="#38B137"/>
<path d="M38.9604 50.9259C41.6181 50.4267 44.4973 50.9858 46.6919 52.5633C48.6852 53.961 50.0744 56.1575 50.4972 58.5536C51.0409 61.3291 50.3563 64.3642 48.5442 66.5607C46.5912 69.0167 43.3899 70.3346 40.2691 70.1349C37.4101 69.9751 34.6315 68.5574 32.9403 66.2412C31.0275 63.6853 30.5644 60.171 31.6114 57.1758C32.6584 53.961 35.6181 51.505 38.9604 50.9259ZM39.5644 54.7198C38.4772 54.9993 37.4705 55.6183 36.7456 56.4969C34.7926 58.8132 34.9134 62.5871 37.0678 64.7436C38.296 65.9816 40.1483 66.5607 41.8597 66.2212C43.4503 65.9417 44.8396 64.8834 45.6047 63.4856C46.9335 61.1095 46.551 57.8347 44.5174 55.9777C43.2087 54.7797 41.2959 54.2805 39.5644 54.7198Z" fill="#FA3913"/>
<path d="M60.3027 50.9259C63.3429 50.3469 66.6651 51.1855 68.9402 53.3021C72.6449 56.5968 73.0476 62.7668 69.8865 66.5607C67.9738 68.9568 64.8731 70.2747 61.8128 70.1349C58.8933 70.055 56.0141 68.6174 54.2826 66.2412C52.3296 63.6254 51.9068 60.0312 53.0141 56.9762C54.1215 53.8612 57.0208 51.485 60.3027 50.9259ZM60.9067 54.7198C59.8195 54.9994 58.8128 55.6184 58.0879 56.477C56.1551 58.7533 56.2356 62.4673 58.3094 64.6438C59.5376 65.9417 61.4503 66.5807 63.2221 66.2212C64.7926 65.9217 66.202 64.8834 66.9671 63.4857C68.2758 61.0895 67.8933 57.8148 65.8396 55.9578C64.5309 54.7598 62.6181 54.2805 60.9067 54.7198Z" fill="#FCBD06"/>
<path d="M78.4028 52.0837C80.7182 50.646 83.7987 50.2467 86.2954 51.4847C87.0806 51.8241 87.7249 52.4032 88.3491 52.9823C88.3692 52.4431 88.3491 51.884 88.3692 51.3249C89.7182 51.3449 91.0672 51.3249 92.4363 51.3449V68.9565C92.4162 71.6122 91.7316 74.4276 89.7987 76.3645C87.6846 78.501 84.443 79.16 81.5236 78.7207C78.4028 78.2614 75.6847 76.0051 74.4766 73.1497C75.6847 72.5706 76.9531 72.1114 78.2014 71.5722C78.9061 73.2096 80.3357 74.6073 82.1276 74.9268C83.9195 75.2463 85.9934 74.807 87.1611 73.3294C88.4095 71.8118 88.4095 69.7352 88.3491 67.8782C87.4229 68.7768 86.3558 69.5755 85.0672 69.875C82.2685 70.6537 79.188 69.6953 77.0337 67.8183C74.8592 65.9413 73.5706 63.046 73.6914 60.1707C73.7518 56.9159 75.6041 53.781 78.4028 52.0837ZM82.5706 54.6396C81.3424 54.8393 80.1947 55.5182 79.4095 56.4567C77.5169 58.693 77.5169 62.2673 79.4296 64.4637C80.5169 65.7616 82.2685 66.4805 83.9598 66.3008C85.5504 66.141 87.0202 65.1426 87.8054 63.7648C89.1343 61.4286 88.9128 58.2537 87.1209 56.217C86.0135 54.9591 84.2417 54.3401 82.5706 54.6396Z" fill="#3780FF"/>
<path d="M105 53.1024C107.416 50.866 111.141 50.1073 114.242 51.2854C117.181 52.3836 119.054 55.1591 120 58.0145C115.631 59.8116 111.282 61.5887 106.913 63.3858C107.517 64.524 108.443 65.5623 109.691 65.9816C111.443 66.6006 113.537 66.381 115.007 65.2228C115.591 64.7836 116.054 64.2045 116.497 63.6454C117.604 64.3842 118.711 65.103 119.819 65.8418C118.248 68.1781 115.611 69.8154 112.772 70.075C109.631 70.4544 106.289 69.2563 104.255 66.8203C100.913 62.9865 101.235 56.5568 105 53.1024ZM107.154 56.7965C106.47 57.7749 106.188 58.9729 106.208 60.151C109.128 58.953 112.047 57.7549 114.966 56.5369C114.483 55.4187 113.315 54.7398 112.128 54.5601C110.215 54.2206 108.221 55.239 107.154 56.7965Z" fill="#FA3913"/>
</svg>
