<svg width="120" height="120" viewBox="0 0 120 120" fill="none" xmlns="http://www.w3.org/2000/svg">
<path fill-rule="evenodd" clip-rule="evenodd" d="M104.816 48.2863C105.529 41.0919 98.6894 35.6953 92.6462 32.6261C90.394 31.5178 88.0324 30.6189 85.6377 29.797C74.921 26.386 62.3236 25.1947 50.3531 26.543C39.3246 27.9468 28.6079 30.3788 20.1997 37.4685C16.1797 40.9349 13.7883 46.1436 15.7518 51.1431C18.3158 57.2261 25.1584 61.2743 31.2547 63.6293C49.295 70.402 73.833 70.1649 91.3062 62.4133C97.2897 59.6089 103.986 54.9542 104.816 48.2863ZM112.458 93.3304V77.23V77.2269H100.083C97.2831 77.2269 96.3113 78.4737 96.3113 80.7056V93.3304H100.083V88.7004H108.686V93.3304H112.458ZM101.605 80.1853H108.686L108.69 85.5573H100.086V81.8662C100.086 80.524 100.414 80.25 101.605 80.1853ZM45.5935 31.1454L45.4774 31.5425C37.9813 39.4511 33.0525 48.631 28.3791 57.7556C27.71 58.3382 27.0553 57.9237 26.4279 57.5266C26.1999 57.3823 25.9755 57.2402 25.7554 57.1492C21.5961 54.6094 17.8348 50.5089 18.9194 45.6419C20.6574 39.2941 27.6958 35.9047 33.5699 33.605C37.0967 32.3414 40.7547 31.4191 44.4856 30.8529C44.5338 30.8533 44.5837 30.8528 44.6346 30.8524C45.0011 30.8491 45.4187 30.8453 45.5935 31.1454ZM83.1581 32.5723C83.0321 32.5241 82.9053 32.4755 82.7852 32.4168C75.6341 30.5635 68.1082 29.4553 60.1245 29.5045C56.4196 29.5569 53.7429 32.7585 52.2305 35.4829C51.0895 37.6502 49.7793 40.2422 50.7478 42.7296C50.9898 43.1206 51.3138 43.4627 51.7006 43.7355C52.0874 44.0084 52.5293 44.2065 53 44.3181C56.0685 44.9424 58.9096 44.1916 61.6875 43.4575C62.4437 43.2576 63.1953 43.059 63.9455 42.8897C70.8446 40.7994 77.5977 38.4198 83.4983 34.1345C83.547 34.0794 83.6031 34.0241 83.6603 33.9677C83.9033 33.728 84.1678 33.467 83.9826 33.1033C83.7989 32.8176 83.4812 32.696 83.1581 32.5723ZM69.362 52.1497C69.9895 55.1465 68.4944 57.6803 67.0575 60.1155C66.9223 60.3445 66.7877 60.5727 66.6554 60.8002C64.9439 63.2599 62.1246 65.3748 58.7315 65.0608C51.2966 64.9653 43.9117 63.9149 36.7872 61.9393C36.4594 61.8605 36.1747 61.6719 35.9879 61.4098C35.8453 61.0403 36.0476 60.6956 36.3328 60.4585C42.3534 55.9329 49.4679 53.7277 56.5554 51.5308L56.5587 51.5298C56.885 51.4287 57.2113 51.3275 57.5374 51.2262L57.5724 51.2168C60.3251 50.4776 63.2521 49.6916 66.3436 50.0625C67.6239 50.2195 68.9075 51.0384 69.362 52.1497ZM100.968 48.9481C102.053 44.5059 98.8586 40.8271 95.3262 38.1304C95.0675 37.9695 94.816 37.7905 94.5638 37.6109C93.8169 37.0791 93.0643 36.5432 92.1022 36.4649C91.8603 36.5458 91.6446 36.6825 91.4753 36.8621C90.1088 39.6666 88.6262 42.5234 87.0308 45.3001C83.5812 51.4632 79.6475 57.5463 74.4633 62.9705L74.377 63.34C74.4233 63.6005 74.6824 63.6116 74.9003 63.621C74.9476 63.623 74.9929 63.6249 75.0337 63.6293C78.6028 63.3192 81.899 62.299 85.1612 61.2894L85.1613 61.2893L85.379 61.222C91.5052 59.0024 99.2003 55.5083 100.968 48.9481Z" fill="#397DB7"/>
<path fill-rule="evenodd" clip-rule="evenodd" d="M92.5395 89.4181V80.706C92.5395 79.1206 91.9822 77.2273 88.7682 77.2304H76.874V93.3308H88.7682C90.8611 93.3308 92.5395 92.1918 92.5395 89.4181ZM87.133 80.1826C88.148 80.1826 88.7251 80.7922 88.7251 81.6726V88.7008C88.7251 89.3534 88.6123 90.1753 87.133 90.2461H80.6486V80.1826H87.133Z" fill="#397DB7"/>
<path d="M0 77.2271H3.77125V83.5718H12.2093V77.2271H15.9805V93.3274H12.2093V86.7549H3.77125V93.3274H0V77.2271ZM22.4451 77.2271L27.1716 83.8057L31.8417 77.2271H36.4222L29.0555 87.5184V93.3274H25.2843V87.5184L17.8645 77.2271H22.4451ZM57.5903 77.2271H69.7432C71.4746 77.2271 73.1529 77.4518 73.1032 80.7057V93.3305H69.3319V81.8632C69.3319 80.4748 69.1528 80.1824 67.982 80.1824H61.3616V93.3305H57.5903V77.2271ZM116.229 77.2301H120V93.3305H116.229V77.2301ZM38.3062 93.3274H50.4591C52.8771 93.3274 53.8688 92.6779 53.8191 89.4424V77.2271H50.0478V88.719C50.0478 90.0981 49.8687 90.2644 48.6945 90.2644H42.0741V77.2271H38.3029L38.3062 93.3274Z" fill="#397DB7"/>
</svg>
