<svg width="120" height="120" viewBox="0 0 120 120" fill="none" xmlns="http://www.w3.org/2000/svg">
<path fill-rule="evenodd" clip-rule="evenodd" d="M36.1543 60.2595C36.1543 60.623 36.1543 60.9859 36.3467 61.5311C36.5392 63.7108 38.2697 64.9811 40.5775 64.9811C43.0771 65.1635 44.6158 64.4371 45.3855 62.8015H51.5392C49.8086 67.5248 45.3855 69.341 40.1933 69.341C34.232 69.341 30.1937 66.4338 30.1937 60.4407C30.1937 53.3571 35.0017 47.9079 42.6935 47.9079C48.2705 47.9079 52.5013 50.9957 52.5013 56.8077C52.5013 57.8975 52.5013 59.1691 52.3089 60.2589L36.1543 60.2595ZM46.9236 56.2637C47.3078 53.9029 45.5773 52.0861 42.8846 52.0861C39.8078 52.0861 37.8848 53.9029 37.1158 56.2637H46.9236ZM54.2305 48.4538H60L60.5766 60.2595H60.7697L66.5385 48.4538H72.3074L73.0771 60.2595H73.2695L79.039 48.4538H85.192L74.6152 68.7958H68.4615L67.6924 57.7164L62.1154 68.7958H55.9617L54.2305 48.4538ZM110.961 68.7958H105.577L112.307 39.5534H117.499L110.961 68.7958ZM108.076 80.2387L110.192 71.3389H2.11601L0 80.2387H108.076ZM16.9236 60.0778L21.7316 39.0088H31.9236L27.6929 58.988C26.7307 64.6176 23.6545 68.9782 14.8082 68.9782H2.50085L4.23138 62.4386H14.4234C14.4234 62.4386 16.5387 62.8021 16.9236 60.0778ZM89.231 60.2595C89.0379 60.623 89.0379 60.9859 89.231 61.5311C89.6158 63.7108 91.1539 64.9811 93.4617 64.9811C95.9606 65.1635 97.4994 64.4371 98.4615 62.8015H104.423C102.692 67.5248 98.4615 69.341 93.2686 69.341C87.308 69.341 83.076 66.4338 83.076 60.4407C83.076 53.3571 87.884 47.9079 95.7688 47.9079C101.153 47.9079 105.384 50.9957 105.384 56.8077C105.384 57.8975 105.384 59.1691 105.192 60.2589L89.231 60.2595ZM99.9996 56.2637C100.193 53.9029 98.6526 52.0861 95.7688 52.0861C92.692 52.0861 90.7691 53.9029 90 56.2637H99.9996ZM115.769 79.3312C113.846 79.3312 112.499 77.8773 112.499 76.0611C112.499 74.2449 113.846 72.974 115.769 72.974C117.499 72.974 118.846 74.2449 118.846 76.0611C118.846 77.8773 117.499 79.3312 115.769 79.3312ZM115.769 80.2387C118.077 80.2387 120 78.4225 120 76.0611C120 73.8815 118.077 71.8842 115.769 71.8842C113.269 71.8842 111.346 73.8815 111.346 76.0611C111.346 78.4225 113.269 80.2387 115.769 80.2387ZM116.73 76.424C117.499 76.424 118.077 76.0605 118.077 75.3342C118.077 74.2443 117.5 73.8815 116.154 73.8815H113.846V78.4225H114.807V76.424H115.576L116.73 78.4225H117.884L116.73 76.424ZM114.807 75.88V74.6078H115.961C116.346 74.6078 117.115 74.6078 117.115 75.153C117.115 75.697 116.73 75.8794 116.154 75.8794L114.807 75.88Z" fill="#CC4F4F"/>
</svg>
