<svg width="120" height="120" viewBox="0 0 120 120" fill="none" xmlns="http://www.w3.org/2000/svg">
<path fill-rule="evenodd" clip-rule="evenodd" d="M0 47.0024H31.4861V73.581H0V47.0024ZM39.6365 57.7501H40.9405V58.6553H35.8708V57.7501H37.1421V48.746H35.8708V47.8408H40.1093C40.3485 47.8408 40.6012 47.8466 40.8674 47.8567C41.1342 47.8676 41.403 47.8949 41.6743 47.9375C42.4568 48.0457 43.1739 48.323 43.8262 48.7702C44.4785 49.218 44.8044 49.996 44.8044 51.106C44.8044 52.022 44.4702 52.8222 43.8018 53.5066C43.1335 54.1911 41.8699 54.5276 40.0118 54.5168H39.6372L39.6365 57.7501ZM39.6365 53.7089H39.7674C39.7783 53.7197 39.7943 53.7248 39.8161 53.7248H39.8816C40.0015 53.7248 40.1259 53.7166 40.2561 53.7007C40.3863 53.6848 40.5172 53.6549 40.6474 53.6116C41.0823 53.5035 41.4761 53.2586 41.8295 52.8763C42.1829 52.494 42.3593 51.8712 42.3593 51.0087C42.3593 50.2867 42.1746 49.7638 41.8051 49.4406C41.4357 49.1175 41.0335 48.9076 40.5986 48.8103C40.4741 48.7897 40.3492 48.7708 40.2241 48.7536C40.1052 48.7377 39.9854 48.7296 39.8655 48.7295H39.7513C39.7404 48.7403 39.7244 48.7454 39.7026 48.7454H39.6372L39.6365 53.7089ZM51.2101 47.8402C52.5032 47.851 53.4512 48.0616 54.0548 48.4706C54.6577 48.8802 55.0573 49.3325 55.2529 49.8287C55.3184 49.9902 55.3645 50.1525 55.3915 50.314C55.4184 50.4756 55.4319 50.6321 55.4319 50.7828C55.4319 51.5048 55.2363 52.0811 54.845 52.5124C54.4544 52.9431 54.0246 53.2668 53.5577 53.4818C53.3839 53.5575 53.2152 53.6218 53.0523 53.6759C52.8893 53.7299 52.7315 53.7725 52.5795 53.805V53.9023C52.6013 53.9023 52.6232 53.9049 52.645 53.9106C52.6664 53.9158 52.6883 53.9186 52.7104 53.9188C52.8521 53.9405 52.9823 53.9888 53.1016 54.0645C53.2216 54.1396 53.3139 54.242 53.3787 54.3711L54.5525 56.6344C54.6179 56.7527 54.6744 56.8583 54.7238 56.9499C54.7732 57.0415 54.8245 57.1248 54.8783 57.2005C55.0413 57.4162 55.2234 57.5644 55.4248 57.6452C55.6262 57.726 55.911 57.7934 56.2805 57.8468V58.5421C56.0771 58.6298 55.8636 58.6922 55.6448 58.7278C55.3838 58.7768 54.9925 58.801 54.4711 58.801L54.3081 58.8169C53.8521 58.8061 53.4878 58.7304 53.2158 58.5904C52.9439 58.4505 52.6944 58.2024 52.466 57.8468C52.3976 57.7131 52.3211 57.5835 52.237 57.4588L50.8189 54.8565C50.7105 54.6625 50.6098 54.5276 50.5174 54.4519C50.4398 54.3842 50.348 54.3345 50.2487 54.3062C50.2003 54.2961 50.1511 54.2908 50.1018 54.2903H49.6124V57.7495H50.8836V58.6547H45.8467V57.7495H47.1179V48.746H45.8467V47.8408L51.2101 47.8402ZM49.613 53.4341C49.6675 53.4449 49.7323 53.4532 49.8086 53.4583C50.0069 53.4734 50.2061 53.468 50.4032 53.4424C50.5277 53.4265 50.6559 53.4074 50.7862 53.3858C51.2411 53.2845 51.6639 53.0734 52.017 52.7713C52.3916 52.459 52.5795 51.9412 52.5795 51.2192C52.5795 50.4648 52.3672 49.8611 51.9439 49.4088C51.5199 48.9566 50.9279 48.7352 50.1672 48.746H49.613V53.4341ZM56.5569 53.2401C56.5569 51.828 57.1137 50.5456 58.2271 49.3923C59.3413 48.239 60.8172 47.6627 62.6535 47.6627H62.8164C64.6201 47.6627 66.0626 48.2015 67.1447 49.2797C68.2261 50.3573 68.8207 51.5481 68.9284 52.8527C68.9284 52.9176 68.9323 52.9819 68.9374 53.0467C68.9425 53.1116 68.9451 53.1759 68.9451 53.2408C68.9451 54.6421 68.3864 55.9213 67.2665 57.0803C66.1479 58.2387 64.6643 58.8182 62.8164 58.8182L62.6535 58.8341C60.8499 58.8232 59.4093 58.2737 58.3336 57.1853C57.258 56.0969 56.6711 54.9004 56.573 53.5963C56.562 53.5315 56.5569 53.4698 56.5569 53.4106V53.2401ZM59.4099 53.256C59.4099 54.894 59.755 56.0956 60.4458 56.8609C61.1347 57.6261 61.8992 58.0192 62.7356 58.0408C63.5727 58.0192 64.3404 57.6286 65.0421 56.8691C65.7425 56.109 66.0934 54.9048 66.0934 53.256C66.0934 51.7796 65.7791 50.6155 65.1486 49.7638C64.5174 48.9127 63.7131 48.4763 62.7356 48.454C61.7248 48.4757 60.9179 48.9286 60.3143 49.8121C59.7114 50.6963 59.4099 51.8445 59.4099 53.256ZM77.3899 47.8402V50.5888H76.2161C76.2035 50.4282 76.1788 50.2687 76.1423 50.1117C76.1018 49.9377 76.0334 49.7713 75.9397 49.6188C75.8805 49.4927 75.8034 49.3757 75.7107 49.2714C75.6064 49.1516 75.492 49.0407 75.3688 48.94C75.1622 48.7784 74.9346 48.6451 74.6921 48.5437C74.4563 48.4436 74.2061 48.3809 73.9507 48.358C73.9192 48.3475 73.8863 48.3421 73.8532 48.3421H73.7557C73.6466 48.3421 73.5299 48.3529 73.4048 48.3745C73.2813 48.3957 73.1589 48.4227 73.0379 48.4553C72.7236 48.5526 72.4356 48.711 72.1746 48.9324C71.9142 49.1531 71.784 49.4686 71.784 49.8783C71.784 50.3522 71.9219 50.6868 72.1983 50.8808C72.4767 51.0748 72.7833 51.2415 73.1194 51.3821C73.1309 51.3821 73.1418 51.3871 73.1521 51.398C73.1746 51.398 73.1932 51.4005 73.2098 51.4062C73.2265 51.4119 73.24 51.4196 73.2509 51.4304L75.7274 52.4329C75.8479 52.4762 75.9756 52.5302 76.1109 52.5945C76.2475 52.6594 76.3854 52.7401 76.5266 52.8368C76.8748 53.0525 77.1917 53.3623 77.4797 53.7662C77.7677 54.1708 77.912 54.7172 77.912 55.4073C77.912 56.399 77.5098 57.2152 76.7055 57.8564C75.9012 58.4976 74.9019 58.8188 73.7063 58.8188L73.5434 58.8347C73.2502 58.8239 72.8744 58.7755 72.4183 58.689C71.9623 58.6032 71.4838 58.3659 70.9841 57.9779L70.7564 58.6566H69.8104V55.8113H70.9027C70.9238 55.9945 70.9681 56.1936 71.0329 56.4092C71.0977 56.6249 71.2118 56.8348 71.3748 57.0396C71.4299 57.1153 71.4889 57.1878 71.5537 57.2578C71.6185 57.3278 71.6903 57.4009 71.7667 57.476C72.0162 57.6916 72.2875 57.8557 72.5812 57.969C72.875 58.0822 73.2066 58.1439 73.5761 58.1547C74.2175 58.1331 74.7473 57.9499 75.1661 57.6051C75.583 57.2603 75.7928 56.8456 75.7928 56.3602C75.7928 55.8539 75.6414 55.4849 75.3367 55.2528C75.0321 55.0212 74.6953 54.8247 74.3259 54.6631C74.3047 54.6523 74.281 54.6415 74.2534 54.6307C74.2258 54.6198 74.1957 54.609 74.163 54.5982L72.24 53.7897C71.784 53.5957 71.4107 53.375 71.124 53.1269C70.836 52.8788 70.6102 52.6256 70.4473 52.3674C70.2407 52.0442 70.1105 51.7287 70.0554 51.4215C70.0074 51.1735 69.9801 50.922 69.9739 50.6696C69.9739 49.8827 70.3062 49.1856 70.9687 48.5762C71.6313 47.9668 72.4895 47.6627 73.5446 47.6627H73.7076C73.8493 47.6627 73.9981 47.671 74.1559 47.6869C74.3137 47.7028 74.4676 47.7327 74.6209 47.776C74.8704 47.83 75.1206 47.9108 75.3701 48.0183C75.6209 48.1258 75.8486 48.2556 76.0551 48.4063L76.3643 47.8402H77.3899ZM82.9483 57.7501H84.2523V58.6553H79.1826V57.7501H80.4539V48.746H79.1826V47.8408H83.4211C83.6603 47.8408 83.9137 47.8466 84.1792 47.8567C84.446 47.8676 84.7141 47.8949 84.9861 47.9375C85.7693 48.0457 86.487 48.323 87.138 48.7702C87.7897 49.218 88.1162 49.996 88.1162 51.106C88.1162 52.022 87.782 52.8222 87.113 53.5066C86.4453 54.1911 85.1811 54.5276 83.3236 54.5168H82.9496V57.7501H82.9483ZM82.9483 53.7089H83.0792C83.0907 53.7197 83.1068 53.7248 83.1279 53.7248H83.1934C83.3127 53.7248 83.4377 53.7166 83.5679 53.7007C83.6982 53.6848 83.8284 53.6549 83.9598 53.6116C84.3947 53.5035 84.7879 53.2586 85.1413 52.8763C85.4947 52.494 85.6711 51.8712 85.6711 51.0087C85.6711 50.2867 85.4858 49.7638 85.1163 49.4406C84.7481 49.1175 84.3447 48.9076 83.9111 48.8103C83.7861 48.7897 83.6608 48.7708 83.5352 48.7536C83.4164 48.7377 83.2966 48.7296 83.1767 48.7295H83.0625C83.051 48.7403 83.0349 48.7454 83.0138 48.7454H82.9483V53.7089ZM90.381 57.7501V48.746H89.1097V47.8402H97.7662V49.9743H96.7226V48.9235H92.8754V52.4641H96.1197V51.2675H97.1299V54.485H96.1197V53.3699H92.8754V57.5727H97.0645V56.3437H98.0753V58.6559H89.1097V57.7501H90.381ZM109.144 50.8477H108.052C108.009 50.19 107.718 49.6455 107.18 49.2148C106.642 48.7835 106.019 48.5628 105.313 48.552C104.422 48.5736 103.613 48.9725 102.885 49.7479C102.156 50.5239 101.793 51.758 101.793 53.45C101.793 54.6574 102.116 55.6949 102.763 56.5625C103.409 57.4302 104.336 57.8748 105.543 57.8964C106.162 57.8856 106.713 57.74 107.196 57.4594C107.68 57.1795 108.112 56.7915 108.492 56.2954H108.655L109.455 56.9257C108.888 57.4861 108.267 57.9416 107.588 58.2915C106.909 58.6413 106.133 58.8169 105.264 58.8169L105.101 58.8328C103.428 58.822 101.983 58.3042 100.765 57.2807C99.5493 56.2565 98.94 54.9258 98.94 53.2878C98.94 51.585 99.5051 50.2218 100.635 49.1977C101.765 48.1735 103.194 47.6615 104.922 47.6615H105.085C105.401 47.6615 105.699 47.6913 105.982 47.7505C106.264 47.8097 106.542 47.9038 106.814 48.0336C106.965 48.0985 107.115 48.1735 107.261 48.26C107.408 48.3465 107.558 48.4432 107.709 48.5514L108.167 47.7912H109.144L109.144 50.8477ZM112.6 58.6559V57.7501H113.871V48.746H111.41V49.8777H110.236V47.8402H120V49.8777H118.827V48.746H116.366V57.7501H117.637V58.6559H112.6ZM36.4616 66.5475H35.6348V66.2008H38.1562V66.5475H37.3287V72.4665H38.1562V72.8125H35.6348V72.4665H36.4616V66.5475ZM42.3151 66.2008L46.8986 71.1917L46.9884 71.3889H47.0378L47.0083 71.1816V66.5475H46.1808V66.2008H48.2738V66.5475H47.447V72.9207H47.3969L42.1457 67.258L42.0059 66.9922H41.9463L42.0155 67.2682V72.4665H42.8429V72.8125H40.7507V72.4665H41.5774V66.5475H40.7507V66.2008H42.3151ZM53.3396 66.2008V66.5475H52.2736L54.3357 71.548L54.3659 71.8539H54.4557L54.4858 71.548L56.528 66.5475H55.4723V66.2008H57.9635V66.5475H57.0168L54.4659 72.8125H53.8675L51.2467 66.5475H50.3397V66.2008H53.3396ZM60.0199 66.2008H65.1518V67.3776H64.663V66.7352H61.7132V69.0869H64.1749V68.3057H64.663V70.2039H64.1749V69.5016H61.7132V72.2884H64.8426V71.3889H65.3308V72.8125H60.0199V72.4665H60.846V66.5475H60.0199V66.2008ZM72.6184 66.2008V67.8223H72.1598L72.131 67.5748C72.0835 67.2192 71.9244 66.9521 71.6525 66.7746C71.3775 66.5955 71.0546 66.5024 70.7256 66.5074C70.2067 66.5074 69.7924 66.613 69.4807 66.8229C69.1689 67.0341 69.0124 67.2937 69.0124 67.6047C69.0124 67.9202 69.1503 68.174 69.4262 68.3649C69.702 68.5557 70.006 68.7141 70.3382 68.8394C70.471 68.8916 70.6038 68.9412 70.7365 68.987C70.8693 69.0328 70.9918 69.0767 71.1047 69.1161C71.2048 69.1556 71.3138 69.1969 71.4344 69.2389C71.5537 69.2821 71.6762 69.333 71.8026 69.3916C72.0944 69.5309 72.3651 69.7198 72.6146 69.9609C72.8641 70.2007 72.9892 70.5385 72.9892 70.9736C72.9892 71.4939 72.7801 71.95 72.3612 72.3425C71.943 72.7337 71.3177 72.9302 70.487 72.9302C70.3216 72.9302 70.1362 72.9169 69.9348 72.8908C69.7198 72.861 69.5101 72.8013 69.312 72.7133C69.2208 72.6715 69.1325 72.6237 69.0477 72.5702C68.9537 72.5108 68.8652 72.4431 68.7835 72.3679L68.6834 72.1605H68.6347L68.6834 72.3781V72.8132H68.2248V71.0639H68.6834L68.7033 71.3896C68.7033 71.429 68.7084 71.4691 68.718 71.5092C68.7277 71.5492 68.7392 71.5874 68.7533 71.6275C68.8335 71.8514 69.0137 72.0575 69.2972 72.2451C69.5788 72.4341 69.9765 72.5269 70.487 72.5269C70.9315 72.5269 71.3279 72.4315 71.6737 72.24C72.0181 72.0499 72.1913 71.7432 72.1913 71.3221C72.1913 70.9456 72.0938 70.6746 71.8981 70.506C71.7012 70.3381 71.4472 70.1956 71.1355 70.076C71.075 70.0495 71.0136 70.0251 70.9514 70.0029C70.8865 69.9785 70.8217 69.9537 70.7571 69.9284C70.6442 69.8826 70.5326 69.8387 70.4229 69.8006C70.3139 69.7611 70.2061 69.7211 70.0996 69.681C69.6013 69.4895 69.1786 69.272 68.8341 69.029C68.4884 68.7853 68.3152 68.3967 68.3152 67.8636C68.3152 67.3356 68.5179 66.9095 68.9226 66.5838C69.3287 66.2568 69.8437 66.094 70.4672 66.094C70.7 66.094 70.8995 66.1067 71.065 66.1334C71.2317 66.1595 71.3908 66.2116 71.5434 66.2912C71.6236 66.3306 71.7051 66.3783 71.7878 66.4343C71.8706 66.4903 71.9559 66.5545 72.0418 66.627L72.1323 66.7962H72.1913L72.1515 66.5876V66.2027H72.6184V66.2008ZM77.1269 72.8125V72.4665H77.9537V66.725H75.9005V67.6346H75.4022V66.2008H81.3711V67.6346H80.8727V66.725H78.8209V72.4665H79.6477V72.8125H77.1269ZM88.29 71.5868H88.3503L88.3702 71.4087L91.2103 66.2008H92.9043V66.5475H92.0775V72.4665H92.9043V72.8125H90.3836V72.4665H91.2103V67.1798L91.2302 66.9228H91.1802L91.0904 67.1798L88.2304 72.3978H87.9321L85.1221 67.1798L85.0316 66.9228H84.9816L85.0118 67.1798V72.4665H85.8385V72.8125H83.7668V72.4665H84.5936V66.5475H83.7668V66.2008H85.4601L88.2701 71.4087L88.29 71.5868ZM95.4988 66.2008H100.631V67.3776H100.143V66.7352H97.1921V69.0869H99.6539V68.3057H100.143V70.2039H99.6539V69.5016H97.1921V72.2884H100.322V71.3889H100.81V72.8125H95.4988V72.4665H96.3256V66.5475H95.4988V66.2008ZM105.189 66.2008L109.773 71.1917L109.861 71.3889H109.911L109.881 71.1816V66.5475H109.054V66.2008H111.147V66.5475H110.32V72.9207H110.27L105.018 67.258L104.879 66.9922H104.819L104.889 67.2682V72.4665H105.716V72.8125H103.624V72.4665H104.451V66.5475H103.624V66.2008H105.189ZM115.266 72.8125V72.4665H116.093V66.725H114.041V67.6346H113.542V66.2008H119.511V67.6346H119.013V66.725H116.96V72.4665H117.788V72.8125H115.266Z" fill="black"/>
<path fill-rule="evenodd" clip-rule="evenodd" d="M0.754883 72.8093L30.719 47.7416L13.6228 72.8093H0.754883Z" fill="white"/>
</svg>
