<svg width="120" height="120" viewBox="0 0 120 120" fill="none" xmlns="http://www.w3.org/2000/svg">
<path d="M64.6751 30.9062C64.2825 30.9662 63.9051 32.3998 63.1463 33.1467C62.5914 33.6857 61.8988 33.652 61.5309 34.3183C61.3912 34.5673 61.4364 34.9922 61.278 35.4002C60.9684 36.2162 59.8776 36.2892 59.8776 37.1783C59.8738 38.1385 60.7873 38.3219 61.578 39.0031C62.1952 39.5516 62.2556 39.9296 63.0029 40.1953C63.6409 40.4107 64.5901 39.7069 65.445 39.9596C66.1472 40.1674 66.8189 40.3171 66.9776 41.0321C67.1171 41.6909 66.9681 42.7127 66.117 42.5949C65.83 42.5631 64.5863 42.1475 63.0577 42.3085C61.2137 42.5163 59.1094 43.1132 58.9038 45.1517C58.7905 46.2915 60.2116 47.6354 61.5837 47.3621C62.5329 47.1767 62.0838 46.067 62.6009 45.5278C63.2784 44.8373 67.1171 47.9386 70.686 47.9386C72.1883 47.9386 73.3055 47.5624 74.4154 46.4094C74.519 46.3214 74.6455 46.1324 74.8059 46.1211C74.957 46.1324 75.2211 46.2802 75.308 46.3439C78.1823 48.6348 80.3545 53.2298 90.9177 53.2841C92.4029 53.2915 94.0957 53.9953 95.4772 55.2456C96.7097 56.3761 97.4306 58.1335 98.1307 59.9172C99.1876 62.5938 101.083 65.1973 103.955 68.0947C104.112 68.25 106.476 70.0731 106.665 70.2097C106.695 70.2284 106.869 70.6402 106.809 70.8703C106.739 72.6073 106.484 77.6588 110.281 77.8872C111.21 77.934 110.966 77.2864 110.966 76.8409C110.964 75.9612 110.802 75.0872 111.27 74.1869C111.91 72.948 109.913 72.377 109.972 69.6986C110.013 67.7016 108.322 68.0421 107.463 66.5205C106.969 65.6389 106.529 65.1711 106.561 64.0929C106.754 58.0251 105.259 54.0383 104.514 53.0595C103.932 52.3202 103.451 52.0264 103.983 51.6838C107.152 49.6081 107.871 47.6765 107.871 47.6765C109.556 43.7479 111.072 40.1597 113.161 38.5802C113.582 38.2544 114.661 37.4553 115.324 37.1408C117.273 36.2293 118.3 35.6772 118.866 35.1306C119.763 34.2641 120.47 32.4579 119.612 31.363C118.544 30.0116 116.696 31.0841 115.881 31.5631C110.055 34.9922 109.196 41.0413 107.178 44.5153C105.569 47.2909 102.951 49.3292 100.611 49.4958C98.8555 49.6249 96.9645 49.273 95.081 48.4533C90.5006 46.4618 87.9942 43.8902 87.4035 43.4354C86.1729 42.4939 76.6196 33.1934 68.8798 32.8135C68.8798 32.8135 67.9193 30.9063 67.6777 30.8745C67.1114 30.8033 66.5322 32.0143 66.117 32.1548C65.7263 32.2838 65.0695 30.8425 64.6751 30.9062ZM30.6022 86.4147C29.8737 86.3977 29.2547 85.8045 29.2547 85.0708L29.2566 61.1282H21.2998V87.5207C21.2998 88.8141 22.3566 89.8698 23.6532 89.8698H37.5606C38.8665 89.8698 39.9102 88.8141 39.9102 87.5207V61.1282H31.9611L31.9535 85.0708C31.9535 85.8045 31.3344 86.3977 30.6022 86.4147ZM57.2429 61.1282H45.2002C43.7754 61.1282 42.6147 62.2774 42.6147 63.7056V89.8697H50.5788V65.8693C50.5845 65.1338 51.1846 64.5517 51.9245 64.5517C52.6681 64.5517 53.2644 65.1206 53.2814 65.8488V89.8698H61.2136V65.8485C61.2231 65.1205 61.8194 64.5515 62.5611 64.5515C63.2972 64.5515 63.9049 65.1337 63.9106 65.8692V89.8698H71.8748V63.7056C71.8748 62.2774 70.7123 61.1282 69.2874 61.1282H57.2429ZM10.6517 65.9197C10.6574 65.1205 10.0007 64.5515 9.30426 64.5515H7.95298V79.0888H9.30426C10.0064 79.0888 10.6576 78.5348 10.6517 77.7395V65.9197ZM15.9909 82.6469H7.95298V89.8698H0V61.1282H16.042C17.478 61.1282 18.599 62.285 18.599 63.7168V80.0584C18.599 81.4922 17.4347 82.6469 15.9909 82.6469ZM99.1669 83.4424C97.5684 83.4424 96.2265 84.8124 96.2265 86.4727C96.2265 88.1385 97.5684 89.4972 99.2178 89.4972C100.854 89.4972 102.179 88.1385 102.179 86.4727C102.179 84.8087 100.854 83.4424 99.2177 83.4424H99.1669ZM102.749 86.4633C102.749 88.4154 101.171 90.0027 99.2178 90.0027C97.2437 90.0027 95.6585 88.4268 95.6585 86.4633C95.6585 84.5373 97.2437 82.9277 99.1593 82.9277C101.171 82.9277 102.749 84.4888 102.749 86.4633Z" fill="black"/>
<path d="M98.8492 86.2389C99.4022 86.2389 99.6929 86.0442 99.6929 85.655C99.6929 85.3087 99.4117 85.1309 98.8737 85.1309H98.7152V86.2389H98.8492ZM100.886 88.5111H99.9363L98.7152 86.8996V88.5111H97.9395V84.4365H98.7549C99.8628 84.4365 100.451 84.852 100.451 85.6456C100.451 86.1752 100.104 86.6451 99.6192 86.7854L99.5626 86.8061L100.886 88.5111ZM85.2269 79.0947V65.8602C85.208 65.1282 84.6136 64.5668 83.8719 64.5668C83.1376 64.5668 82.5299 65.1507 82.5244 65.8807V79.0947H85.2269ZM85.2269 89.87V82.6546H82.5244V89.87H74.5752V63.7058C74.5752 62.2777 75.7357 61.1284 77.1607 61.1284H90.5905C92.0192 61.1284 93.1799 62.2777 93.1799 63.7058V89.8699L85.2269 89.87Z" fill="black"/>
</svg>
