<svg width="1512" height="1515" viewBox="0 0 1512 1515" fill="none" xmlns="http://www.w3.org/2000/svg">
<g clip-path="url(#clip0_908_1401)">
<path d="M110.816 966.661L121.361 962.809L142.172 1019.78L131.626 1023.64L130.218 1024.15L130.732 1025.56L134.586 1036.11L65.6774 1061.29L57.9708 1040.2L128.288 1014.5L129.696 1013.98L129.182 1012.57L116.079 976.699L115.564 975.289L114.155 975.804L43.8379 1001.5L36.1315 980.405L105.04 955.222L108.893 965.767L109.407 967.176L110.816 966.661ZM141.755 1126.02L185.02 1102.14L195.865 1121.82L120.479 1163.4L109.634 1143.73L119.465 1138.31L120.778 1137.58L120.054 1136.27L114.632 1126.44L124.464 1121.01L125.777 1120.29L125.053 1118.97L119.631 1109.14L129.463 1103.72L130.776 1102.99L130.052 1101.68L123.905 1090.53L123.181 1089.22L121.867 1089.94L89.746 1107.66L78.902 1088L154.288 1046.41L165.133 1066.07L144.156 1077.65L142.843 1078.37L143.567 1079.68L148.99 1089.52L139.158 1094.94L137.845 1095.67L138.569 1096.98L143.991 1106.81L134.159 1112.24L132.847 1112.96L133.57 1114.27L139.717 1125.43L140.441 1126.74L141.755 1126.02ZM258.392 1203.28L190.259 1255.92L137.632 1187.76L145.331 1181.82L183.314 1231.01L184.231 1232.2L185.418 1231.28L205.563 1215.71L206.75 1214.8L205.834 1213.61L175.63 1174.49L183.328 1168.55L213.531 1207.66L214.448 1208.85L215.636 1207.93L235.78 1192.37L236.967 1191.45L236.051 1190.26L198.067 1141.07L205.766 1135.12L258.392 1203.28ZM332.648 1274.2L273.374 1336.66L257.089 1321.19L264.819 1313.05L265.852 1311.96L264.764 1310.93L256.621 1303.19L264.352 1295.05L265.384 1293.96L264.297 1292.93L255.066 1284.16L253.978 1283.13L252.945 1284.22L245.216 1292.36L237.073 1284.63L235.985 1283.6L234.953 1284.69L227.223 1292.83L210.938 1277.36L270.212 1214.91L286.497 1230.37L252.478 1266.22L251.446 1267.31L252.533 1268.34L261.763 1277.11L262.851 1278.14L263.884 1277.05L280.377 1259.67L287.432 1266.37L270.939 1283.75L269.906 1284.84L270.994 1285.87L280.224 1294.64L281.312 1295.67L282.345 1294.58L316.363 1258.74L332.648 1274.2Z" stroke="#DFDC01" stroke-width="3"/>
<path d="M103.731 619.282L91.4471 615.954L88.1202 628.243L14.4111 608.277L21.0643 583.701L94.7734 603.666L104.753 566.8L31.044 546.835L37.6971 522.258L111.406 542.223L108.08 554.511L120.365 557.839L103.731 619.282Z" fill="#2D2650"/>
<path d="M89.0304 733.426L0.485352 723.578L3.29882 698.269L15.9481 699.675L17.3548 687.027L30.0041 688.434L31.4108 675.779L44.0602 677.186L45.4669 664.531L7.51902 660.311L10.3325 635.006L98.8775 644.855L96.0642 670.165L70.7655 667.345L69.3585 679.999L56.7094 678.593L55.3027 691.247L42.6534 689.841L41.2467 702.495L91.8438 708.122L89.0304 733.426Z" fill="#2D2650"/>
<path d="M93.3803 835.828L4.37163 839.648L0.547852 750.613L13.2634 750.072L15.9946 813.664L41.4258 812.575L39.2407 761.695L51.9563 761.148L54.1413 812.028L79.5725 810.933L76.8412 747.335L89.5564 746.787L93.3803 835.828Z" fill="#2D2650"/>
<path d="M113.348 936.353L25.9739 953.762L21.0011 928.79L33.4832 926.301L30.9968 913.818L43.4788 911.33L40.9925 898.84L28.5104 901.329L26.0241 888.846L13.5421 891.329L8.56934 866.357L95.9437 848.947L100.916 873.919L50.9882 883.869L53.4745 896.358L78.4386 891.38L80.9248 903.869L55.9609 908.841L58.4473 921.33L108.376 911.38L113.348 936.353Z" fill="#2D2650"/>
<path d="M302.193 268.091L294.076 258.285L284.273 266.404L235.571 207.569L255.177 191.33L303.879 250.165L333.288 225.806L284.585 166.972L304.191 150.732L352.894 209.568L343.091 217.687L351.208 227.493L302.193 268.091Z" fill="white"/>
<path d="M224.37 352.857L157.716 293.726L174.606 274.676L184.127 283.124L192.572 273.599L202.094 282.046L210.539 272.521L220.061 280.969L228.506 271.444L199.94 246.102L216.829 227.052L283.484 286.183L266.594 305.233L247.55 288.338L239.105 297.863L229.583 289.416L221.138 298.94L211.616 290.493L203.171 300.018L241.26 333.808L224.37 352.857Z" fill="white"/>
<path d="M168.88 439.016L93.9619 390.789L142.175 315.849L152.878 322.738L118.44 376.267L139.845 390.046L167.395 347.223L178.097 354.113L150.547 396.936L171.953 410.715L206.39 357.186L217.093 364.076L168.88 439.016Z" fill="white"/>
<path d="M127.231 532.657L45.8154 496.47L56.1514 473.202L67.7821 478.371L72.95 466.737L84.5808 471.906L89.7487 460.272L78.1179 455.103L83.2858 443.468L71.655 438.299L81.9914 415.03L163.407 451.216L153.071 474.485L106.547 453.807L101.38 465.442L124.641 475.78L119.473 487.415L96.2116 477.076L91.0437 488.71L137.567 509.388L127.231 532.657Z" fill="white"/>
<path d="M727.789 78.2309L728.648 89.4293L668.193 94.0858L667.329 82.8875L667.213 81.3922L665.718 81.5074L654.525 82.3693L648.894 9.19937L671.281 7.47506L677.027 82.1403L677.142 83.636L678.637 83.5208L716.711 80.5888L718.207 80.4736L718.091 78.9781L712.346 4.31263L734.733 2.58831L740.363 75.758L729.17 76.6206L727.675 76.7358L727.789 78.2309ZM562.038 41.3205L572.968 38.7544L575.534 49.6882L575.877 51.1487L577.337 50.8058L588.267 48.2397L590.833 59.1735L591.175 60.634L592.636 60.2911L605.026 57.3821L606.487 57.0393L606.144 55.5792L597.762 19.8564L619.623 14.7241L639.295 98.5635L617.433 103.696L611.96 80.3677L611.617 78.9072L610.156 79.2501L599.227 81.8163L596.661 70.8824L596.319 69.4219L594.858 69.7648L583.928 72.331L581.363 61.3971L581.02 59.9366L579.559 60.2795L567.169 63.1886L565.709 63.5314L566.051 64.9915L577.341 113.109L555.481 118.241L535.809 34.4015L557.669 29.2692L560.235 40.2029L560.578 41.6634L562.038 41.3205ZM427.914 76.6233L507.728 44.3437L511.375 53.3652L453.768 76.6636L452.378 77.2259L452.94 78.6163L462.481 102.222L463.043 103.613L464.434 103.05L510.24 84.5243L513.887 93.5459L468.08 112.072L466.69 112.634L467.252 114.025L476.793 137.631L477.355 139.022L478.746 138.459L536.352 115.161L539.998 124.183L460.184 156.462L427.914 76.6233ZM327.752 134.87L347.035 123.362L352.788 133.006L353.556 134.295L354.845 133.526L364.486 127.772L370.238 137.417L371.007 138.705L372.295 137.936L383.225 131.413L384.513 130.645L383.745 129.357L377.992 119.712L387.634 113.958L388.922 113.189L388.154 111.901L382.401 102.256L401.685 90.7483L445.793 164.704L426.51 176.212L401.195 133.768L400.426 132.479L399.138 133.248L388.209 139.771L386.921 140.539L387.689 141.827L399.962 162.406L391.608 167.391L379.335 146.813L378.567 145.525L377.278 146.294L366.348 152.816L365.06 153.585L365.829 154.873L391.144 197.317L371.86 208.826L327.752 134.87Z" stroke="#DFDC01" stroke-width="3"/>
<path d="M1064.08 165.224L1070.6 154.291L1059.67 147.768L1098.79 82.1689L1120.65 95.2145L1081.53 160.813L1114.32 180.382L1153.44 114.782L1175.3 127.828L1136.18 193.427L1125.24 186.904L1118.73 197.837L1064.08 165.224Z" fill="#DFDC01"/>
<path d="M958.172 120.239L991.568 37.6191L1015.16 47.1633L1010.4 58.9662L1022.2 63.7384L1017.42 75.5414L1029.22 80.313L1024.46 92.1161L1036.25 96.8883L1050.57 61.4796L1074.16 71.0238L1040.77 153.644L1017.17 144.1L1026.71 120.494L1014.91 115.722L1019.68 103.919L1007.88 99.1468L1012.66 87.3438L1000.85 82.5722L981.775 129.784L958.172 120.239Z" fill="#DFDC01"/>
<path d="M858.436 96.7719L878.793 10.0117L965.529 30.3748L962.621 42.7691L900.665 28.2241L894.848 53.0126L944.415 64.6488L941.506 77.0431L891.94 65.4069L886.13 90.1956L948.08 104.74L945.172 117.135L858.436 96.7719Z" fill="#DFDC01"/>
<path d="M756.287 88.8548L763.122 0L788.506 1.9547L787.526 14.6482L800.215 15.6256L799.242 28.3191L811.931 29.2964L812.904 16.6029L825.593 17.5802L826.574 4.88675L851.952 6.84143L845.111 95.6958L819.733 93.7416L823.64 42.9673L810.951 41.9899L808.997 67.3768L796.308 66.3996L798.262 41.0126L785.573 40.0353L781.665 90.8096L756.287 88.8548Z" fill="#DFDC01"/>
<path d="M1361.52 445.437L1356.96 435.174L1424 405.376L1433.12 425.902L1364.71 456.31L1363.34 456.919L1363.95 458.29L1379.45 493.193L1380.06 494.564L1381.43 493.955L1449.84 463.547L1458.96 484.074L1391.92 513.872L1387.36 503.609L1386.75 502.238L1385.38 502.847L1375.12 507.408L1350.5 451.978L1360.76 447.417L1362.13 446.808L1361.52 445.437ZM1366 380.601L1396.85 360.744L1409 379.633L1336.6 426.236L1324.46 407.348L1344.6 394.38L1345.86 393.568L1345.05 392.307L1338.97 382.863L1348.41 376.785L1349.68 375.973L1348.86 374.712L1342.79 365.267L1352.23 359.189L1353.49 358.377L1352.68 357.116L1345.79 346.411L1344.98 345.149L1343.72 345.961L1302.17 372.707L1290.02 353.818L1362.41 307.215L1374.57 326.104L1365.12 332.182L1363.86 332.993L1364.67 334.254L1370.75 343.699L1361.31 349.777L1360.04 350.589L1360.86 351.85L1366.94 361.295L1357.49 367.372L1356.23 368.184L1357.04 369.445L1363.93 380.151L1364.74 381.413L1366 380.601ZM1306.63 299.891L1299.36 306.347L1266.58 269.37L1265.58 268.247L1264.46 269.243L1245.41 286.137L1244.29 287.133L1245.28 288.255L1286.51 334.757L1279.24 341.214L1222.12 276.784L1286.52 219.644L1343.65 284.074L1336.37 290.53L1295.14 244.028L1294.15 242.905L1293.02 243.901L1273.98 260.796L1272.86 261.791L1273.85 262.913L1306.63 299.891ZM1222.06 195.659L1229.22 187.009L1237.87 194.172L1239.03 195.129L1239.98 193.973L1247.14 185.323L1264.44 199.649L1209.53 265.979L1192.24 251.653L1223.75 213.585L1224.71 212.43L1223.55 211.473L1213.74 203.353L1212.59 202.397L1211.63 203.552L1196.36 222.008L1188.87 215.803L1204.14 197.346L1205.1 196.191L1203.94 195.234L1194.14 187.114L1192.98 186.157L1192.03 187.313L1160.51 225.381L1143.22 211.056L1198.13 144.726L1215.42 159.051L1208.27 167.702L1207.31 168.857L1208.46 169.813L1217.11 176.976L1209.95 185.627L1208.99 186.782L1210.14 187.739L1219.95 195.859L1221.11 196.816L1222.06 195.659Z" stroke="#2D2650" stroke-width="3"/>
<path d="M1417.16 850.712L1428.17 852.907L1429.64 853.2L1429.94 851.729L1432.13 840.717L1504.08 855.052L1499.69 877.082L1426.27 862.454L1424.8 862.161L1424.51 863.632L1417.05 901.087L1416.75 902.558L1418.22 902.851L1491.65 917.479L1487.26 939.509L1415.31 925.174L1417.51 914.156L1417.8 912.684L1416.33 912.392L1405.31 910.202L1417.16 850.712ZM1510.36 739.328L1509.4 761.774L1498.18 761.291L1496.68 761.227L1496.62 762.726L1496.14 773.945L1484.92 773.462L1483.42 773.398L1483.36 774.897L1482.88 786.116L1471.66 785.633L1470.16 785.568L1470.09 787.068L1469.55 799.786L1469.49 801.284L1470.99 801.349L1507.63 802.926L1506.67 825.366L1420.65 821.669L1421.62 799.23L1445.55 800.26L1447.05 800.325L1447.11 798.826L1447.6 787.605L1458.81 788.083L1460.31 788.146L1460.38 786.649L1460.86 775.429L1472.07 775.912L1473.57 775.976L1473.64 774.478L1474.18 761.759L1474.25 760.261L1472.75 760.196L1423.38 758.077L1424.35 735.631L1510.36 739.328ZM1422.81 719.121L1413.3 633.528L1498.86 624.009L1508.38 709.598L1498.71 710.674L1491.84 648.897L1491.68 647.406L1490.18 647.572L1464.88 650.392L1463.39 650.558L1463.56 652.049L1469.02 701.17L1459.35 702.246L1453.89 653.124L1453.72 651.633L1452.23 651.799L1426.94 654.612L1425.45 654.778L1425.61 656.269L1432.48 718.045L1422.81 719.121ZM1466.76 549.107L1455.92 552.043L1454.47 552.435L1454.86 553.882L1458.19 566.171L1458.59 567.619L1460.03 567.227L1470.87 564.291L1473.8 575.132L1474.2 576.58L1475.64 576.188L1486.48 573.252L1492.35 594.934L1409.25 617.442L1403.38 595.761L1451.07 582.843L1452.52 582.451L1452.13 581.003L1448.8 568.714L1448.41 567.266L1446.96 567.658L1423.84 573.921L1421.3 564.529L1444.42 558.265L1445.87 557.873L1445.48 556.425L1442.15 544.137L1441.76 542.689L1440.31 543.081L1392.62 555.999L1386.75 534.318L1469.85 511.81L1475.71 533.491L1464.88 536.427L1463.43 536.819L1463.82 538.267L1466.76 549.107Z" stroke="#DFDC01" stroke-width="3"/>
<path d="M1241.77 1212.79L1250.53 1222.02L1259.76 1213.25L1312.34 1268.65L1293.88 1286.18L1241.3 1230.78L1213.61 1257.08L1266.19 1312.48L1247.72 1330.01L1195.15 1274.61L1204.38 1265.85L1195.62 1256.62L1241.77 1212.79Z" fill="white"/>
<path d="M1313.67 1122.94L1384.18 1177.42L1368.62 1197.57L1358.55 1189.78L1350.76 1199.86L1340.69 1192.08L1332.91 1202.15L1322.84 1194.37L1315.06 1204.45L1345.28 1227.79L1329.72 1247.95L1259.21 1193.47L1274.77 1173.32L1294.92 1188.89L1302.69 1178.81L1312.77 1186.59L1320.55 1176.52L1330.62 1184.3L1338.4 1174.22L1298.11 1143.09L1313.67 1122.94Z" fill="white"/>
<path d="M1363.19 1033.22L1441.21 1076.26L1398.19 1154.3L1387.04 1148.15L1417.77 1092.4L1395.48 1080.11L1370.89 1124.7L1359.75 1118.55L1384.34 1073.96L1362.05 1061.67L1331.32 1117.4L1320.17 1111.25L1363.19 1033.22Z" fill="white"/>
<path d="M1398.4 936.971L1482.08 967.557L1473.35 991.473L1461.4 987.099L1457.02 999.06L1445.07 994.687L1440.7 1006.65L1452.66 1011.01L1448.29 1022.98L1460.24 1027.34L1451.51 1051.26L1367.83 1020.68L1376.56 996.762L1424.39 1014.24L1428.75 1002.28L1404.84 993.541L1409.21 981.581L1433.12 990.32L1437.49 978.366L1389.67 960.886L1398.4 936.971Z" fill="white"/>
<path d="M845.691 1433.15L856.884 1432.29L862.521 1505.46L840.127 1507.18L834.381 1432.52L834.266 1431.03L832.771 1431.14L794.704 1434.07L793.208 1434.18L793.323 1435.68L799.069 1510.35L776.682 1512.07L771.051 1438.9L782.244 1438.04L783.741 1437.93L783.625 1436.43L782.761 1425.23L843.22 1420.57L844.079 1431.77L844.194 1433.27L845.691 1433.15ZM975.602 1480.26L953.742 1485.39L951.177 1474.45L950.834 1472.99L949.374 1473.33L938.444 1475.9L935.879 1464.97L935.536 1463.51L934.075 1463.85L923.146 1466.42L920.58 1455.48L920.238 1454.02L918.777 1454.37L906.387 1457.27L904.927 1457.62L905.27 1459.08L913.652 1494.8L891.792 1499.94L872.12 1416.1L893.98 1410.96L899.453 1434.29L899.796 1435.75L901.257 1435.41L912.186 1432.84L914.752 1443.77L915.094 1445.23L916.555 1444.89L927.484 1442.33L930.05 1453.26L930.393 1454.72L931.853 1454.38L944.243 1451.47L945.703 1451.12L945.36 1449.66L934.07 1401.55L955.93 1396.42L975.602 1480.26ZM1046.98 1411.61L1001.17 1430.14L997.525 1421.11L1043.33 1402.59L1044.72 1402.02L1044.16 1400.63L1034.62 1377.03L1034.06 1375.64L1032.67 1376.2L975.063 1399.5L971.415 1390.48L1051.23 1358.2L1083.5 1438.03L1003.69 1470.31L1000.04 1461.29L1057.65 1437.99L1059.04 1437.43L1058.47 1436.04L1048.93 1412.44L1048.37 1411.05L1046.98 1411.61ZM1156.57 1381.13L1146.93 1386.89L1141.18 1377.24L1140.41 1375.95L1139.12 1376.72L1128.19 1383.24L1126.9 1384.01L1127.67 1385.3L1133.42 1394.95L1123.78 1400.7L1122.49 1401.47L1123.26 1402.75L1129.01 1412.4L1109.73 1423.91L1065.62 1349.95L1084.9 1338.45L1110.22 1380.89L1110.99 1382.18L1112.27 1381.41L1123.21 1374.89L1124.49 1374.12L1123.73 1372.83L1111.45 1352.25L1119.8 1347.27L1132.08 1367.85L1132.84 1369.13L1134.13 1368.37L1145.07 1361.84L1146.35 1361.07L1145.59 1359.78L1120.27 1317.34L1139.55 1305.84L1183.66 1379.79L1164.38 1391.3L1158.62 1381.65L1157.86 1380.36L1156.57 1381.13Z" stroke="#2D2650" stroke-width="3"/>
<path d="M447.337 1349.43L440.816 1360.37L451.746 1366.89L412.622 1432.49L390.762 1419.45L429.886 1353.84L397.096 1334.28L357.972 1399.88L336.112 1386.83L375.237 1321.23L386.167 1327.76L392.687 1316.82L447.337 1349.43Z" fill="#DFDC01"/>
<path d="M553.239 1394.42L519.845 1477.04L496.246 1467.49L501.016 1455.69L489.217 1450.92L493.988 1439.12L482.188 1434.35L486.959 1422.54L475.16 1417.77L460.847 1453.18L437.249 1443.64L470.643 1361.02L494.242 1370.56L484.701 1394.16L496.5 1398.94L491.729 1410.74L503.529 1415.51L498.758 1427.31L510.557 1432.09L529.64 1384.88L553.239 1394.42Z" fill="#DFDC01"/>
<path d="M652.974 1417.89L632.62 1504.65L545.886 1484.29L548.794 1471.89L610.746 1486.43L616.563 1461.64L567.001 1450.01L569.909 1437.61L619.471 1449.25L625.287 1424.46L563.335 1409.92L566.242 1397.52L652.974 1417.89Z" fill="#DFDC01"/>
<path d="M755.128 1425.81L748.287 1514.66L722.909 1512.7L723.889 1500.01L711.2 1499.04L712.174 1486.34L699.485 1485.36L698.505 1498.05L685.816 1497.08L684.842 1509.77L659.464 1507.82L666.298 1418.96L691.683 1420.92L687.769 1471.69L700.465 1472.67L702.418 1447.28L715.107 1448.26L713.154 1473.64L725.843 1474.62L729.75 1423.85L755.128 1425.81Z" fill="#DFDC01"/>
</g>
<defs>
<clipPath id="clip0_908_1401">
<rect width="1512" height="1515" fill="white"/>
</clipPath>
</defs>
</svg>
