<svg width="266.000000" height="156.000000" viewBox="0 0 266 156" fill="none" xmlns="http://www.w3.org/2000/svg" xmlns:xlink="http://www.w3.org/1999/xlink">
	<desc>
			Created with Pixso.
	</desc>
	<defs/>
	<path id="Vector" d="M76.22 29.79L111.54 29.79L111.54 35.11L76.22 35.11L76.22 29.79Z" fill="#DFDC01" fill-opacity="1.000000" fill-rule="nonzero"/>
	<path id="Vector" d="M76.22 40.03L76.22 45.35L111.54 45.35L111.54 40.03L76.22 40.03Z" fill="#DFDC01" fill-opacity="1.000000" fill-rule="nonzero"/>
	<path id="Vector" d="M82.89 54.79L174.31 54.79L174.31 109.98L82.89 109.98L82.89 54.79Z" fill="#DFDC01" fill-opacity="1.000000" fill-rule="nonzero"/>
	<path id="Vector" d="M183.64 64.23L183.64 73.14L247.6 73.14L247.6 64.23L183.64 64.23Z" fill="#DFDC01" fill-opacity="1.000000" fill-rule="nonzero"/>
	<path id="Vector" d="M183.64 82.32L183.64 91.23L247.6 91.23L247.6 82.32L183.64 82.32Z" fill="#DFDC01" fill-opacity="1.000000" fill-rule="nonzero"/>
	<path id="Vector" d="M183.64 100.94L183.64 109.98L247.6 109.98L247.6 100.94L183.64 100.94Z" fill="#DFDC01" fill-opacity="1.000000" fill-rule="nonzero"/>
	<path id="Vector" d="M36.78 137.24L36.78 146.55L18.79 146.55L18.79 137.24L36.78 137.24ZM36.78 45.88L36.78 137.24L45.71 137.24L45.71 146.55L55.3 146.55L55.3 156L256.93 156L256.93 146.55L266 146.55L266 18.35L256.93 18.35L256.93 8.91L247.6 8.91L247.6 0L27.98 0L27.98 8.91L18.79 8.91L18.79 18.35L9.32 18.35L9.32 36.7L0 36.7L0 128.07L9.32 128.07L9.32 137.24L18.79 137.24L18.79 128.07L9.32 128.07L9.32 36.7L18.79 36.7L18.79 18.35L27.98 18.35L27.98 8.91L36.78 8.91L36.78 18.35L45.71 18.35L45.71 36.7L55.3 36.7L55.3 137.24L45.71 137.24L45.71 45.88L36.78 45.88ZM27.98 45.88L27.98 27.26L36.78 27.26L36.78 45.88L27.98 45.88ZM27.98 45.88L27.98 118.49L18.79 118.49L18.79 45.88L27.98 45.88ZM55.3 36.7L64.36 36.7L64.36 146.55L256.93 146.55L256.93 18.35L247.6 18.35L247.6 8.91L45.71 8.91L45.71 18.35L55.3 18.35L55.3 36.7Z" fill="#2D2650" fill-opacity="1.000000" fill-rule="evenodd"/>
	<path id="Vector" d="M82.89 119.02L82.89 128.2L247.6 128.2L247.6 119.02L82.89 119.02Z" fill="#DFDC01" fill-opacity="1.000000" fill-rule="nonzero"/>
	<path id="Vector" d="M144.2 29.66L142.73 29.66L142.73 28.19L136.87 28.19L136.87 29.66L135.4 29.66L135.4 44.4L136.87 44.4L136.87 45.88L142.73 45.88L142.73 44.4L144.2 44.4L144.2 39.98L141.27 39.98L141.27 42.93L138.34 42.93L138.34 31.14L141.27 31.14L141.27 34.08L144.2 34.08L144.2 29.66Z" fill="#DFDC01" fill-opacity="1.000000" fill-rule="nonzero"/>
	<path id="Vector" d="M209.39 44.4L209.39 45.88L215.26 45.88L215.26 44.4L216.72 44.4L216.72 39.98L213.79 39.98L213.79 42.93L210.86 42.93L210.86 31.14L213.79 31.14L213.79 34.08L216.72 34.08L216.72 29.66L215.26 29.66L215.26 28.19L209.39 28.19L209.39 29.66L207.93 29.66L207.93 44.4L209.39 44.4Z" fill="#DFDC01" fill-opacity="1.000000" fill-rule="nonzero"/>
	<path id="Vector" d="M231.68 37.03L230.95 37.03L230.95 28.19L228.01 28.19L228.01 45.88L230.95 45.88L230.95 42.93L232.41 42.93L232.41 41.45L233.14 41.45L233.14 39.98L233.88 39.98L233.88 38.51L234.61 38.51L234.61 37.03L235.34 37.03L235.34 45.88L238.27 45.88L238.27 28.19L235.34 28.19L235.34 31.14L233.88 31.14L233.88 32.61L233.14 32.61L233.14 34.08L232.41 34.08L232.41 35.56L231.68 35.56L231.68 37.03Z" fill="#DFDC01" fill-opacity="1.000000" fill-rule="nonzero"/>
	<path id="Vector" d="M146.92 28.19L146.92 45.88L154.25 45.88L154.25 42.93L149.85 42.93L149.85 38.51L154.25 38.51L154.25 35.56L149.85 35.56L149.85 31.14L154.25 31.14L154.25 28.19L146.92 28.19Z" fill="#DFDC01" fill-opacity="1.000000" fill-rule="nonzero"/>
	<path id="Vector" d="M161.87 45.88L161.87 28.19L164.8 28.19L164.8 35.56L167.73 35.56L167.73 28.19L170.66 28.19L170.66 45.88L167.73 45.88L167.73 38.51L164.8 38.51L164.8 45.88L161.87 45.88Z" fill="#DFDC01" fill-opacity="1.000000" fill-rule="nonzero"/>
	<path id="Vector" d="M217.98 31.14L217.98 28.19L226.77 28.19L226.77 31.14L223.84 31.14L223.84 45.88L220.91 45.88L220.91 31.14L217.98 31.14Z" fill="#DFDC01" fill-opacity="1.000000" fill-rule="nonzero"/>
	<path id="Vector" d="M131.22 28.19L123.89 28.19L123.89 45.88L131.22 45.88L131.22 44.4L132.68 44.4L132.68 29.66L131.22 29.66L131.22 28.19ZM126.82 31.14L129.75 31.14L129.75 35.56L126.82 35.56L126.82 31.14ZM129.75 42.93L129.75 38.51L126.82 38.51L126.82 42.93L129.75 42.93Z" fill="#DFDC01" fill-opacity="1.000000" fill-rule="evenodd"/>
	<path id="Vector" d="M174.85 45.88L174.85 44.4L173.38 44.4L173.38 29.66L174.85 29.66L174.85 28.19L180.71 28.19L180.71 29.66L182.18 29.66L182.18 44.4L180.71 44.4L180.71 45.88L174.85 45.88ZM176.32 31.14L176.32 42.93L179.25 42.93L179.25 31.14L176.32 31.14Z" fill="#DFDC01" fill-opacity="1.000000" fill-rule="evenodd"/>
	<path id="Vector" d="M192.23 45.88L192.23 44.4L193.69 44.4L193.69 29.66L192.23 29.66L192.23 28.19L184.9 28.19L184.9 45.88L192.23 45.88ZM187.83 31.14L187.83 35.56L190.76 35.56L190.76 31.14L187.83 31.14ZM187.83 38.51L187.83 42.93L190.76 42.93L190.76 38.51L187.83 38.51Z" fill="#DFDC01" fill-opacity="1.000000" fill-rule="evenodd"/>
	<path id="Vector" d="M197.88 45.88L197.88 44.4L196.41 44.4L196.41 29.66L197.88 29.66L197.88 28.19L203.74 28.19L203.74 29.66L205.21 29.66L205.21 44.4L203.74 44.4L203.74 45.88L197.88 45.88ZM202.28 31.14L202.28 42.93L199.35 42.93L199.35 31.14L202.28 31.14Z" fill="#DFDC01" fill-opacity="1.000000" fill-rule="evenodd"/>
</svg>
