<svg width="68" height="64" viewBox="0 0 68 64" fill="none" xmlns="http://www.w3.org/2000/svg">
<path d="M66 32C66 49.6731 51.6731 64 34 64C16.3269 64 2 49.6731 2 32C2 14.3269 16.3269 0 34 0C51.6731 0 66 14.3269 66 32ZM21.2 32C21.2 39.0692 26.9308 44.8 34 44.8C41.0692 44.8 46.8 39.0692 46.8 32C46.8 24.9308 41.0692 19.2 34 19.2C26.9308 19.2 21.2 24.9308 21.2 32Z" fill="#DFDC01"/>
<g clip-path="url(#clip0_661_6624)">
<path fill-rule="evenodd" clip-rule="evenodd" d="M15.2633 13.7654L15.8162 14.4353L15.155 14.9985L18.1159 18.5424L18.7873 17.9779L19.3491 18.6507L24.2325 14.5547L23.119 13.2139L23.7801 12.6515L21.3718 9.78192L20.7005 10.3504L20.1387 9.67362L15.2633 13.7654ZM18.9228 16.4296L18.9871 16.5062L19.4848 17.1003L22.6849 14.4187L22.2513 13.9013L19.6454 16.0851L19.5687 16.1493L19.5045 16.0727L18.9424 15.4021L18.8783 15.3254L18.9549 15.2612L22.2315 12.5154L21.236 11.3274L20.642 11.8251L20.5653 11.8894L20.5011 11.8127L20.0033 11.2188L16.8033 13.9003L17.3011 14.4943L17.3653 14.5709L17.2887 14.6351L16.6947 15.1329L18.2529 16.9925L18.8462 16.4938L18.9228 16.4296Z" fill="#4A399D"/>
<path d="M18.3804 14.7314L18.4447 14.808L18.5213 14.7438L20.5333 13.0578L20.6099 12.9936L20.5457 12.9169L19.9837 12.2463L19.9195 12.1696L19.8429 12.2339L17.8308 13.9198L17.7542 13.9841L17.8185 14.0608L18.3804 14.7314Z" fill="#4A399D"/>
<path fill-rule="evenodd" clip-rule="evenodd" d="M25.469 6.88726L25.6827 7.72909L24.8443 7.95589L26.0076 12.425L26.8558 12.2014L27.0763 13.0497L33.2416 11.4323L32.8074 9.74441L33.6455 9.51828L32.6938 5.89494L31.844 6.12214L31.6251 5.27024L25.469 6.88726ZM27.6398 10.8594L27.6651 10.9561L27.8614 11.7059L31.9003 10.6483L31.7292 9.99526L28.4402 10.8566L28.3435 10.8819L28.3181 10.7852L28.0964 9.93871L28.0712 9.84196L28.1678 9.81669L32.3034 8.73372L31.9108 7.23425L31.1611 7.43058L31.0643 7.45588L31.039 7.35919L30.8426 6.60948L26.8038 7.66707L27.0001 8.4168L27.0255 8.5135L26.9287 8.53885L26.179 8.73516L26.7936 11.0822L27.543 10.8848L27.6398 10.8594Z" fill="#4A399D"/>
<path d="M27.8747 9.09228L27.9001 9.18899L27.9968 9.16363L30.5362 8.4987L30.633 8.47335L30.6076 8.3766L30.386 7.53016L30.3606 7.43341L30.2639 7.45876L27.7245 8.12368L27.6278 8.14905L27.6531 8.24584L27.8747 9.09228Z" fill="#4A399D"/>
<path fill-rule="evenodd" clip-rule="evenodd" d="M12.8087 28.2046L14.0239 28.675L15.4722 25.002L14.3227 24.5571L13.8934 24.391L13.9951 24.133L15.5739 24.7441L17.0127 21.0951L15.8626 20.65L10.9401 18.7452L9.50113 22.3938L11.0824 23.0056L10.9806 23.2636L9.39974 22.6517L8.84213 24.0658L8.80128 24.1687L7.95082 26.3244L12.8087 28.2046ZM11.6359 24.7388L10.0352 24.1192L9.42538 25.6657L13.378 27.1956L13.9874 25.6491L12.414 25.04L13.3445 22.6802L14.9184 23.2894L15.5357 21.7239L11.5829 20.1939L10.9656 21.7595L12.0629 22.184L12.5664 22.3791L11.6359 24.7388Z" fill="#4A399D"/>
<path d="M11.1548 36.2989L12.8872 36.0478L12.5106 33.449L9.91295 33.8254L10.1631 35.5515L11.0283 35.4261L11.1548 36.2989Z" fill="#4A399D"/>
<path fill-rule="evenodd" clip-rule="evenodd" d="M14.1695 31.8109L14.0979 31.3173L13.2347 31.4424L13.1116 30.5933L5.93439 31.6347L6.97374 38.8069L7.84831 38.6703L7.97486 39.5436L14.2763 38.6304L14.1497 37.7572L15.013 37.6321L14.1695 31.8109ZM12.386 32.5893L13.2409 32.4654L13.8649 36.7715L13.01 36.8953L13.1373 37.7736L8.81147 38.4005L8.68699 37.5415L7.82483 37.6665L7.07237 32.474L7.90747 32.353L8.5336 36.6787L10.2896 36.4243L10.1631 35.5515L9.29783 35.6769L8.922 33.0834L9.78851 32.9578L9.71212 32.4307L9.66397 32.0984L12.2604 31.7222L12.386 32.5893Z" fill="#4A399D"/>
<path d="M15.9737 46.7231L17.4114 45.7245L15.9134 43.5677L13.7576 45.0651L14.7525 46.4975L15.2556 47.2219L15.9737 46.7231Z" fill="#4A399D"/>
<path fill-rule="evenodd" clip-rule="evenodd" d="M16.6656 41.3611L16.3811 40.9515L15.6647 41.4491L15.1548 40.7331L11.3527 43.3713L11.8661 44.0789L11.1398 44.5802L13.6917 48.2783L14.7697 49.8166L15.4927 49.3373L15.9961 50.0621L19.808 47.4144L19.3046 46.6897L20.0211 46.1921L16.6656 41.3611ZM15.4179 42.8543L16.1273 42.3615L18.6094 45.9351L17.9 46.4279L18.4062 47.1567L16.2491 48.655L15.7524 47.9384L15.0236 48.4301L12.5395 44.844L13.2587 44.3445L12.9548 43.907L12.7633 43.6313L14.918 42.1346L15.4179 42.8543Z" fill="#4A399D"/>
<path d="M49.0705 50.368L48.0688 48.9324L45.9153 50.4352L47.4173 52.5877L48.8476 51.5897L49.5708 51.085L49.0705 50.368Z" fill="#4A399D"/>
<path fill-rule="evenodd" clip-rule="evenodd" d="M43.707 49.6877L43.298 49.9731L43.7972 50.6885L43.0822 51.1999L45.7287 54.9962L46.4352 54.4813L46.938 55.2066L50.6306 52.6466L52.1666 51.5653L51.6858 50.8433L52.4094 50.3384L49.7535 46.5322L49.0299 47.0371L48.5307 46.3218L43.707 49.6877ZM45.2029 50.9323L44.7086 50.2238L48.2768 47.734L48.7711 48.4424L49.4988 47.9346L51.0018 50.0884L50.2863 50.5867L50.7796 51.3144L47.1988 53.8063L46.6978 53.0882L46.261 53.393L45.9856 53.5852L44.4843 51.4337L45.2029 50.9323Z" fill="#4A399D"/>
<path fill-rule="evenodd" clip-rule="evenodd" d="M23.4885 48.6318L23.0702 49.3912L22.3213 48.9789L20.0819 53.0439L20.8298 53.4559L20.4088 54.2201L21.1814 54.6457L26.7695 57.7258L30.2616 51.3894L26.9787 49.5809L26.5672 50.3278L24.278 49.0667L23.4885 48.6318ZM26.788 55.5932L26.371 56.3497L24.8495 55.5111L25.2661 54.7548L24.5 54.3328L24.9195 53.5714L25.6855 53.9934L26.532 52.4569L24.9945 51.6075L24.2414 51.1927L22.9745 53.4924L24.5 54.3328L24.0835 55.0889L22.5605 54.2494L21.7834 53.8225L22.2003 53.0645L21.4416 52.6465L22.7069 50.3497L23.4681 50.7644L23.8886 50.0011L24.666 50.4219L26.9544 51.69L27.3769 50.9232L28.8986 51.7615L28.4839 52.5326L28.0612 53.2994L26.788 55.5932Z" fill="#4A399D"/>
<path fill-rule="evenodd" clip-rule="evenodd" d="M38.0967 54.1206L36.3449 54.2392L36.5207 56.8449L38.2734 56.729L38.0967 54.1206Z" fill="#4A399D"/>
<path fill-rule="evenodd" clip-rule="evenodd" d="M40.0938 55.8665L40.974 55.8069L40.9156 54.9447L41.805 54.8845L41.5503 51.1227L37.7868 51.3776L37.8459 52.2506L36.3572 52.3514L36.298 51.4784L32.5614 51.7326L32.8108 55.4757L33.668 55.4169L33.9008 58.9167L37.6405 58.665L40.2711 58.4853L40.2137 57.6374L40.0938 55.8665ZM34.7206 56.1207L34.7792 56.9943L34.8363 57.8377L39.2242 57.5404L39.047 54.9292L39.9208 54.8639L39.8637 54.0046L40.7287 53.9424L40.6109 52.1883L38.8694 52.3065L38.9283 53.1756L35.415 53.4135L35.3571 52.5521L33.618 52.6621L33.7367 54.4158L34.6112 54.3566L34.7206 56.1207Z" fill="#4A399D"/>
<path fill-rule="evenodd" clip-rule="evenodd" d="M55.3817 47.8237L59.1705 40.6044L53.5069 37.6325L51.7539 40.9726L54.8687 42.595L54.5819 43.1415L51.4722 41.5094L49.7182 44.8514L55.3817 47.8237ZM53.9403 39.0005L57.8105 41.0324L54.9659 46.4524L51.0955 44.4211L51.9104 42.8683L55.0027 44.4912L56.2217 42.1684L53.1295 40.5455L53.9403 39.0005Z" fill="#4A399D"/>
</g>
<defs>
<clipPath id="clip0_661_6624">
<rect width="56" height="56" fill="white" transform="translate(6 4)"/>
</clipPath>
</defs>
</svg>
